G04 #@! TF.GenerationSoftware,KiCad,Pcbnew,(5.1.5)-3*
G04 #@! TF.CreationDate,2021-08-02T21:39:13+02:00*
G04 #@! TF.ProjectId,AnalogDrum_Backboard,416e616c-6f67-4447-9275-6d5f4261636b,rev?*
G04 #@! TF.SameCoordinates,Original*
G04 #@! TF.FileFunction,Legend,Bot*
G04 #@! TF.FilePolarity,Positive*
%FSLAX46Y46*%
G04 Gerber Fmt 4.6, Leading zero omitted, Abs format (unit mm)*
G04 Created by KiCad (PCBNEW (5.1.5)-3) date 2021-08-02 21:39:13*
%MOMM*%
%LPD*%
G04 APERTURE LIST*
%ADD10C,0.300000*%
%ADD11C,5.000000*%
G04 APERTURE END LIST*
D10*
X239192142Y-109174285D02*
X239192142Y-109888571D01*
X239692142Y-108388571D02*
X239192142Y-109174285D01*
X238692142Y-108388571D01*
X237977857Y-109888571D02*
X238120714Y-109817142D01*
X238192142Y-109745714D01*
X238263571Y-109602857D01*
X238263571Y-109174285D01*
X238192142Y-109031428D01*
X238120714Y-108960000D01*
X237977857Y-108888571D01*
X237763571Y-108888571D01*
X237620714Y-108960000D01*
X237549285Y-109031428D01*
X237477857Y-109174285D01*
X237477857Y-109602857D01*
X237549285Y-109745714D01*
X237620714Y-109817142D01*
X237763571Y-109888571D01*
X237977857Y-109888571D01*
X236192142Y-108888571D02*
X236192142Y-109888571D01*
X236835000Y-108888571D02*
X236835000Y-109674285D01*
X236763571Y-109817142D01*
X236620714Y-109888571D01*
X236406428Y-109888571D01*
X236263571Y-109817142D01*
X236192142Y-109745714D01*
X234335000Y-108888571D02*
X234335000Y-110388571D01*
X234335000Y-108960000D02*
X234192142Y-108888571D01*
X233906428Y-108888571D01*
X233763571Y-108960000D01*
X233692142Y-109031428D01*
X233620714Y-109174285D01*
X233620714Y-109602857D01*
X233692142Y-109745714D01*
X233763571Y-109817142D01*
X233906428Y-109888571D01*
X234192142Y-109888571D01*
X234335000Y-109817142D01*
X232977857Y-109888571D02*
X232977857Y-108888571D01*
X232977857Y-109174285D02*
X232906428Y-109031428D01*
X232835000Y-108960000D01*
X232692142Y-108888571D01*
X232549285Y-108888571D01*
X231835000Y-109888571D02*
X231977857Y-109817142D01*
X232049285Y-109745714D01*
X232120714Y-109602857D01*
X232120714Y-109174285D01*
X232049285Y-109031428D01*
X231977857Y-108960000D01*
X231835000Y-108888571D01*
X231620714Y-108888571D01*
X231477857Y-108960000D01*
X231406428Y-109031428D01*
X231335000Y-109174285D01*
X231335000Y-109602857D01*
X231406428Y-109745714D01*
X231477857Y-109817142D01*
X231620714Y-109888571D01*
X231835000Y-109888571D01*
X230692142Y-109888571D02*
X230692142Y-108388571D01*
X230692142Y-108960000D02*
X230549285Y-108888571D01*
X230263571Y-108888571D01*
X230120714Y-108960000D01*
X230049285Y-109031428D01*
X229977857Y-109174285D01*
X229977857Y-109602857D01*
X230049285Y-109745714D01*
X230120714Y-109817142D01*
X230263571Y-109888571D01*
X230549285Y-109888571D01*
X230692142Y-109817142D01*
X228692142Y-109888571D02*
X228692142Y-109102857D01*
X228763571Y-108960000D01*
X228906428Y-108888571D01*
X229192142Y-108888571D01*
X229335000Y-108960000D01*
X228692142Y-109817142D02*
X228835000Y-109888571D01*
X229192142Y-109888571D01*
X229335000Y-109817142D01*
X229406428Y-109674285D01*
X229406428Y-109531428D01*
X229335000Y-109388571D01*
X229192142Y-109317142D01*
X228835000Y-109317142D01*
X228692142Y-109245714D01*
X227977857Y-109888571D02*
X227977857Y-108388571D01*
X227977857Y-108960000D02*
X227835000Y-108888571D01*
X227549285Y-108888571D01*
X227406428Y-108960000D01*
X227335000Y-109031428D01*
X227263571Y-109174285D01*
X227263571Y-109602857D01*
X227335000Y-109745714D01*
X227406428Y-109817142D01*
X227549285Y-109888571D01*
X227835000Y-109888571D01*
X227977857Y-109817142D01*
X226406428Y-109888571D02*
X226549285Y-109817142D01*
X226620714Y-109674285D01*
X226620714Y-108388571D01*
X225977857Y-108888571D02*
X225620714Y-109888571D01*
X225263571Y-108888571D02*
X225620714Y-109888571D01*
X225763571Y-110245714D01*
X225835000Y-110317142D01*
X225977857Y-110388571D01*
X223692142Y-108888571D02*
X223406428Y-109888571D01*
X223120714Y-109174285D01*
X222835000Y-109888571D01*
X222549285Y-108888571D01*
X221406428Y-109817142D02*
X221549285Y-109888571D01*
X221835000Y-109888571D01*
X221977857Y-109817142D01*
X222049285Y-109674285D01*
X222049285Y-109102857D01*
X221977857Y-108960000D01*
X221835000Y-108888571D01*
X221549285Y-108888571D01*
X221406428Y-108960000D01*
X221335000Y-109102857D01*
X221335000Y-109245714D01*
X222049285Y-109388571D01*
X220692142Y-108888571D02*
X220692142Y-109888571D01*
X220692142Y-109031428D02*
X220620714Y-108960000D01*
X220477857Y-108888571D01*
X220263571Y-108888571D01*
X220120714Y-108960000D01*
X220049285Y-109102857D01*
X220049285Y-109888571D01*
X219549285Y-108888571D02*
X218977857Y-108888571D01*
X219335000Y-108388571D02*
X219335000Y-109674285D01*
X219263571Y-109817142D01*
X219120714Y-109888571D01*
X218977857Y-109888571D01*
X217549285Y-108888571D02*
X216977857Y-108888571D01*
X217335000Y-108388571D02*
X217335000Y-109674285D01*
X217263571Y-109817142D01*
X217120714Y-109888571D01*
X216977857Y-109888571D01*
X216263571Y-109888571D02*
X216406428Y-109817142D01*
X216477857Y-109745714D01*
X216549285Y-109602857D01*
X216549285Y-109174285D01*
X216477857Y-109031428D01*
X216406428Y-108960000D01*
X216263571Y-108888571D01*
X216049285Y-108888571D01*
X215906428Y-108960000D01*
X215835000Y-109031428D01*
X215763571Y-109174285D01*
X215763571Y-109602857D01*
X215835000Y-109745714D01*
X215906428Y-109817142D01*
X216049285Y-109888571D01*
X216263571Y-109888571D01*
X214906428Y-109888571D02*
X215049285Y-109817142D01*
X215120714Y-109745714D01*
X215192142Y-109602857D01*
X215192142Y-109174285D01*
X215120714Y-109031428D01*
X215049285Y-108960000D01*
X214906428Y-108888571D01*
X214692142Y-108888571D01*
X214549285Y-108960000D01*
X214477857Y-109031428D01*
X214406428Y-109174285D01*
X214406428Y-109602857D01*
X214477857Y-109745714D01*
X214549285Y-109817142D01*
X214692142Y-109888571D01*
X214906428Y-109888571D01*
X212835000Y-108888571D02*
X212263571Y-108888571D01*
X212620714Y-109888571D02*
X212620714Y-108602857D01*
X212549285Y-108460000D01*
X212406428Y-108388571D01*
X212263571Y-108388571D01*
X211120714Y-109888571D02*
X211120714Y-109102857D01*
X211192142Y-108960000D01*
X211335000Y-108888571D01*
X211620714Y-108888571D01*
X211763571Y-108960000D01*
X211120714Y-109817142D02*
X211263571Y-109888571D01*
X211620714Y-109888571D01*
X211763571Y-109817142D01*
X211835000Y-109674285D01*
X211835000Y-109531428D01*
X211763571Y-109388571D01*
X211620714Y-109317142D01*
X211263571Y-109317142D01*
X211120714Y-109245714D01*
X210406428Y-109888571D02*
X210406428Y-108888571D01*
X210406428Y-109174285D02*
X210335000Y-109031428D01*
X210263571Y-108960000D01*
X210120714Y-108888571D01*
X209977857Y-108888571D01*
X208120714Y-109888571D02*
X208263571Y-109817142D01*
X208335000Y-109745714D01*
X208406428Y-109602857D01*
X208406428Y-109174285D01*
X208335000Y-109031428D01*
X208263571Y-108960000D01*
X208120714Y-108888571D01*
X207906428Y-108888571D01*
X207763571Y-108960000D01*
X207692142Y-109031428D01*
X207620714Y-109174285D01*
X207620714Y-109602857D01*
X207692142Y-109745714D01*
X207763571Y-109817142D01*
X207906428Y-109888571D01*
X208120714Y-109888571D01*
X206977857Y-108888571D02*
X206977857Y-109888571D01*
X206977857Y-109031428D02*
X206906428Y-108960000D01*
X206763571Y-108888571D01*
X206549285Y-108888571D01*
X206406428Y-108960000D01*
X206335000Y-109102857D01*
X206335000Y-109888571D01*
X204692142Y-108888571D02*
X204120714Y-108888571D01*
X204477857Y-108388571D02*
X204477857Y-109674285D01*
X204406428Y-109817142D01*
X204263571Y-109888571D01*
X204120714Y-109888571D01*
X203620714Y-109888571D02*
X203620714Y-108388571D01*
X202977857Y-109888571D02*
X202977857Y-109102857D01*
X203049285Y-108960000D01*
X203192142Y-108888571D01*
X203406428Y-108888571D01*
X203549285Y-108960000D01*
X203620714Y-109031428D01*
X201692142Y-109817142D02*
X201835000Y-109888571D01*
X202120714Y-109888571D01*
X202263571Y-109817142D01*
X202335000Y-109674285D01*
X202335000Y-109102857D01*
X202263571Y-108960000D01*
X202120714Y-108888571D01*
X201835000Y-108888571D01*
X201692142Y-108960000D01*
X201620714Y-109102857D01*
X201620714Y-109245714D01*
X202335000Y-109388571D01*
X199835000Y-108888571D02*
X199835000Y-110388571D01*
X199835000Y-108960000D02*
X199692142Y-108888571D01*
X199406428Y-108888571D01*
X199263571Y-108960000D01*
X199192142Y-109031428D01*
X199120714Y-109174285D01*
X199120714Y-109602857D01*
X199192142Y-109745714D01*
X199263571Y-109817142D01*
X199406428Y-109888571D01*
X199692142Y-109888571D01*
X199835000Y-109817142D01*
X198477857Y-109888571D02*
X198477857Y-108888571D01*
X198477857Y-109174285D02*
X198406428Y-109031428D01*
X198335000Y-108960000D01*
X198192142Y-108888571D01*
X198049285Y-108888571D01*
X197335000Y-109888571D02*
X197477857Y-109817142D01*
X197549285Y-109745714D01*
X197620714Y-109602857D01*
X197620714Y-109174285D01*
X197549285Y-109031428D01*
X197477857Y-108960000D01*
X197335000Y-108888571D01*
X197120714Y-108888571D01*
X196977857Y-108960000D01*
X196906428Y-109031428D01*
X196835000Y-109174285D01*
X196835000Y-109602857D01*
X196906428Y-109745714D01*
X196977857Y-109817142D01*
X197120714Y-109888571D01*
X197335000Y-109888571D01*
X196192142Y-108888571D02*
X196192142Y-110174285D01*
X196263571Y-110317142D01*
X196406428Y-110388571D01*
X196477857Y-110388571D01*
X196192142Y-108388571D02*
X196263571Y-108460000D01*
X196192142Y-108531428D01*
X196120714Y-108460000D01*
X196192142Y-108388571D01*
X196192142Y-108531428D01*
X194906428Y-109817142D02*
X195049285Y-109888571D01*
X195335000Y-109888571D01*
X195477857Y-109817142D01*
X195549285Y-109674285D01*
X195549285Y-109102857D01*
X195477857Y-108960000D01*
X195335000Y-108888571D01*
X195049285Y-108888571D01*
X194906428Y-108960000D01*
X194835000Y-109102857D01*
X194835000Y-109245714D01*
X195549285Y-109388571D01*
X193549285Y-109817142D02*
X193692142Y-109888571D01*
X193977857Y-109888571D01*
X194120714Y-109817142D01*
X194192142Y-109745714D01*
X194263571Y-109602857D01*
X194263571Y-109174285D01*
X194192142Y-109031428D01*
X194120714Y-108960000D01*
X193977857Y-108888571D01*
X193692142Y-108888571D01*
X193549285Y-108960000D01*
X193120714Y-108888571D02*
X192549285Y-108888571D01*
X192906428Y-108388571D02*
X192906428Y-109674285D01*
X192835000Y-109817142D01*
X192692142Y-109888571D01*
X192549285Y-109888571D01*
X191120714Y-108888571D02*
X190549285Y-108888571D01*
X190906428Y-108388571D02*
X190906428Y-109674285D01*
X190835000Y-109817142D01*
X190692142Y-109888571D01*
X190549285Y-109888571D01*
X189835000Y-109888571D02*
X189977857Y-109817142D01*
X190049285Y-109745714D01*
X190120714Y-109602857D01*
X190120714Y-109174285D01*
X190049285Y-109031428D01*
X189977857Y-108960000D01*
X189835000Y-108888571D01*
X189620714Y-108888571D01*
X189477857Y-108960000D01*
X189406428Y-109031428D01*
X189335000Y-109174285D01*
X189335000Y-109602857D01*
X189406428Y-109745714D01*
X189477857Y-109817142D01*
X189620714Y-109888571D01*
X189835000Y-109888571D01*
X187549285Y-109888571D02*
X187549285Y-108388571D01*
X187549285Y-108960000D02*
X187406428Y-108888571D01*
X187120714Y-108888571D01*
X186977857Y-108960000D01*
X186906428Y-109031428D01*
X186835000Y-109174285D01*
X186835000Y-109602857D01*
X186906428Y-109745714D01*
X186977857Y-109817142D01*
X187120714Y-109888571D01*
X187406428Y-109888571D01*
X187549285Y-109817142D01*
X185549285Y-108888571D02*
X185549285Y-109888571D01*
X186192142Y-108888571D02*
X186192142Y-109674285D01*
X186120714Y-109817142D01*
X185977857Y-109888571D01*
X185763571Y-109888571D01*
X185620714Y-109817142D01*
X185549285Y-109745714D01*
X184835000Y-109888571D02*
X184835000Y-108888571D01*
X184835000Y-108388571D02*
X184906428Y-108460000D01*
X184835000Y-108531428D01*
X184763571Y-108460000D01*
X184835000Y-108388571D01*
X184835000Y-108531428D01*
X183906428Y-109888571D02*
X184049285Y-109817142D01*
X184120714Y-109674285D01*
X184120714Y-108388571D01*
X182692142Y-109888571D02*
X182692142Y-108388571D01*
X182692142Y-109817142D02*
X182835000Y-109888571D01*
X183120714Y-109888571D01*
X183263571Y-109817142D01*
X183335000Y-109745714D01*
X183406428Y-109602857D01*
X183406428Y-109174285D01*
X183335000Y-109031428D01*
X183263571Y-108960000D01*
X183120714Y-108888571D01*
X182835000Y-108888571D01*
X182692142Y-108960000D01*
X181049285Y-108888571D02*
X180477857Y-108888571D01*
X180835000Y-108388571D02*
X180835000Y-109674285D01*
X180763571Y-109817142D01*
X180620714Y-109888571D01*
X180477857Y-109888571D01*
X179977857Y-109888571D02*
X179977857Y-108388571D01*
X179335000Y-109888571D02*
X179335000Y-109102857D01*
X179406428Y-108960000D01*
X179549285Y-108888571D01*
X179763571Y-108888571D01*
X179906428Y-108960000D01*
X179977857Y-109031428D01*
X178620714Y-109888571D02*
X178620714Y-108888571D01*
X178620714Y-108388571D02*
X178692142Y-108460000D01*
X178620714Y-108531428D01*
X178549285Y-108460000D01*
X178620714Y-108388571D01*
X178620714Y-108531428D01*
X177977857Y-109817142D02*
X177835000Y-109888571D01*
X177549285Y-109888571D01*
X177406428Y-109817142D01*
X177335000Y-109674285D01*
X177335000Y-109602857D01*
X177406428Y-109460000D01*
X177549285Y-109388571D01*
X177763571Y-109388571D01*
X177906428Y-109317142D01*
X177977857Y-109174285D01*
X177977857Y-109102857D01*
X177906428Y-108960000D01*
X177763571Y-108888571D01*
X177549285Y-108888571D01*
X177406428Y-108960000D01*
X176692142Y-109745714D02*
X176620714Y-109817142D01*
X176692142Y-109888571D01*
X176763571Y-109817142D01*
X176692142Y-109745714D01*
X176692142Y-109888571D01*
X239477857Y-112438571D02*
X239477857Y-110938571D01*
X239477857Y-111652857D02*
X238620714Y-111652857D01*
X238620714Y-112438571D02*
X238620714Y-110938571D01*
X237692142Y-112438571D02*
X237835000Y-112367142D01*
X237906428Y-112295714D01*
X237977857Y-112152857D01*
X237977857Y-111724285D01*
X237906428Y-111581428D01*
X237835000Y-111510000D01*
X237692142Y-111438571D01*
X237477857Y-111438571D01*
X237335000Y-111510000D01*
X237263571Y-111581428D01*
X237192142Y-111724285D01*
X237192142Y-112152857D01*
X237263571Y-112295714D01*
X237335000Y-112367142D01*
X237477857Y-112438571D01*
X237692142Y-112438571D01*
X236549285Y-111438571D02*
X236549285Y-112938571D01*
X236549285Y-111510000D02*
X236406428Y-111438571D01*
X236120714Y-111438571D01*
X235977857Y-111510000D01*
X235906428Y-111581428D01*
X235835000Y-111724285D01*
X235835000Y-112152857D01*
X235906428Y-112295714D01*
X235977857Y-112367142D01*
X236120714Y-112438571D01*
X236406428Y-112438571D01*
X236549285Y-112367142D01*
X234620714Y-112367142D02*
X234763571Y-112438571D01*
X235049285Y-112438571D01*
X235192142Y-112367142D01*
X235263571Y-112224285D01*
X235263571Y-111652857D01*
X235192142Y-111510000D01*
X235049285Y-111438571D01*
X234763571Y-111438571D01*
X234620714Y-111510000D01*
X234549285Y-111652857D01*
X234549285Y-111795714D01*
X235263571Y-111938571D01*
X232906428Y-111438571D02*
X232549285Y-112438571D01*
X232192142Y-111438571D02*
X232549285Y-112438571D01*
X232692142Y-112795714D01*
X232763571Y-112867142D01*
X232906428Y-112938571D01*
X231406428Y-112438571D02*
X231549285Y-112367142D01*
X231620714Y-112295714D01*
X231692142Y-112152857D01*
X231692142Y-111724285D01*
X231620714Y-111581428D01*
X231549285Y-111510000D01*
X231406428Y-111438571D01*
X231192142Y-111438571D01*
X231049285Y-111510000D01*
X230977857Y-111581428D01*
X230906428Y-111724285D01*
X230906428Y-112152857D01*
X230977857Y-112295714D01*
X231049285Y-112367142D01*
X231192142Y-112438571D01*
X231406428Y-112438571D01*
X229620714Y-111438571D02*
X229620714Y-112438571D01*
X230263571Y-111438571D02*
X230263571Y-112224285D01*
X230192142Y-112367142D01*
X230049285Y-112438571D01*
X229835000Y-112438571D01*
X229692142Y-112367142D01*
X229620714Y-112295714D01*
X227763571Y-112438571D02*
X227763571Y-110938571D01*
X227120714Y-112438571D02*
X227120714Y-111652857D01*
X227192142Y-111510000D01*
X227335000Y-111438571D01*
X227549285Y-111438571D01*
X227692142Y-111510000D01*
X227763571Y-111581428D01*
X225763571Y-112438571D02*
X225763571Y-111652857D01*
X225835000Y-111510000D01*
X225977857Y-111438571D01*
X226263571Y-111438571D01*
X226406428Y-111510000D01*
X225763571Y-112367142D02*
X225906428Y-112438571D01*
X226263571Y-112438571D01*
X226406428Y-112367142D01*
X226477857Y-112224285D01*
X226477857Y-112081428D01*
X226406428Y-111938571D01*
X226263571Y-111867142D01*
X225906428Y-111867142D01*
X225763571Y-111795714D01*
X224406428Y-112438571D02*
X224406428Y-110938571D01*
X224406428Y-112367142D02*
X224549285Y-112438571D01*
X224835000Y-112438571D01*
X224977857Y-112367142D01*
X225049285Y-112295714D01*
X225120714Y-112152857D01*
X225120714Y-111724285D01*
X225049285Y-111581428D01*
X224977857Y-111510000D01*
X224835000Y-111438571D01*
X224549285Y-111438571D01*
X224406428Y-111510000D01*
X221906428Y-112438571D02*
X221906428Y-111652857D01*
X221977857Y-111510000D01*
X222120714Y-111438571D01*
X222406428Y-111438571D01*
X222549285Y-111510000D01*
X221906428Y-112367142D02*
X222049285Y-112438571D01*
X222406428Y-112438571D01*
X222549285Y-112367142D01*
X222620714Y-112224285D01*
X222620714Y-112081428D01*
X222549285Y-111938571D01*
X222406428Y-111867142D01*
X222049285Y-111867142D01*
X221906428Y-111795714D01*
X219406428Y-111438571D02*
X219406428Y-112652857D01*
X219477857Y-112795714D01*
X219549285Y-112867142D01*
X219692142Y-112938571D01*
X219906428Y-112938571D01*
X220049285Y-112867142D01*
X219406428Y-112367142D02*
X219549285Y-112438571D01*
X219835000Y-112438571D01*
X219977857Y-112367142D01*
X220049285Y-112295714D01*
X220120714Y-112152857D01*
X220120714Y-111724285D01*
X220049285Y-111581428D01*
X219977857Y-111510000D01*
X219835000Y-111438571D01*
X219549285Y-111438571D01*
X219406428Y-111510000D01*
X218692142Y-112438571D02*
X218692142Y-111438571D01*
X218692142Y-111724285D02*
X218620714Y-111581428D01*
X218549285Y-111510000D01*
X218406428Y-111438571D01*
X218263571Y-111438571D01*
X217192142Y-112367142D02*
X217335000Y-112438571D01*
X217620714Y-112438571D01*
X217763571Y-112367142D01*
X217835000Y-112224285D01*
X217835000Y-111652857D01*
X217763571Y-111510000D01*
X217620714Y-111438571D01*
X217335000Y-111438571D01*
X217192142Y-111510000D01*
X217120714Y-111652857D01*
X217120714Y-111795714D01*
X217835000Y-111938571D01*
X215835000Y-112438571D02*
X215835000Y-111652857D01*
X215906428Y-111510000D01*
X216049285Y-111438571D01*
X216335000Y-111438571D01*
X216477857Y-111510000D01*
X215835000Y-112367142D02*
X215977857Y-112438571D01*
X216335000Y-112438571D01*
X216477857Y-112367142D01*
X216549285Y-112224285D01*
X216549285Y-112081428D01*
X216477857Y-111938571D01*
X216335000Y-111867142D01*
X215977857Y-111867142D01*
X215835000Y-111795714D01*
X215335000Y-111438571D02*
X214763571Y-111438571D01*
X215120714Y-110938571D02*
X215120714Y-112224285D01*
X215049285Y-112367142D01*
X214906428Y-112438571D01*
X214763571Y-112438571D01*
X213335000Y-111438571D02*
X212763571Y-111438571D01*
X213120714Y-110938571D02*
X213120714Y-112224285D01*
X213049285Y-112367142D01*
X212906428Y-112438571D01*
X212763571Y-112438571D01*
X212263571Y-112438571D02*
X212263571Y-111438571D01*
X212263571Y-110938571D02*
X212335000Y-111010000D01*
X212263571Y-111081428D01*
X212192142Y-111010000D01*
X212263571Y-110938571D01*
X212263571Y-111081428D01*
X211549285Y-112438571D02*
X211549285Y-111438571D01*
X211549285Y-111581428D02*
X211477857Y-111510000D01*
X211335000Y-111438571D01*
X211120714Y-111438571D01*
X210977857Y-111510000D01*
X210906428Y-111652857D01*
X210906428Y-112438571D01*
X210906428Y-111652857D02*
X210835000Y-111510000D01*
X210692142Y-111438571D01*
X210477857Y-111438571D01*
X210335000Y-111510000D01*
X210263571Y-111652857D01*
X210263571Y-112438571D01*
X208977857Y-112367142D02*
X209120714Y-112438571D01*
X209406428Y-112438571D01*
X209549285Y-112367142D01*
X209620714Y-112224285D01*
X209620714Y-111652857D01*
X209549285Y-111510000D01*
X209406428Y-111438571D01*
X209120714Y-111438571D01*
X208977857Y-111510000D01*
X208906428Y-111652857D01*
X208906428Y-111795714D01*
X209620714Y-111938571D01*
X208263571Y-112295714D02*
X208192142Y-112367142D01*
X208263571Y-112438571D01*
X208335000Y-112367142D01*
X208263571Y-112295714D01*
X208263571Y-112438571D01*
X239692142Y-113988571D02*
X239120714Y-113988571D01*
X239477857Y-113488571D02*
X239477857Y-114774285D01*
X239406428Y-114917142D01*
X239263571Y-114988571D01*
X239120714Y-114988571D01*
X238763571Y-113988571D02*
X238477857Y-114988571D01*
X238192142Y-114274285D01*
X237906428Y-114988571D01*
X237620714Y-113988571D01*
X237049285Y-114988571D02*
X237049285Y-113988571D01*
X237049285Y-113488571D02*
X237120714Y-113560000D01*
X237049285Y-113631428D01*
X236977857Y-113560000D01*
X237049285Y-113488571D01*
X237049285Y-113631428D01*
X236549285Y-113988571D02*
X235977857Y-113988571D01*
X236335000Y-113488571D02*
X236335000Y-114774285D01*
X236263571Y-114917142D01*
X236120714Y-114988571D01*
X235977857Y-114988571D01*
X234835000Y-114917142D02*
X234977857Y-114988571D01*
X235263571Y-114988571D01*
X235406428Y-114917142D01*
X235477857Y-114845714D01*
X235549285Y-114702857D01*
X235549285Y-114274285D01*
X235477857Y-114131428D01*
X235406428Y-114060000D01*
X235263571Y-113988571D01*
X234977857Y-113988571D01*
X234835000Y-114060000D01*
X234192142Y-114988571D02*
X234192142Y-113488571D01*
X233549285Y-114988571D02*
X233549285Y-114202857D01*
X233620714Y-114060000D01*
X233763571Y-113988571D01*
X233977857Y-113988571D01*
X234120714Y-114060000D01*
X234192142Y-114131428D01*
X232835000Y-114845714D02*
X232763571Y-114917142D01*
X232835000Y-114988571D01*
X232906428Y-114917142D01*
X232835000Y-114845714D01*
X232835000Y-114988571D01*
X232335000Y-113988571D02*
X231763571Y-113988571D01*
X232120714Y-113488571D02*
X232120714Y-114774285D01*
X232049285Y-114917142D01*
X231906428Y-114988571D01*
X231763571Y-114988571D01*
X231406428Y-113988571D02*
X231049285Y-114988571D01*
X230692142Y-113988571D01*
X229049285Y-113417142D02*
X230335000Y-115345714D01*
X228335000Y-114988571D02*
X228477857Y-114917142D01*
X228549285Y-114774285D01*
X228549285Y-113488571D01*
X227120714Y-114988571D02*
X227120714Y-114202857D01*
X227192142Y-114060000D01*
X227335000Y-113988571D01*
X227620714Y-113988571D01*
X227763571Y-114060000D01*
X227120714Y-114917142D02*
X227263571Y-114988571D01*
X227620714Y-114988571D01*
X227763571Y-114917142D01*
X227835000Y-114774285D01*
X227835000Y-114631428D01*
X227763571Y-114488571D01*
X227620714Y-114417142D01*
X227263571Y-114417142D01*
X227120714Y-114345714D01*
X226549285Y-113988571D02*
X225763571Y-113988571D01*
X226549285Y-114988571D01*
X225763571Y-114988571D01*
X224549285Y-114988571D02*
X224549285Y-114202857D01*
X224620714Y-114060000D01*
X224763571Y-113988571D01*
X225049285Y-113988571D01*
X225192142Y-114060000D01*
X224549285Y-114917142D02*
X224692142Y-114988571D01*
X225049285Y-114988571D01*
X225192142Y-114917142D01*
X225263571Y-114774285D01*
X225263571Y-114631428D01*
X225192142Y-114488571D01*
X225049285Y-114417142D01*
X224692142Y-114417142D01*
X224549285Y-114345714D01*
X223835000Y-114988571D02*
X223835000Y-113988571D01*
X223835000Y-114274285D02*
X223763571Y-114131428D01*
X223692142Y-114060000D01*
X223549285Y-113988571D01*
X223406428Y-113988571D01*
X222335000Y-114917142D02*
X222477857Y-114988571D01*
X222763571Y-114988571D01*
X222906428Y-114917142D01*
X222977857Y-114774285D01*
X222977857Y-114202857D01*
X222906428Y-114060000D01*
X222763571Y-113988571D01*
X222477857Y-113988571D01*
X222335000Y-114060000D01*
X222263571Y-114202857D01*
X222263571Y-114345714D01*
X222977857Y-114488571D01*
X221406428Y-114988571D02*
X221549285Y-114917142D01*
X221620714Y-114774285D01*
X221620714Y-113488571D01*
X220835000Y-114988571D02*
X220835000Y-113988571D01*
X220835000Y-113488571D02*
X220906428Y-113560000D01*
X220835000Y-113631428D01*
X220763571Y-113560000D01*
X220835000Y-113488571D01*
X220835000Y-113631428D01*
X220263571Y-113988571D02*
X219906428Y-114988571D01*
X219549285Y-113988571D01*
X218406428Y-114917142D02*
X218549285Y-114988571D01*
X218835000Y-114988571D01*
X218977857Y-114917142D01*
X219049285Y-114774285D01*
X219049285Y-114202857D01*
X218977857Y-114060000D01*
X218835000Y-113988571D01*
X218549285Y-113988571D01*
X218406428Y-114060000D01*
X218335000Y-114202857D01*
X218335000Y-114345714D01*
X219049285Y-114488571D01*
D11*
X238033211Y-68299382D02*
X234445561Y-70486639D01*
X233404314Y-72316023D01*
X232595023Y-75795853D01*
X233290888Y-80747193D01*
X235028000Y-83869150D01*
X236533157Y-85340660D01*
X239311516Y-86633233D01*
X249497130Y-85201738D01*
X244626072Y-50542356D01*
X235713659Y-51794914D01*
X233399211Y-53803234D01*
X232357964Y-55632618D01*
X231548673Y-59112448D01*
X232012583Y-62413342D01*
X233749695Y-65535299D01*
X235254852Y-67006809D01*
X238033211Y-68299382D01*
X246945624Y-67046824D01*
X222641363Y-78877795D02*
X209909345Y-80667163D01*
X226579498Y-88422602D02*
X212796027Y-55015777D01*
X208754673Y-90927717D01*
X184099928Y-91026624D02*
X185605085Y-92498134D01*
X189656646Y-93611770D01*
X192203049Y-93253896D01*
X195790700Y-91066639D01*
X197873193Y-87407872D01*
X198682484Y-83928041D01*
X199027865Y-77147318D01*
X198332000Y-72195977D01*
X196130977Y-65773127D01*
X194393865Y-62651170D01*
X191383551Y-59708150D01*
X187331991Y-58594514D01*
X184785587Y-58952388D01*
X181197937Y-61139645D01*
X180156690Y-62969029D01*
X173105022Y-95937949D02*
X168233964Y-61278567D01*
X157826601Y-98085191D02*
X166501955Y-76669398D01*
X152955542Y-63425809D02*
X171017426Y-81083928D01*
X134903865Y-82793266D02*
X131316215Y-84980523D01*
X130274968Y-86809907D01*
X129465677Y-90289738D01*
X130161542Y-95241078D01*
X131898654Y-98363035D01*
X133403811Y-99834545D01*
X136182170Y-101127118D01*
X146367784Y-99695623D01*
X141496726Y-65036240D01*
X132584313Y-66288798D01*
X130269865Y-68297119D01*
X129228618Y-70126502D01*
X128419327Y-73606333D01*
X128883237Y-76907226D01*
X130620349Y-80029183D01*
X132125506Y-81500693D01*
X134903865Y-82793266D01*
X143816278Y-81540708D01*
X109666681Y-69509662D02*
X104573874Y-70225409D01*
X102259425Y-72233729D01*
X100176932Y-75892497D01*
X99831551Y-82673221D01*
X101455237Y-94226348D01*
X103656259Y-100649198D01*
X106666573Y-103592218D01*
X109444932Y-104884791D01*
X114537739Y-104169044D01*
X116852188Y-102160723D01*
X118934681Y-98501956D01*
X119280062Y-91721232D01*
X117656376Y-80168105D01*
X115455354Y-73745255D01*
X112445040Y-70802235D01*
X109666681Y-69509662D01*
X91501578Y-97308290D02*
X78769560Y-99097658D01*
X95439712Y-106853097D02*
X81656241Y-73446272D01*
X77614887Y-109358212D01*
X53424053Y-112758012D02*
X60016914Y-95000987D01*
X68702474Y-110610770D02*
X63831416Y-75951388D01*
X53645801Y-77382883D01*
X51331353Y-79391203D01*
X50290106Y-81220587D01*
X49480815Y-84700417D01*
X50176680Y-89651758D01*
X51913793Y-92773714D01*
X53418950Y-94245224D01*
X56197308Y-95537797D01*
X66382923Y-94106303D01*
X41965237Y-114368444D02*
X37094178Y-79709062D01*
X30728169Y-80603746D01*
X27140519Y-82791003D01*
X25058026Y-86449770D01*
X24248734Y-89929601D01*
X23903353Y-96710325D01*
X24599218Y-101661665D01*
X26800241Y-108084515D01*
X28537353Y-111206472D01*
X31547667Y-114149492D01*
X35599228Y-115263128D01*
X41965237Y-114368444D01*
M02*
