M48
; DRILL file {KiCad (5.1.5)-3} date 02/08/2021 21:39:09
; FORMAT={-:-/ absolute / inch / decimal}
; #@! TF.CreationDate,2021-08-02T21:39:09+02:00
; #@! TF.GenerationSoftware,Kicad,Pcbnew,(5.1.5)-3
FMAT,2
INCH
T1C0.0157
T2C0.0197
T3C0.0315
T4C0.0374
T5C0.0394
T6C0.0433
T7C0.0598
T8C0.1260
T9C0.1378
%
G90
G05
T1
X0.65Y-1.85
X0.65Y-2.85
X0.65Y-3.85
X0.65Y-4.65
X1.65Y-1.85
X1.65Y-4.65
X2.65Y-1.85
X2.65Y-4.65
X3.65Y-1.85
X3.65Y-4.65
X4.65Y-1.85
X4.65Y-4.65
X5.65Y-1.85
X5.65Y-4.65
X6.65Y-1.85
X6.65Y-4.65
X7.65Y-1.85
X7.65Y-4.65
X8.65Y-1.85
X8.65Y-4.65
X9.65Y-1.85
X9.65Y-4.65
X10.05Y-1.85
X10.05Y-2.85
X10.05Y-3.85
X10.05Y-4.65
T2
X5.9Y-2.5469
X5.9Y-3.9469
X6.0063Y-2.7437
X6.0063Y-4.1437
T3
X9.675Y-3.625
X9.675Y-3.925
X8.025Y-3.2016
X8.025Y-3.3
X8.125Y-3.6
X8.125Y-3.9
X9.1Y-3.225
X9.1Y-3.525
X9.2Y-3.225
X9.2Y-3.525
X9.3Y-3.225
X9.3Y-3.525
X9.4Y-3.225
X9.4Y-3.525
X7.3Y-3.6516
X7.3Y-3.75
X7.3Y-2.9766
X7.3Y-3.075
X9.1Y-3.625
X9.1Y-3.925
X6.975Y-3.6
X6.975Y-3.9
X6.875Y-3.2
X6.875Y-3.5
X6.975Y-3.2
X6.975Y-3.5
X7.075Y-3.2
X7.075Y-3.5
X7.175Y-3.2
X7.175Y-3.5
X7.075Y-3.6
X7.075Y-3.9
X8.525Y-3.4016
X8.525Y-3.5
X8.8516Y-3.8
X8.95Y-3.8
X9.45Y-2.825
X9.45Y-3.125
X6.775Y-3.2016
X6.775Y-3.3
X9.575Y-3.625
X9.575Y-3.925
X7.475Y-3.075
X7.775Y-3.075
X6.875Y-2.8
X6.875Y-3.1
X3.5Y-3.0016
X3.5Y-3.1
X7.275Y-3.4016
X7.275Y-3.5
X3.5Y-3.3
X3.5Y-3.3984
X8.125Y-2.8
X8.125Y-3.1
X7.475Y-3.625
X7.775Y-3.625
X7.95Y-3.6516
X7.95Y-3.75
X7.95Y-2.95
X7.95Y-3.0484
X9.575Y-2.825
X9.575Y-3.125
X9.275Y-3.675
X9.275Y-3.775
X9.275Y-3.875
X9.45Y-3.625
X9.45Y-3.925
X9.1Y-2.825
X9.1Y-3.125
X6.875Y-3.6
X6.875Y-3.9
X7.475Y-3.75
X7.775Y-3.75
X7.875Y-3.4016
X7.875Y-3.5
X7.075Y-2.8
X7.075Y-3.1
X8.475Y-2.8
X8.475Y-3.1
X7.475Y-3.2
X7.475Y-3.5
X7.575Y-3.2
X7.575Y-3.5
X7.675Y-3.2
X7.675Y-3.5
X7.775Y-3.2
X7.775Y-3.5
X8.3Y-2.85
X8.3Y-2.95
X8.3Y-3.05
X9.0Y-3.2266
X9.0Y-3.325
X8.475Y-3.6
X8.475Y-3.9
X7.375Y-3.2016
X7.375Y-3.3
X8.8516Y-2.9
X8.95Y-2.9
X7.475Y-2.95
X7.775Y-2.95
X9.275Y-2.875
X9.275Y-2.975
X9.275Y-3.075
X8.125Y-3.2
X8.125Y-3.5
X8.225Y-3.2
X8.225Y-3.5
X8.325Y-3.2
X8.325Y-3.5
X8.425Y-3.2
X8.425Y-3.5
X9.675Y-2.825
X9.675Y-3.125
X9.5Y-3.4266
X9.5Y-3.525
X6.975Y-2.8
X6.975Y-3.1
X8.3Y-3.65
X8.3Y-3.75
X8.3Y-3.85
T4
X8.2016Y-4.075
X8.3Y-4.075
X8.3984Y-4.075
X3.6Y-3.75
X3.6Y-3.8484
X3.6Y-3.9469
X3.6Y-4.0453
X3.6Y-4.1437
X4.4047Y-3.45
X4.5031Y-3.45
X4.6016Y-3.45
X4.7Y-3.45
X5.6Y-2.35
X5.6Y-2.4484
X5.6Y-2.5469
X5.6Y-2.6453
X5.6Y-2.7437
X6.3Y-2.55
X6.3Y-2.6484
X6.3Y-2.7469
X1.7Y-3.05
X1.7984Y-3.05
X1.8969Y-3.05
X1.9953Y-3.05
X7.7016Y-2.6
X7.8Y-2.6
X7.8984Y-2.6
X4.3Y-3.75
X4.3Y-3.8484
X4.3Y-3.9469
X4.3Y-4.0453
X4.3Y-4.1437
X1.7Y-1.95
X1.7984Y-1.95
X1.8969Y-1.95
X1.9953Y-1.95
X2.9Y-2.35
X2.9Y-2.4484
X2.9Y-2.5469
X2.9Y-2.6453
X2.9Y-2.7437
X0.8Y-3.75
X0.8Y-3.8484
X0.8Y-3.9469
X0.8Y-4.0453
X0.8Y-4.1437
X8.2016Y-2.6
X8.3Y-2.6
X8.3984Y-2.6
X4.9Y-3.75
X4.9Y-3.8484
X4.9Y-3.9469
X4.9Y-4.0453
X4.9Y-4.1437
X4.9Y-2.35
X4.9Y-2.4484
X4.9Y-2.5469
X4.9Y-2.6453
X4.9Y-2.7437
X4.4047Y-4.55
X4.5031Y-4.55
X4.6016Y-4.55
X4.7Y-4.55
X5.6Y-3.75
X5.6Y-3.8484
X5.6Y-3.9469
X5.6Y-4.0453
X5.6Y-4.1437
X1.7047Y-4.55
X1.8031Y-4.55
X1.9016Y-4.55
X2.0Y-4.55
X7.6531Y-4.075
X7.7516Y-4.075
X7.85Y-4.075
X2.2Y-3.7563
X2.2Y-3.8547
X2.2Y-3.9531
X2.2Y-4.0516
X2.2Y-4.15
X2.9Y-3.75
X2.9Y-3.8484
X2.9Y-3.9469
X2.9Y-4.0453
X2.9Y-4.1437
X0.8Y-2.35
X0.8Y-2.4484
X0.8Y-2.5469
X0.8Y-2.6453
X0.8Y-2.7437
X3.6Y-2.35
X3.6Y-2.4484
X3.6Y-2.5469
X3.6Y-2.6453
X3.6Y-2.7437
X8.75Y-3.275
X8.75Y-3.3734
X8.75Y-3.4719
X4.3Y-2.35
X4.3Y-2.4484
X4.3Y-2.5469
X4.3Y-2.6453
X4.3Y-2.7437
X4.4Y-1.95
X4.4984Y-1.95
X4.5969Y-1.95
X4.6953Y-1.95
X1.5Y-3.7563
X1.5Y-3.8547
X1.5Y-3.9531
X1.5Y-4.0516
X1.5Y-4.15
X6.3Y-3.95
X6.3Y-4.0484
X6.3Y-4.1469
X2.2Y-2.35
X2.2Y-2.4484
X2.2Y-2.5469
X2.2Y-2.6453
X2.2Y-2.7437
X4.4Y-3.05
X4.4984Y-3.05
X4.5969Y-3.05
X4.6953Y-3.05
X1.5Y-2.35
X1.5Y-2.4484
X1.5Y-2.5469
X1.5Y-2.6453
X1.5Y-2.7437
X1.7047Y-3.45
X1.8031Y-3.45
X1.9016Y-3.45
X2.0Y-3.45
T5
X6.625Y-2.875
X6.625Y-2.9734
X9.875Y-3.6266
X9.875Y-3.725
X6.625Y-3.725
X6.625Y-3.8234
X9.875Y-3.0266
X9.875Y-3.125
X3.8Y-3.1516
X3.8Y-3.25
X7.2766Y-4.075
X7.375Y-4.075
X7.3266Y-2.6
X7.425Y-2.6
T6
X3.2559Y-3.1
X3.2559Y-3.2
X3.2559Y-3.3
T7
X9.875Y-2.25
X9.875Y-2.45
X9.875Y-2.65
T8
X9.9Y-4.5
X0.8Y-2.0
X0.8Y-4.5
X9.9Y-2.0
T9
X2.6Y-3.2
T0
M30
