G04 #@! TF.GenerationSoftware,KiCad,Pcbnew,(5.1.5)-3*
G04 #@! TF.CreationDate,2021-04-21T14:21:54+02:00*
G04 #@! TF.ProjectId,AnalogDrum_Bitreduced,416e616c-6f67-4447-9275-6d5f42697472,rev?*
G04 #@! TF.SameCoordinates,Original*
G04 #@! TF.FileFunction,Legend,Bot*
G04 #@! TF.FilePolarity,Positive*
%FSLAX46Y46*%
G04 Gerber Fmt 4.6, Leading zero omitted, Abs format (unit mm)*
G04 Created by KiCad (PCBNEW (5.1.5)-3) date 2021-04-21 14:21:54*
%MOMM*%
%LPD*%
G04 APERTURE LIST*
%ADD10C,0.120000*%
%ADD11C,0.150000*%
G04 APERTURE END LIST*
D10*
X154375000Y-93690000D02*
X154375000Y-96190000D01*
X151875000Y-93690000D02*
X154375000Y-93690000D01*
X152575000Y-108210000D02*
X154075000Y-108210000D01*
X152575000Y-109210000D02*
X152575000Y-108210000D01*
X152575000Y-94990000D02*
X154075000Y-94990000D01*
X152575000Y-93990000D02*
X152575000Y-94990000D01*
X151765000Y-108710000D02*
X151765000Y-109210000D01*
X150555000Y-108710000D02*
X151765000Y-108710000D01*
X150555000Y-94490000D02*
X150555000Y-108710000D01*
X151765000Y-94490000D02*
X150555000Y-94490000D01*
X151765000Y-93990000D02*
X151765000Y-94490000D01*
X150055000Y-109210000D02*
X150055000Y-93990000D01*
X154075000Y-109210000D02*
X150055000Y-109210000D01*
X154075000Y-93990000D02*
X154075000Y-109210000D01*
X150055000Y-93990000D02*
X154075000Y-93990000D01*
D11*
X148417380Y-100314285D02*
X149131666Y-100314285D01*
X149274523Y-100266666D01*
X149369761Y-100171428D01*
X149417380Y-100028571D01*
X149417380Y-99933333D01*
X149417380Y-101314285D02*
X149417380Y-100742857D01*
X149417380Y-101028571D02*
X148417380Y-101028571D01*
X148560238Y-100933333D01*
X148655476Y-100838095D01*
X148703095Y-100742857D01*
X148417380Y-101933333D02*
X148417380Y-102028571D01*
X148465000Y-102123809D01*
X148512619Y-102171428D01*
X148607857Y-102219047D01*
X148798333Y-102266666D01*
X149036428Y-102266666D01*
X149226904Y-102219047D01*
X149322142Y-102171428D01*
X149369761Y-102123809D01*
X149417380Y-102028571D01*
X149417380Y-101933333D01*
X149369761Y-101838095D01*
X149322142Y-101790476D01*
X149226904Y-101742857D01*
X149036428Y-101695238D01*
X148798333Y-101695238D01*
X148607857Y-101742857D01*
X148512619Y-101790476D01*
X148465000Y-101838095D01*
X148417380Y-101933333D01*
X149417380Y-103219047D02*
X149417380Y-102647619D01*
X149417380Y-102933333D02*
X148417380Y-102933333D01*
X148560238Y-102838095D01*
X148655476Y-102742857D01*
X148703095Y-102647619D01*
M02*
