M48
; DRILL file {KiCad (5.1.5)-3} date 20/04/2021 11:59:17
; FORMAT={-:-/ absolute / inch / decimal}
; #@! TF.CreationDate,2021-04-20T11:59:17+02:00
; #@! TF.GenerationSoftware,Kicad,Pcbnew,(5.1.5)-3
FMAT,2
INCH
T1C0.0157
T2C0.0197
T3C0.0295
T4C0.0315
T5C0.0354
T6C0.0394
T7C0.0787
T8C0.1260
%
G90
G05
T1
X5.375Y-3.2
X5.375Y-3.675
X5.65Y-3.5
T2
X2.65Y-1.2
X2.65Y-1.6
X2.65Y-2.0
X2.65Y-2.4
X2.65Y-2.8
X2.65Y-3.2
X2.65Y-3.6
X2.65Y-4.0
X2.65Y-4.4
X2.65Y-4.8
X2.65Y-5.2
X2.65Y-5.6
X2.65Y-6.0
X2.65Y-6.4
X2.65Y-6.8
X2.65Y-7.3
X3.05Y-1.2
X3.05Y-7.3
X3.45Y-1.2
X3.45Y-7.3
X3.85Y-1.2
X3.85Y-7.3
X4.25Y-1.2
X4.25Y-7.3
X4.325Y-4.675
X4.65Y-1.2
X4.65Y-7.3
X5.05Y-1.2
X5.05Y-7.3
X5.3Y-3.625
X5.45Y-1.2
X5.45Y-7.3
X5.75Y-3.65
X5.85Y-1.2
X5.85Y-7.3
X6.125Y-3.675
X6.4Y-1.2
X6.4Y-1.6
X6.4Y-2.0
X6.4Y-2.4
X6.4Y-2.8
X6.4Y-3.2
X6.4Y-3.6
X6.4Y-4.0
X6.4Y-4.4
X6.4Y-4.8
X6.4Y-5.2
X6.4Y-5.6
X6.4Y-6.0
X6.4Y-6.4
X6.4Y-6.8
X6.4Y-7.3
T3
X4.0Y-6.8
X4.05Y-6.8
X4.1Y-6.8
X5.25Y-5.15
X5.25Y-5.2
X5.25Y-5.25
X5.45Y-5.15
X5.45Y-5.2
X5.45Y-5.25
X4.15Y-5.1
X4.15Y-5.15
X4.15Y-5.2
X5.0Y-6.45
X5.05Y-6.45
X5.1Y-6.45
X3.95Y-5.1
X3.95Y-5.15
X3.95Y-5.2
T4
X4.05Y-2.25
X4.05Y-2.55
X4.3Y-6.55
X4.6Y-6.55
X5.25Y-2.15
X5.25Y-2.45
X3.55Y-4.25
X3.85Y-4.25
X4.25Y-3.85
X4.25Y-3.9484
X4.35Y-2.8
X4.35Y-2.9
X4.35Y-3.0
X5.2Y-6.75
X5.5Y-6.75
X3.7516Y-2.55
X3.9484Y-2.55
X5.4Y-4.4
X5.7Y-4.4
X3.8Y-5.6516
X3.8Y-5.75
X5.05Y-2.25
X5.05Y-2.55
X5.3Y-3.15
X5.3Y-3.45
X4.65Y-1.5516
X4.65Y-1.7484
X4.0Y-1.65
X4.0Y-1.95
X3.5Y-6.25
X3.8Y-6.25
X3.85Y-2.15
X3.85Y-2.45
X4.3Y-6.25
X4.6Y-6.25
X4.15Y-2.25
X4.15Y-2.55
X4.1Y-1.65
X4.1Y-1.95
X5.1Y-5.0
X5.1Y-5.3
X4.3Y-6.35
X4.6Y-6.35
X4.6Y-3.7
X4.9Y-3.7
X5.3Y-3.95
X5.3Y-4.0484
X4.05Y-2.75
X4.05Y-3.05
X3.55Y-5.3
X3.65Y-5.3
X3.75Y-5.3
X4.45Y-1.5516
X4.45Y-1.7484
X3.8516Y-3.55
X3.95Y-3.55
X4.8016Y-5.85
X4.9984Y-5.85
X4.5516Y-3.225
X4.65Y-3.225
X4.75Y-2.75
X4.75Y-3.05
X5.1Y-5.85
X5.1984Y-5.85
X3.5Y-5.45
X3.8Y-5.45
X5.6Y-5.0
X5.6Y-5.3
X3.5Y-6.45
X3.8Y-6.45
X4.65Y-2.25
X4.65Y-2.55
X4.4Y-5.15
X4.4Y-5.45
X4.55Y-2.2516
X4.55Y-2.35
X4.8Y-4.35
X4.8Y-4.4484
X4.95Y-2.75
X4.95Y-3.05
X4.55Y-2.75
X4.55Y-3.05
X3.9Y-5.35
X3.9Y-5.45
X3.9Y-5.55
X3.9Y-5.65
X3.9Y-5.75
X3.9Y-5.85
X3.9Y-5.95
X4.2Y-5.35
X4.2Y-5.45
X4.2Y-5.55
X4.2Y-5.65
X4.2Y-5.75
X4.2Y-5.85
X4.2Y-5.95
X5.0016Y-5.7
X5.1Y-5.7
X4.8Y-6.3516
X4.8Y-6.45
X4.25Y-2.25
X4.25Y-2.55
X4.8Y-5.5
X5.1Y-5.5
X3.7516Y-3.05
X3.85Y-3.05
X4.95Y-2.25
X4.95Y-2.55
X5.2Y-6.25
X5.5Y-6.25
X4.8Y-5.4
X5.1Y-5.4
X4.4031Y-6.775
X4.6Y-6.775
X4.85Y-2.25
X4.85Y-2.55
X4.6622Y-4.25
X4.8Y-4.25
X3.45Y-4.05
X3.45Y-4.35
X4.4122Y-4.25
X4.55Y-4.25
X3.75Y-3.15
X3.75Y-3.45
X3.85Y-3.15
X3.85Y-3.45
X3.95Y-3.15
X3.95Y-3.45
X4.05Y-3.15
X4.05Y-3.45
X4.15Y-3.15
X4.15Y-3.45
X4.25Y-3.15
X4.25Y-3.45
X4.35Y-3.15
X4.35Y-3.45
X4.45Y-3.15
X4.45Y-3.45
X5.2Y-6.35
X5.5Y-6.35
X5.2Y-6.15
X5.5Y-6.15
X3.9Y-6.35
X3.9Y-6.45
X3.9Y-6.55
X3.9Y-6.65
X4.2Y-6.35
X4.2Y-6.45
X4.2Y-6.55
X4.2Y-6.65
X5.1516Y-2.55
X5.3484Y-2.55
X5.2Y-6.65
X5.2984Y-6.65
X3.9Y-3.85
X4.0Y-3.85
X4.1Y-3.85
X4.8016Y-7.05
X4.9Y-7.05
X4.3Y-6.65
X4.6Y-6.65
X4.0Y-6.15
X4.0984Y-6.15
X5.15Y-2.15
X5.15Y-2.45
X3.5Y-6.35
X3.8Y-6.35
X4.7Y-4.3516
X4.7Y-4.5484
X4.95Y-2.05
X5.25Y-2.05
X4.2Y-3.7
X4.5Y-3.7
X3.55Y-4.05
X3.85Y-4.05
X3.8516Y-4.45
X3.95Y-4.45
X4.75Y-3.15
X4.75Y-3.45
X4.85Y-3.15
X4.85Y-3.45
X4.95Y-3.15
X4.95Y-3.45
X5.05Y-3.15
X5.05Y-3.45
X5.2Y-6.05
X5.5Y-6.05
X4.25Y-1.85
X4.25Y-2.15
X4.35Y-1.85
X4.35Y-2.15
X4.45Y-1.85
X4.45Y-2.15
X4.55Y-1.85
X4.55Y-2.15
X4.65Y-1.85
X4.65Y-2.15
X4.75Y-1.85
X4.75Y-2.15
X4.85Y-1.85
X4.85Y-2.15
X4.6Y-4.3516
X4.6Y-4.5484
X3.9Y-6.7516
X3.9Y-6.85
X5.6Y-5.6
X5.9Y-5.6
X3.95Y-4.05
X3.95Y-4.15
X3.95Y-4.25
X3.95Y-4.35
X4.25Y-4.05
X4.25Y-4.15
X4.25Y-4.25
X4.25Y-4.35
X4.8516Y-5.2
X4.95Y-5.2
X4.3Y-6.45
X4.6Y-6.45
X4.3Y-5.5516
X4.3Y-5.65
X4.75Y-2.25
X4.75Y-2.55
X5.05Y-2.75
X5.05Y-3.05
X3.95Y-2.75
X3.95Y-3.05
X4.3Y-5.75
X4.6Y-5.75
X3.55Y-4.15
X3.85Y-4.15
X5.2Y-5.4
X5.2Y-5.5
X5.2Y-5.6
X5.2Y-5.7
X5.5Y-5.4
X5.5Y-5.5
X5.5Y-5.6
X5.5Y-5.7
X4.8Y-5.95
X4.8Y-6.05
X4.8Y-6.15
X4.8Y-6.25
X5.1Y-5.95
X5.1Y-6.05
X5.1Y-6.15
X5.1Y-6.25
X5.2Y-5.95
X5.5Y-5.95
X3.55Y-6.05
X3.65Y-6.05
X3.75Y-6.05
X4.9Y-3.95
X5.2Y-3.95
X5.6016Y-5.4
X5.7Y-5.4
X5.1Y-1.65
X5.1Y-1.95
X4.8Y-5.6
X5.1Y-5.6
X4.45Y-2.25
X4.45Y-2.55
X3.5Y-5.85
X3.8Y-5.85
X3.95Y-2.15
X3.95Y-2.45
X4.5Y-5.15
X4.5Y-5.45
X4.3Y-5.2516
X4.3Y-5.4484
X4.35Y-2.25
X4.35Y-2.55
X3.85Y-2.05
X4.15Y-2.05
X4.85Y-2.75
X4.85Y-3.05
X5.0Y-1.65
X5.0Y-1.95
X3.55Y-4.35
X3.85Y-4.35
X3.7016Y-6.65
X3.8Y-6.65
X4.8Y-6.65
X4.8Y-6.75
X4.8Y-6.85
X4.8Y-6.95
X5.1Y-6.65
X5.1Y-6.75
X5.1Y-6.85
X5.1Y-6.95
X4.55Y-1.6516
X4.55Y-1.75
X5.25Y-2.8
X5.25Y-2.9
X5.25Y-3.0
X4.15Y-2.75
X4.15Y-3.05
X3.5Y-3.85
X3.6Y-3.85
X3.7Y-3.85
X5.4Y-4.0
X5.7Y-4.0
X5.2Y-3.3516
X5.2Y-3.45
X4.65Y-2.75
X4.65Y-3.05
X4.9Y-4.05
X4.9Y-4.15
X4.9Y-4.25
X4.9Y-4.35
X5.2Y-4.05
X5.2Y-4.15
X5.2Y-4.25
X5.2Y-4.35
X3.9Y-1.65
X3.9Y-1.95
X4.3Y-5.95
X4.6Y-5.95
X5.2Y-1.65
X5.2Y-1.95
X3.5Y-6.55
X3.8Y-6.55
X5.25Y-5.025
X5.4469Y-5.025
X3.5Y-5.55
X3.8Y-5.55
T5
X5.4Y-4.15
X5.4Y-4.25
X5.7Y-4.15
X5.7Y-4.25
X4.65Y-3.8
X4.75Y-3.8
X4.4Y-3.8
X4.5Y-3.8
X5.9201Y-3.3516
X5.9201Y-3.45
X5.9201Y-3.5484
X6.05Y-3.3516
X6.05Y-3.45
X6.05Y-3.5484
X3.0Y-3.3516
X3.0Y-3.45
X3.0Y-3.5484
X3.1299Y-3.3516
X3.1299Y-3.45
X3.1299Y-3.5484
T6
X5.95Y-3.8
X5.95Y-3.9
X5.95Y-4.0
X5.95Y-4.1
X5.95Y-4.2
X3.3256Y-2.6283
X3.3256Y-2.7268
X3.3256Y-2.8252
X3.325Y-6.4998
X3.325Y-6.5982
X3.325Y-6.6967
X3.325Y-1.875
X3.325Y-1.9734
X3.325Y-2.0719
X3.3256Y-4.0248
X3.3256Y-4.1232
X3.3256Y-4.2217
X5.7244Y-4.6248
X5.7244Y-4.7232
X5.7244Y-4.8217
X3.3256Y-5.675
X3.3256Y-5.7734
X3.3256Y-5.8719
X5.7244Y-2.6281
X5.7244Y-2.7266
X5.7244Y-2.825
X3.325Y-4.85
X3.325Y-4.9484
X3.325Y-5.0469
X5.725Y-1.8748
X5.725Y-1.9732
X5.725Y-2.0717
T7
X3.05Y-2.5535
X3.05Y-2.9
X3.0494Y-6.425
X3.0494Y-6.7715
X3.0494Y-1.8002
X3.0494Y-2.1467
X3.05Y-3.95
X3.05Y-4.2965
X6.0Y-4.55
X6.0Y-4.8965
X3.05Y-5.6002
X3.05Y-5.9467
X6.0Y-2.5533
X6.0Y-2.8998
X3.0494Y-4.7752
X3.0494Y-5.1217
X6.0006Y-1.8
X6.0006Y-2.1465
T8
X2.8Y-7.15
X6.25Y-7.15
X2.8Y-1.35
X6.25Y-1.35
T0
M30
