G04 #@! TF.GenerationSoftware,KiCad,Pcbnew,(5.1.5)-3*
G04 #@! TF.CreationDate,2021-07-30T13:53:20+02:00*
G04 #@! TF.ProjectId,AnalogDrum_Mixer8,416e616c-6f67-4447-9275-6d5f4d697865,rev?*
G04 #@! TF.SameCoordinates,Original*
G04 #@! TF.FileFunction,Legend,Bot*
G04 #@! TF.FilePolarity,Positive*
%FSLAX46Y46*%
G04 Gerber Fmt 4.6, Leading zero omitted, Abs format (unit mm)*
G04 Created by KiCad (PCBNEW (5.1.5)-3) date 2021-07-30 13:53:20*
%MOMM*%
%LPD*%
G04 APERTURE LIST*
%ADD10C,0.120000*%
%ADD11C,0.150000*%
G04 APERTURE END LIST*
D10*
X86670000Y-114725000D02*
X86670000Y-115975000D01*
X85420000Y-114725000D02*
X86670000Y-114725000D01*
X77020000Y-120225000D02*
X81320000Y-120225000D01*
X77020000Y-117275000D02*
X77020000Y-120225000D01*
X76270000Y-117275000D02*
X77020000Y-117275000D01*
X85620000Y-120225000D02*
X81320000Y-120225000D01*
X85620000Y-117275000D02*
X85620000Y-120225000D01*
X86370000Y-117275000D02*
X85620000Y-117275000D01*
X76270000Y-115025000D02*
X78070000Y-115025000D01*
X76270000Y-115775000D02*
X76270000Y-115025000D01*
X78070000Y-115775000D02*
X76270000Y-115775000D01*
X78070000Y-115025000D02*
X78070000Y-115775000D01*
X84570000Y-115025000D02*
X86370000Y-115025000D01*
X84570000Y-115775000D02*
X84570000Y-115025000D01*
X86370000Y-115775000D02*
X84570000Y-115775000D01*
X86370000Y-115025000D02*
X86370000Y-115775000D01*
X79570000Y-115025000D02*
X83070000Y-115025000D01*
X79570000Y-115775000D02*
X79570000Y-115025000D01*
X83070000Y-115775000D02*
X79570000Y-115775000D01*
X83070000Y-115025000D02*
X83070000Y-115775000D01*
X76260000Y-115015000D02*
X86380000Y-115015000D01*
X76260000Y-120985000D02*
X76260000Y-115015000D01*
X86380000Y-120985000D02*
X76260000Y-120985000D01*
X86380000Y-115015000D02*
X86380000Y-120985000D01*
X62460000Y-112820000D02*
X62460000Y-114070000D01*
X61210000Y-112820000D02*
X62460000Y-112820000D01*
X50310000Y-118320000D02*
X55860000Y-118320000D01*
X50310000Y-115370000D02*
X50310000Y-118320000D01*
X49560000Y-115370000D02*
X50310000Y-115370000D01*
X61410000Y-118320000D02*
X55860000Y-118320000D01*
X61410000Y-115370000D02*
X61410000Y-118320000D01*
X62160000Y-115370000D02*
X61410000Y-115370000D01*
X49560000Y-113120000D02*
X51360000Y-113120000D01*
X49560000Y-113870000D02*
X49560000Y-113120000D01*
X51360000Y-113870000D02*
X49560000Y-113870000D01*
X51360000Y-113120000D02*
X51360000Y-113870000D01*
X60360000Y-113120000D02*
X62160000Y-113120000D01*
X60360000Y-113870000D02*
X60360000Y-113120000D01*
X62160000Y-113870000D02*
X60360000Y-113870000D01*
X62160000Y-113120000D02*
X62160000Y-113870000D01*
X52860000Y-113120000D02*
X58860000Y-113120000D01*
X52860000Y-113870000D02*
X52860000Y-113120000D01*
X58860000Y-113870000D02*
X52860000Y-113870000D01*
X58860000Y-113120000D02*
X58860000Y-113870000D01*
X49550000Y-113110000D02*
X62170000Y-113110000D01*
X49550000Y-119080000D02*
X49550000Y-113110000D01*
X62170000Y-119080000D02*
X49550000Y-119080000D01*
X62170000Y-113110000D02*
X62170000Y-119080000D01*
X49340000Y-99905000D02*
X49340000Y-98655000D01*
X50590000Y-99905000D02*
X49340000Y-99905000D01*
X61490000Y-94405000D02*
X55940000Y-94405000D01*
X61490000Y-97355000D02*
X61490000Y-94405000D01*
X62240000Y-97355000D02*
X61490000Y-97355000D01*
X50390000Y-94405000D02*
X55940000Y-94405000D01*
X50390000Y-97355000D02*
X50390000Y-94405000D01*
X49640000Y-97355000D02*
X50390000Y-97355000D01*
X62240000Y-99605000D02*
X60440000Y-99605000D01*
X62240000Y-98855000D02*
X62240000Y-99605000D01*
X60440000Y-98855000D02*
X62240000Y-98855000D01*
X60440000Y-99605000D02*
X60440000Y-98855000D01*
X51440000Y-99605000D02*
X49640000Y-99605000D01*
X51440000Y-98855000D02*
X51440000Y-99605000D01*
X49640000Y-98855000D02*
X51440000Y-98855000D01*
X49640000Y-99605000D02*
X49640000Y-98855000D01*
X58940000Y-99605000D02*
X52940000Y-99605000D01*
X58940000Y-98855000D02*
X58940000Y-99605000D01*
X52940000Y-98855000D02*
X58940000Y-98855000D01*
X52940000Y-99605000D02*
X52940000Y-98855000D01*
X62250000Y-99615000D02*
X49630000Y-99615000D01*
X62250000Y-93645000D02*
X62250000Y-99615000D01*
X49630000Y-93645000D02*
X62250000Y-93645000D01*
X49630000Y-99615000D02*
X49630000Y-93645000D01*
X66405000Y-99905000D02*
X66405000Y-98655000D01*
X67655000Y-99905000D02*
X66405000Y-99905000D01*
X73555000Y-94405000D02*
X70505000Y-94405000D01*
X73555000Y-97355000D02*
X73555000Y-94405000D01*
X74305000Y-97355000D02*
X73555000Y-97355000D01*
X67455000Y-94405000D02*
X70505000Y-94405000D01*
X67455000Y-97355000D02*
X67455000Y-94405000D01*
X66705000Y-97355000D02*
X67455000Y-97355000D01*
X74305000Y-99605000D02*
X72505000Y-99605000D01*
X74305000Y-98855000D02*
X74305000Y-99605000D01*
X72505000Y-98855000D02*
X74305000Y-98855000D01*
X72505000Y-99605000D02*
X72505000Y-98855000D01*
X68505000Y-99605000D02*
X66705000Y-99605000D01*
X68505000Y-98855000D02*
X68505000Y-99605000D01*
X66705000Y-98855000D02*
X68505000Y-98855000D01*
X66705000Y-99605000D02*
X66705000Y-98855000D01*
X71005000Y-99605000D02*
X70005000Y-99605000D01*
X71005000Y-98855000D02*
X71005000Y-99605000D01*
X70005000Y-98855000D02*
X71005000Y-98855000D01*
X70005000Y-99605000D02*
X70005000Y-98855000D01*
X74315000Y-99615000D02*
X66695000Y-99615000D01*
X74315000Y-93645000D02*
X74315000Y-99615000D01*
X66695000Y-93645000D02*
X74315000Y-93645000D01*
X66695000Y-99615000D02*
X66695000Y-93645000D01*
D11*
X82605714Y-113377380D02*
X82605714Y-114091666D01*
X82653333Y-114234523D01*
X82748571Y-114329761D01*
X82891428Y-114377380D01*
X82986666Y-114377380D01*
X81605714Y-114377380D02*
X82177142Y-114377380D01*
X81891428Y-114377380D02*
X81891428Y-113377380D01*
X81986666Y-113520238D01*
X82081904Y-113615476D01*
X82177142Y-113663095D01*
X80986666Y-113377380D02*
X80891428Y-113377380D01*
X80796190Y-113425000D01*
X80748571Y-113472619D01*
X80700952Y-113567857D01*
X80653333Y-113758333D01*
X80653333Y-113996428D01*
X80700952Y-114186904D01*
X80748571Y-114282142D01*
X80796190Y-114329761D01*
X80891428Y-114377380D01*
X80986666Y-114377380D01*
X81081904Y-114329761D01*
X81129523Y-114282142D01*
X81177142Y-114186904D01*
X81224761Y-113996428D01*
X81224761Y-113758333D01*
X81177142Y-113567857D01*
X81129523Y-113472619D01*
X81081904Y-113425000D01*
X80986666Y-113377380D01*
X79796190Y-113710714D02*
X79796190Y-114377380D01*
X80034285Y-113329761D02*
X80272380Y-114044047D01*
X79653333Y-114044047D01*
X57145714Y-111472380D02*
X57145714Y-112186666D01*
X57193333Y-112329523D01*
X57288571Y-112424761D01*
X57431428Y-112472380D01*
X57526666Y-112472380D01*
X56145714Y-112472380D02*
X56717142Y-112472380D01*
X56431428Y-112472380D02*
X56431428Y-111472380D01*
X56526666Y-111615238D01*
X56621904Y-111710476D01*
X56717142Y-111758095D01*
X55526666Y-111472380D02*
X55431428Y-111472380D01*
X55336190Y-111520000D01*
X55288571Y-111567619D01*
X55240952Y-111662857D01*
X55193333Y-111853333D01*
X55193333Y-112091428D01*
X55240952Y-112281904D01*
X55288571Y-112377142D01*
X55336190Y-112424761D01*
X55431428Y-112472380D01*
X55526666Y-112472380D01*
X55621904Y-112424761D01*
X55669523Y-112377142D01*
X55717142Y-112281904D01*
X55764761Y-112091428D01*
X55764761Y-111853333D01*
X55717142Y-111662857D01*
X55669523Y-111567619D01*
X55621904Y-111520000D01*
X55526666Y-111472380D01*
X54860000Y-111472380D02*
X54240952Y-111472380D01*
X54574285Y-111853333D01*
X54431428Y-111853333D01*
X54336190Y-111900952D01*
X54288571Y-111948571D01*
X54240952Y-112043809D01*
X54240952Y-112281904D01*
X54288571Y-112377142D01*
X54336190Y-112424761D01*
X54431428Y-112472380D01*
X54717142Y-112472380D01*
X54812380Y-112424761D01*
X54860000Y-112377142D01*
X57225714Y-100157380D02*
X57225714Y-100871666D01*
X57273333Y-101014523D01*
X57368571Y-101109761D01*
X57511428Y-101157380D01*
X57606666Y-101157380D01*
X56225714Y-101157380D02*
X56797142Y-101157380D01*
X56511428Y-101157380D02*
X56511428Y-100157380D01*
X56606666Y-100300238D01*
X56701904Y-100395476D01*
X56797142Y-100443095D01*
X55606666Y-100157380D02*
X55511428Y-100157380D01*
X55416190Y-100205000D01*
X55368571Y-100252619D01*
X55320952Y-100347857D01*
X55273333Y-100538333D01*
X55273333Y-100776428D01*
X55320952Y-100966904D01*
X55368571Y-101062142D01*
X55416190Y-101109761D01*
X55511428Y-101157380D01*
X55606666Y-101157380D01*
X55701904Y-101109761D01*
X55749523Y-101062142D01*
X55797142Y-100966904D01*
X55844761Y-100776428D01*
X55844761Y-100538333D01*
X55797142Y-100347857D01*
X55749523Y-100252619D01*
X55701904Y-100205000D01*
X55606666Y-100157380D01*
X54320952Y-101157380D02*
X54892380Y-101157380D01*
X54606666Y-101157380D02*
X54606666Y-100157380D01*
X54701904Y-100300238D01*
X54797142Y-100395476D01*
X54892380Y-100443095D01*
X71790714Y-100157380D02*
X71790714Y-100871666D01*
X71838333Y-101014523D01*
X71933571Y-101109761D01*
X72076428Y-101157380D01*
X72171666Y-101157380D01*
X70790714Y-101157380D02*
X71362142Y-101157380D01*
X71076428Y-101157380D02*
X71076428Y-100157380D01*
X71171666Y-100300238D01*
X71266904Y-100395476D01*
X71362142Y-100443095D01*
X70171666Y-100157380D02*
X70076428Y-100157380D01*
X69981190Y-100205000D01*
X69933571Y-100252619D01*
X69885952Y-100347857D01*
X69838333Y-100538333D01*
X69838333Y-100776428D01*
X69885952Y-100966904D01*
X69933571Y-101062142D01*
X69981190Y-101109761D01*
X70076428Y-101157380D01*
X70171666Y-101157380D01*
X70266904Y-101109761D01*
X70314523Y-101062142D01*
X70362142Y-100966904D01*
X70409761Y-100776428D01*
X70409761Y-100538333D01*
X70362142Y-100347857D01*
X70314523Y-100252619D01*
X70266904Y-100205000D01*
X70171666Y-100157380D01*
X69457380Y-100252619D02*
X69409761Y-100205000D01*
X69314523Y-100157380D01*
X69076428Y-100157380D01*
X68981190Y-100205000D01*
X68933571Y-100252619D01*
X68885952Y-100347857D01*
X68885952Y-100443095D01*
X68933571Y-100585952D01*
X69505000Y-101157380D01*
X68885952Y-101157380D01*
M02*
