M48
; DRILL file {KiCad (5.1.5)-3} date 30/07/2021 13:40:34
; FORMAT={-:-/ absolute / inch / decimal}
; #@! TF.CreationDate,2021-07-30T13:40:34+02:00
; #@! TF.GenerationSoftware,Kicad,Pcbnew,(5.1.5)-3
FMAT,2
INCH
T1C0.0157
T2C0.0315
T3C0.0354
T4C0.0374
T5C0.0394
T6C0.0787
T7C0.1260
%
G90
G05
T1
X1.75Y-1.125
X1.75Y-2.125
X1.75Y-3.125
X1.75Y-4.125
X1.75Y-5.125
X1.75Y-6.125
X1.75Y-7.3
X2.75Y-1.125
X2.75Y-7.3
X3.75Y-1.125
X3.75Y-7.3
X4.75Y-1.125
X4.75Y-7.3
X5.6Y-1.125
X5.6Y-2.125
X5.6Y-3.125
X5.6Y-4.125
X5.6Y-5.125
X5.6Y-6.125
X5.6Y-7.3
T2
X4.8Y-3.85
X5.1Y-3.85
X2.6Y-6.8
X2.9Y-6.8
X2.6Y-1.375
X2.9Y-1.375
X4.175Y-5.475
X4.175Y-5.775
X2.6Y-1.475
X2.9Y-1.475
X4.2016Y-4.55
X4.3Y-4.55
X3.25Y-2.475
X3.3484Y-2.475
X4.175Y-1.95
X4.175Y-2.25
X3.05Y-5.3
X3.1484Y-5.3
X4.05Y-1.95
X4.05Y-2.25
X3.25Y-6.0
X3.3484Y-6.0
X4.625Y-3.15
X4.625Y-3.45
X2.6Y-6.7
X2.9Y-6.7
X4.5Y-5.475
X4.5Y-5.775
X4.05Y-5.475
X4.05Y-5.775
X3.45Y-4.4
X3.75Y-4.4
X4.0Y-4.35
X4.3Y-4.35
X3.05Y-1.375
X3.05Y-1.475
X3.05Y-1.575
X3.05Y-1.675
X3.35Y-1.375
X3.35Y-1.475
X3.35Y-1.575
X3.35Y-1.675
X3.05Y-1.975
X3.05Y-2.075
X3.05Y-2.175
X3.05Y-2.275
X3.35Y-1.975
X3.35Y-2.075
X3.35Y-2.175
X3.35Y-2.275
X3.0516Y-2.375
X3.15Y-2.375
X2.6Y-2.675
X2.9Y-2.675
X3.0516Y-2.975
X3.15Y-2.975
X4.175Y-2.55
X4.175Y-2.85
X3.0516Y-1.775
X3.15Y-1.775
X3.05Y-3.85
X3.35Y-3.85
X4.5Y-2.55
X4.5Y-2.85
X4.5Y-1.35
X4.5Y-1.65
X4.8Y-4.35
X5.1Y-4.35
X4.05Y-6.075
X4.05Y-6.375
X3.05Y-3.975
X3.35Y-3.975
X2.6Y-6.2
X2.9Y-6.2
X4.5Y-3.15
X4.5Y-3.45
X2.85Y-4.4
X2.9484Y-4.4
X3.25Y-1.275
X3.3484Y-1.275
X2.6Y-5.6
X2.9Y-5.6
X3.05Y-2.575
X3.05Y-2.675
X3.05Y-2.775
X3.05Y-2.875
X3.35Y-2.575
X3.35Y-2.675
X3.35Y-2.775
X3.35Y-2.875
X2.8016Y-1.875
X2.9Y-1.875
X2.8Y-6.6
X2.8984Y-6.6
X2.6Y-2.075
X2.9Y-2.075
X2.8Y-4.8
X2.8984Y-4.8
X4.05Y-2.55
X4.05Y-2.85
X2.8Y-1.275
X2.8984Y-1.275
X4.625Y-2.55
X4.625Y-2.85
X2.6Y-6.1
X2.9Y-6.1
X4.625Y-6.675
X4.625Y-6.975
X4.05Y-6.675
X4.05Y-6.975
X4.175Y-1.35
X4.175Y-1.65
X4.175Y-6.075
X4.175Y-6.375
X3.45Y-4.3
X3.75Y-4.3
X3.05Y-3.175
X3.05Y-3.275
X3.05Y-3.375
X3.05Y-3.475
X3.35Y-3.175
X3.35Y-3.275
X3.35Y-3.375
X3.35Y-3.475
X4.4Y-4.25
X4.4Y-4.35
X4.4Y-4.45
X4.4Y-4.55
X4.7Y-4.25
X4.7Y-4.35
X4.7Y-4.45
X4.7Y-4.55
X3.05Y-6.7
X3.05Y-6.8
X3.05Y-6.9
X3.05Y-7.0
X3.35Y-6.7
X3.35Y-6.8
X3.35Y-6.9
X3.35Y-7.0
X2.6Y-1.975
X2.9Y-1.975
X3.05Y-6.1
X3.05Y-6.2
X3.05Y-6.3
X3.05Y-6.4
X3.35Y-6.1
X3.35Y-6.2
X3.35Y-6.3
X3.35Y-6.4
X2.8Y-5.4
X2.8984Y-5.4
X2.6Y-3.175
X2.9Y-3.175
X3.25Y-5.4
X3.3484Y-5.4
X2.6Y-3.275
X2.9Y-3.275
X4.625Y-1.35
X4.625Y-1.65
X2.65Y-4.1
X2.95Y-4.1
X4.625Y-5.475
X4.625Y-5.775
X2.6Y-5.5
X2.9Y-5.5
X4.5Y-4.875
X4.5Y-5.175
X4.625Y-4.875
X4.625Y-5.175
X3.05Y-5.5
X3.05Y-5.6
X3.05Y-5.7
X3.05Y-5.8
X3.35Y-5.5
X3.35Y-5.6
X3.35Y-5.7
X3.35Y-5.8
X2.8Y-6.0
X2.8984Y-6.0
X2.6Y-2.575
X2.9Y-2.575
X4.175Y-6.675
X4.175Y-6.975
X2.8Y-3.075
X2.8984Y-3.075
X3.05Y-6.5
X3.1484Y-6.5
X4.05Y-4.875
X4.05Y-5.175
X3.2516Y-3.075
X3.35Y-3.075
X2.6Y-5.0
X2.9Y-5.0
X4.5Y-1.95
X4.5Y-2.25
X4.625Y-1.95
X4.625Y-2.25
X4.0Y-3.85
X4.3Y-3.85
X3.45Y-4.2
X3.75Y-4.2
X4.625Y-6.075
X4.625Y-6.375
X4.4Y-3.75
X4.4Y-3.85
X4.4Y-3.95
X4.4Y-4.05
X4.7Y-3.75
X4.7Y-3.85
X4.7Y-3.95
X4.7Y-4.05
X4.8Y-3.75
X4.8984Y-3.75
X3.45Y-4.1
X3.5484Y-4.1
X3.05Y-4.1
X3.05Y-4.2
X3.05Y-4.3
X3.05Y-4.4
X3.35Y-4.1
X3.35Y-4.2
X3.35Y-4.3
X3.35Y-4.4
X4.175Y-4.875
X4.175Y-5.175
X3.05Y-4.9
X3.05Y-5.0
X3.05Y-5.1
X3.05Y-5.2
X3.35Y-4.9
X3.35Y-5.0
X3.35Y-5.1
X3.35Y-5.2
X2.8Y-2.475
X2.8984Y-2.475
X4.05Y-3.15
X4.05Y-3.45
X3.0516Y-3.575
X3.15Y-3.575
X4.175Y-3.15
X4.175Y-3.45
X4.5Y-6.675
X4.5Y-6.975
X4.5Y-6.075
X4.5Y-6.375
X4.8Y-4.25
X4.8984Y-4.25
X4.2016Y-4.05
X4.3Y-4.05
X3.2516Y-1.875
X3.35Y-1.875
X3.25Y-6.6
X3.3484Y-6.6
X2.6Y-4.9
X2.9Y-4.9
X3.2484Y-4.8
X3.3469Y-4.8
X3.05Y-7.1
X3.1484Y-7.1
X4.05Y-1.35
X4.05Y-1.65
X3.05Y-5.9
X3.1484Y-5.9
T3
X2.6Y-5.75
X2.6Y-5.85
X2.85Y-5.15
X2.85Y-5.25
X2.6Y-6.35
X2.6Y-6.45
X2.85Y-3.425
X2.85Y-3.525
X2.85Y-1.625
X2.85Y-1.725
X2.85Y-6.35
X2.85Y-6.45
X2.6Y-1.625
X2.6Y-1.725
X2.85Y-6.95
X2.85Y-7.05
X2.6Y-2.225
X2.6Y-2.325
X2.6Y-3.425
X2.6Y-3.525
X2.85Y-2.225
X2.85Y-2.325
X2.6Y-2.825
X2.6Y-2.925
X2.6Y-5.15
X2.6Y-5.25
X2.85Y-5.75
X2.85Y-5.85
X2.6Y-6.95
X2.6Y-7.05
X2.85Y-2.825
X2.85Y-2.925
T4
X2.35Y-3.825
X2.15Y-4.55
X2.2484Y-4.55
X2.3469Y-4.55
X3.1031Y-4.625
X3.2016Y-4.625
X3.3Y-4.625
X2.0547Y-3.825
X2.1531Y-3.825
X2.2516Y-3.825
X2.0516Y-4.55
T5
X4.8063Y-2.0136
X4.8063Y-2.112
X4.8063Y-2.2104
X4.9047Y-2.0136
X4.9047Y-2.112
X4.9047Y-2.2104
X3.6Y-7.0756
X3.6984Y-7.0756
X3.7969Y-7.0756
X2.1Y-3.5506
X2.1984Y-3.5506
X2.2969Y-3.5506
X3.6Y-6.4756
X3.6984Y-6.4756
X3.7969Y-6.4756
X2.1031Y-2.9506
X2.2016Y-2.9506
X2.3Y-2.9506
X2.1Y-5.2756
X2.1984Y-5.2756
X2.2969Y-5.2756
X2.1031Y-7.0756
X2.2016Y-7.0756
X2.3Y-7.0756
X3.6Y-1.7506
X3.6984Y-1.7506
X3.7969Y-1.7506
X4.8063Y-6.7386
X4.8063Y-6.837
X4.8063Y-6.9354
X4.9047Y-6.7386
X4.9047Y-6.837
X4.9047Y-6.9354
X4.8063Y-5.5386
X4.8063Y-5.637
X4.8063Y-5.7354
X4.9047Y-5.5386
X4.9047Y-5.637
X4.9047Y-5.7354
X4.8063Y-3.2136
X4.8063Y-3.312
X4.8063Y-3.4104
X4.9047Y-3.2136
X4.9047Y-3.312
X4.9047Y-3.4104
X3.6Y-3.5506
X3.6984Y-3.5506
X3.7969Y-3.5506
X3.6Y-5.8756
X3.6984Y-5.8756
X3.7969Y-5.8756
X4.8063Y-6.1386
X4.8063Y-6.237
X4.8063Y-6.3354
X4.9047Y-6.1386
X4.9047Y-6.237
X4.9047Y-6.3354
X2.7266Y-3.825
X2.825Y-3.825
X3.6Y-2.9506
X3.6984Y-2.9506
X3.7969Y-2.9506
X2.1031Y-6.4756
X2.2016Y-6.4756
X2.3Y-6.4756
X2.1031Y-5.8756
X2.2016Y-5.8756
X2.3Y-5.8756
X4.8063Y-1.4136
X4.8063Y-1.512
X4.8063Y-1.6104
X4.9047Y-1.4136
X4.9047Y-1.512
X4.9047Y-1.6104
X2.1Y-1.7506
X2.1984Y-1.7506
X2.2969Y-1.7506
X3.6Y-5.2756
X3.6984Y-5.2756
X3.7969Y-5.2756
X3.6Y-2.3506
X3.6984Y-2.3506
X3.7969Y-2.3506
X2.1Y-2.3506
X2.1984Y-2.3506
X2.2969Y-2.3506
X4.8063Y-2.6136
X4.8063Y-2.712
X4.8063Y-2.8104
X4.9047Y-2.6136
X4.9047Y-2.712
X4.9047Y-2.8104
X4.8063Y-4.9386
X4.8063Y-5.037
X4.8063Y-5.1354
X4.9047Y-4.9386
X4.9047Y-5.037
X4.9047Y-5.1354
T6
X3.5252Y-2.675
X3.8717Y-2.675
X2.0283Y-6.2
X2.3748Y-6.2
X2.0283Y-5.6
X2.3748Y-5.6
X5.2Y-1.325
X5.2Y-1.699
X2.0252Y-1.475
X2.3717Y-1.475
X3.5252Y-5.0
X3.8717Y-5.0
X3.5252Y-2.075
X3.8717Y-2.075
X2.0252Y-2.075
X2.3717Y-2.075
X5.2Y-2.525
X5.2Y-2.899
X5.2Y-4.85
X5.2Y-5.224
X5.2Y-1.925
X5.2Y-2.299
X3.5252Y-6.8
X3.8717Y-6.8
X2.0252Y-3.275
X2.3717Y-3.275
X3.5252Y-6.2
X3.8717Y-6.2
X2.0283Y-2.675
X2.3748Y-2.675
X2.0252Y-5.0
X2.3717Y-5.0
X2.0283Y-6.8
X2.3748Y-6.8
X3.5252Y-1.475
X3.8717Y-1.475
X5.2Y-6.65
X5.2Y-7.024
X5.2Y-5.45
X5.2Y-5.824
X5.2Y-3.125
X5.2Y-3.499
X3.5252Y-3.275
X3.8717Y-3.275
X3.5252Y-5.6
X3.8717Y-5.6
X5.2Y-6.05
X5.2Y-6.424
T7
X1.875Y-1.25
X1.875Y-7.175
X5.475Y-1.25
X5.475Y-7.175
T0
M30
