G04 #@! TF.GenerationSoftware,KiCad,Pcbnew,(5.1.5)-3*
G04 #@! TF.CreationDate,2021-04-21T14:12:13+02:00*
G04 #@! TF.ProjectId,AnalogDrum_AM,416e616c-6f67-4447-9275-6d5f414d2e6b,rev?*
G04 #@! TF.SameCoordinates,Original*
G04 #@! TF.FileFunction,Legend,Bot*
G04 #@! TF.FilePolarity,Positive*
%FSLAX46Y46*%
G04 Gerber Fmt 4.6, Leading zero omitted, Abs format (unit mm)*
G04 Created by KiCad (PCBNEW (5.1.5)-3) date 2021-04-21 14:12:13*
%MOMM*%
%LPD*%
G04 APERTURE LIST*
%ADD10C,0.120000*%
%ADD11C,0.150000*%
G04 APERTURE END LIST*
D10*
X156280000Y-79640000D02*
X156280000Y-82140000D01*
X153780000Y-79640000D02*
X156280000Y-79640000D01*
X154480000Y-94160000D02*
X155980000Y-94160000D01*
X154480000Y-95160000D02*
X154480000Y-94160000D01*
X154480000Y-80940000D02*
X155980000Y-80940000D01*
X154480000Y-79940000D02*
X154480000Y-80940000D01*
X153670000Y-94660000D02*
X153670000Y-95160000D01*
X152460000Y-94660000D02*
X153670000Y-94660000D01*
X152460000Y-80440000D02*
X152460000Y-94660000D01*
X153670000Y-80440000D02*
X152460000Y-80440000D01*
X153670000Y-79940000D02*
X153670000Y-80440000D01*
X151960000Y-95160000D02*
X151960000Y-79940000D01*
X155980000Y-95160000D02*
X151960000Y-95160000D01*
X155980000Y-79940000D02*
X155980000Y-95160000D01*
X151960000Y-79940000D02*
X155980000Y-79940000D01*
D11*
X150322380Y-86264285D02*
X151036666Y-86264285D01*
X151179523Y-86216666D01*
X151274761Y-86121428D01*
X151322380Y-85978571D01*
X151322380Y-85883333D01*
X151322380Y-87264285D02*
X151322380Y-86692857D01*
X151322380Y-86978571D02*
X150322380Y-86978571D01*
X150465238Y-86883333D01*
X150560476Y-86788095D01*
X150608095Y-86692857D01*
X150322380Y-87883333D02*
X150322380Y-87978571D01*
X150370000Y-88073809D01*
X150417619Y-88121428D01*
X150512857Y-88169047D01*
X150703333Y-88216666D01*
X150941428Y-88216666D01*
X151131904Y-88169047D01*
X151227142Y-88121428D01*
X151274761Y-88073809D01*
X151322380Y-87978571D01*
X151322380Y-87883333D01*
X151274761Y-87788095D01*
X151227142Y-87740476D01*
X151131904Y-87692857D01*
X150941428Y-87645238D01*
X150703333Y-87645238D01*
X150512857Y-87692857D01*
X150417619Y-87740476D01*
X150370000Y-87788095D01*
X150322380Y-87883333D01*
X151322380Y-89169047D02*
X151322380Y-88597619D01*
X151322380Y-88883333D02*
X150322380Y-88883333D01*
X150465238Y-88788095D01*
X150560476Y-88692857D01*
X150608095Y-88597619D01*
M02*
