M48
; DRILL file {KiCad (5.1.5)-3} date 19/04/2021 18:59:56
; FORMAT={-:-/ absolute / inch / decimal}
; #@! TF.CreationDate,2021-04-19T18:59:56+02:00
; #@! TF.GenerationSoftware,Kicad,Pcbnew,(5.1.5)-3
FMAT,2
INCH
T1C0.0197
T2C0.0295
T3C0.0315
T4C0.0354
T5C0.0394
T6C0.0787
T7C0.1260
%
G90
G05
T1
X2.8Y-0.8
X2.8Y-1.2
X2.8Y-1.6
X2.8Y-2.0
X2.8Y-2.4
X2.8Y-2.8
X2.8Y-3.2
X2.8Y-3.6
X2.8Y-4.0
X2.8Y-4.4
X2.8Y-4.8
X2.8Y-5.2
X2.8Y-5.6
X2.8Y-6.0
X2.8Y-6.4
X2.8Y-6.9
X3.2Y-0.8
X3.2Y-6.9
X3.6Y-0.8
X3.6Y-6.9
X3.65Y-5.025
X4.0Y-0.8
X4.0Y-6.9
X4.4Y-0.8
X4.4Y-6.9
X4.8Y-0.8
X4.8Y-6.9
X4.9Y-4.2
X5.2Y-0.8
X5.2Y-6.9
X5.4Y-2.4
X5.6Y-0.8
X5.6Y-6.9
X6.0Y-0.8
X6.0Y-6.9
X6.55Y-0.8
X6.55Y-1.2
X6.55Y-1.6
X6.55Y-2.0
X6.55Y-2.4
X6.55Y-2.8
X6.55Y-3.2
X6.55Y-3.6
X6.55Y-4.0
X6.55Y-4.4
X6.55Y-4.8
X6.55Y-5.2
X6.55Y-5.6
X6.55Y-6.0
X6.55Y-6.4
X6.55Y-6.9
T2
X3.85Y-4.8
X3.9Y-4.8
X3.95Y-4.8
X5.55Y-4.85
X5.55Y-4.9
X5.55Y-4.95
X3.85Y-6.15
X3.9Y-6.15
X3.95Y-6.15
X3.85Y-6.35
X3.9Y-6.35
X3.95Y-6.35
X5.55Y-6.2
X5.55Y-6.25
X5.55Y-6.3
X3.85Y-5.0
X3.9Y-5.0
X3.95Y-5.0
T3
X4.05Y-3.15
X4.05Y-3.45
X5.3Y-6.5
X5.3Y-6.8
X3.9Y-4.55
X4.2Y-4.55
X4.45Y-2.35
X4.45Y-2.65
X4.75Y-1.1031
X4.75Y-1.3
X4.15Y-1.2
X4.15Y-1.5
X4.05Y-1.7
X4.05Y-2.0
X5.1Y-6.1
X5.1Y-6.4
X5.2Y-6.1
X5.2Y-6.4
X5.3Y-6.1
X5.3Y-6.4
X5.4Y-6.1
X5.4Y-6.4
X4.3Y-5.15
X4.3Y-5.45
X5.65Y-3.1516
X5.65Y-3.25
X4.3016Y-4.65
X4.4Y-4.65
X4.95Y-3.15
X5.0484Y-3.15
X4.6Y-6.5
X4.6Y-6.8
X5.1Y-5.7
X5.1Y-6.0
X5.45Y-3.15
X5.45Y-3.45
X5.1Y-4.75
X5.1Y-5.05
X5.2Y-4.75
X5.2Y-5.05
X5.3Y-4.75
X5.3Y-5.05
X5.4Y-4.75
X5.4Y-5.05
X4.7Y-5.7
X4.7Y-6.0
X3.9Y-5.8
X4.2Y-5.8
X5.2Y-5.15
X5.2Y-5.45
X4.65Y-2.35
X4.65Y-2.65
X5.2516Y-2.1
X5.4484Y-2.1
X4.25Y-3.1516
X4.25Y-3.25
X4.9Y-6.2016
X4.9Y-6.3
X4.65Y-1.2016
X4.65Y-1.3
X4.65Y-1.8016
X4.65Y-1.9
X5.25Y-1.7
X5.25Y-2.0
X4.2Y-6.5
X4.2Y-6.8
X5.3Y-5.7
X5.3Y-6.0
X4.75Y-3.15
X4.75Y-3.45
X3.95Y-2.75
X3.95Y-3.05
X4.05Y-2.75
X4.05Y-3.05
X4.15Y-2.75
X4.15Y-3.05
X4.25Y-2.75
X4.25Y-3.05
X4.6Y-4.35
X4.6Y-4.65
X4.5Y-5.7
X4.5Y-6.0
X5.55Y-2.35
X5.55Y-2.65
X3.75Y-2.4
X3.75Y-2.5
X3.75Y-2.6
X4.25Y-2.35
X4.25Y-2.65
X4.6Y-5.15
X4.6Y-5.45
X5.2Y-4.35
X5.2Y-4.65
X5.35Y-1.2
X5.35Y-1.5
X4.15Y-1.8
X4.15Y-2.1
X4.3016Y-6.0
X4.4Y-6.0
X5.15Y-1.2
X5.15Y-1.5
X4.95Y-1.8
X4.95Y-2.1
X5.4Y-5.7
X5.4Y-6.0
X5.0Y-2.45
X5.1Y-2.45
X5.2Y-2.45
X4.55Y-3.15
X4.55Y-3.45
X4.3Y-6.5
X4.3Y-6.8
X4.05Y-2.35
X4.05Y-2.65
X4.05Y-5.2
X4.05Y-5.3
X4.05Y-5.4
X4.5Y-4.35
X4.5Y-4.65
X3.75Y-2.8
X3.75Y-2.9
X3.75Y-3.0
X5.15Y-1.8
X5.15Y-2.1
X4.55Y-1.1016
X4.55Y-1.2984
X5.3Y-4.35
X5.3Y-4.65
X4.35Y-1.8
X4.35Y-2.1
X5.4Y-5.1516
X5.4Y-5.25
X4.05Y-1.2
X4.05Y-1.5
X5.35Y-2.65
X5.4484Y-2.65
X4.55Y-1.8
X4.55Y-2.1
X5.35Y-1.7
X5.35Y-2.0
X5.05Y-1.6
X5.35Y-1.6
X5.0Y-3.35
X5.1Y-3.35
X5.2Y-3.35
X4.8Y-5.2
X4.8Y-5.3
X4.8Y-5.4
X4.35Y-2.35
X4.35Y-2.65
X5.0Y-6.5
X5.0Y-6.8
X4.15Y-2.35
X4.15Y-2.65
X3.95Y-3.15
X3.95Y-3.45
X4.45Y-3.15
X4.45Y-3.45
X5.0Y-4.35
X5.0Y-4.65
X4.425Y-3.775
X4.425Y-4.075
X5.4Y-4.35
X5.4Y-4.65
X3.8516Y-2.1
X4.0484Y-2.1
X5.5016Y-5.05
X5.6Y-5.05
X3.95Y-2.5516
X3.95Y-2.65
X4.9Y-4.8516
X4.9Y-4.95
X4.4016Y-5.15
X4.5Y-5.15
X5.0Y-5.7
X5.0Y-6.0
X4.85Y-1.8
X4.85Y-2.1
X4.45Y-2.75
X4.45Y-3.05
X4.55Y-2.75
X4.55Y-3.05
X4.65Y-2.75
X4.65Y-3.05
X4.75Y-2.75
X4.75Y-3.05
X4.85Y-2.75
X4.85Y-3.05
X4.95Y-2.75
X4.95Y-3.05
X5.05Y-2.75
X5.05Y-3.05
X5.15Y-2.75
X5.15Y-3.05
X4.65Y-3.15
X4.65Y-3.45
X4.8Y-6.55
X4.8Y-6.65
X4.8Y-6.75
X4.2Y-5.15
X4.2Y-5.45
X5.1Y-6.5
X5.1Y-6.8
X4.15Y-3.15
X4.15Y-3.45
X5.35Y-2.75
X5.35Y-3.05
X5.45Y-2.75
X5.45Y-3.05
X5.55Y-2.75
X5.55Y-3.05
X5.65Y-2.75
X5.65Y-3.05
X5.65Y-2.35
X5.65Y-2.65
X4.0016Y-4.65
X4.1984Y-4.65
X4.55Y-2.35
X4.55Y-2.65
X3.9Y-4.45
X4.2Y-4.45
X5.6Y-3.9016
X5.6Y-4.0984
X3.95Y-1.7
X3.95Y-2.0
X5.1Y-5.15
X5.1Y-5.45
X5.5016Y-6.4
X5.6Y-6.4
X4.75Y-1.8
X4.75Y-2.1
X4.9516Y-2.65
X5.05Y-2.65
X5.05Y-1.8
X5.05Y-2.1
X4.45Y-1.8
X4.45Y-2.1
X4.05Y-6.55
X4.05Y-6.65
X4.05Y-6.75
X3.75Y-3.15
X3.75Y-3.45
X5.2Y-6.5
X5.2Y-6.8
X4.75Y-2.35
X4.75Y-2.65
X4.1Y-4.75
X4.1Y-5.05
X4.2Y-4.75
X4.2Y-5.05
X4.3Y-4.75
X4.3Y-5.05
X4.4Y-4.75
X4.4Y-5.05
X4.5Y-4.75
X4.5Y-5.05
X4.6Y-4.75
X4.6Y-5.05
X4.7Y-4.75
X4.7Y-5.05
X5.55Y-3.15
X5.55Y-3.45
X4.1Y-6.1
X4.1Y-6.4
X4.2Y-6.1
X4.2Y-6.4
X4.3Y-6.1
X4.3Y-6.4
X4.4Y-6.1
X4.4Y-6.4
X4.5Y-6.1
X4.5Y-6.4
X4.6Y-6.1
X4.6Y-6.4
X4.7Y-6.1
X4.7Y-6.4
X5.1Y-4.35
X5.1Y-4.65
X3.85Y-3.15
X3.85Y-3.45
X4.5516Y-3.925
X4.65Y-3.925
X3.95Y-1.6
X4.25Y-1.6
X4.0016Y-6.0
X4.1984Y-6.0
X4.35Y-1.4
X4.35Y-1.7
X4.45Y-1.4
X4.45Y-1.7
X4.55Y-1.4
X4.55Y-1.7
X4.65Y-1.4
X4.65Y-1.7
X4.75Y-1.4
X4.75Y-1.7
X4.85Y-1.4
X4.85Y-1.7
X4.95Y-1.4
X4.95Y-1.7
X5.3Y-5.15
X5.3Y-5.45
X5.0Y-5.15
X5.0Y-5.45
X3.95Y-1.2
X3.95Y-1.5
X5.4Y-6.5016
X5.4Y-6.6
X5.25Y-1.2
X5.25Y-1.5
X4.4016Y-6.5
X4.5Y-6.5
X3.9Y-5.9
X4.2Y-5.9
X4.25Y-1.8
X4.25Y-2.1
X5.2Y-5.7
X5.2Y-6.0
T4
X3.1701Y-2.6016
X3.1701Y-2.7
X3.1701Y-2.7984
X3.3Y-2.6016
X3.3Y-2.7
X3.3Y-2.7984
X4.0031Y-3.85
X4.0031Y-3.9799
X4.1016Y-3.85
X4.1016Y-3.9799
X4.2Y-3.85
X4.2Y-3.9799
X6.0701Y-2.6
X6.0701Y-2.6984
X6.0701Y-2.7969
X6.2Y-2.6
X6.2Y-2.6984
X6.2Y-2.7969
T5
X5.1531Y-4.125
X5.2516Y-4.125
X5.35Y-4.125
X3.4756Y-1.3283
X3.4756Y-1.4268
X3.4756Y-1.5252
X3.475Y-3.35
X3.475Y-3.4484
X3.475Y-3.5469
X3.4756Y-2.0283
X3.4756Y-2.1268
X3.4756Y-2.2252
X3.4756Y-4.7783
X3.4756Y-4.8768
X3.4756Y-4.9752
X3.4756Y-6.1283
X3.4756Y-6.2268
X3.4756Y-6.3252
X5.8994Y-4.7748
X5.8994Y-4.8732
X5.8994Y-4.9717
X5.875Y-1.3283
X5.875Y-1.4268
X5.875Y-1.5252
X5.875Y-6.1248
X5.875Y-6.2232
X5.875Y-6.3217
X6.05Y-3.25
X6.05Y-3.35
X6.05Y-3.45
X6.05Y-3.55
X6.05Y-3.65
X5.8744Y-2.0281
X5.8744Y-2.1266
X5.8744Y-2.225
T6
X3.2Y-1.9535
X3.2Y-2.3
X3.2Y-4.7035
X3.2Y-5.05
X3.2Y-6.0535
X3.2Y-6.4
X6.175Y-4.7
X6.175Y-5.0465
X6.1506Y-1.2535
X6.1506Y-1.6
X6.1506Y-6.05
X6.1506Y-6.3965
X6.15Y-1.9533
X6.15Y-2.2998
X5.0783Y-3.8494
X5.4248Y-3.8494
X3.2Y-1.2535
X3.2Y-1.6
X3.1994Y-3.2752
X3.1994Y-3.6217
T7
X2.95Y-6.75
X6.4Y-6.75
X6.4Y-0.95
X2.95Y-0.95
T0
M30
