G04 #@! TF.GenerationSoftware,KiCad,Pcbnew,(5.1.5)-3*
G04 #@! TF.CreationDate,2021-04-21T17:55:29+02:00*
G04 #@! TF.ProjectId,AnalogDrum_Snare,416e616c-6f67-4447-9275-6d5f536e6172,rev?*
G04 #@! TF.SameCoordinates,Original*
G04 #@! TF.FileFunction,Legend,Bot*
G04 #@! TF.FilePolarity,Positive*
%FSLAX46Y46*%
G04 Gerber Fmt 4.6, Leading zero omitted, Abs format (unit mm)*
G04 Created by KiCad (PCBNEW (5.1.5)-3) date 2021-04-21 17:55:29*
%MOMM*%
%LPD*%
G04 APERTURE LIST*
%ADD10C,0.120000*%
%ADD11C,0.150000*%
G04 APERTURE END LIST*
D10*
X131515000Y-84720000D02*
X131515000Y-87220000D01*
X129015000Y-84720000D02*
X131515000Y-84720000D01*
X129715000Y-99240000D02*
X131215000Y-99240000D01*
X129715000Y-100240000D02*
X129715000Y-99240000D01*
X129715000Y-86020000D02*
X131215000Y-86020000D01*
X129715000Y-85020000D02*
X129715000Y-86020000D01*
X128905000Y-99740000D02*
X128905000Y-100240000D01*
X127695000Y-99740000D02*
X128905000Y-99740000D01*
X127695000Y-85520000D02*
X127695000Y-99740000D01*
X128905000Y-85520000D02*
X127695000Y-85520000D01*
X128905000Y-85020000D02*
X128905000Y-85520000D01*
X127195000Y-100240000D02*
X127195000Y-85020000D01*
X131215000Y-100240000D02*
X127195000Y-100240000D01*
X131215000Y-85020000D02*
X131215000Y-100240000D01*
X127195000Y-85020000D02*
X131215000Y-85020000D01*
D11*
X125557380Y-91344285D02*
X126271666Y-91344285D01*
X126414523Y-91296666D01*
X126509761Y-91201428D01*
X126557380Y-91058571D01*
X126557380Y-90963333D01*
X126557380Y-92344285D02*
X126557380Y-91772857D01*
X126557380Y-92058571D02*
X125557380Y-92058571D01*
X125700238Y-91963333D01*
X125795476Y-91868095D01*
X125843095Y-91772857D01*
X125557380Y-92963333D02*
X125557380Y-93058571D01*
X125605000Y-93153809D01*
X125652619Y-93201428D01*
X125747857Y-93249047D01*
X125938333Y-93296666D01*
X126176428Y-93296666D01*
X126366904Y-93249047D01*
X126462142Y-93201428D01*
X126509761Y-93153809D01*
X126557380Y-93058571D01*
X126557380Y-92963333D01*
X126509761Y-92868095D01*
X126462142Y-92820476D01*
X126366904Y-92772857D01*
X126176428Y-92725238D01*
X125938333Y-92725238D01*
X125747857Y-92772857D01*
X125652619Y-92820476D01*
X125605000Y-92868095D01*
X125557380Y-92963333D01*
X126557380Y-94249047D02*
X126557380Y-93677619D01*
X126557380Y-93963333D02*
X125557380Y-93963333D01*
X125700238Y-93868095D01*
X125795476Y-93772857D01*
X125843095Y-93677619D01*
M02*
