M48
; DRILL file {KiCad (5.1.5)-3} date 21/04/2021 17:55:27
; FORMAT={-:-/ absolute / inch / decimal}
; #@! TF.CreationDate,2021-04-21T17:55:27+02:00
; #@! TF.GenerationSoftware,Kicad,Pcbnew,(5.1.5)-3
FMAT,2
INCH
T1C0.0197
T2C0.0295
T3C0.0315
T4C0.0354
T5C0.0374
T6C0.0394
T7C0.0787
T8C0.1260
%
G90
G05
T1
X1.85Y-1.05
X1.85Y-1.45
X1.85Y-1.85
X1.85Y-2.25
X1.85Y-2.65
X1.85Y-3.05
X1.85Y-3.45
X1.85Y-3.85
X1.85Y-4.25
X1.85Y-4.65
X1.85Y-5.05
X1.85Y-5.45
X1.85Y-5.85
X1.85Y-6.25
X1.85Y-6.65
X1.85Y-7.15
X2.075Y-4.575
X2.25Y-1.05
X2.25Y-7.15
X2.65Y-1.05
X2.65Y-7.15
X3.05Y-1.05
X3.05Y-7.15
X3.45Y-1.05
X3.45Y-7.15
X3.85Y-1.05
X3.85Y-7.15
X4.25Y-1.05
X4.25Y-7.15
X4.65Y-1.05
X4.65Y-7.15
X5.05Y-1.05
X5.05Y-7.15
X5.6Y-1.05
X5.6Y-1.45
X5.6Y-1.85
X5.6Y-2.25
X5.6Y-2.65
X5.6Y-3.05
X5.6Y-3.45
X5.6Y-3.85
X5.6Y-4.25
X5.6Y-4.65
X5.6Y-5.05
X5.6Y-5.45
X5.6Y-5.85
X5.6Y-6.25
X5.6Y-6.65
X5.6Y-7.15
T2
X2.875Y-6.15
X2.925Y-6.15
X2.975Y-6.15
X2.875Y-5.95
X2.925Y-5.95
X2.975Y-5.95
X4.575Y-4.8
X4.575Y-4.85
X4.575Y-4.9
X4.575Y-6.0
X4.575Y-6.05
X4.575Y-6.1
X4.375Y-4.8
X4.375Y-4.85
X4.375Y-4.9
T3
X4.175Y-2.45
X4.175Y-2.75
X4.275Y-2.95
X4.275Y-3.25
X4.175Y-2.25
X4.475Y-2.25
X3.975Y-2.95
X3.975Y-3.25
X4.275Y-1.85
X4.275Y-2.15
X3.625Y-4.4
X3.7628Y-4.4
X3.925Y-5.05
X4.225Y-5.05
X3.0266Y-5.8
X3.2234Y-5.8
X4.725Y-5.05
X4.8234Y-5.05
X3.8872Y-4.4
X4.025Y-4.4
X3.4266Y-6.3
X3.525Y-6.3
X4.125Y-4.15
X4.125Y-4.25
X4.125Y-4.35
X4.125Y-4.45
X4.425Y-4.15
X4.425Y-4.25
X4.425Y-4.35
X4.425Y-4.45
X4.325Y-6.3
X4.325Y-6.6
X3.525Y-5.5
X3.525Y-5.8
X3.575Y-3.0
X3.575Y-3.1
X3.575Y-3.2
X2.975Y-3.35
X2.975Y-3.65
X3.075Y-3.35
X3.075Y-3.65
X3.175Y-3.35
X3.175Y-3.65
X3.275Y-3.35
X3.275Y-3.65
X3.375Y-3.35
X3.375Y-3.65
X3.475Y-3.35
X3.475Y-3.65
X3.575Y-3.35
X3.575Y-3.65
X3.675Y-3.35
X3.675Y-3.65
X3.825Y-6.35
X3.825Y-6.45
X3.825Y-6.55
X3.375Y-2.45
X3.375Y-2.75
X4.725Y-5.25
X5.025Y-5.25
X3.475Y-2.45
X3.475Y-2.75
X3.925Y-5.25
X4.225Y-5.25
X4.375Y-2.35
X4.375Y-2.65
X3.0266Y-5.35
X3.125Y-5.35
X3.875Y-1.7516
X3.875Y-1.9484
X4.325Y-4.05
X4.4234Y-4.05
X3.875Y-2.45
X3.875Y-2.75
X4.1266Y-4.55
X4.225Y-4.55
X2.9781Y-2.75
X3.175Y-2.75
X4.1266Y-5.35
X4.225Y-5.35
X4.125Y-6.3
X4.125Y-6.6
X3.625Y-6.3
X3.625Y-6.6
X3.075Y-6.35
X3.075Y-6.45
X3.075Y-6.55
X2.625Y-4.85
X2.925Y-4.85
X3.975Y-3.35
X3.975Y-3.65
X4.075Y-3.35
X4.075Y-3.65
X4.175Y-3.35
X4.175Y-3.65
X4.275Y-3.35
X4.275Y-3.65
X2.725Y-4.15
X3.025Y-4.15
X3.575Y-2.45
X3.575Y-2.75
X2.725Y-4.45
X3.025Y-4.45
X2.925Y-5.6
X3.225Y-5.6
X2.725Y-4.25
X3.025Y-4.25
X3.275Y-1.85
X3.275Y-2.15
X3.275Y-2.45
X3.275Y-2.75
X3.925Y-6.0
X3.925Y-6.0984
X4.3766Y-2.75
X4.5734Y-2.75
X2.9766Y-3.25
X3.075Y-3.25
X3.075Y-3.75
X3.1734Y-3.75
X3.275Y-2.95
X3.275Y-3.25
X3.725Y-5.5
X3.725Y-5.8
X3.125Y-4.15
X3.125Y-4.25
X3.125Y-4.35
X3.125Y-4.45
X3.425Y-4.15
X3.425Y-4.25
X3.425Y-4.35
X3.425Y-4.45
X3.425Y-5.15
X3.725Y-5.15
X3.925Y-3.85
X4.225Y-3.85
X4.025Y-5.5
X4.025Y-5.8
X4.575Y-4.1
X4.875Y-4.1
X4.325Y-5.5
X4.325Y-5.8
X4.125Y-3.95
X4.425Y-3.95
X3.175Y-1.85
X3.175Y-2.15
X4.475Y-1.85
X4.475Y-2.15
X4.425Y-3.5516
X4.425Y-3.65
X3.125Y-5.9
X3.125Y-6.2
X3.225Y-5.9
X3.225Y-6.2
X3.325Y-5.9
X3.325Y-6.2
X3.425Y-5.9
X3.425Y-6.2
X3.525Y-5.9
X3.525Y-6.2
X3.625Y-5.9
X3.625Y-6.2
X3.725Y-5.9
X3.725Y-6.2
X4.375Y-1.85
X4.375Y-2.15
X3.7766Y-3.3516
X3.875Y-3.3516
X3.825Y-4.525
X4.0219Y-4.525
X4.025Y-6.3
X4.025Y-6.6
X4.425Y-6.3
X4.425Y-6.3984
X3.775Y-2.95
X3.775Y-3.25
X2.925Y-5.7
X3.225Y-5.7
X2.625Y-5.05
X2.925Y-5.05
X3.175Y-3.95
X3.275Y-3.95
X3.375Y-3.95
X3.425Y-5.05
X3.725Y-5.05
X4.525Y-3.35
X4.525Y-3.65
X3.075Y-2.35
X3.075Y-2.65
X4.725Y-4.65
X4.725Y-4.95
X4.075Y-2.45
X4.075Y-2.75
X2.725Y-4.35
X3.025Y-4.35
X3.075Y-1.85
X3.075Y-2.15
X4.275Y-2.45
X4.275Y-2.75
X4.525Y-6.2016
X4.6234Y-6.2016
X4.125Y-5.9
X4.125Y-6.2
X4.225Y-5.9
X4.225Y-6.2
X4.325Y-5.9
X4.325Y-6.2
X4.425Y-5.9
X4.425Y-6.2
X3.525Y-4.05
X3.525Y-4.1484
X3.3266Y-5.8
X3.425Y-5.8
X4.225Y-5.5
X4.225Y-5.8
X3.225Y-6.3
X3.225Y-6.6
X4.225Y-6.3
X4.225Y-6.6
X4.475Y-3.0
X4.475Y-3.1
X4.475Y-3.2
X3.875Y-2.95
X3.875Y-3.25
X3.175Y-2.35
X3.175Y-2.65
X3.525Y-3.85
X3.825Y-3.85
X3.975Y-2.45
X3.975Y-2.75
X2.625Y-4.15
X2.625Y-4.45
X3.675Y-2.45
X3.675Y-2.75
X3.025Y-4.95
X3.025Y-5.05
X3.025Y-5.15
X3.025Y-5.25
X3.325Y-4.95
X3.325Y-5.05
X3.325Y-5.15
X3.325Y-5.25
X3.4266Y-4.95
X3.525Y-4.95
X3.675Y-1.7516
X3.675Y-1.9484
X3.775Y-1.8516
X3.775Y-1.95
X4.425Y-4.65
X4.6219Y-4.65
X3.325Y-6.3
X3.325Y-6.6
X4.075Y-2.95
X4.075Y-3.25
X3.375Y-2.95
X3.375Y-3.25
X3.025Y-4.8
X3.325Y-4.8
X2.675Y-5.25
X2.775Y-5.25
X2.875Y-5.25
X4.425Y-5.5
X4.425Y-5.8
X4.575Y-4.5
X4.875Y-4.5
X4.475Y-2.35
X4.475Y-2.65
X3.925Y-5.15
X4.225Y-5.15
X3.075Y-2.25
X3.375Y-2.25
X4.175Y-4.65
X4.175Y-4.95
X3.9266Y-4.8
X4.025Y-4.8
X3.5281Y-4.525
X3.725Y-4.525
X3.025Y-4.55
X3.1234Y-4.55
X2.725Y-3.95
X2.825Y-3.95
X2.925Y-3.95
X3.775Y-2.4516
X3.775Y-2.55
X3.475Y-2.05
X3.475Y-2.35
X3.575Y-2.05
X3.575Y-2.35
X3.675Y-2.05
X3.675Y-2.35
X3.775Y-2.05
X3.775Y-2.35
X3.875Y-2.05
X3.875Y-2.35
X3.975Y-2.05
X3.975Y-2.35
X4.075Y-2.05
X4.075Y-2.35
X4.175Y-2.95
X4.175Y-3.25
X3.175Y-2.95
X3.175Y-3.25
X4.125Y-5.5
X4.125Y-5.8
X2.625Y-4.95
X2.925Y-4.95
X4.325Y-5.05
X4.325Y-5.15
X4.325Y-5.25
X4.325Y-5.35
X4.625Y-5.05
X4.625Y-5.15
X4.625Y-5.25
X4.625Y-5.35
T4
X3.875Y-3.95
X3.975Y-3.95
X4.625Y-4.25
X4.625Y-4.35
X4.875Y-4.25
X4.875Y-4.35
X3.625Y-3.95
X3.725Y-3.95
X2.225Y-2.9516
X2.225Y-3.05
X2.225Y-3.1484
X2.3549Y-2.9516
X2.3549Y-3.05
X2.3549Y-3.1484
X5.1451Y-2.95
X5.1451Y-3.0484
X5.1451Y-3.1469
X5.275Y-2.95
X5.275Y-3.0484
X5.275Y-3.1469
T5
X5.075Y-3.45
X5.075Y-3.5484
X5.075Y-3.6469
X5.075Y-3.7453
X5.075Y-3.8437
T6
X4.9244Y-6.3033
X4.9244Y-6.4018
X4.9244Y-6.5002
X2.525Y-1.5533
X2.525Y-1.6518
X2.525Y-1.7502
X2.525Y-4.475
X2.525Y-4.5734
X2.525Y-4.6719
X2.5256Y-2.2783
X2.5256Y-2.3768
X2.5256Y-2.4752
X2.5256Y-3.5783
X2.5256Y-3.6768
X2.5256Y-3.7752
X4.9244Y-1.5498
X4.9244Y-1.6482
X4.9244Y-1.7467
X4.925Y-2.2781
X4.925Y-2.3766
X4.925Y-2.475
X2.5256Y-6.3033
X2.5256Y-6.4018
X2.5256Y-6.5002
X4.9244Y-5.5033
X4.9244Y-5.6018
X4.9244Y-5.7002
X2.5203Y-5.4886
X2.5203Y-5.587
X2.5203Y-5.6854
X2.6187Y-5.4886
X2.6187Y-5.587
X2.6187Y-5.6854
T7
X5.2Y-6.2285
X5.2Y-6.575
X2.2494Y-1.4785
X2.2494Y-1.825
X2.2494Y-4.4002
X2.2494Y-4.7467
X2.25Y-2.2035
X2.25Y-2.55
X2.25Y-3.5035
X2.25Y-3.85
X5.2Y-1.475
X5.2Y-1.8215
X5.2006Y-2.2033
X5.2006Y-2.5498
X2.25Y-6.2285
X2.25Y-6.575
X5.2Y-5.4285
X5.2Y-5.775
X2.225Y-5.4
X2.225Y-5.774
T8
X5.45Y-1.2
X5.45Y-7.0
X2.0Y-7.0
X2.0Y-1.2
T0
M30
