M48
; DRILL file {KiCad (5.1.5)-3} date 30/07/2021 13:52:55
; FORMAT={-:-/ absolute / inch / decimal}
; #@! TF.CreationDate,2021-07-30T13:52:55+02:00
; #@! TF.GenerationSoftware,Kicad,Pcbnew,(5.1.5)-3
FMAT,2
INCH
T1C0.0157
T2C0.0315
T3C0.0354
T4C0.0374
T5C0.0394
T6C0.0591
T7C0.1260
%
G90
G05
T1
X2.2Y-1.1
X2.2Y-2.1
X2.2Y-3.1
X2.2Y-4.1
X2.2Y-5.1
X2.2Y-6.1
X2.2Y-7.2
X3.2Y-1.1
X3.2Y-7.2
X4.2Y-1.1
X4.2Y-7.2
X5.2Y-1.1
X5.2Y-7.2
X5.95Y-1.1
X5.95Y-2.1
X5.95Y-3.1
X5.95Y-4.1
X5.95Y-5.1
X5.95Y-6.1
X5.95Y-7.2
T2
X5.4Y-3.85
X5.7Y-3.85
X3.05Y-2.85
X3.05Y-3.25
X4.2Y-6.0
X4.5Y-6.0
X4.2Y-6.2
X4.5Y-6.2
X5.4Y-3.35
X5.7Y-3.35
X4.25Y-5.25
X4.25Y-5.55
X3.35Y-3.25
X3.35Y-3.65
X2.5Y-3.45
X2.5Y-3.55
X2.5Y-3.65
X2.8Y-3.45
X2.8Y-3.55
X2.8Y-3.65
X5.4Y-2.35
X5.7Y-2.35
X5.1Y-6.2
X5.4Y-6.2
X5.4Y-5.35
X5.7Y-5.35
X3.15Y-3.15
X3.15Y-3.45
X5.1Y-6.4
X5.4Y-6.4
X5.4Y-2.6
X5.7Y-2.6
X5.4Y-3.6
X5.7Y-3.6
X3.8Y-5.25
X3.8Y-5.35
X3.8Y-5.45
X3.8Y-5.55
X4.1Y-5.25
X4.1Y-5.35
X4.1Y-5.45
X4.1Y-5.55
X5.4Y-2.1
X5.7Y-2.1
X2.5Y-6.1
X2.8Y-6.1
X2.95Y-2.35
X2.95Y-2.65
X3.4Y-6.3
X3.7Y-6.3
X3.5Y-2.2516
X3.5Y-2.35
X4.2016Y-5.8
X4.3Y-5.8
X3.65Y-2.75
X3.65Y-2.85
X3.65Y-2.95
X3.65Y-3.05
X3.65Y-3.15
X3.65Y-3.25
X3.65Y-3.35
X3.65Y-3.45
X3.65Y-3.55
X3.65Y-3.65
X3.65Y-3.75
X3.65Y-3.85
X3.65Y-3.95
X3.65Y-4.05
X3.65Y-4.15
X3.65Y-4.25
X3.65Y-4.35
X3.65Y-4.45
X3.65Y-4.55
X3.65Y-4.65
X4.25Y-2.75
X4.25Y-2.85
X4.25Y-2.95
X4.25Y-3.05
X4.25Y-3.15
X4.25Y-3.25
X4.25Y-3.35
X4.25Y-3.45
X4.25Y-3.55
X4.25Y-3.65
X4.25Y-3.75
X4.25Y-3.85
X4.25Y-3.95
X4.25Y-4.05
X4.25Y-4.15
X4.25Y-4.25
X4.25Y-4.35
X4.25Y-4.45
X4.25Y-4.55
X4.25Y-4.65
X5.4Y-3.1
X5.7Y-3.1
X5.4Y-4.35
X5.7Y-4.35
X3.25Y-3.25
X3.25Y-3.55
X2.5Y-6.3
X2.8Y-6.3
X3.65Y-5.25
X3.65Y-5.55
X5.4Y-1.6
X5.7Y-1.6
X3.05Y-2.35
X3.05Y-2.75
X4.0016Y-5.1
X4.1Y-5.1
X3.1016Y-4.1
X3.2Y-4.1
X3.8Y-5.8
X3.8Y-5.9
X3.8Y-6.0
X3.8Y-6.1
X3.8Y-6.2
X3.8Y-6.3
X3.8Y-6.4
X4.1Y-5.8
X4.1Y-5.9
X4.1Y-6.0
X4.1Y-6.1
X4.1Y-6.2
X4.1Y-6.3
X4.1Y-6.4
X3.5Y-2.45
X3.5Y-2.75
X2.95Y-2.95
X2.95Y-3.25
X4.2Y-6.4
X4.5Y-6.4
X5.4Y-2.85
X5.7Y-2.85
X4.35Y-3.55
X4.35Y-3.6484
X3.1016Y-3.9
X3.2Y-3.9
X5.1Y-6.0
X5.4Y-6.0
X5.4Y-4.85
X5.7Y-4.85
X3.4Y-6.1
X3.7Y-6.1
X3.4Y-2.45
X3.4Y-2.75
X5.4Y-4.6
X5.7Y-4.6
X5.4Y-1.85
X5.7Y-1.85
X3.55Y-3.75
X3.55Y-3.8484
X5.4Y-4.1
X5.7Y-4.1
X2.5Y-2.65
X2.5Y-2.75
X2.5Y-2.85
X2.5Y-2.95
X2.8Y-2.65
X2.8Y-2.75
X2.8Y-2.85
X2.8Y-2.95
X5.4Y-5.1
X5.7Y-5.1
X3.5Y-5.25
X3.5Y-5.55
T3
X5.15Y-4.6
X5.25Y-4.6
X5.15Y-3.6
X5.25Y-3.6
X5.15Y-5.35
X5.25Y-5.35
X5.15Y-1.6
X5.25Y-1.6
X5.15Y-2.35
X5.25Y-2.35
X5.15Y-3.1
X5.25Y-3.1
X5.15Y-2.1
X5.25Y-2.1
X5.15Y-3.35
X5.25Y-3.35
X5.15Y-1.85
X5.25Y-1.85
X5.15Y-4.85
X5.25Y-4.85
X5.15Y-4.35
X5.25Y-4.35
X5.15Y-3.85
X5.25Y-3.85
X5.15Y-5.1
X5.25Y-5.1
X5.15Y-2.6
X5.25Y-2.6
X5.15Y-2.85
X5.25Y-2.85
X5.15Y-4.1
X5.25Y-4.1
T4
X4.7016Y-6.5
X4.8Y-6.5
X4.8984Y-6.5
X3.0031Y-6.05
X3.1016Y-6.05
X3.2Y-6.05
X4.7016Y-6.2
X4.8Y-6.2
X4.8984Y-6.2
X4.7Y-2.7547
X4.7Y-2.8531
X4.7Y-2.9516
X4.7Y-3.05
X4.7Y-4.4
X4.7Y-4.4984
X4.7Y-4.5969
X4.7Y-4.6953
X4.7016Y-5.9
X4.8Y-5.9
X4.8984Y-5.9
X4.7Y-3.8547
X4.7Y-3.9531
X4.7Y-4.0516
X4.7Y-4.15
X3.0031Y-6.35
X3.1016Y-6.35
X3.2Y-6.35
X4.7Y-3.3047
X4.7Y-3.4031
X4.7Y-3.5016
X4.7Y-3.6
T5
X3.7Y-2.5
X3.8Y-2.5
X3.9Y-2.5
X4.0Y-2.5
X4.1Y-2.5
X4.2Y-2.5
X2.6Y-2.35
X2.6984Y-2.35
X3.2Y-5.3516
X3.2Y-5.45
T6
X3.35Y-3.9071
X3.35Y-4.1
T7
X2.35Y-1.25
X2.35Y-7.05
X5.8Y-1.25
X5.8Y-7.05
T0
M30
