G04 #@! TF.GenerationSoftware,KiCad,Pcbnew,(5.1.5)-3*
G04 #@! TF.CreationDate,2021-07-30T13:53:00+02:00*
G04 #@! TF.ProjectId,AnalogDrum_MIDI,416e616c-6f67-4447-9275-6d5f4d494449,rev?*
G04 #@! TF.SameCoordinates,Original*
G04 #@! TF.FileFunction,Legend,Top*
G04 #@! TF.FilePolarity,Positive*
%FSLAX46Y46*%
G04 Gerber Fmt 4.6, Leading zero omitted, Abs format (unit mm)*
G04 Created by KiCad (PCBNEW (5.1.5)-3) date 2021-07-30 13:53:00*
%MOMM*%
%LPD*%
G04 APERTURE LIST*
%ADD10C,0.100000*%
%ADD11C,0.120000*%
%ADD12C,0.150000*%
G04 APERTURE END LIST*
D10*
G36*
X74930000Y-124460000D02*
G01*
X74930000Y-125730000D01*
X73660000Y-125730000D01*
X70485000Y-122555000D01*
X71755000Y-121285000D01*
X74930000Y-124460000D01*
G37*
X74930000Y-124460000D02*
X74930000Y-125730000D01*
X73660000Y-125730000D01*
X70485000Y-122555000D01*
X71755000Y-121285000D01*
X74930000Y-124460000D01*
G36*
X74930000Y-116840000D02*
G01*
X66040000Y-125730000D01*
X64770000Y-125730000D01*
X64770000Y-124460000D01*
X73660000Y-115570000D01*
X74930000Y-115570000D01*
X74930000Y-116840000D01*
G37*
X74930000Y-116840000D02*
X66040000Y-125730000D01*
X64770000Y-125730000D01*
X64770000Y-124460000D01*
X73660000Y-115570000D01*
X74930000Y-115570000D01*
X74930000Y-116840000D01*
G36*
X76835000Y-127000000D02*
G01*
X75565000Y-125730000D01*
X75565000Y-115570000D01*
X76835000Y-114300000D01*
X76835000Y-127000000D01*
G37*
X76835000Y-127000000D02*
X75565000Y-125730000D01*
X75565000Y-115570000D01*
X76835000Y-114300000D01*
X76835000Y-127000000D01*
G36*
X74930000Y-114935000D02*
G01*
X64770000Y-114935000D01*
X63500000Y-113665000D01*
X76200000Y-113665000D01*
X74930000Y-114935000D01*
G37*
X74930000Y-114935000D02*
X64770000Y-114935000D01*
X63500000Y-113665000D01*
X76200000Y-113665000D01*
X74930000Y-114935000D01*
G36*
X76200000Y-127635000D02*
G01*
X63500000Y-127635000D01*
X64770000Y-126365000D01*
X74930000Y-126365000D01*
X76200000Y-127635000D01*
G37*
X76200000Y-127635000D02*
X63500000Y-127635000D01*
X64770000Y-126365000D01*
X74930000Y-126365000D01*
X76200000Y-127635000D01*
G36*
X64135000Y-115570000D02*
G01*
X64135000Y-125730000D01*
X62865000Y-127000000D01*
X62865000Y-114300000D01*
X64135000Y-115570000D01*
G37*
X64135000Y-115570000D02*
X64135000Y-125730000D01*
X62865000Y-127000000D01*
X62865000Y-114300000D01*
X64135000Y-115570000D01*
D11*
X144240000Y-42010000D02*
X144240000Y-41680000D01*
X137700000Y-42010000D02*
X144240000Y-42010000D01*
X137700000Y-41680000D02*
X137700000Y-42010000D01*
X144240000Y-39270000D02*
X144240000Y-39600000D01*
X137700000Y-39270000D02*
X144240000Y-39270000D01*
X137700000Y-39600000D02*
X137700000Y-39270000D01*
X144240000Y-67410000D02*
X144240000Y-67080000D01*
X137700000Y-67410000D02*
X144240000Y-67410000D01*
X137700000Y-67080000D02*
X137700000Y-67410000D01*
X144240000Y-64670000D02*
X144240000Y-65000000D01*
X137700000Y-64670000D02*
X144240000Y-64670000D01*
X137700000Y-65000000D02*
X137700000Y-64670000D01*
X144240000Y-92810000D02*
X144240000Y-92480000D01*
X137700000Y-92810000D02*
X144240000Y-92810000D01*
X137700000Y-92480000D02*
X137700000Y-92810000D01*
X144240000Y-90070000D02*
X144240000Y-90400000D01*
X137700000Y-90070000D02*
X144240000Y-90070000D01*
X137700000Y-90400000D02*
X137700000Y-90070000D01*
X144240000Y-118210000D02*
X144240000Y-117880000D01*
X137700000Y-118210000D02*
X144240000Y-118210000D01*
X137700000Y-117880000D02*
X137700000Y-118210000D01*
X144240000Y-115470000D02*
X144240000Y-115800000D01*
X137700000Y-115470000D02*
X144240000Y-115470000D01*
X137700000Y-115800000D02*
X137700000Y-115470000D01*
X144240000Y-48360000D02*
X144240000Y-48030000D01*
X137700000Y-48360000D02*
X144240000Y-48360000D01*
X137700000Y-48030000D02*
X137700000Y-48360000D01*
X144240000Y-45620000D02*
X144240000Y-45950000D01*
X137700000Y-45620000D02*
X144240000Y-45620000D01*
X137700000Y-45950000D02*
X137700000Y-45620000D01*
X144240000Y-73760000D02*
X144240000Y-73430000D01*
X137700000Y-73760000D02*
X144240000Y-73760000D01*
X137700000Y-73430000D02*
X137700000Y-73760000D01*
X144240000Y-71020000D02*
X144240000Y-71350000D01*
X137700000Y-71020000D02*
X144240000Y-71020000D01*
X137700000Y-71350000D02*
X137700000Y-71020000D01*
X144240000Y-99160000D02*
X144240000Y-98830000D01*
X137700000Y-99160000D02*
X144240000Y-99160000D01*
X137700000Y-98830000D02*
X137700000Y-99160000D01*
X144240000Y-96420000D02*
X144240000Y-96750000D01*
X137700000Y-96420000D02*
X144240000Y-96420000D01*
X137700000Y-96750000D02*
X137700000Y-96420000D01*
X144240000Y-124560000D02*
X144240000Y-124230000D01*
X137700000Y-124560000D02*
X144240000Y-124560000D01*
X137700000Y-124230000D02*
X137700000Y-124560000D01*
X144240000Y-121820000D02*
X144240000Y-122150000D01*
X137700000Y-121820000D02*
X144240000Y-121820000D01*
X137700000Y-122150000D02*
X137700000Y-121820000D01*
X144240000Y-54710000D02*
X144240000Y-54380000D01*
X137700000Y-54710000D02*
X144240000Y-54710000D01*
X137700000Y-54380000D02*
X137700000Y-54710000D01*
X144240000Y-51970000D02*
X144240000Y-52300000D01*
X137700000Y-51970000D02*
X144240000Y-51970000D01*
X137700000Y-52300000D02*
X137700000Y-51970000D01*
X144240000Y-80110000D02*
X144240000Y-79780000D01*
X137700000Y-80110000D02*
X144240000Y-80110000D01*
X137700000Y-79780000D02*
X137700000Y-80110000D01*
X144240000Y-77370000D02*
X144240000Y-77700000D01*
X137700000Y-77370000D02*
X144240000Y-77370000D01*
X137700000Y-77700000D02*
X137700000Y-77370000D01*
X144240000Y-105510000D02*
X144240000Y-105180000D01*
X137700000Y-105510000D02*
X144240000Y-105510000D01*
X137700000Y-105180000D02*
X137700000Y-105510000D01*
X144240000Y-102770000D02*
X144240000Y-103100000D01*
X137700000Y-102770000D02*
X144240000Y-102770000D01*
X137700000Y-103100000D02*
X137700000Y-102770000D01*
X144240000Y-130910000D02*
X144240000Y-130580000D01*
X137700000Y-130910000D02*
X144240000Y-130910000D01*
X137700000Y-130580000D02*
X137700000Y-130910000D01*
X144240000Y-128170000D02*
X144240000Y-128500000D01*
X137700000Y-128170000D02*
X144240000Y-128170000D01*
X137700000Y-128500000D02*
X137700000Y-128170000D01*
X144240000Y-61060000D02*
X144240000Y-60730000D01*
X137700000Y-61060000D02*
X144240000Y-61060000D01*
X137700000Y-60730000D02*
X137700000Y-61060000D01*
X144240000Y-58320000D02*
X144240000Y-58650000D01*
X137700000Y-58320000D02*
X144240000Y-58320000D01*
X137700000Y-58650000D02*
X137700000Y-58320000D01*
X144240000Y-86460000D02*
X144240000Y-86130000D01*
X137700000Y-86460000D02*
X144240000Y-86460000D01*
X137700000Y-86130000D02*
X137700000Y-86460000D01*
X144240000Y-83720000D02*
X144240000Y-84050000D01*
X137700000Y-83720000D02*
X144240000Y-83720000D01*
X137700000Y-84050000D02*
X137700000Y-83720000D01*
X144240000Y-111860000D02*
X144240000Y-111530000D01*
X137700000Y-111860000D02*
X144240000Y-111860000D01*
X137700000Y-111530000D02*
X137700000Y-111860000D01*
X144240000Y-109120000D02*
X144240000Y-109450000D01*
X137700000Y-109120000D02*
X144240000Y-109120000D01*
X137700000Y-109450000D02*
X137700000Y-109120000D01*
X144240000Y-137260000D02*
X144240000Y-136930000D01*
X137700000Y-137260000D02*
X144240000Y-137260000D01*
X137700000Y-136930000D02*
X137700000Y-137260000D01*
X144240000Y-134520000D02*
X144240000Y-134850000D01*
X137700000Y-134520000D02*
X144240000Y-134520000D01*
X137700000Y-134850000D02*
X137700000Y-134520000D01*
X134640000Y-42185000D02*
X134640000Y-39095000D01*
X134580000Y-40640000D02*
G75*
G03X134580000Y-40640000I-2500000J0D01*
G01*
X129090000Y-40640462D02*
G75*
G02X134640000Y-39095170I2990000J462D01*
G01*
X129090000Y-40639538D02*
G75*
G03X134640000Y-42184830I2990000J-462D01*
G01*
X134640000Y-67585000D02*
X134640000Y-64495000D01*
X134580000Y-66040000D02*
G75*
G03X134580000Y-66040000I-2500000J0D01*
G01*
X129090000Y-66040462D02*
G75*
G02X134640000Y-64495170I2990000J462D01*
G01*
X129090000Y-66039538D02*
G75*
G03X134640000Y-67584830I2990000J-462D01*
G01*
X134640000Y-92985000D02*
X134640000Y-89895000D01*
X134580000Y-91440000D02*
G75*
G03X134580000Y-91440000I-2500000J0D01*
G01*
X129090000Y-91440462D02*
G75*
G02X134640000Y-89895170I2990000J462D01*
G01*
X129090000Y-91439538D02*
G75*
G03X134640000Y-92984830I2990000J-462D01*
G01*
X134640000Y-118385000D02*
X134640000Y-115295000D01*
X134580000Y-116840000D02*
G75*
G03X134580000Y-116840000I-2500000J0D01*
G01*
X129090000Y-116840462D02*
G75*
G02X134640000Y-115295170I2990000J462D01*
G01*
X129090000Y-116839538D02*
G75*
G03X134640000Y-118384830I2990000J-462D01*
G01*
X134640000Y-48535000D02*
X134640000Y-45445000D01*
X134580000Y-46990000D02*
G75*
G03X134580000Y-46990000I-2500000J0D01*
G01*
X129090000Y-46990462D02*
G75*
G02X134640000Y-45445170I2990000J462D01*
G01*
X129090000Y-46989538D02*
G75*
G03X134640000Y-48534830I2990000J-462D01*
G01*
X134640000Y-73935000D02*
X134640000Y-70845000D01*
X134580000Y-72390000D02*
G75*
G03X134580000Y-72390000I-2500000J0D01*
G01*
X129090000Y-72390462D02*
G75*
G02X134640000Y-70845170I2990000J462D01*
G01*
X129090000Y-72389538D02*
G75*
G03X134640000Y-73934830I2990000J-462D01*
G01*
X134640000Y-99335000D02*
X134640000Y-96245000D01*
X134580000Y-97790000D02*
G75*
G03X134580000Y-97790000I-2500000J0D01*
G01*
X129090000Y-97790462D02*
G75*
G02X134640000Y-96245170I2990000J462D01*
G01*
X129090000Y-97789538D02*
G75*
G03X134640000Y-99334830I2990000J-462D01*
G01*
X134640000Y-124735000D02*
X134640000Y-121645000D01*
X134580000Y-123190000D02*
G75*
G03X134580000Y-123190000I-2500000J0D01*
G01*
X129090000Y-123190462D02*
G75*
G02X134640000Y-121645170I2990000J462D01*
G01*
X129090000Y-123189538D02*
G75*
G03X134640000Y-124734830I2990000J-462D01*
G01*
X134640000Y-54885000D02*
X134640000Y-51795000D01*
X134580000Y-53340000D02*
G75*
G03X134580000Y-53340000I-2500000J0D01*
G01*
X129090000Y-53340462D02*
G75*
G02X134640000Y-51795170I2990000J462D01*
G01*
X129090000Y-53339538D02*
G75*
G03X134640000Y-54884830I2990000J-462D01*
G01*
X134640000Y-80285000D02*
X134640000Y-77195000D01*
X134580000Y-78740000D02*
G75*
G03X134580000Y-78740000I-2500000J0D01*
G01*
X129090000Y-78740462D02*
G75*
G02X134640000Y-77195170I2990000J462D01*
G01*
X129090000Y-78739538D02*
G75*
G03X134640000Y-80284830I2990000J-462D01*
G01*
X134640000Y-105685000D02*
X134640000Y-102595000D01*
X134580000Y-104140000D02*
G75*
G03X134580000Y-104140000I-2500000J0D01*
G01*
X129090000Y-104140462D02*
G75*
G02X134640000Y-102595170I2990000J462D01*
G01*
X129090000Y-104139538D02*
G75*
G03X134640000Y-105684830I2990000J-462D01*
G01*
X134640000Y-131085000D02*
X134640000Y-127995000D01*
X134580000Y-129540000D02*
G75*
G03X134580000Y-129540000I-2500000J0D01*
G01*
X129090000Y-129540462D02*
G75*
G02X134640000Y-127995170I2990000J462D01*
G01*
X129090000Y-129539538D02*
G75*
G03X134640000Y-131084830I2990000J-462D01*
G01*
X134640000Y-61235000D02*
X134640000Y-58145000D01*
X134580000Y-59690000D02*
G75*
G03X134580000Y-59690000I-2500000J0D01*
G01*
X129090000Y-59690462D02*
G75*
G02X134640000Y-58145170I2990000J462D01*
G01*
X129090000Y-59689538D02*
G75*
G03X134640000Y-61234830I2990000J-462D01*
G01*
X134640000Y-86635000D02*
X134640000Y-83545000D01*
X134580000Y-85090000D02*
G75*
G03X134580000Y-85090000I-2500000J0D01*
G01*
X129090000Y-85090462D02*
G75*
G02X134640000Y-83545170I2990000J462D01*
G01*
X129090000Y-85089538D02*
G75*
G03X134640000Y-86634830I2990000J-462D01*
G01*
X134640000Y-112035000D02*
X134640000Y-108945000D01*
X134580000Y-110490000D02*
G75*
G03X134580000Y-110490000I-2500000J0D01*
G01*
X129090000Y-110490462D02*
G75*
G02X134640000Y-108945170I2990000J462D01*
G01*
X129090000Y-110489538D02*
G75*
G03X134640000Y-112034830I2990000J-462D01*
G01*
X134640000Y-137435000D02*
X134640000Y-134345000D01*
X134580000Y-135890000D02*
G75*
G03X134580000Y-135890000I-2500000J0D01*
G01*
X129090000Y-135890462D02*
G75*
G02X134640000Y-134345170I2990000J462D01*
G01*
X129090000Y-135889538D02*
G75*
G03X134640000Y-137434830I2990000J-462D01*
G01*
X85090000Y-91670000D02*
X85090000Y-90900000D01*
X85090000Y-83590000D02*
X85090000Y-84360000D01*
X86460000Y-90900000D02*
X86460000Y-84360000D01*
X83720000Y-90900000D02*
X86460000Y-90900000D01*
X83720000Y-84360000D02*
X83720000Y-90900000D01*
X86460000Y-84360000D02*
X83720000Y-84360000D01*
X77470000Y-73430000D02*
X77470000Y-74200000D01*
X77470000Y-81510000D02*
X77470000Y-80740000D01*
X76100000Y-74200000D02*
X76100000Y-80740000D01*
X78840000Y-74200000D02*
X76100000Y-74200000D01*
X78840000Y-80740000D02*
X78840000Y-74200000D01*
X76100000Y-80740000D02*
X78840000Y-80740000D01*
X77470000Y-68810000D02*
X77470000Y-68040000D01*
X77470000Y-60730000D02*
X77470000Y-61500000D01*
X78840000Y-68040000D02*
X78840000Y-61500000D01*
X76100000Y-68040000D02*
X78840000Y-68040000D01*
X76100000Y-61500000D02*
X76100000Y-68040000D01*
X78840000Y-61500000D02*
X76100000Y-61500000D01*
X109565000Y-93240000D02*
X109320000Y-93240000D01*
X111660000Y-93240000D02*
X111415000Y-93240000D01*
X109565000Y-89600000D02*
X109320000Y-89600000D01*
X111660000Y-89600000D02*
X111415000Y-89600000D01*
X109320000Y-89600000D02*
X109320000Y-93240000D01*
X111660000Y-89600000D02*
X111660000Y-93240000D01*
X89245000Y-98320000D02*
X89000000Y-98320000D01*
X91340000Y-98320000D02*
X91095000Y-98320000D01*
X89245000Y-94680000D02*
X89000000Y-94680000D01*
X91340000Y-94680000D02*
X91095000Y-94680000D01*
X89000000Y-94680000D02*
X89000000Y-98320000D01*
X91340000Y-94680000D02*
X91340000Y-98320000D01*
X101070000Y-128615000D02*
X101070000Y-128370000D01*
X101070000Y-130710000D02*
X101070000Y-130465000D01*
X104710000Y-128615000D02*
X104710000Y-128370000D01*
X104710000Y-130710000D02*
X104710000Y-130465000D01*
X104710000Y-128370000D02*
X101070000Y-128370000D01*
X104710000Y-130710000D02*
X101070000Y-130710000D01*
X89825000Y-56620000D02*
X90070000Y-56620000D01*
X87730000Y-56620000D02*
X87975000Y-56620000D01*
X89825000Y-60260000D02*
X90070000Y-60260000D01*
X87730000Y-60260000D02*
X87975000Y-60260000D01*
X90070000Y-60260000D02*
X90070000Y-56620000D01*
X87730000Y-60260000D02*
X87730000Y-56620000D01*
X81850000Y-99985000D02*
X81850000Y-100230000D01*
X81850000Y-97890000D02*
X81850000Y-98135000D01*
X78210000Y-99985000D02*
X78210000Y-100230000D01*
X78210000Y-97890000D02*
X78210000Y-98135000D01*
X78210000Y-100230000D02*
X81850000Y-100230000D01*
X78210000Y-97890000D02*
X81850000Y-97890000D01*
X78210000Y-103215000D02*
X78210000Y-102970000D01*
X78210000Y-105310000D02*
X78210000Y-105065000D01*
X81850000Y-103215000D02*
X81850000Y-102970000D01*
X81850000Y-105310000D02*
X81850000Y-105065000D01*
X81850000Y-102970000D02*
X78210000Y-102970000D01*
X81850000Y-105310000D02*
X78210000Y-105310000D01*
X109790000Y-148245000D02*
X109790000Y-148490000D01*
X109790000Y-146150000D02*
X109790000Y-146395000D01*
X106150000Y-148245000D02*
X106150000Y-148490000D01*
X106150000Y-146150000D02*
X106150000Y-146395000D01*
X106150000Y-148490000D02*
X109790000Y-148490000D01*
X106150000Y-146150000D02*
X109790000Y-146150000D01*
X82565000Y-104890000D02*
G75*
G03X87615000Y-104890000I2525000J0D01*
G01*
X82565000Y-98490000D02*
G75*
G02X87615000Y-98490000I2525000J0D01*
G01*
X82565000Y-98490000D02*
X82565000Y-104890000D01*
X87615000Y-98490000D02*
X87615000Y-104890000D01*
X102980000Y-145990000D02*
X101330000Y-145990000D01*
X102980000Y-163890000D02*
X102980000Y-145990000D01*
X97680000Y-163890000D02*
X102980000Y-163890000D01*
X97680000Y-145990000D02*
X97680000Y-163890000D01*
X99330000Y-145990000D02*
X97680000Y-145990000D01*
X101330000Y-145990000D02*
G75*
G02X99330000Y-145990000I-1000000J0D01*
G01*
X106790000Y-68520000D02*
X101330000Y-68520000D01*
X106790000Y-119440000D02*
X106790000Y-68520000D01*
X93870000Y-119440000D02*
X106790000Y-119440000D01*
X93870000Y-68520000D02*
X93870000Y-119440000D01*
X99330000Y-68520000D02*
X93870000Y-68520000D01*
X101330000Y-68520000D02*
G75*
G02X99330000Y-68520000I-1000000J0D01*
G01*
X102980000Y-132020000D02*
X101330000Y-132020000D01*
X102980000Y-142300000D02*
X102980000Y-132020000D01*
X97680000Y-142300000D02*
X102980000Y-142300000D01*
X97680000Y-132020000D02*
X97680000Y-142300000D01*
X99330000Y-132020000D02*
X97680000Y-132020000D01*
X101330000Y-132020000D02*
G75*
G02X99330000Y-132020000I-1000000J0D01*
G01*
X66633333Y-92075000D02*
X66633333Y-93345000D01*
X65280000Y-93275000D02*
X66633333Y-93275000D01*
X65280000Y-93155000D02*
X66633333Y-93155000D01*
X65280000Y-93035000D02*
X66633333Y-93035000D01*
X65280000Y-92915000D02*
X66633333Y-92915000D01*
X65280000Y-92795000D02*
X66633333Y-92795000D01*
X65280000Y-92675000D02*
X66633333Y-92675000D01*
X65280000Y-92555000D02*
X66633333Y-92555000D01*
X65280000Y-92435000D02*
X66633333Y-92435000D01*
X65280000Y-92315000D02*
X66633333Y-92315000D01*
X65280000Y-92195000D02*
X66633333Y-92195000D01*
X69340000Y-92075000D02*
X65280000Y-92075000D01*
X69340000Y-93345000D02*
X69340000Y-92075000D01*
X65280000Y-93345000D02*
X69340000Y-93345000D01*
X65280000Y-92075000D02*
X65280000Y-93345000D01*
X66633333Y-89535000D02*
X66633333Y-90805000D01*
X65280000Y-90735000D02*
X66633333Y-90735000D01*
X65280000Y-90615000D02*
X66633333Y-90615000D01*
X65280000Y-90495000D02*
X66633333Y-90495000D01*
X65280000Y-90375000D02*
X66633333Y-90375000D01*
X65280000Y-90255000D02*
X66633333Y-90255000D01*
X65280000Y-90135000D02*
X66633333Y-90135000D01*
X65280000Y-90015000D02*
X66633333Y-90015000D01*
X65280000Y-89895000D02*
X66633333Y-89895000D01*
X65280000Y-89775000D02*
X66633333Y-89775000D01*
X65280000Y-89655000D02*
X66633333Y-89655000D01*
X69340000Y-89535000D02*
X65280000Y-89535000D01*
X69340000Y-90805000D02*
X69340000Y-89535000D01*
X65280000Y-90805000D02*
X69340000Y-90805000D01*
X65280000Y-89535000D02*
X65280000Y-90805000D01*
X66633333Y-86995000D02*
X66633333Y-88265000D01*
X65280000Y-88195000D02*
X66633333Y-88195000D01*
X65280000Y-88075000D02*
X66633333Y-88075000D01*
X65280000Y-87955000D02*
X66633333Y-87955000D01*
X65280000Y-87835000D02*
X66633333Y-87835000D01*
X65280000Y-87715000D02*
X66633333Y-87715000D01*
X65280000Y-87595000D02*
X66633333Y-87595000D01*
X65280000Y-87475000D02*
X66633333Y-87475000D01*
X65280000Y-87355000D02*
X66633333Y-87355000D01*
X65280000Y-87235000D02*
X66633333Y-87235000D01*
X65280000Y-87115000D02*
X66633333Y-87115000D01*
X69340000Y-86995000D02*
X65280000Y-86995000D01*
X69340000Y-88265000D02*
X69340000Y-86995000D01*
X65280000Y-88265000D02*
X69340000Y-88265000D01*
X65280000Y-86995000D02*
X65280000Y-88265000D01*
X62120000Y-84970000D02*
X62120000Y-86353000D01*
X62120000Y-84970000D02*
X63504000Y-84970000D01*
X72260000Y-85210000D02*
X72260000Y-95130000D01*
X62360000Y-85210000D02*
X62360000Y-95130000D01*
X62360000Y-95130000D02*
X72260000Y-95130000D01*
X62360000Y-85210000D02*
X72260000Y-85210000D01*
X66633333Y-74295000D02*
X66633333Y-75565000D01*
X65280000Y-75495000D02*
X66633333Y-75495000D01*
X65280000Y-75375000D02*
X66633333Y-75375000D01*
X65280000Y-75255000D02*
X66633333Y-75255000D01*
X65280000Y-75135000D02*
X66633333Y-75135000D01*
X65280000Y-75015000D02*
X66633333Y-75015000D01*
X65280000Y-74895000D02*
X66633333Y-74895000D01*
X65280000Y-74775000D02*
X66633333Y-74775000D01*
X65280000Y-74655000D02*
X66633333Y-74655000D01*
X65280000Y-74535000D02*
X66633333Y-74535000D01*
X65280000Y-74415000D02*
X66633333Y-74415000D01*
X69340000Y-74295000D02*
X65280000Y-74295000D01*
X69340000Y-75565000D02*
X69340000Y-74295000D01*
X65280000Y-75565000D02*
X69340000Y-75565000D01*
X65280000Y-74295000D02*
X65280000Y-75565000D01*
X66633333Y-71755000D02*
X66633333Y-73025000D01*
X65280000Y-72955000D02*
X66633333Y-72955000D01*
X65280000Y-72835000D02*
X66633333Y-72835000D01*
X65280000Y-72715000D02*
X66633333Y-72715000D01*
X65280000Y-72595000D02*
X66633333Y-72595000D01*
X65280000Y-72475000D02*
X66633333Y-72475000D01*
X65280000Y-72355000D02*
X66633333Y-72355000D01*
X65280000Y-72235000D02*
X66633333Y-72235000D01*
X65280000Y-72115000D02*
X66633333Y-72115000D01*
X65280000Y-71995000D02*
X66633333Y-71995000D01*
X65280000Y-71875000D02*
X66633333Y-71875000D01*
X69340000Y-71755000D02*
X65280000Y-71755000D01*
X69340000Y-73025000D02*
X69340000Y-71755000D01*
X65280000Y-73025000D02*
X69340000Y-73025000D01*
X65280000Y-71755000D02*
X65280000Y-73025000D01*
X66633333Y-69215000D02*
X66633333Y-70485000D01*
X65280000Y-70415000D02*
X66633333Y-70415000D01*
X65280000Y-70295000D02*
X66633333Y-70295000D01*
X65280000Y-70175000D02*
X66633333Y-70175000D01*
X65280000Y-70055000D02*
X66633333Y-70055000D01*
X65280000Y-69935000D02*
X66633333Y-69935000D01*
X65280000Y-69815000D02*
X66633333Y-69815000D01*
X65280000Y-69695000D02*
X66633333Y-69695000D01*
X65280000Y-69575000D02*
X66633333Y-69575000D01*
X65280000Y-69455000D02*
X66633333Y-69455000D01*
X65280000Y-69335000D02*
X66633333Y-69335000D01*
X69340000Y-69215000D02*
X65280000Y-69215000D01*
X69340000Y-70485000D02*
X69340000Y-69215000D01*
X65280000Y-70485000D02*
X69340000Y-70485000D01*
X65280000Y-69215000D02*
X65280000Y-70485000D01*
X66633333Y-66675000D02*
X66633333Y-67945000D01*
X65280000Y-67875000D02*
X66633333Y-67875000D01*
X65280000Y-67755000D02*
X66633333Y-67755000D01*
X65280000Y-67635000D02*
X66633333Y-67635000D01*
X65280000Y-67515000D02*
X66633333Y-67515000D01*
X65280000Y-67395000D02*
X66633333Y-67395000D01*
X65280000Y-67275000D02*
X66633333Y-67275000D01*
X65280000Y-67155000D02*
X66633333Y-67155000D01*
X65280000Y-67035000D02*
X66633333Y-67035000D01*
X65280000Y-66915000D02*
X66633333Y-66915000D01*
X65280000Y-66795000D02*
X66633333Y-66795000D01*
X69340000Y-66675000D02*
X65280000Y-66675000D01*
X69340000Y-67945000D02*
X69340000Y-66675000D01*
X65280000Y-67945000D02*
X69340000Y-67945000D01*
X65280000Y-66675000D02*
X65280000Y-67945000D01*
X62120000Y-64650000D02*
X62120000Y-66033000D01*
X62120000Y-64650000D02*
X63504000Y-64650000D01*
X72260000Y-64890000D02*
X72260000Y-77350000D01*
X62360000Y-64890000D02*
X62360000Y-77350000D01*
X62360000Y-77350000D02*
X72260000Y-77350000D01*
X62360000Y-64890000D02*
X72260000Y-64890000D01*
X130080000Y-151030000D02*
X130080000Y-151360000D01*
X136620000Y-151030000D02*
X130080000Y-151030000D01*
X136620000Y-151360000D02*
X136620000Y-151030000D01*
X130080000Y-153770000D02*
X130080000Y-153440000D01*
X136620000Y-153770000D02*
X130080000Y-153770000D01*
X136620000Y-153440000D02*
X136620000Y-153770000D01*
X107220000Y-151030000D02*
X107220000Y-151360000D01*
X113760000Y-151030000D02*
X107220000Y-151030000D01*
X113760000Y-151360000D02*
X113760000Y-151030000D01*
X107220000Y-153770000D02*
X107220000Y-153440000D01*
X113760000Y-153770000D02*
X107220000Y-153770000D01*
X113760000Y-153440000D02*
X113760000Y-153770000D01*
X130080000Y-156110000D02*
X130080000Y-156440000D01*
X136620000Y-156110000D02*
X130080000Y-156110000D01*
X136620000Y-156440000D02*
X136620000Y-156110000D01*
X130080000Y-158850000D02*
X130080000Y-158520000D01*
X136620000Y-158850000D02*
X130080000Y-158850000D01*
X136620000Y-158520000D02*
X136620000Y-158850000D01*
X107220000Y-156110000D02*
X107220000Y-156440000D01*
X113760000Y-156110000D02*
X107220000Y-156110000D01*
X113760000Y-156440000D02*
X113760000Y-156110000D01*
X107220000Y-158850000D02*
X107220000Y-158520000D01*
X113760000Y-158850000D02*
X107220000Y-158850000D01*
X113760000Y-158520000D02*
X113760000Y-158850000D01*
X130080000Y-161190000D02*
X130080000Y-161520000D01*
X136620000Y-161190000D02*
X130080000Y-161190000D01*
X136620000Y-161520000D02*
X136620000Y-161190000D01*
X130080000Y-163930000D02*
X130080000Y-163600000D01*
X136620000Y-163930000D02*
X130080000Y-163930000D01*
X136620000Y-163600000D02*
X136620000Y-163930000D01*
X107220000Y-161190000D02*
X107220000Y-161520000D01*
X113760000Y-161190000D02*
X107220000Y-161190000D01*
X113760000Y-161520000D02*
X113760000Y-161190000D01*
X107220000Y-163930000D02*
X107220000Y-163600000D01*
X113760000Y-163930000D02*
X107220000Y-163930000D01*
X113760000Y-163600000D02*
X113760000Y-163930000D01*
X70580000Y-161390000D02*
X70580000Y-161060000D01*
X64040000Y-161390000D02*
X70580000Y-161390000D01*
X64040000Y-161060000D02*
X64040000Y-161390000D01*
X70580000Y-158650000D02*
X70580000Y-158980000D01*
X64040000Y-158650000D02*
X70580000Y-158650000D01*
X64040000Y-158980000D02*
X64040000Y-158650000D01*
X93440000Y-161390000D02*
X93440000Y-161060000D01*
X86900000Y-161390000D02*
X93440000Y-161390000D01*
X86900000Y-161060000D02*
X86900000Y-161390000D01*
X93440000Y-158650000D02*
X93440000Y-158980000D01*
X86900000Y-158650000D02*
X93440000Y-158650000D01*
X86900000Y-158980000D02*
X86900000Y-158650000D01*
X70580000Y-156310000D02*
X70580000Y-155980000D01*
X64040000Y-156310000D02*
X70580000Y-156310000D01*
X64040000Y-155980000D02*
X64040000Y-156310000D01*
X70580000Y-153570000D02*
X70580000Y-153900000D01*
X64040000Y-153570000D02*
X70580000Y-153570000D01*
X64040000Y-153900000D02*
X64040000Y-153570000D01*
X93440000Y-156310000D02*
X93440000Y-155980000D01*
X86900000Y-156310000D02*
X93440000Y-156310000D01*
X86900000Y-155980000D02*
X86900000Y-156310000D01*
X93440000Y-153570000D02*
X93440000Y-153900000D01*
X86900000Y-153570000D02*
X93440000Y-153570000D01*
X86900000Y-153900000D02*
X86900000Y-153570000D01*
X84990000Y-69310000D02*
X85320000Y-69310000D01*
X84990000Y-62770000D02*
X84990000Y-69310000D01*
X85320000Y-62770000D02*
X84990000Y-62770000D01*
X87730000Y-69310000D02*
X87400000Y-69310000D01*
X87730000Y-62770000D02*
X87730000Y-69310000D01*
X87400000Y-62770000D02*
X87730000Y-62770000D01*
X90270000Y-62770000D02*
X89940000Y-62770000D01*
X90270000Y-69310000D02*
X90270000Y-62770000D01*
X89940000Y-69310000D02*
X90270000Y-69310000D01*
X87530000Y-62770000D02*
X87860000Y-62770000D01*
X87530000Y-69310000D02*
X87530000Y-62770000D01*
X87860000Y-69310000D02*
X87530000Y-69310000D01*
X81180000Y-89630000D02*
X81510000Y-89630000D01*
X81180000Y-83090000D02*
X81180000Y-89630000D01*
X81510000Y-83090000D02*
X81180000Y-83090000D01*
X83920000Y-89630000D02*
X83590000Y-89630000D01*
X83920000Y-83090000D02*
X83920000Y-89630000D01*
X83590000Y-83090000D02*
X83920000Y-83090000D01*
X78640000Y-87090000D02*
X78970000Y-87090000D01*
X78640000Y-80550000D02*
X78640000Y-87090000D01*
X78970000Y-80550000D02*
X78640000Y-80550000D01*
X81380000Y-87090000D02*
X81050000Y-87090000D01*
X81380000Y-80550000D02*
X81380000Y-87090000D01*
X81050000Y-80550000D02*
X81380000Y-80550000D01*
X106580000Y-140430000D02*
X106910000Y-140430000D01*
X106580000Y-133890000D02*
X106580000Y-140430000D01*
X106910000Y-133890000D02*
X106580000Y-133890000D01*
X109320000Y-140430000D02*
X108990000Y-140430000D01*
X109320000Y-133890000D02*
X109320000Y-140430000D01*
X108990000Y-133890000D02*
X109320000Y-133890000D01*
X90270000Y-133890000D02*
X89940000Y-133890000D01*
X90270000Y-140430000D02*
X90270000Y-133890000D01*
X89940000Y-140430000D02*
X90270000Y-140430000D01*
X87530000Y-133890000D02*
X87860000Y-133890000D01*
X87530000Y-140430000D02*
X87530000Y-133890000D01*
X87860000Y-140430000D02*
X87530000Y-140430000D01*
X76300000Y-75470000D02*
X75970000Y-75470000D01*
X76300000Y-82010000D02*
X76300000Y-75470000D01*
X75970000Y-82010000D02*
X76300000Y-82010000D01*
X73560000Y-75470000D02*
X73890000Y-75470000D01*
X73560000Y-82010000D02*
X73560000Y-75470000D01*
X73890000Y-82010000D02*
X73560000Y-82010000D01*
X73560000Y-66770000D02*
X73890000Y-66770000D01*
X73560000Y-60230000D02*
X73560000Y-66770000D01*
X73890000Y-60230000D02*
X73560000Y-60230000D01*
X76300000Y-66770000D02*
X75970000Y-66770000D01*
X76300000Y-60230000D02*
X76300000Y-66770000D01*
X75970000Y-60230000D02*
X76300000Y-60230000D01*
X108010000Y-63500000D02*
X108010000Y-64610000D01*
X108010000Y-64610000D02*
X106680000Y-64610000D01*
X108010000Y-53410000D02*
X92650000Y-53410000D01*
X92650000Y-53410000D02*
X92650000Y-62040000D01*
X108010000Y-62040000D02*
X92650000Y-62040000D01*
X108010000Y-53410000D02*
X108010000Y-62040000D01*
X95250000Y-53410000D02*
X95250000Y-62040000D01*
X97790000Y-53410000D02*
X97790000Y-62040000D01*
X100330000Y-53410000D02*
X100330000Y-62040000D01*
X102870000Y-53410000D02*
X102870000Y-62040000D01*
X105410000Y-53410000D02*
X105410000Y-62040000D01*
X93620000Y-62040000D02*
X93620000Y-62450000D01*
X94340000Y-62040000D02*
X94340000Y-62450000D01*
X96160000Y-62040000D02*
X96160000Y-62450000D01*
X96880000Y-62040000D02*
X96880000Y-62450000D01*
X98700000Y-62040000D02*
X98700000Y-62450000D01*
X99420000Y-62040000D02*
X99420000Y-62450000D01*
X101240000Y-62040000D02*
X101240000Y-62450000D01*
X101960000Y-62040000D02*
X101960000Y-62450000D01*
X103780000Y-62040000D02*
X103780000Y-62450000D01*
X104500000Y-62040000D02*
X104500000Y-62450000D01*
X106320000Y-62040000D02*
X106320000Y-62390000D01*
X107040000Y-62040000D02*
X107040000Y-62390000D01*
X105528100Y-53410000D02*
X105528100Y-62040000D01*
X105646195Y-53410000D02*
X105646195Y-62040000D01*
X105764290Y-53410000D02*
X105764290Y-62040000D01*
X105882385Y-53410000D02*
X105882385Y-62040000D01*
X106000480Y-53410000D02*
X106000480Y-62040000D01*
X106118575Y-53410000D02*
X106118575Y-62040000D01*
X106236670Y-53410000D02*
X106236670Y-62040000D01*
X106354765Y-53410000D02*
X106354765Y-62040000D01*
X106472860Y-53410000D02*
X106472860Y-62040000D01*
X106590955Y-53410000D02*
X106590955Y-62040000D01*
X106709050Y-53410000D02*
X106709050Y-62040000D01*
X106827145Y-53410000D02*
X106827145Y-62040000D01*
X106945240Y-53410000D02*
X106945240Y-62040000D01*
X107063335Y-53410000D02*
X107063335Y-62040000D01*
X107181430Y-53410000D02*
X107181430Y-62040000D01*
X107299525Y-53410000D02*
X107299525Y-62040000D01*
X107417620Y-53410000D02*
X107417620Y-62040000D01*
X107535715Y-53410000D02*
X107535715Y-62040000D01*
X107653810Y-53410000D02*
X107653810Y-62040000D01*
X107771905Y-53410000D02*
X107771905Y-62040000D01*
X107890000Y-53410000D02*
X107890000Y-62040000D01*
X93830000Y-135640000D02*
X91590000Y-135640000D01*
X93830000Y-135880000D02*
X91590000Y-135880000D01*
X93830000Y-135760000D02*
X91590000Y-135760000D01*
X92710000Y-139930000D02*
X92710000Y-139280000D01*
X92710000Y-134390000D02*
X92710000Y-135040000D01*
X93830000Y-139280000D02*
X93830000Y-135040000D01*
X91590000Y-139280000D02*
X93830000Y-139280000D01*
X91590000Y-135040000D02*
X91590000Y-139280000D01*
X93830000Y-135040000D02*
X91590000Y-135040000D01*
D12*
X145605714Y-179522380D02*
X145605714Y-178522380D01*
X145605714Y-178998571D02*
X146177142Y-178998571D01*
X146177142Y-179522380D02*
X146177142Y-178522380D01*
X147177142Y-179522380D02*
X146605714Y-179522380D01*
X146891428Y-179522380D02*
X146891428Y-178522380D01*
X146796190Y-178665238D01*
X146700952Y-178760476D01*
X146605714Y-178808095D01*
X147796190Y-178522380D02*
X147891428Y-178522380D01*
X147986666Y-178570000D01*
X148034285Y-178617619D01*
X148081904Y-178712857D01*
X148129523Y-178903333D01*
X148129523Y-179141428D01*
X148081904Y-179331904D01*
X148034285Y-179427142D01*
X147986666Y-179474761D01*
X147891428Y-179522380D01*
X147796190Y-179522380D01*
X147700952Y-179474761D01*
X147653333Y-179427142D01*
X147605714Y-179331904D01*
X147558095Y-179141428D01*
X147558095Y-178903333D01*
X147605714Y-178712857D01*
X147653333Y-178617619D01*
X147700952Y-178570000D01*
X147796190Y-178522380D01*
X148986666Y-178855714D02*
X148986666Y-179522380D01*
X148748571Y-178474761D02*
X148510476Y-179189047D01*
X149129523Y-179189047D01*
X145605714Y-32202380D02*
X145605714Y-31202380D01*
X145605714Y-31678571D02*
X146177142Y-31678571D01*
X146177142Y-32202380D02*
X146177142Y-31202380D01*
X147177142Y-32202380D02*
X146605714Y-32202380D01*
X146891428Y-32202380D02*
X146891428Y-31202380D01*
X146796190Y-31345238D01*
X146700952Y-31440476D01*
X146605714Y-31488095D01*
X147796190Y-31202380D02*
X147891428Y-31202380D01*
X147986666Y-31250000D01*
X148034285Y-31297619D01*
X148081904Y-31392857D01*
X148129523Y-31583333D01*
X148129523Y-31821428D01*
X148081904Y-32011904D01*
X148034285Y-32107142D01*
X147986666Y-32154761D01*
X147891428Y-32202380D01*
X147796190Y-32202380D01*
X147700952Y-32154761D01*
X147653333Y-32107142D01*
X147605714Y-32011904D01*
X147558095Y-31821428D01*
X147558095Y-31583333D01*
X147605714Y-31392857D01*
X147653333Y-31297619D01*
X147700952Y-31250000D01*
X147796190Y-31202380D01*
X148462857Y-31202380D02*
X149081904Y-31202380D01*
X148748571Y-31583333D01*
X148891428Y-31583333D01*
X148986666Y-31630952D01*
X149034285Y-31678571D01*
X149081904Y-31773809D01*
X149081904Y-32011904D01*
X149034285Y-32107142D01*
X148986666Y-32154761D01*
X148891428Y-32202380D01*
X148605714Y-32202380D01*
X148510476Y-32154761D01*
X148462857Y-32107142D01*
X57975714Y-179522380D02*
X57975714Y-178522380D01*
X57975714Y-178998571D02*
X58547142Y-178998571D01*
X58547142Y-179522380D02*
X58547142Y-178522380D01*
X59547142Y-179522380D02*
X58975714Y-179522380D01*
X59261428Y-179522380D02*
X59261428Y-178522380D01*
X59166190Y-178665238D01*
X59070952Y-178760476D01*
X58975714Y-178808095D01*
X60166190Y-178522380D02*
X60261428Y-178522380D01*
X60356666Y-178570000D01*
X60404285Y-178617619D01*
X60451904Y-178712857D01*
X60499523Y-178903333D01*
X60499523Y-179141428D01*
X60451904Y-179331904D01*
X60404285Y-179427142D01*
X60356666Y-179474761D01*
X60261428Y-179522380D01*
X60166190Y-179522380D01*
X60070952Y-179474761D01*
X60023333Y-179427142D01*
X59975714Y-179331904D01*
X59928095Y-179141428D01*
X59928095Y-178903333D01*
X59975714Y-178712857D01*
X60023333Y-178617619D01*
X60070952Y-178570000D01*
X60166190Y-178522380D01*
X60880476Y-178617619D02*
X60928095Y-178570000D01*
X61023333Y-178522380D01*
X61261428Y-178522380D01*
X61356666Y-178570000D01*
X61404285Y-178617619D01*
X61451904Y-178712857D01*
X61451904Y-178808095D01*
X61404285Y-178950952D01*
X60832857Y-179522380D01*
X61451904Y-179522380D01*
X57975714Y-32202380D02*
X57975714Y-31202380D01*
X57975714Y-31678571D02*
X58547142Y-31678571D01*
X58547142Y-32202380D02*
X58547142Y-31202380D01*
X59547142Y-32202380D02*
X58975714Y-32202380D01*
X59261428Y-32202380D02*
X59261428Y-31202380D01*
X59166190Y-31345238D01*
X59070952Y-31440476D01*
X58975714Y-31488095D01*
X60166190Y-31202380D02*
X60261428Y-31202380D01*
X60356666Y-31250000D01*
X60404285Y-31297619D01*
X60451904Y-31392857D01*
X60499523Y-31583333D01*
X60499523Y-31821428D01*
X60451904Y-32011904D01*
X60404285Y-32107142D01*
X60356666Y-32154761D01*
X60261428Y-32202380D01*
X60166190Y-32202380D01*
X60070952Y-32154761D01*
X60023333Y-32107142D01*
X59975714Y-32011904D01*
X59928095Y-31821428D01*
X59928095Y-31583333D01*
X59975714Y-31392857D01*
X60023333Y-31297619D01*
X60070952Y-31250000D01*
X60166190Y-31202380D01*
X61451904Y-32202380D02*
X60880476Y-32202380D01*
X61166190Y-32202380D02*
X61166190Y-31202380D01*
X61070952Y-31345238D01*
X60975714Y-31440476D01*
X60880476Y-31488095D01*
X139850952Y-41092380D02*
X139517619Y-40616190D01*
X139279523Y-41092380D02*
X139279523Y-40092380D01*
X139660476Y-40092380D01*
X139755714Y-40140000D01*
X139803333Y-40187619D01*
X139850952Y-40282857D01*
X139850952Y-40425714D01*
X139803333Y-40520952D01*
X139755714Y-40568571D01*
X139660476Y-40616190D01*
X139279523Y-40616190D01*
X140803333Y-41092380D02*
X140231904Y-41092380D01*
X140517619Y-41092380D02*
X140517619Y-40092380D01*
X140422380Y-40235238D01*
X140327142Y-40330476D01*
X140231904Y-40378095D01*
X141136666Y-40092380D02*
X141755714Y-40092380D01*
X141422380Y-40473333D01*
X141565238Y-40473333D01*
X141660476Y-40520952D01*
X141708095Y-40568571D01*
X141755714Y-40663809D01*
X141755714Y-40901904D01*
X141708095Y-40997142D01*
X141660476Y-41044761D01*
X141565238Y-41092380D01*
X141279523Y-41092380D01*
X141184285Y-41044761D01*
X141136666Y-40997142D01*
X142089047Y-40092380D02*
X142755714Y-40092380D01*
X142327142Y-41092380D01*
X139850952Y-66492380D02*
X139517619Y-66016190D01*
X139279523Y-66492380D02*
X139279523Y-65492380D01*
X139660476Y-65492380D01*
X139755714Y-65540000D01*
X139803333Y-65587619D01*
X139850952Y-65682857D01*
X139850952Y-65825714D01*
X139803333Y-65920952D01*
X139755714Y-65968571D01*
X139660476Y-66016190D01*
X139279523Y-66016190D01*
X140803333Y-66492380D02*
X140231904Y-66492380D01*
X140517619Y-66492380D02*
X140517619Y-65492380D01*
X140422380Y-65635238D01*
X140327142Y-65730476D01*
X140231904Y-65778095D01*
X141136666Y-65492380D02*
X141755714Y-65492380D01*
X141422380Y-65873333D01*
X141565238Y-65873333D01*
X141660476Y-65920952D01*
X141708095Y-65968571D01*
X141755714Y-66063809D01*
X141755714Y-66301904D01*
X141708095Y-66397142D01*
X141660476Y-66444761D01*
X141565238Y-66492380D01*
X141279523Y-66492380D01*
X141184285Y-66444761D01*
X141136666Y-66397142D01*
X142612857Y-65492380D02*
X142422380Y-65492380D01*
X142327142Y-65540000D01*
X142279523Y-65587619D01*
X142184285Y-65730476D01*
X142136666Y-65920952D01*
X142136666Y-66301904D01*
X142184285Y-66397142D01*
X142231904Y-66444761D01*
X142327142Y-66492380D01*
X142517619Y-66492380D01*
X142612857Y-66444761D01*
X142660476Y-66397142D01*
X142708095Y-66301904D01*
X142708095Y-66063809D01*
X142660476Y-65968571D01*
X142612857Y-65920952D01*
X142517619Y-65873333D01*
X142327142Y-65873333D01*
X142231904Y-65920952D01*
X142184285Y-65968571D01*
X142136666Y-66063809D01*
X139850952Y-91892380D02*
X139517619Y-91416190D01*
X139279523Y-91892380D02*
X139279523Y-90892380D01*
X139660476Y-90892380D01*
X139755714Y-90940000D01*
X139803333Y-90987619D01*
X139850952Y-91082857D01*
X139850952Y-91225714D01*
X139803333Y-91320952D01*
X139755714Y-91368571D01*
X139660476Y-91416190D01*
X139279523Y-91416190D01*
X140803333Y-91892380D02*
X140231904Y-91892380D01*
X140517619Y-91892380D02*
X140517619Y-90892380D01*
X140422380Y-91035238D01*
X140327142Y-91130476D01*
X140231904Y-91178095D01*
X141136666Y-90892380D02*
X141755714Y-90892380D01*
X141422380Y-91273333D01*
X141565238Y-91273333D01*
X141660476Y-91320952D01*
X141708095Y-91368571D01*
X141755714Y-91463809D01*
X141755714Y-91701904D01*
X141708095Y-91797142D01*
X141660476Y-91844761D01*
X141565238Y-91892380D01*
X141279523Y-91892380D01*
X141184285Y-91844761D01*
X141136666Y-91797142D01*
X142660476Y-90892380D02*
X142184285Y-90892380D01*
X142136666Y-91368571D01*
X142184285Y-91320952D01*
X142279523Y-91273333D01*
X142517619Y-91273333D01*
X142612857Y-91320952D01*
X142660476Y-91368571D01*
X142708095Y-91463809D01*
X142708095Y-91701904D01*
X142660476Y-91797142D01*
X142612857Y-91844761D01*
X142517619Y-91892380D01*
X142279523Y-91892380D01*
X142184285Y-91844761D01*
X142136666Y-91797142D01*
X139850952Y-117292380D02*
X139517619Y-116816190D01*
X139279523Y-117292380D02*
X139279523Y-116292380D01*
X139660476Y-116292380D01*
X139755714Y-116340000D01*
X139803333Y-116387619D01*
X139850952Y-116482857D01*
X139850952Y-116625714D01*
X139803333Y-116720952D01*
X139755714Y-116768571D01*
X139660476Y-116816190D01*
X139279523Y-116816190D01*
X140803333Y-117292380D02*
X140231904Y-117292380D01*
X140517619Y-117292380D02*
X140517619Y-116292380D01*
X140422380Y-116435238D01*
X140327142Y-116530476D01*
X140231904Y-116578095D01*
X141136666Y-116292380D02*
X141755714Y-116292380D01*
X141422380Y-116673333D01*
X141565238Y-116673333D01*
X141660476Y-116720952D01*
X141708095Y-116768571D01*
X141755714Y-116863809D01*
X141755714Y-117101904D01*
X141708095Y-117197142D01*
X141660476Y-117244761D01*
X141565238Y-117292380D01*
X141279523Y-117292380D01*
X141184285Y-117244761D01*
X141136666Y-117197142D01*
X142612857Y-116625714D02*
X142612857Y-117292380D01*
X142374761Y-116244761D02*
X142136666Y-116959047D01*
X142755714Y-116959047D01*
X139850952Y-47442380D02*
X139517619Y-46966190D01*
X139279523Y-47442380D02*
X139279523Y-46442380D01*
X139660476Y-46442380D01*
X139755714Y-46490000D01*
X139803333Y-46537619D01*
X139850952Y-46632857D01*
X139850952Y-46775714D01*
X139803333Y-46870952D01*
X139755714Y-46918571D01*
X139660476Y-46966190D01*
X139279523Y-46966190D01*
X140803333Y-47442380D02*
X140231904Y-47442380D01*
X140517619Y-47442380D02*
X140517619Y-46442380D01*
X140422380Y-46585238D01*
X140327142Y-46680476D01*
X140231904Y-46728095D01*
X141136666Y-46442380D02*
X141755714Y-46442380D01*
X141422380Y-46823333D01*
X141565238Y-46823333D01*
X141660476Y-46870952D01*
X141708095Y-46918571D01*
X141755714Y-47013809D01*
X141755714Y-47251904D01*
X141708095Y-47347142D01*
X141660476Y-47394761D01*
X141565238Y-47442380D01*
X141279523Y-47442380D01*
X141184285Y-47394761D01*
X141136666Y-47347142D01*
X142089047Y-46442380D02*
X142708095Y-46442380D01*
X142374761Y-46823333D01*
X142517619Y-46823333D01*
X142612857Y-46870952D01*
X142660476Y-46918571D01*
X142708095Y-47013809D01*
X142708095Y-47251904D01*
X142660476Y-47347142D01*
X142612857Y-47394761D01*
X142517619Y-47442380D01*
X142231904Y-47442380D01*
X142136666Y-47394761D01*
X142089047Y-47347142D01*
X139850952Y-72842380D02*
X139517619Y-72366190D01*
X139279523Y-72842380D02*
X139279523Y-71842380D01*
X139660476Y-71842380D01*
X139755714Y-71890000D01*
X139803333Y-71937619D01*
X139850952Y-72032857D01*
X139850952Y-72175714D01*
X139803333Y-72270952D01*
X139755714Y-72318571D01*
X139660476Y-72366190D01*
X139279523Y-72366190D01*
X140803333Y-72842380D02*
X140231904Y-72842380D01*
X140517619Y-72842380D02*
X140517619Y-71842380D01*
X140422380Y-71985238D01*
X140327142Y-72080476D01*
X140231904Y-72128095D01*
X141136666Y-71842380D02*
X141755714Y-71842380D01*
X141422380Y-72223333D01*
X141565238Y-72223333D01*
X141660476Y-72270952D01*
X141708095Y-72318571D01*
X141755714Y-72413809D01*
X141755714Y-72651904D01*
X141708095Y-72747142D01*
X141660476Y-72794761D01*
X141565238Y-72842380D01*
X141279523Y-72842380D01*
X141184285Y-72794761D01*
X141136666Y-72747142D01*
X142136666Y-71937619D02*
X142184285Y-71890000D01*
X142279523Y-71842380D01*
X142517619Y-71842380D01*
X142612857Y-71890000D01*
X142660476Y-71937619D01*
X142708095Y-72032857D01*
X142708095Y-72128095D01*
X142660476Y-72270952D01*
X142089047Y-72842380D01*
X142708095Y-72842380D01*
X139850952Y-98242380D02*
X139517619Y-97766190D01*
X139279523Y-98242380D02*
X139279523Y-97242380D01*
X139660476Y-97242380D01*
X139755714Y-97290000D01*
X139803333Y-97337619D01*
X139850952Y-97432857D01*
X139850952Y-97575714D01*
X139803333Y-97670952D01*
X139755714Y-97718571D01*
X139660476Y-97766190D01*
X139279523Y-97766190D01*
X140803333Y-98242380D02*
X140231904Y-98242380D01*
X140517619Y-98242380D02*
X140517619Y-97242380D01*
X140422380Y-97385238D01*
X140327142Y-97480476D01*
X140231904Y-97528095D01*
X141136666Y-97242380D02*
X141755714Y-97242380D01*
X141422380Y-97623333D01*
X141565238Y-97623333D01*
X141660476Y-97670952D01*
X141708095Y-97718571D01*
X141755714Y-97813809D01*
X141755714Y-98051904D01*
X141708095Y-98147142D01*
X141660476Y-98194761D01*
X141565238Y-98242380D01*
X141279523Y-98242380D01*
X141184285Y-98194761D01*
X141136666Y-98147142D01*
X142708095Y-98242380D02*
X142136666Y-98242380D01*
X142422380Y-98242380D02*
X142422380Y-97242380D01*
X142327142Y-97385238D01*
X142231904Y-97480476D01*
X142136666Y-97528095D01*
X139850952Y-123642380D02*
X139517619Y-123166190D01*
X139279523Y-123642380D02*
X139279523Y-122642380D01*
X139660476Y-122642380D01*
X139755714Y-122690000D01*
X139803333Y-122737619D01*
X139850952Y-122832857D01*
X139850952Y-122975714D01*
X139803333Y-123070952D01*
X139755714Y-123118571D01*
X139660476Y-123166190D01*
X139279523Y-123166190D01*
X140803333Y-123642380D02*
X140231904Y-123642380D01*
X140517619Y-123642380D02*
X140517619Y-122642380D01*
X140422380Y-122785238D01*
X140327142Y-122880476D01*
X140231904Y-122928095D01*
X141136666Y-122642380D02*
X141755714Y-122642380D01*
X141422380Y-123023333D01*
X141565238Y-123023333D01*
X141660476Y-123070952D01*
X141708095Y-123118571D01*
X141755714Y-123213809D01*
X141755714Y-123451904D01*
X141708095Y-123547142D01*
X141660476Y-123594761D01*
X141565238Y-123642380D01*
X141279523Y-123642380D01*
X141184285Y-123594761D01*
X141136666Y-123547142D01*
X142374761Y-122642380D02*
X142470000Y-122642380D01*
X142565238Y-122690000D01*
X142612857Y-122737619D01*
X142660476Y-122832857D01*
X142708095Y-123023333D01*
X142708095Y-123261428D01*
X142660476Y-123451904D01*
X142612857Y-123547142D01*
X142565238Y-123594761D01*
X142470000Y-123642380D01*
X142374761Y-123642380D01*
X142279523Y-123594761D01*
X142231904Y-123547142D01*
X142184285Y-123451904D01*
X142136666Y-123261428D01*
X142136666Y-123023333D01*
X142184285Y-122832857D01*
X142231904Y-122737619D01*
X142279523Y-122690000D01*
X142374761Y-122642380D01*
X139850952Y-53792380D02*
X139517619Y-53316190D01*
X139279523Y-53792380D02*
X139279523Y-52792380D01*
X139660476Y-52792380D01*
X139755714Y-52840000D01*
X139803333Y-52887619D01*
X139850952Y-52982857D01*
X139850952Y-53125714D01*
X139803333Y-53220952D01*
X139755714Y-53268571D01*
X139660476Y-53316190D01*
X139279523Y-53316190D01*
X140803333Y-53792380D02*
X140231904Y-53792380D01*
X140517619Y-53792380D02*
X140517619Y-52792380D01*
X140422380Y-52935238D01*
X140327142Y-53030476D01*
X140231904Y-53078095D01*
X141184285Y-52887619D02*
X141231904Y-52840000D01*
X141327142Y-52792380D01*
X141565238Y-52792380D01*
X141660476Y-52840000D01*
X141708095Y-52887619D01*
X141755714Y-52982857D01*
X141755714Y-53078095D01*
X141708095Y-53220952D01*
X141136666Y-53792380D01*
X141755714Y-53792380D01*
X142231904Y-53792380D02*
X142422380Y-53792380D01*
X142517619Y-53744761D01*
X142565238Y-53697142D01*
X142660476Y-53554285D01*
X142708095Y-53363809D01*
X142708095Y-52982857D01*
X142660476Y-52887619D01*
X142612857Y-52840000D01*
X142517619Y-52792380D01*
X142327142Y-52792380D01*
X142231904Y-52840000D01*
X142184285Y-52887619D01*
X142136666Y-52982857D01*
X142136666Y-53220952D01*
X142184285Y-53316190D01*
X142231904Y-53363809D01*
X142327142Y-53411428D01*
X142517619Y-53411428D01*
X142612857Y-53363809D01*
X142660476Y-53316190D01*
X142708095Y-53220952D01*
X139850952Y-79192380D02*
X139517619Y-78716190D01*
X139279523Y-79192380D02*
X139279523Y-78192380D01*
X139660476Y-78192380D01*
X139755714Y-78240000D01*
X139803333Y-78287619D01*
X139850952Y-78382857D01*
X139850952Y-78525714D01*
X139803333Y-78620952D01*
X139755714Y-78668571D01*
X139660476Y-78716190D01*
X139279523Y-78716190D01*
X140803333Y-79192380D02*
X140231904Y-79192380D01*
X140517619Y-79192380D02*
X140517619Y-78192380D01*
X140422380Y-78335238D01*
X140327142Y-78430476D01*
X140231904Y-78478095D01*
X141184285Y-78287619D02*
X141231904Y-78240000D01*
X141327142Y-78192380D01*
X141565238Y-78192380D01*
X141660476Y-78240000D01*
X141708095Y-78287619D01*
X141755714Y-78382857D01*
X141755714Y-78478095D01*
X141708095Y-78620952D01*
X141136666Y-79192380D01*
X141755714Y-79192380D01*
X142327142Y-78620952D02*
X142231904Y-78573333D01*
X142184285Y-78525714D01*
X142136666Y-78430476D01*
X142136666Y-78382857D01*
X142184285Y-78287619D01*
X142231904Y-78240000D01*
X142327142Y-78192380D01*
X142517619Y-78192380D01*
X142612857Y-78240000D01*
X142660476Y-78287619D01*
X142708095Y-78382857D01*
X142708095Y-78430476D01*
X142660476Y-78525714D01*
X142612857Y-78573333D01*
X142517619Y-78620952D01*
X142327142Y-78620952D01*
X142231904Y-78668571D01*
X142184285Y-78716190D01*
X142136666Y-78811428D01*
X142136666Y-79001904D01*
X142184285Y-79097142D01*
X142231904Y-79144761D01*
X142327142Y-79192380D01*
X142517619Y-79192380D01*
X142612857Y-79144761D01*
X142660476Y-79097142D01*
X142708095Y-79001904D01*
X142708095Y-78811428D01*
X142660476Y-78716190D01*
X142612857Y-78668571D01*
X142517619Y-78620952D01*
X139850952Y-104592380D02*
X139517619Y-104116190D01*
X139279523Y-104592380D02*
X139279523Y-103592380D01*
X139660476Y-103592380D01*
X139755714Y-103640000D01*
X139803333Y-103687619D01*
X139850952Y-103782857D01*
X139850952Y-103925714D01*
X139803333Y-104020952D01*
X139755714Y-104068571D01*
X139660476Y-104116190D01*
X139279523Y-104116190D01*
X140803333Y-104592380D02*
X140231904Y-104592380D01*
X140517619Y-104592380D02*
X140517619Y-103592380D01*
X140422380Y-103735238D01*
X140327142Y-103830476D01*
X140231904Y-103878095D01*
X141184285Y-103687619D02*
X141231904Y-103640000D01*
X141327142Y-103592380D01*
X141565238Y-103592380D01*
X141660476Y-103640000D01*
X141708095Y-103687619D01*
X141755714Y-103782857D01*
X141755714Y-103878095D01*
X141708095Y-104020952D01*
X141136666Y-104592380D01*
X141755714Y-104592380D01*
X142089047Y-103592380D02*
X142755714Y-103592380D01*
X142327142Y-104592380D01*
X139850952Y-129992380D02*
X139517619Y-129516190D01*
X139279523Y-129992380D02*
X139279523Y-128992380D01*
X139660476Y-128992380D01*
X139755714Y-129040000D01*
X139803333Y-129087619D01*
X139850952Y-129182857D01*
X139850952Y-129325714D01*
X139803333Y-129420952D01*
X139755714Y-129468571D01*
X139660476Y-129516190D01*
X139279523Y-129516190D01*
X140803333Y-129992380D02*
X140231904Y-129992380D01*
X140517619Y-129992380D02*
X140517619Y-128992380D01*
X140422380Y-129135238D01*
X140327142Y-129230476D01*
X140231904Y-129278095D01*
X141184285Y-129087619D02*
X141231904Y-129040000D01*
X141327142Y-128992380D01*
X141565238Y-128992380D01*
X141660476Y-129040000D01*
X141708095Y-129087619D01*
X141755714Y-129182857D01*
X141755714Y-129278095D01*
X141708095Y-129420952D01*
X141136666Y-129992380D01*
X141755714Y-129992380D01*
X142612857Y-128992380D02*
X142422380Y-128992380D01*
X142327142Y-129040000D01*
X142279523Y-129087619D01*
X142184285Y-129230476D01*
X142136666Y-129420952D01*
X142136666Y-129801904D01*
X142184285Y-129897142D01*
X142231904Y-129944761D01*
X142327142Y-129992380D01*
X142517619Y-129992380D01*
X142612857Y-129944761D01*
X142660476Y-129897142D01*
X142708095Y-129801904D01*
X142708095Y-129563809D01*
X142660476Y-129468571D01*
X142612857Y-129420952D01*
X142517619Y-129373333D01*
X142327142Y-129373333D01*
X142231904Y-129420952D01*
X142184285Y-129468571D01*
X142136666Y-129563809D01*
X139850952Y-60142380D02*
X139517619Y-59666190D01*
X139279523Y-60142380D02*
X139279523Y-59142380D01*
X139660476Y-59142380D01*
X139755714Y-59190000D01*
X139803333Y-59237619D01*
X139850952Y-59332857D01*
X139850952Y-59475714D01*
X139803333Y-59570952D01*
X139755714Y-59618571D01*
X139660476Y-59666190D01*
X139279523Y-59666190D01*
X140803333Y-60142380D02*
X140231904Y-60142380D01*
X140517619Y-60142380D02*
X140517619Y-59142380D01*
X140422380Y-59285238D01*
X140327142Y-59380476D01*
X140231904Y-59428095D01*
X141184285Y-59237619D02*
X141231904Y-59190000D01*
X141327142Y-59142380D01*
X141565238Y-59142380D01*
X141660476Y-59190000D01*
X141708095Y-59237619D01*
X141755714Y-59332857D01*
X141755714Y-59428095D01*
X141708095Y-59570952D01*
X141136666Y-60142380D01*
X141755714Y-60142380D01*
X142660476Y-59142380D02*
X142184285Y-59142380D01*
X142136666Y-59618571D01*
X142184285Y-59570952D01*
X142279523Y-59523333D01*
X142517619Y-59523333D01*
X142612857Y-59570952D01*
X142660476Y-59618571D01*
X142708095Y-59713809D01*
X142708095Y-59951904D01*
X142660476Y-60047142D01*
X142612857Y-60094761D01*
X142517619Y-60142380D01*
X142279523Y-60142380D01*
X142184285Y-60094761D01*
X142136666Y-60047142D01*
X139850952Y-85542380D02*
X139517619Y-85066190D01*
X139279523Y-85542380D02*
X139279523Y-84542380D01*
X139660476Y-84542380D01*
X139755714Y-84590000D01*
X139803333Y-84637619D01*
X139850952Y-84732857D01*
X139850952Y-84875714D01*
X139803333Y-84970952D01*
X139755714Y-85018571D01*
X139660476Y-85066190D01*
X139279523Y-85066190D01*
X140803333Y-85542380D02*
X140231904Y-85542380D01*
X140517619Y-85542380D02*
X140517619Y-84542380D01*
X140422380Y-84685238D01*
X140327142Y-84780476D01*
X140231904Y-84828095D01*
X141184285Y-84637619D02*
X141231904Y-84590000D01*
X141327142Y-84542380D01*
X141565238Y-84542380D01*
X141660476Y-84590000D01*
X141708095Y-84637619D01*
X141755714Y-84732857D01*
X141755714Y-84828095D01*
X141708095Y-84970952D01*
X141136666Y-85542380D01*
X141755714Y-85542380D01*
X142612857Y-84875714D02*
X142612857Y-85542380D01*
X142374761Y-84494761D02*
X142136666Y-85209047D01*
X142755714Y-85209047D01*
X139850952Y-110942380D02*
X139517619Y-110466190D01*
X139279523Y-110942380D02*
X139279523Y-109942380D01*
X139660476Y-109942380D01*
X139755714Y-109990000D01*
X139803333Y-110037619D01*
X139850952Y-110132857D01*
X139850952Y-110275714D01*
X139803333Y-110370952D01*
X139755714Y-110418571D01*
X139660476Y-110466190D01*
X139279523Y-110466190D01*
X140803333Y-110942380D02*
X140231904Y-110942380D01*
X140517619Y-110942380D02*
X140517619Y-109942380D01*
X140422380Y-110085238D01*
X140327142Y-110180476D01*
X140231904Y-110228095D01*
X141184285Y-110037619D02*
X141231904Y-109990000D01*
X141327142Y-109942380D01*
X141565238Y-109942380D01*
X141660476Y-109990000D01*
X141708095Y-110037619D01*
X141755714Y-110132857D01*
X141755714Y-110228095D01*
X141708095Y-110370952D01*
X141136666Y-110942380D01*
X141755714Y-110942380D01*
X142089047Y-109942380D02*
X142708095Y-109942380D01*
X142374761Y-110323333D01*
X142517619Y-110323333D01*
X142612857Y-110370952D01*
X142660476Y-110418571D01*
X142708095Y-110513809D01*
X142708095Y-110751904D01*
X142660476Y-110847142D01*
X142612857Y-110894761D01*
X142517619Y-110942380D01*
X142231904Y-110942380D01*
X142136666Y-110894761D01*
X142089047Y-110847142D01*
X139850952Y-136342380D02*
X139517619Y-135866190D01*
X139279523Y-136342380D02*
X139279523Y-135342380D01*
X139660476Y-135342380D01*
X139755714Y-135390000D01*
X139803333Y-135437619D01*
X139850952Y-135532857D01*
X139850952Y-135675714D01*
X139803333Y-135770952D01*
X139755714Y-135818571D01*
X139660476Y-135866190D01*
X139279523Y-135866190D01*
X140803333Y-136342380D02*
X140231904Y-136342380D01*
X140517619Y-136342380D02*
X140517619Y-135342380D01*
X140422380Y-135485238D01*
X140327142Y-135580476D01*
X140231904Y-135628095D01*
X141184285Y-135437619D02*
X141231904Y-135390000D01*
X141327142Y-135342380D01*
X141565238Y-135342380D01*
X141660476Y-135390000D01*
X141708095Y-135437619D01*
X141755714Y-135532857D01*
X141755714Y-135628095D01*
X141708095Y-135770952D01*
X141136666Y-136342380D01*
X141755714Y-136342380D01*
X142136666Y-135437619D02*
X142184285Y-135390000D01*
X142279523Y-135342380D01*
X142517619Y-135342380D01*
X142612857Y-135390000D01*
X142660476Y-135437619D01*
X142708095Y-135532857D01*
X142708095Y-135628095D01*
X142660476Y-135770952D01*
X142089047Y-136342380D01*
X142708095Y-136342380D01*
X130389523Y-41092380D02*
X130389523Y-40092380D01*
X130627619Y-40092380D01*
X130770476Y-40140000D01*
X130865714Y-40235238D01*
X130913333Y-40330476D01*
X130960952Y-40520952D01*
X130960952Y-40663809D01*
X130913333Y-40854285D01*
X130865714Y-40949523D01*
X130770476Y-41044761D01*
X130627619Y-41092380D01*
X130389523Y-41092380D01*
X131913333Y-41092380D02*
X131341904Y-41092380D01*
X131627619Y-41092380D02*
X131627619Y-40092380D01*
X131532380Y-40235238D01*
X131437142Y-40330476D01*
X131341904Y-40378095D01*
X132865714Y-41092380D02*
X132294285Y-41092380D01*
X132580000Y-41092380D02*
X132580000Y-40092380D01*
X132484761Y-40235238D01*
X132389523Y-40330476D01*
X132294285Y-40378095D01*
X133199047Y-40092380D02*
X133865714Y-40092380D01*
X133437142Y-41092380D01*
X130389523Y-66492380D02*
X130389523Y-65492380D01*
X130627619Y-65492380D01*
X130770476Y-65540000D01*
X130865714Y-65635238D01*
X130913333Y-65730476D01*
X130960952Y-65920952D01*
X130960952Y-66063809D01*
X130913333Y-66254285D01*
X130865714Y-66349523D01*
X130770476Y-66444761D01*
X130627619Y-66492380D01*
X130389523Y-66492380D01*
X131913333Y-66492380D02*
X131341904Y-66492380D01*
X131627619Y-66492380D02*
X131627619Y-65492380D01*
X131532380Y-65635238D01*
X131437142Y-65730476D01*
X131341904Y-65778095D01*
X132865714Y-66492380D02*
X132294285Y-66492380D01*
X132580000Y-66492380D02*
X132580000Y-65492380D01*
X132484761Y-65635238D01*
X132389523Y-65730476D01*
X132294285Y-65778095D01*
X133722857Y-65492380D02*
X133532380Y-65492380D01*
X133437142Y-65540000D01*
X133389523Y-65587619D01*
X133294285Y-65730476D01*
X133246666Y-65920952D01*
X133246666Y-66301904D01*
X133294285Y-66397142D01*
X133341904Y-66444761D01*
X133437142Y-66492380D01*
X133627619Y-66492380D01*
X133722857Y-66444761D01*
X133770476Y-66397142D01*
X133818095Y-66301904D01*
X133818095Y-66063809D01*
X133770476Y-65968571D01*
X133722857Y-65920952D01*
X133627619Y-65873333D01*
X133437142Y-65873333D01*
X133341904Y-65920952D01*
X133294285Y-65968571D01*
X133246666Y-66063809D01*
X130389523Y-91892380D02*
X130389523Y-90892380D01*
X130627619Y-90892380D01*
X130770476Y-90940000D01*
X130865714Y-91035238D01*
X130913333Y-91130476D01*
X130960952Y-91320952D01*
X130960952Y-91463809D01*
X130913333Y-91654285D01*
X130865714Y-91749523D01*
X130770476Y-91844761D01*
X130627619Y-91892380D01*
X130389523Y-91892380D01*
X131913333Y-91892380D02*
X131341904Y-91892380D01*
X131627619Y-91892380D02*
X131627619Y-90892380D01*
X131532380Y-91035238D01*
X131437142Y-91130476D01*
X131341904Y-91178095D01*
X132865714Y-91892380D02*
X132294285Y-91892380D01*
X132580000Y-91892380D02*
X132580000Y-90892380D01*
X132484761Y-91035238D01*
X132389523Y-91130476D01*
X132294285Y-91178095D01*
X133770476Y-90892380D02*
X133294285Y-90892380D01*
X133246666Y-91368571D01*
X133294285Y-91320952D01*
X133389523Y-91273333D01*
X133627619Y-91273333D01*
X133722857Y-91320952D01*
X133770476Y-91368571D01*
X133818095Y-91463809D01*
X133818095Y-91701904D01*
X133770476Y-91797142D01*
X133722857Y-91844761D01*
X133627619Y-91892380D01*
X133389523Y-91892380D01*
X133294285Y-91844761D01*
X133246666Y-91797142D01*
X130389523Y-117292380D02*
X130389523Y-116292380D01*
X130627619Y-116292380D01*
X130770476Y-116340000D01*
X130865714Y-116435238D01*
X130913333Y-116530476D01*
X130960952Y-116720952D01*
X130960952Y-116863809D01*
X130913333Y-117054285D01*
X130865714Y-117149523D01*
X130770476Y-117244761D01*
X130627619Y-117292380D01*
X130389523Y-117292380D01*
X131913333Y-117292380D02*
X131341904Y-117292380D01*
X131627619Y-117292380D02*
X131627619Y-116292380D01*
X131532380Y-116435238D01*
X131437142Y-116530476D01*
X131341904Y-116578095D01*
X132865714Y-117292380D02*
X132294285Y-117292380D01*
X132580000Y-117292380D02*
X132580000Y-116292380D01*
X132484761Y-116435238D01*
X132389523Y-116530476D01*
X132294285Y-116578095D01*
X133722857Y-116625714D02*
X133722857Y-117292380D01*
X133484761Y-116244761D02*
X133246666Y-116959047D01*
X133865714Y-116959047D01*
X130389523Y-47442380D02*
X130389523Y-46442380D01*
X130627619Y-46442380D01*
X130770476Y-46490000D01*
X130865714Y-46585238D01*
X130913333Y-46680476D01*
X130960952Y-46870952D01*
X130960952Y-47013809D01*
X130913333Y-47204285D01*
X130865714Y-47299523D01*
X130770476Y-47394761D01*
X130627619Y-47442380D01*
X130389523Y-47442380D01*
X131913333Y-47442380D02*
X131341904Y-47442380D01*
X131627619Y-47442380D02*
X131627619Y-46442380D01*
X131532380Y-46585238D01*
X131437142Y-46680476D01*
X131341904Y-46728095D01*
X132865714Y-47442380D02*
X132294285Y-47442380D01*
X132580000Y-47442380D02*
X132580000Y-46442380D01*
X132484761Y-46585238D01*
X132389523Y-46680476D01*
X132294285Y-46728095D01*
X133199047Y-46442380D02*
X133818095Y-46442380D01*
X133484761Y-46823333D01*
X133627619Y-46823333D01*
X133722857Y-46870952D01*
X133770476Y-46918571D01*
X133818095Y-47013809D01*
X133818095Y-47251904D01*
X133770476Y-47347142D01*
X133722857Y-47394761D01*
X133627619Y-47442380D01*
X133341904Y-47442380D01*
X133246666Y-47394761D01*
X133199047Y-47347142D01*
X130389523Y-72842380D02*
X130389523Y-71842380D01*
X130627619Y-71842380D01*
X130770476Y-71890000D01*
X130865714Y-71985238D01*
X130913333Y-72080476D01*
X130960952Y-72270952D01*
X130960952Y-72413809D01*
X130913333Y-72604285D01*
X130865714Y-72699523D01*
X130770476Y-72794761D01*
X130627619Y-72842380D01*
X130389523Y-72842380D01*
X131913333Y-72842380D02*
X131341904Y-72842380D01*
X131627619Y-72842380D02*
X131627619Y-71842380D01*
X131532380Y-71985238D01*
X131437142Y-72080476D01*
X131341904Y-72128095D01*
X132865714Y-72842380D02*
X132294285Y-72842380D01*
X132580000Y-72842380D02*
X132580000Y-71842380D01*
X132484761Y-71985238D01*
X132389523Y-72080476D01*
X132294285Y-72128095D01*
X133246666Y-71937619D02*
X133294285Y-71890000D01*
X133389523Y-71842380D01*
X133627619Y-71842380D01*
X133722857Y-71890000D01*
X133770476Y-71937619D01*
X133818095Y-72032857D01*
X133818095Y-72128095D01*
X133770476Y-72270952D01*
X133199047Y-72842380D01*
X133818095Y-72842380D01*
X130389523Y-98242380D02*
X130389523Y-97242380D01*
X130627619Y-97242380D01*
X130770476Y-97290000D01*
X130865714Y-97385238D01*
X130913333Y-97480476D01*
X130960952Y-97670952D01*
X130960952Y-97813809D01*
X130913333Y-98004285D01*
X130865714Y-98099523D01*
X130770476Y-98194761D01*
X130627619Y-98242380D01*
X130389523Y-98242380D01*
X131913333Y-98242380D02*
X131341904Y-98242380D01*
X131627619Y-98242380D02*
X131627619Y-97242380D01*
X131532380Y-97385238D01*
X131437142Y-97480476D01*
X131341904Y-97528095D01*
X132865714Y-98242380D02*
X132294285Y-98242380D01*
X132580000Y-98242380D02*
X132580000Y-97242380D01*
X132484761Y-97385238D01*
X132389523Y-97480476D01*
X132294285Y-97528095D01*
X133818095Y-98242380D02*
X133246666Y-98242380D01*
X133532380Y-98242380D02*
X133532380Y-97242380D01*
X133437142Y-97385238D01*
X133341904Y-97480476D01*
X133246666Y-97528095D01*
X130389523Y-123642380D02*
X130389523Y-122642380D01*
X130627619Y-122642380D01*
X130770476Y-122690000D01*
X130865714Y-122785238D01*
X130913333Y-122880476D01*
X130960952Y-123070952D01*
X130960952Y-123213809D01*
X130913333Y-123404285D01*
X130865714Y-123499523D01*
X130770476Y-123594761D01*
X130627619Y-123642380D01*
X130389523Y-123642380D01*
X131913333Y-123642380D02*
X131341904Y-123642380D01*
X131627619Y-123642380D02*
X131627619Y-122642380D01*
X131532380Y-122785238D01*
X131437142Y-122880476D01*
X131341904Y-122928095D01*
X132865714Y-123642380D02*
X132294285Y-123642380D01*
X132580000Y-123642380D02*
X132580000Y-122642380D01*
X132484761Y-122785238D01*
X132389523Y-122880476D01*
X132294285Y-122928095D01*
X133484761Y-122642380D02*
X133580000Y-122642380D01*
X133675238Y-122690000D01*
X133722857Y-122737619D01*
X133770476Y-122832857D01*
X133818095Y-123023333D01*
X133818095Y-123261428D01*
X133770476Y-123451904D01*
X133722857Y-123547142D01*
X133675238Y-123594761D01*
X133580000Y-123642380D01*
X133484761Y-123642380D01*
X133389523Y-123594761D01*
X133341904Y-123547142D01*
X133294285Y-123451904D01*
X133246666Y-123261428D01*
X133246666Y-123023333D01*
X133294285Y-122832857D01*
X133341904Y-122737619D01*
X133389523Y-122690000D01*
X133484761Y-122642380D01*
X130389523Y-53792380D02*
X130389523Y-52792380D01*
X130627619Y-52792380D01*
X130770476Y-52840000D01*
X130865714Y-52935238D01*
X130913333Y-53030476D01*
X130960952Y-53220952D01*
X130960952Y-53363809D01*
X130913333Y-53554285D01*
X130865714Y-53649523D01*
X130770476Y-53744761D01*
X130627619Y-53792380D01*
X130389523Y-53792380D01*
X131913333Y-53792380D02*
X131341904Y-53792380D01*
X131627619Y-53792380D02*
X131627619Y-52792380D01*
X131532380Y-52935238D01*
X131437142Y-53030476D01*
X131341904Y-53078095D01*
X132532380Y-52792380D02*
X132627619Y-52792380D01*
X132722857Y-52840000D01*
X132770476Y-52887619D01*
X132818095Y-52982857D01*
X132865714Y-53173333D01*
X132865714Y-53411428D01*
X132818095Y-53601904D01*
X132770476Y-53697142D01*
X132722857Y-53744761D01*
X132627619Y-53792380D01*
X132532380Y-53792380D01*
X132437142Y-53744761D01*
X132389523Y-53697142D01*
X132341904Y-53601904D01*
X132294285Y-53411428D01*
X132294285Y-53173333D01*
X132341904Y-52982857D01*
X132389523Y-52887619D01*
X132437142Y-52840000D01*
X132532380Y-52792380D01*
X133341904Y-53792380D02*
X133532380Y-53792380D01*
X133627619Y-53744761D01*
X133675238Y-53697142D01*
X133770476Y-53554285D01*
X133818095Y-53363809D01*
X133818095Y-52982857D01*
X133770476Y-52887619D01*
X133722857Y-52840000D01*
X133627619Y-52792380D01*
X133437142Y-52792380D01*
X133341904Y-52840000D01*
X133294285Y-52887619D01*
X133246666Y-52982857D01*
X133246666Y-53220952D01*
X133294285Y-53316190D01*
X133341904Y-53363809D01*
X133437142Y-53411428D01*
X133627619Y-53411428D01*
X133722857Y-53363809D01*
X133770476Y-53316190D01*
X133818095Y-53220952D01*
X130389523Y-79192380D02*
X130389523Y-78192380D01*
X130627619Y-78192380D01*
X130770476Y-78240000D01*
X130865714Y-78335238D01*
X130913333Y-78430476D01*
X130960952Y-78620952D01*
X130960952Y-78763809D01*
X130913333Y-78954285D01*
X130865714Y-79049523D01*
X130770476Y-79144761D01*
X130627619Y-79192380D01*
X130389523Y-79192380D01*
X131913333Y-79192380D02*
X131341904Y-79192380D01*
X131627619Y-79192380D02*
X131627619Y-78192380D01*
X131532380Y-78335238D01*
X131437142Y-78430476D01*
X131341904Y-78478095D01*
X132532380Y-78192380D02*
X132627619Y-78192380D01*
X132722857Y-78240000D01*
X132770476Y-78287619D01*
X132818095Y-78382857D01*
X132865714Y-78573333D01*
X132865714Y-78811428D01*
X132818095Y-79001904D01*
X132770476Y-79097142D01*
X132722857Y-79144761D01*
X132627619Y-79192380D01*
X132532380Y-79192380D01*
X132437142Y-79144761D01*
X132389523Y-79097142D01*
X132341904Y-79001904D01*
X132294285Y-78811428D01*
X132294285Y-78573333D01*
X132341904Y-78382857D01*
X132389523Y-78287619D01*
X132437142Y-78240000D01*
X132532380Y-78192380D01*
X133437142Y-78620952D02*
X133341904Y-78573333D01*
X133294285Y-78525714D01*
X133246666Y-78430476D01*
X133246666Y-78382857D01*
X133294285Y-78287619D01*
X133341904Y-78240000D01*
X133437142Y-78192380D01*
X133627619Y-78192380D01*
X133722857Y-78240000D01*
X133770476Y-78287619D01*
X133818095Y-78382857D01*
X133818095Y-78430476D01*
X133770476Y-78525714D01*
X133722857Y-78573333D01*
X133627619Y-78620952D01*
X133437142Y-78620952D01*
X133341904Y-78668571D01*
X133294285Y-78716190D01*
X133246666Y-78811428D01*
X133246666Y-79001904D01*
X133294285Y-79097142D01*
X133341904Y-79144761D01*
X133437142Y-79192380D01*
X133627619Y-79192380D01*
X133722857Y-79144761D01*
X133770476Y-79097142D01*
X133818095Y-79001904D01*
X133818095Y-78811428D01*
X133770476Y-78716190D01*
X133722857Y-78668571D01*
X133627619Y-78620952D01*
X130389523Y-104592380D02*
X130389523Y-103592380D01*
X130627619Y-103592380D01*
X130770476Y-103640000D01*
X130865714Y-103735238D01*
X130913333Y-103830476D01*
X130960952Y-104020952D01*
X130960952Y-104163809D01*
X130913333Y-104354285D01*
X130865714Y-104449523D01*
X130770476Y-104544761D01*
X130627619Y-104592380D01*
X130389523Y-104592380D01*
X131913333Y-104592380D02*
X131341904Y-104592380D01*
X131627619Y-104592380D02*
X131627619Y-103592380D01*
X131532380Y-103735238D01*
X131437142Y-103830476D01*
X131341904Y-103878095D01*
X132532380Y-103592380D02*
X132627619Y-103592380D01*
X132722857Y-103640000D01*
X132770476Y-103687619D01*
X132818095Y-103782857D01*
X132865714Y-103973333D01*
X132865714Y-104211428D01*
X132818095Y-104401904D01*
X132770476Y-104497142D01*
X132722857Y-104544761D01*
X132627619Y-104592380D01*
X132532380Y-104592380D01*
X132437142Y-104544761D01*
X132389523Y-104497142D01*
X132341904Y-104401904D01*
X132294285Y-104211428D01*
X132294285Y-103973333D01*
X132341904Y-103782857D01*
X132389523Y-103687619D01*
X132437142Y-103640000D01*
X132532380Y-103592380D01*
X133199047Y-103592380D02*
X133865714Y-103592380D01*
X133437142Y-104592380D01*
X130389523Y-129992380D02*
X130389523Y-128992380D01*
X130627619Y-128992380D01*
X130770476Y-129040000D01*
X130865714Y-129135238D01*
X130913333Y-129230476D01*
X130960952Y-129420952D01*
X130960952Y-129563809D01*
X130913333Y-129754285D01*
X130865714Y-129849523D01*
X130770476Y-129944761D01*
X130627619Y-129992380D01*
X130389523Y-129992380D01*
X131913333Y-129992380D02*
X131341904Y-129992380D01*
X131627619Y-129992380D02*
X131627619Y-128992380D01*
X131532380Y-129135238D01*
X131437142Y-129230476D01*
X131341904Y-129278095D01*
X132532380Y-128992380D02*
X132627619Y-128992380D01*
X132722857Y-129040000D01*
X132770476Y-129087619D01*
X132818095Y-129182857D01*
X132865714Y-129373333D01*
X132865714Y-129611428D01*
X132818095Y-129801904D01*
X132770476Y-129897142D01*
X132722857Y-129944761D01*
X132627619Y-129992380D01*
X132532380Y-129992380D01*
X132437142Y-129944761D01*
X132389523Y-129897142D01*
X132341904Y-129801904D01*
X132294285Y-129611428D01*
X132294285Y-129373333D01*
X132341904Y-129182857D01*
X132389523Y-129087619D01*
X132437142Y-129040000D01*
X132532380Y-128992380D01*
X133722857Y-128992380D02*
X133532380Y-128992380D01*
X133437142Y-129040000D01*
X133389523Y-129087619D01*
X133294285Y-129230476D01*
X133246666Y-129420952D01*
X133246666Y-129801904D01*
X133294285Y-129897142D01*
X133341904Y-129944761D01*
X133437142Y-129992380D01*
X133627619Y-129992380D01*
X133722857Y-129944761D01*
X133770476Y-129897142D01*
X133818095Y-129801904D01*
X133818095Y-129563809D01*
X133770476Y-129468571D01*
X133722857Y-129420952D01*
X133627619Y-129373333D01*
X133437142Y-129373333D01*
X133341904Y-129420952D01*
X133294285Y-129468571D01*
X133246666Y-129563809D01*
X130389523Y-60142380D02*
X130389523Y-59142380D01*
X130627619Y-59142380D01*
X130770476Y-59190000D01*
X130865714Y-59285238D01*
X130913333Y-59380476D01*
X130960952Y-59570952D01*
X130960952Y-59713809D01*
X130913333Y-59904285D01*
X130865714Y-59999523D01*
X130770476Y-60094761D01*
X130627619Y-60142380D01*
X130389523Y-60142380D01*
X131913333Y-60142380D02*
X131341904Y-60142380D01*
X131627619Y-60142380D02*
X131627619Y-59142380D01*
X131532380Y-59285238D01*
X131437142Y-59380476D01*
X131341904Y-59428095D01*
X132532380Y-59142380D02*
X132627619Y-59142380D01*
X132722857Y-59190000D01*
X132770476Y-59237619D01*
X132818095Y-59332857D01*
X132865714Y-59523333D01*
X132865714Y-59761428D01*
X132818095Y-59951904D01*
X132770476Y-60047142D01*
X132722857Y-60094761D01*
X132627619Y-60142380D01*
X132532380Y-60142380D01*
X132437142Y-60094761D01*
X132389523Y-60047142D01*
X132341904Y-59951904D01*
X132294285Y-59761428D01*
X132294285Y-59523333D01*
X132341904Y-59332857D01*
X132389523Y-59237619D01*
X132437142Y-59190000D01*
X132532380Y-59142380D01*
X133770476Y-59142380D02*
X133294285Y-59142380D01*
X133246666Y-59618571D01*
X133294285Y-59570952D01*
X133389523Y-59523333D01*
X133627619Y-59523333D01*
X133722857Y-59570952D01*
X133770476Y-59618571D01*
X133818095Y-59713809D01*
X133818095Y-59951904D01*
X133770476Y-60047142D01*
X133722857Y-60094761D01*
X133627619Y-60142380D01*
X133389523Y-60142380D01*
X133294285Y-60094761D01*
X133246666Y-60047142D01*
X130389523Y-85542380D02*
X130389523Y-84542380D01*
X130627619Y-84542380D01*
X130770476Y-84590000D01*
X130865714Y-84685238D01*
X130913333Y-84780476D01*
X130960952Y-84970952D01*
X130960952Y-85113809D01*
X130913333Y-85304285D01*
X130865714Y-85399523D01*
X130770476Y-85494761D01*
X130627619Y-85542380D01*
X130389523Y-85542380D01*
X131913333Y-85542380D02*
X131341904Y-85542380D01*
X131627619Y-85542380D02*
X131627619Y-84542380D01*
X131532380Y-84685238D01*
X131437142Y-84780476D01*
X131341904Y-84828095D01*
X132532380Y-84542380D02*
X132627619Y-84542380D01*
X132722857Y-84590000D01*
X132770476Y-84637619D01*
X132818095Y-84732857D01*
X132865714Y-84923333D01*
X132865714Y-85161428D01*
X132818095Y-85351904D01*
X132770476Y-85447142D01*
X132722857Y-85494761D01*
X132627619Y-85542380D01*
X132532380Y-85542380D01*
X132437142Y-85494761D01*
X132389523Y-85447142D01*
X132341904Y-85351904D01*
X132294285Y-85161428D01*
X132294285Y-84923333D01*
X132341904Y-84732857D01*
X132389523Y-84637619D01*
X132437142Y-84590000D01*
X132532380Y-84542380D01*
X133722857Y-84875714D02*
X133722857Y-85542380D01*
X133484761Y-84494761D02*
X133246666Y-85209047D01*
X133865714Y-85209047D01*
X130389523Y-110942380D02*
X130389523Y-109942380D01*
X130627619Y-109942380D01*
X130770476Y-109990000D01*
X130865714Y-110085238D01*
X130913333Y-110180476D01*
X130960952Y-110370952D01*
X130960952Y-110513809D01*
X130913333Y-110704285D01*
X130865714Y-110799523D01*
X130770476Y-110894761D01*
X130627619Y-110942380D01*
X130389523Y-110942380D01*
X131913333Y-110942380D02*
X131341904Y-110942380D01*
X131627619Y-110942380D02*
X131627619Y-109942380D01*
X131532380Y-110085238D01*
X131437142Y-110180476D01*
X131341904Y-110228095D01*
X132532380Y-109942380D02*
X132627619Y-109942380D01*
X132722857Y-109990000D01*
X132770476Y-110037619D01*
X132818095Y-110132857D01*
X132865714Y-110323333D01*
X132865714Y-110561428D01*
X132818095Y-110751904D01*
X132770476Y-110847142D01*
X132722857Y-110894761D01*
X132627619Y-110942380D01*
X132532380Y-110942380D01*
X132437142Y-110894761D01*
X132389523Y-110847142D01*
X132341904Y-110751904D01*
X132294285Y-110561428D01*
X132294285Y-110323333D01*
X132341904Y-110132857D01*
X132389523Y-110037619D01*
X132437142Y-109990000D01*
X132532380Y-109942380D01*
X133199047Y-109942380D02*
X133818095Y-109942380D01*
X133484761Y-110323333D01*
X133627619Y-110323333D01*
X133722857Y-110370952D01*
X133770476Y-110418571D01*
X133818095Y-110513809D01*
X133818095Y-110751904D01*
X133770476Y-110847142D01*
X133722857Y-110894761D01*
X133627619Y-110942380D01*
X133341904Y-110942380D01*
X133246666Y-110894761D01*
X133199047Y-110847142D01*
X130389523Y-136342380D02*
X130389523Y-135342380D01*
X130627619Y-135342380D01*
X130770476Y-135390000D01*
X130865714Y-135485238D01*
X130913333Y-135580476D01*
X130960952Y-135770952D01*
X130960952Y-135913809D01*
X130913333Y-136104285D01*
X130865714Y-136199523D01*
X130770476Y-136294761D01*
X130627619Y-136342380D01*
X130389523Y-136342380D01*
X131913333Y-136342380D02*
X131341904Y-136342380D01*
X131627619Y-136342380D02*
X131627619Y-135342380D01*
X131532380Y-135485238D01*
X131437142Y-135580476D01*
X131341904Y-135628095D01*
X132532380Y-135342380D02*
X132627619Y-135342380D01*
X132722857Y-135390000D01*
X132770476Y-135437619D01*
X132818095Y-135532857D01*
X132865714Y-135723333D01*
X132865714Y-135961428D01*
X132818095Y-136151904D01*
X132770476Y-136247142D01*
X132722857Y-136294761D01*
X132627619Y-136342380D01*
X132532380Y-136342380D01*
X132437142Y-136294761D01*
X132389523Y-136247142D01*
X132341904Y-136151904D01*
X132294285Y-135961428D01*
X132294285Y-135723333D01*
X132341904Y-135532857D01*
X132389523Y-135437619D01*
X132437142Y-135390000D01*
X132532380Y-135342380D01*
X133246666Y-135437619D02*
X133294285Y-135390000D01*
X133389523Y-135342380D01*
X133627619Y-135342380D01*
X133722857Y-135390000D01*
X133770476Y-135437619D01*
X133818095Y-135532857D01*
X133818095Y-135628095D01*
X133770476Y-135770952D01*
X133199047Y-136342380D01*
X133818095Y-136342380D01*
X85542380Y-88749047D02*
X85066190Y-89082380D01*
X85542380Y-89320476D02*
X84542380Y-89320476D01*
X84542380Y-88939523D01*
X84590000Y-88844285D01*
X84637619Y-88796666D01*
X84732857Y-88749047D01*
X84875714Y-88749047D01*
X84970952Y-88796666D01*
X85018571Y-88844285D01*
X85066190Y-88939523D01*
X85066190Y-89320476D01*
X85542380Y-87796666D02*
X85542380Y-88368095D01*
X85542380Y-88082380D02*
X84542380Y-88082380D01*
X84685238Y-88177619D01*
X84780476Y-88272857D01*
X84828095Y-88368095D01*
X84542380Y-87177619D02*
X84542380Y-87082380D01*
X84590000Y-86987142D01*
X84637619Y-86939523D01*
X84732857Y-86891904D01*
X84923333Y-86844285D01*
X85161428Y-86844285D01*
X85351904Y-86891904D01*
X85447142Y-86939523D01*
X85494761Y-86987142D01*
X85542380Y-87082380D01*
X85542380Y-87177619D01*
X85494761Y-87272857D01*
X85447142Y-87320476D01*
X85351904Y-87368095D01*
X85161428Y-87415714D01*
X84923333Y-87415714D01*
X84732857Y-87368095D01*
X84637619Y-87320476D01*
X84590000Y-87272857D01*
X84542380Y-87177619D01*
X85542380Y-86368095D02*
X85542380Y-86177619D01*
X85494761Y-86082380D01*
X85447142Y-86034761D01*
X85304285Y-85939523D01*
X85113809Y-85891904D01*
X84732857Y-85891904D01*
X84637619Y-85939523D01*
X84590000Y-85987142D01*
X84542380Y-86082380D01*
X84542380Y-86272857D01*
X84590000Y-86368095D01*
X84637619Y-86415714D01*
X84732857Y-86463333D01*
X84970952Y-86463333D01*
X85066190Y-86415714D01*
X85113809Y-86368095D01*
X85161428Y-86272857D01*
X85161428Y-86082380D01*
X85113809Y-85987142D01*
X85066190Y-85939523D01*
X84970952Y-85891904D01*
X77922380Y-78589047D02*
X77446190Y-78922380D01*
X77922380Y-79160476D02*
X76922380Y-79160476D01*
X76922380Y-78779523D01*
X76970000Y-78684285D01*
X77017619Y-78636666D01*
X77112857Y-78589047D01*
X77255714Y-78589047D01*
X77350952Y-78636666D01*
X77398571Y-78684285D01*
X77446190Y-78779523D01*
X77446190Y-79160476D01*
X77922380Y-77636666D02*
X77922380Y-78208095D01*
X77922380Y-77922380D02*
X76922380Y-77922380D01*
X77065238Y-78017619D01*
X77160476Y-78112857D01*
X77208095Y-78208095D01*
X76922380Y-77017619D02*
X76922380Y-76922380D01*
X76970000Y-76827142D01*
X77017619Y-76779523D01*
X77112857Y-76731904D01*
X77303333Y-76684285D01*
X77541428Y-76684285D01*
X77731904Y-76731904D01*
X77827142Y-76779523D01*
X77874761Y-76827142D01*
X77922380Y-76922380D01*
X77922380Y-77017619D01*
X77874761Y-77112857D01*
X77827142Y-77160476D01*
X77731904Y-77208095D01*
X77541428Y-77255714D01*
X77303333Y-77255714D01*
X77112857Y-77208095D01*
X77017619Y-77160476D01*
X76970000Y-77112857D01*
X76922380Y-77017619D01*
X76922380Y-76350952D02*
X76922380Y-75731904D01*
X77303333Y-76065238D01*
X77303333Y-75922380D01*
X77350952Y-75827142D01*
X77398571Y-75779523D01*
X77493809Y-75731904D01*
X77731904Y-75731904D01*
X77827142Y-75779523D01*
X77874761Y-75827142D01*
X77922380Y-75922380D01*
X77922380Y-76208095D01*
X77874761Y-76303333D01*
X77827142Y-76350952D01*
X77922380Y-65889047D02*
X77446190Y-66222380D01*
X77922380Y-66460476D02*
X76922380Y-66460476D01*
X76922380Y-66079523D01*
X76970000Y-65984285D01*
X77017619Y-65936666D01*
X77112857Y-65889047D01*
X77255714Y-65889047D01*
X77350952Y-65936666D01*
X77398571Y-65984285D01*
X77446190Y-66079523D01*
X77446190Y-66460476D01*
X77922380Y-64936666D02*
X77922380Y-65508095D01*
X77922380Y-65222380D02*
X76922380Y-65222380D01*
X77065238Y-65317619D01*
X77160476Y-65412857D01*
X77208095Y-65508095D01*
X76922380Y-64317619D02*
X76922380Y-64222380D01*
X76970000Y-64127142D01*
X77017619Y-64079523D01*
X77112857Y-64031904D01*
X77303333Y-63984285D01*
X77541428Y-63984285D01*
X77731904Y-64031904D01*
X77827142Y-64079523D01*
X77874761Y-64127142D01*
X77922380Y-64222380D01*
X77922380Y-64317619D01*
X77874761Y-64412857D01*
X77827142Y-64460476D01*
X77731904Y-64508095D01*
X77541428Y-64555714D01*
X77303333Y-64555714D01*
X77112857Y-64508095D01*
X77017619Y-64460476D01*
X76970000Y-64412857D01*
X76922380Y-64317619D01*
X77017619Y-63603333D02*
X76970000Y-63555714D01*
X76922380Y-63460476D01*
X76922380Y-63222380D01*
X76970000Y-63127142D01*
X77017619Y-63079523D01*
X77112857Y-63031904D01*
X77208095Y-63031904D01*
X77350952Y-63079523D01*
X77922380Y-63650952D01*
X77922380Y-63031904D01*
X110847142Y-92559047D02*
X110894761Y-92606666D01*
X110942380Y-92749523D01*
X110942380Y-92844761D01*
X110894761Y-92987619D01*
X110799523Y-93082857D01*
X110704285Y-93130476D01*
X110513809Y-93178095D01*
X110370952Y-93178095D01*
X110180476Y-93130476D01*
X110085238Y-93082857D01*
X109990000Y-92987619D01*
X109942380Y-92844761D01*
X109942380Y-92749523D01*
X109990000Y-92606666D01*
X110037619Y-92559047D01*
X110942380Y-91606666D02*
X110942380Y-92178095D01*
X110942380Y-91892380D02*
X109942380Y-91892380D01*
X110085238Y-91987619D01*
X110180476Y-92082857D01*
X110228095Y-92178095D01*
X109942380Y-90987619D02*
X109942380Y-90892380D01*
X109990000Y-90797142D01*
X110037619Y-90749523D01*
X110132857Y-90701904D01*
X110323333Y-90654285D01*
X110561428Y-90654285D01*
X110751904Y-90701904D01*
X110847142Y-90749523D01*
X110894761Y-90797142D01*
X110942380Y-90892380D01*
X110942380Y-90987619D01*
X110894761Y-91082857D01*
X110847142Y-91130476D01*
X110751904Y-91178095D01*
X110561428Y-91225714D01*
X110323333Y-91225714D01*
X110132857Y-91178095D01*
X110037619Y-91130476D01*
X109990000Y-91082857D01*
X109942380Y-90987619D01*
X110037619Y-90273333D02*
X109990000Y-90225714D01*
X109942380Y-90130476D01*
X109942380Y-89892380D01*
X109990000Y-89797142D01*
X110037619Y-89749523D01*
X110132857Y-89701904D01*
X110228095Y-89701904D01*
X110370952Y-89749523D01*
X110942380Y-90320952D01*
X110942380Y-89701904D01*
X90527142Y-97639047D02*
X90574761Y-97686666D01*
X90622380Y-97829523D01*
X90622380Y-97924761D01*
X90574761Y-98067619D01*
X90479523Y-98162857D01*
X90384285Y-98210476D01*
X90193809Y-98258095D01*
X90050952Y-98258095D01*
X89860476Y-98210476D01*
X89765238Y-98162857D01*
X89670000Y-98067619D01*
X89622380Y-97924761D01*
X89622380Y-97829523D01*
X89670000Y-97686666D01*
X89717619Y-97639047D01*
X90622380Y-96686666D02*
X90622380Y-97258095D01*
X90622380Y-96972380D02*
X89622380Y-96972380D01*
X89765238Y-97067619D01*
X89860476Y-97162857D01*
X89908095Y-97258095D01*
X89622380Y-96067619D02*
X89622380Y-95972380D01*
X89670000Y-95877142D01*
X89717619Y-95829523D01*
X89812857Y-95781904D01*
X90003333Y-95734285D01*
X90241428Y-95734285D01*
X90431904Y-95781904D01*
X90527142Y-95829523D01*
X90574761Y-95877142D01*
X90622380Y-95972380D01*
X90622380Y-96067619D01*
X90574761Y-96162857D01*
X90527142Y-96210476D01*
X90431904Y-96258095D01*
X90241428Y-96305714D01*
X90003333Y-96305714D01*
X89812857Y-96258095D01*
X89717619Y-96210476D01*
X89670000Y-96162857D01*
X89622380Y-96067619D01*
X90622380Y-94781904D02*
X90622380Y-95353333D01*
X90622380Y-95067619D02*
X89622380Y-95067619D01*
X89765238Y-95162857D01*
X89860476Y-95258095D01*
X89908095Y-95353333D01*
X101750952Y-129897142D02*
X101703333Y-129944761D01*
X101560476Y-129992380D01*
X101465238Y-129992380D01*
X101322380Y-129944761D01*
X101227142Y-129849523D01*
X101179523Y-129754285D01*
X101131904Y-129563809D01*
X101131904Y-129420952D01*
X101179523Y-129230476D01*
X101227142Y-129135238D01*
X101322380Y-129040000D01*
X101465238Y-128992380D01*
X101560476Y-128992380D01*
X101703333Y-129040000D01*
X101750952Y-129087619D01*
X102703333Y-129992380D02*
X102131904Y-129992380D01*
X102417619Y-129992380D02*
X102417619Y-128992380D01*
X102322380Y-129135238D01*
X102227142Y-129230476D01*
X102131904Y-129278095D01*
X103322380Y-128992380D02*
X103417619Y-128992380D01*
X103512857Y-129040000D01*
X103560476Y-129087619D01*
X103608095Y-129182857D01*
X103655714Y-129373333D01*
X103655714Y-129611428D01*
X103608095Y-129801904D01*
X103560476Y-129897142D01*
X103512857Y-129944761D01*
X103417619Y-129992380D01*
X103322380Y-129992380D01*
X103227142Y-129944761D01*
X103179523Y-129897142D01*
X103131904Y-129801904D01*
X103084285Y-129611428D01*
X103084285Y-129373333D01*
X103131904Y-129182857D01*
X103179523Y-129087619D01*
X103227142Y-129040000D01*
X103322380Y-128992380D01*
X103989047Y-128992380D02*
X104655714Y-128992380D01*
X104227142Y-129992380D01*
X89257142Y-59559047D02*
X89304761Y-59606666D01*
X89352380Y-59749523D01*
X89352380Y-59844761D01*
X89304761Y-59987619D01*
X89209523Y-60082857D01*
X89114285Y-60130476D01*
X88923809Y-60178095D01*
X88780952Y-60178095D01*
X88590476Y-60130476D01*
X88495238Y-60082857D01*
X88400000Y-59987619D01*
X88352380Y-59844761D01*
X88352380Y-59749523D01*
X88400000Y-59606666D01*
X88447619Y-59559047D01*
X89352380Y-58606666D02*
X89352380Y-59178095D01*
X89352380Y-58892380D02*
X88352380Y-58892380D01*
X88495238Y-58987619D01*
X88590476Y-59082857D01*
X88638095Y-59178095D01*
X88352380Y-57987619D02*
X88352380Y-57892380D01*
X88400000Y-57797142D01*
X88447619Y-57749523D01*
X88542857Y-57701904D01*
X88733333Y-57654285D01*
X88971428Y-57654285D01*
X89161904Y-57701904D01*
X89257142Y-57749523D01*
X89304761Y-57797142D01*
X89352380Y-57892380D01*
X89352380Y-57987619D01*
X89304761Y-58082857D01*
X89257142Y-58130476D01*
X89161904Y-58178095D01*
X88971428Y-58225714D01*
X88733333Y-58225714D01*
X88542857Y-58178095D01*
X88447619Y-58130476D01*
X88400000Y-58082857D01*
X88352380Y-57987619D01*
X88352380Y-56797142D02*
X88352380Y-56987619D01*
X88400000Y-57082857D01*
X88447619Y-57130476D01*
X88590476Y-57225714D01*
X88780952Y-57273333D01*
X89161904Y-57273333D01*
X89257142Y-57225714D01*
X89304761Y-57178095D01*
X89352380Y-57082857D01*
X89352380Y-56892380D01*
X89304761Y-56797142D01*
X89257142Y-56749523D01*
X89161904Y-56701904D01*
X88923809Y-56701904D01*
X88828571Y-56749523D01*
X88780952Y-56797142D01*
X88733333Y-56892380D01*
X88733333Y-57082857D01*
X88780952Y-57178095D01*
X88828571Y-57225714D01*
X88923809Y-57273333D01*
X78910952Y-99417142D02*
X78863333Y-99464761D01*
X78720476Y-99512380D01*
X78625238Y-99512380D01*
X78482380Y-99464761D01*
X78387142Y-99369523D01*
X78339523Y-99274285D01*
X78291904Y-99083809D01*
X78291904Y-98940952D01*
X78339523Y-98750476D01*
X78387142Y-98655238D01*
X78482380Y-98560000D01*
X78625238Y-98512380D01*
X78720476Y-98512380D01*
X78863333Y-98560000D01*
X78910952Y-98607619D01*
X79863333Y-99512380D02*
X79291904Y-99512380D01*
X79577619Y-99512380D02*
X79577619Y-98512380D01*
X79482380Y-98655238D01*
X79387142Y-98750476D01*
X79291904Y-98798095D01*
X80482380Y-98512380D02*
X80577619Y-98512380D01*
X80672857Y-98560000D01*
X80720476Y-98607619D01*
X80768095Y-98702857D01*
X80815714Y-98893333D01*
X80815714Y-99131428D01*
X80768095Y-99321904D01*
X80720476Y-99417142D01*
X80672857Y-99464761D01*
X80577619Y-99512380D01*
X80482380Y-99512380D01*
X80387142Y-99464761D01*
X80339523Y-99417142D01*
X80291904Y-99321904D01*
X80244285Y-99131428D01*
X80244285Y-98893333D01*
X80291904Y-98702857D01*
X80339523Y-98607619D01*
X80387142Y-98560000D01*
X80482380Y-98512380D01*
X81720476Y-98512380D02*
X81244285Y-98512380D01*
X81196666Y-98988571D01*
X81244285Y-98940952D01*
X81339523Y-98893333D01*
X81577619Y-98893333D01*
X81672857Y-98940952D01*
X81720476Y-98988571D01*
X81768095Y-99083809D01*
X81768095Y-99321904D01*
X81720476Y-99417142D01*
X81672857Y-99464761D01*
X81577619Y-99512380D01*
X81339523Y-99512380D01*
X81244285Y-99464761D01*
X81196666Y-99417142D01*
X78910952Y-104497142D02*
X78863333Y-104544761D01*
X78720476Y-104592380D01*
X78625238Y-104592380D01*
X78482380Y-104544761D01*
X78387142Y-104449523D01*
X78339523Y-104354285D01*
X78291904Y-104163809D01*
X78291904Y-104020952D01*
X78339523Y-103830476D01*
X78387142Y-103735238D01*
X78482380Y-103640000D01*
X78625238Y-103592380D01*
X78720476Y-103592380D01*
X78863333Y-103640000D01*
X78910952Y-103687619D01*
X79863333Y-104592380D02*
X79291904Y-104592380D01*
X79577619Y-104592380D02*
X79577619Y-103592380D01*
X79482380Y-103735238D01*
X79387142Y-103830476D01*
X79291904Y-103878095D01*
X80482380Y-103592380D02*
X80577619Y-103592380D01*
X80672857Y-103640000D01*
X80720476Y-103687619D01*
X80768095Y-103782857D01*
X80815714Y-103973333D01*
X80815714Y-104211428D01*
X80768095Y-104401904D01*
X80720476Y-104497142D01*
X80672857Y-104544761D01*
X80577619Y-104592380D01*
X80482380Y-104592380D01*
X80387142Y-104544761D01*
X80339523Y-104497142D01*
X80291904Y-104401904D01*
X80244285Y-104211428D01*
X80244285Y-103973333D01*
X80291904Y-103782857D01*
X80339523Y-103687619D01*
X80387142Y-103640000D01*
X80482380Y-103592380D01*
X81672857Y-103925714D02*
X81672857Y-104592380D01*
X81434761Y-103544761D02*
X81196666Y-104259047D01*
X81815714Y-104259047D01*
X106850952Y-147677142D02*
X106803333Y-147724761D01*
X106660476Y-147772380D01*
X106565238Y-147772380D01*
X106422380Y-147724761D01*
X106327142Y-147629523D01*
X106279523Y-147534285D01*
X106231904Y-147343809D01*
X106231904Y-147200952D01*
X106279523Y-147010476D01*
X106327142Y-146915238D01*
X106422380Y-146820000D01*
X106565238Y-146772380D01*
X106660476Y-146772380D01*
X106803333Y-146820000D01*
X106850952Y-146867619D01*
X107803333Y-147772380D02*
X107231904Y-147772380D01*
X107517619Y-147772380D02*
X107517619Y-146772380D01*
X107422380Y-146915238D01*
X107327142Y-147010476D01*
X107231904Y-147058095D01*
X108422380Y-146772380D02*
X108517619Y-146772380D01*
X108612857Y-146820000D01*
X108660476Y-146867619D01*
X108708095Y-146962857D01*
X108755714Y-147153333D01*
X108755714Y-147391428D01*
X108708095Y-147581904D01*
X108660476Y-147677142D01*
X108612857Y-147724761D01*
X108517619Y-147772380D01*
X108422380Y-147772380D01*
X108327142Y-147724761D01*
X108279523Y-147677142D01*
X108231904Y-147581904D01*
X108184285Y-147391428D01*
X108184285Y-147153333D01*
X108231904Y-146962857D01*
X108279523Y-146867619D01*
X108327142Y-146820000D01*
X108422380Y-146772380D01*
X109089047Y-146772380D02*
X109708095Y-146772380D01*
X109374761Y-147153333D01*
X109517619Y-147153333D01*
X109612857Y-147200952D01*
X109660476Y-147248571D01*
X109708095Y-147343809D01*
X109708095Y-147581904D01*
X109660476Y-147677142D01*
X109612857Y-147724761D01*
X109517619Y-147772380D01*
X109231904Y-147772380D01*
X109136666Y-147724761D01*
X109089047Y-147677142D01*
X85066190Y-103028571D02*
X85542380Y-103028571D01*
X84542380Y-103361904D02*
X85066190Y-103028571D01*
X84542380Y-102695238D01*
X85542380Y-101838095D02*
X85542380Y-102409523D01*
X85542380Y-102123809D02*
X84542380Y-102123809D01*
X84685238Y-102219047D01*
X84780476Y-102314285D01*
X84828095Y-102409523D01*
X84542380Y-101219047D02*
X84542380Y-101123809D01*
X84590000Y-101028571D01*
X84637619Y-100980952D01*
X84732857Y-100933333D01*
X84923333Y-100885714D01*
X85161428Y-100885714D01*
X85351904Y-100933333D01*
X85447142Y-100980952D01*
X85494761Y-101028571D01*
X85542380Y-101123809D01*
X85542380Y-101219047D01*
X85494761Y-101314285D01*
X85447142Y-101361904D01*
X85351904Y-101409523D01*
X85161428Y-101457142D01*
X84923333Y-101457142D01*
X84732857Y-101409523D01*
X84637619Y-101361904D01*
X84590000Y-101314285D01*
X84542380Y-101219047D01*
X85542380Y-99933333D02*
X85542380Y-100504761D01*
X85542380Y-100219047D02*
X84542380Y-100219047D01*
X84685238Y-100314285D01*
X84780476Y-100409523D01*
X84828095Y-100504761D01*
X98615714Y-155027380D02*
X98615714Y-155836904D01*
X98663333Y-155932142D01*
X98710952Y-155979761D01*
X98806190Y-156027380D01*
X98996666Y-156027380D01*
X99091904Y-155979761D01*
X99139523Y-155932142D01*
X99187142Y-155836904D01*
X99187142Y-155027380D01*
X100187142Y-156027380D02*
X99615714Y-156027380D01*
X99901428Y-156027380D02*
X99901428Y-155027380D01*
X99806190Y-155170238D01*
X99710952Y-155265476D01*
X99615714Y-155313095D01*
X100806190Y-155027380D02*
X100901428Y-155027380D01*
X100996666Y-155075000D01*
X101044285Y-155122619D01*
X101091904Y-155217857D01*
X101139523Y-155408333D01*
X101139523Y-155646428D01*
X101091904Y-155836904D01*
X101044285Y-155932142D01*
X100996666Y-155979761D01*
X100901428Y-156027380D01*
X100806190Y-156027380D01*
X100710952Y-155979761D01*
X100663333Y-155932142D01*
X100615714Y-155836904D01*
X100568095Y-155646428D01*
X100568095Y-155408333D01*
X100615714Y-155217857D01*
X100663333Y-155122619D01*
X100710952Y-155075000D01*
X100806190Y-155027380D01*
X101472857Y-155027380D02*
X102091904Y-155027380D01*
X101758571Y-155408333D01*
X101901428Y-155408333D01*
X101996666Y-155455952D01*
X102044285Y-155503571D01*
X102091904Y-155598809D01*
X102091904Y-155836904D01*
X102044285Y-155932142D01*
X101996666Y-155979761D01*
X101901428Y-156027380D01*
X101615714Y-156027380D01*
X101520476Y-155979761D01*
X101472857Y-155932142D01*
X98615714Y-94067380D02*
X98615714Y-94876904D01*
X98663333Y-94972142D01*
X98710952Y-95019761D01*
X98806190Y-95067380D01*
X98996666Y-95067380D01*
X99091904Y-95019761D01*
X99139523Y-94972142D01*
X99187142Y-94876904D01*
X99187142Y-94067380D01*
X100187142Y-95067380D02*
X99615714Y-95067380D01*
X99901428Y-95067380D02*
X99901428Y-94067380D01*
X99806190Y-94210238D01*
X99710952Y-94305476D01*
X99615714Y-94353095D01*
X100806190Y-94067380D02*
X100901428Y-94067380D01*
X100996666Y-94115000D01*
X101044285Y-94162619D01*
X101091904Y-94257857D01*
X101139523Y-94448333D01*
X101139523Y-94686428D01*
X101091904Y-94876904D01*
X101044285Y-94972142D01*
X100996666Y-95019761D01*
X100901428Y-95067380D01*
X100806190Y-95067380D01*
X100710952Y-95019761D01*
X100663333Y-94972142D01*
X100615714Y-94876904D01*
X100568095Y-94686428D01*
X100568095Y-94448333D01*
X100615714Y-94257857D01*
X100663333Y-94162619D01*
X100710952Y-94115000D01*
X100806190Y-94067380D01*
X101520476Y-94162619D02*
X101568095Y-94115000D01*
X101663333Y-94067380D01*
X101901428Y-94067380D01*
X101996666Y-94115000D01*
X102044285Y-94162619D01*
X102091904Y-94257857D01*
X102091904Y-94353095D01*
X102044285Y-94495952D01*
X101472857Y-95067380D01*
X102091904Y-95067380D01*
X98615714Y-136612380D02*
X98615714Y-137421904D01*
X98663333Y-137517142D01*
X98710952Y-137564761D01*
X98806190Y-137612380D01*
X98996666Y-137612380D01*
X99091904Y-137564761D01*
X99139523Y-137517142D01*
X99187142Y-137421904D01*
X99187142Y-136612380D01*
X100187142Y-137612380D02*
X99615714Y-137612380D01*
X99901428Y-137612380D02*
X99901428Y-136612380D01*
X99806190Y-136755238D01*
X99710952Y-136850476D01*
X99615714Y-136898095D01*
X100806190Y-136612380D02*
X100901428Y-136612380D01*
X100996666Y-136660000D01*
X101044285Y-136707619D01*
X101091904Y-136802857D01*
X101139523Y-136993333D01*
X101139523Y-137231428D01*
X101091904Y-137421904D01*
X101044285Y-137517142D01*
X100996666Y-137564761D01*
X100901428Y-137612380D01*
X100806190Y-137612380D01*
X100710952Y-137564761D01*
X100663333Y-137517142D01*
X100615714Y-137421904D01*
X100568095Y-137231428D01*
X100568095Y-136993333D01*
X100615714Y-136802857D01*
X100663333Y-136707619D01*
X100710952Y-136660000D01*
X100806190Y-136612380D01*
X102091904Y-137612380D02*
X101520476Y-137612380D01*
X101806190Y-137612380D02*
X101806190Y-136612380D01*
X101710952Y-136755238D01*
X101615714Y-136850476D01*
X101520476Y-136898095D01*
X65024285Y-84614761D02*
X65167142Y-84662380D01*
X65405238Y-84662380D01*
X65500476Y-84614761D01*
X65548095Y-84567142D01*
X65595714Y-84471904D01*
X65595714Y-84376666D01*
X65548095Y-84281428D01*
X65500476Y-84233809D01*
X65405238Y-84186190D01*
X65214761Y-84138571D01*
X65119523Y-84090952D01*
X65071904Y-84043333D01*
X65024285Y-83948095D01*
X65024285Y-83852857D01*
X65071904Y-83757619D01*
X65119523Y-83710000D01*
X65214761Y-83662380D01*
X65452857Y-83662380D01*
X65595714Y-83710000D01*
X65929047Y-83662380D02*
X66167142Y-84662380D01*
X66357619Y-83948095D01*
X66548095Y-84662380D01*
X66786190Y-83662380D01*
X67690952Y-84662380D02*
X67119523Y-84662380D01*
X67405238Y-84662380D02*
X67405238Y-83662380D01*
X67310000Y-83805238D01*
X67214761Y-83900476D01*
X67119523Y-83948095D01*
X68310000Y-83662380D02*
X68405238Y-83662380D01*
X68500476Y-83710000D01*
X68548095Y-83757619D01*
X68595714Y-83852857D01*
X68643333Y-84043333D01*
X68643333Y-84281428D01*
X68595714Y-84471904D01*
X68548095Y-84567142D01*
X68500476Y-84614761D01*
X68405238Y-84662380D01*
X68310000Y-84662380D01*
X68214761Y-84614761D01*
X68167142Y-84567142D01*
X68119523Y-84471904D01*
X68071904Y-84281428D01*
X68071904Y-84043333D01*
X68119523Y-83852857D01*
X68167142Y-83757619D01*
X68214761Y-83710000D01*
X68310000Y-83662380D01*
X69024285Y-83757619D02*
X69071904Y-83710000D01*
X69167142Y-83662380D01*
X69405238Y-83662380D01*
X69500476Y-83710000D01*
X69548095Y-83757619D01*
X69595714Y-83852857D01*
X69595714Y-83948095D01*
X69548095Y-84090952D01*
X68976666Y-84662380D01*
X69595714Y-84662380D01*
X65024285Y-79144761D02*
X65167142Y-79192380D01*
X65405238Y-79192380D01*
X65500476Y-79144761D01*
X65548095Y-79097142D01*
X65595714Y-79001904D01*
X65595714Y-78906666D01*
X65548095Y-78811428D01*
X65500476Y-78763809D01*
X65405238Y-78716190D01*
X65214761Y-78668571D01*
X65119523Y-78620952D01*
X65071904Y-78573333D01*
X65024285Y-78478095D01*
X65024285Y-78382857D01*
X65071904Y-78287619D01*
X65119523Y-78240000D01*
X65214761Y-78192380D01*
X65452857Y-78192380D01*
X65595714Y-78240000D01*
X65929047Y-78192380D02*
X66167142Y-79192380D01*
X66357619Y-78478095D01*
X66548095Y-79192380D01*
X66786190Y-78192380D01*
X67690952Y-79192380D02*
X67119523Y-79192380D01*
X67405238Y-79192380D02*
X67405238Y-78192380D01*
X67310000Y-78335238D01*
X67214761Y-78430476D01*
X67119523Y-78478095D01*
X68310000Y-78192380D02*
X68405238Y-78192380D01*
X68500476Y-78240000D01*
X68548095Y-78287619D01*
X68595714Y-78382857D01*
X68643333Y-78573333D01*
X68643333Y-78811428D01*
X68595714Y-79001904D01*
X68548095Y-79097142D01*
X68500476Y-79144761D01*
X68405238Y-79192380D01*
X68310000Y-79192380D01*
X68214761Y-79144761D01*
X68167142Y-79097142D01*
X68119523Y-79001904D01*
X68071904Y-78811428D01*
X68071904Y-78573333D01*
X68119523Y-78382857D01*
X68167142Y-78287619D01*
X68214761Y-78240000D01*
X68310000Y-78192380D01*
X69595714Y-79192380D02*
X69024285Y-79192380D01*
X69310000Y-79192380D02*
X69310000Y-78192380D01*
X69214761Y-78335238D01*
X69119523Y-78430476D01*
X69024285Y-78478095D01*
X132230952Y-152852380D02*
X131897619Y-152376190D01*
X131659523Y-152852380D02*
X131659523Y-151852380D01*
X132040476Y-151852380D01*
X132135714Y-151900000D01*
X132183333Y-151947619D01*
X132230952Y-152042857D01*
X132230952Y-152185714D01*
X132183333Y-152280952D01*
X132135714Y-152328571D01*
X132040476Y-152376190D01*
X131659523Y-152376190D01*
X133183333Y-152852380D02*
X132611904Y-152852380D01*
X132897619Y-152852380D02*
X132897619Y-151852380D01*
X132802380Y-151995238D01*
X132707142Y-152090476D01*
X132611904Y-152138095D01*
X133564285Y-151947619D02*
X133611904Y-151900000D01*
X133707142Y-151852380D01*
X133945238Y-151852380D01*
X134040476Y-151900000D01*
X134088095Y-151947619D01*
X134135714Y-152042857D01*
X134135714Y-152138095D01*
X134088095Y-152280952D01*
X133516666Y-152852380D01*
X134135714Y-152852380D01*
X135088095Y-152852380D02*
X134516666Y-152852380D01*
X134802380Y-152852380D02*
X134802380Y-151852380D01*
X134707142Y-151995238D01*
X134611904Y-152090476D01*
X134516666Y-152138095D01*
X109370952Y-152852380D02*
X109037619Y-152376190D01*
X108799523Y-152852380D02*
X108799523Y-151852380D01*
X109180476Y-151852380D01*
X109275714Y-151900000D01*
X109323333Y-151947619D01*
X109370952Y-152042857D01*
X109370952Y-152185714D01*
X109323333Y-152280952D01*
X109275714Y-152328571D01*
X109180476Y-152376190D01*
X108799523Y-152376190D01*
X110323333Y-152852380D02*
X109751904Y-152852380D01*
X110037619Y-152852380D02*
X110037619Y-151852380D01*
X109942380Y-151995238D01*
X109847142Y-152090476D01*
X109751904Y-152138095D01*
X110704285Y-151947619D02*
X110751904Y-151900000D01*
X110847142Y-151852380D01*
X111085238Y-151852380D01*
X111180476Y-151900000D01*
X111228095Y-151947619D01*
X111275714Y-152042857D01*
X111275714Y-152138095D01*
X111228095Y-152280952D01*
X110656666Y-152852380D01*
X111275714Y-152852380D01*
X111894761Y-151852380D02*
X111990000Y-151852380D01*
X112085238Y-151900000D01*
X112132857Y-151947619D01*
X112180476Y-152042857D01*
X112228095Y-152233333D01*
X112228095Y-152471428D01*
X112180476Y-152661904D01*
X112132857Y-152757142D01*
X112085238Y-152804761D01*
X111990000Y-152852380D01*
X111894761Y-152852380D01*
X111799523Y-152804761D01*
X111751904Y-152757142D01*
X111704285Y-152661904D01*
X111656666Y-152471428D01*
X111656666Y-152233333D01*
X111704285Y-152042857D01*
X111751904Y-151947619D01*
X111799523Y-151900000D01*
X111894761Y-151852380D01*
X132230952Y-157932380D02*
X131897619Y-157456190D01*
X131659523Y-157932380D02*
X131659523Y-156932380D01*
X132040476Y-156932380D01*
X132135714Y-156980000D01*
X132183333Y-157027619D01*
X132230952Y-157122857D01*
X132230952Y-157265714D01*
X132183333Y-157360952D01*
X132135714Y-157408571D01*
X132040476Y-157456190D01*
X131659523Y-157456190D01*
X133183333Y-157932380D02*
X132611904Y-157932380D01*
X132897619Y-157932380D02*
X132897619Y-156932380D01*
X132802380Y-157075238D01*
X132707142Y-157170476D01*
X132611904Y-157218095D01*
X134135714Y-157932380D02*
X133564285Y-157932380D01*
X133850000Y-157932380D02*
X133850000Y-156932380D01*
X133754761Y-157075238D01*
X133659523Y-157170476D01*
X133564285Y-157218095D01*
X134611904Y-157932380D02*
X134802380Y-157932380D01*
X134897619Y-157884761D01*
X134945238Y-157837142D01*
X135040476Y-157694285D01*
X135088095Y-157503809D01*
X135088095Y-157122857D01*
X135040476Y-157027619D01*
X134992857Y-156980000D01*
X134897619Y-156932380D01*
X134707142Y-156932380D01*
X134611904Y-156980000D01*
X134564285Y-157027619D01*
X134516666Y-157122857D01*
X134516666Y-157360952D01*
X134564285Y-157456190D01*
X134611904Y-157503809D01*
X134707142Y-157551428D01*
X134897619Y-157551428D01*
X134992857Y-157503809D01*
X135040476Y-157456190D01*
X135088095Y-157360952D01*
X109370952Y-157932380D02*
X109037619Y-157456190D01*
X108799523Y-157932380D02*
X108799523Y-156932380D01*
X109180476Y-156932380D01*
X109275714Y-156980000D01*
X109323333Y-157027619D01*
X109370952Y-157122857D01*
X109370952Y-157265714D01*
X109323333Y-157360952D01*
X109275714Y-157408571D01*
X109180476Y-157456190D01*
X108799523Y-157456190D01*
X110323333Y-157932380D02*
X109751904Y-157932380D01*
X110037619Y-157932380D02*
X110037619Y-156932380D01*
X109942380Y-157075238D01*
X109847142Y-157170476D01*
X109751904Y-157218095D01*
X111275714Y-157932380D02*
X110704285Y-157932380D01*
X110990000Y-157932380D02*
X110990000Y-156932380D01*
X110894761Y-157075238D01*
X110799523Y-157170476D01*
X110704285Y-157218095D01*
X111847142Y-157360952D02*
X111751904Y-157313333D01*
X111704285Y-157265714D01*
X111656666Y-157170476D01*
X111656666Y-157122857D01*
X111704285Y-157027619D01*
X111751904Y-156980000D01*
X111847142Y-156932380D01*
X112037619Y-156932380D01*
X112132857Y-156980000D01*
X112180476Y-157027619D01*
X112228095Y-157122857D01*
X112228095Y-157170476D01*
X112180476Y-157265714D01*
X112132857Y-157313333D01*
X112037619Y-157360952D01*
X111847142Y-157360952D01*
X111751904Y-157408571D01*
X111704285Y-157456190D01*
X111656666Y-157551428D01*
X111656666Y-157741904D01*
X111704285Y-157837142D01*
X111751904Y-157884761D01*
X111847142Y-157932380D01*
X112037619Y-157932380D01*
X112132857Y-157884761D01*
X112180476Y-157837142D01*
X112228095Y-157741904D01*
X112228095Y-157551428D01*
X112180476Y-157456190D01*
X112132857Y-157408571D01*
X112037619Y-157360952D01*
X132230952Y-163012380D02*
X131897619Y-162536190D01*
X131659523Y-163012380D02*
X131659523Y-162012380D01*
X132040476Y-162012380D01*
X132135714Y-162060000D01*
X132183333Y-162107619D01*
X132230952Y-162202857D01*
X132230952Y-162345714D01*
X132183333Y-162440952D01*
X132135714Y-162488571D01*
X132040476Y-162536190D01*
X131659523Y-162536190D01*
X133183333Y-163012380D02*
X132611904Y-163012380D01*
X132897619Y-163012380D02*
X132897619Y-162012380D01*
X132802380Y-162155238D01*
X132707142Y-162250476D01*
X132611904Y-162298095D01*
X134135714Y-163012380D02*
X133564285Y-163012380D01*
X133850000Y-163012380D02*
X133850000Y-162012380D01*
X133754761Y-162155238D01*
X133659523Y-162250476D01*
X133564285Y-162298095D01*
X134469047Y-162012380D02*
X135135714Y-162012380D01*
X134707142Y-163012380D01*
X109370952Y-163012380D02*
X109037619Y-162536190D01*
X108799523Y-163012380D02*
X108799523Y-162012380D01*
X109180476Y-162012380D01*
X109275714Y-162060000D01*
X109323333Y-162107619D01*
X109370952Y-162202857D01*
X109370952Y-162345714D01*
X109323333Y-162440952D01*
X109275714Y-162488571D01*
X109180476Y-162536190D01*
X108799523Y-162536190D01*
X110323333Y-163012380D02*
X109751904Y-163012380D01*
X110037619Y-163012380D02*
X110037619Y-162012380D01*
X109942380Y-162155238D01*
X109847142Y-162250476D01*
X109751904Y-162298095D01*
X111275714Y-163012380D02*
X110704285Y-163012380D01*
X110990000Y-163012380D02*
X110990000Y-162012380D01*
X110894761Y-162155238D01*
X110799523Y-162250476D01*
X110704285Y-162298095D01*
X112132857Y-162012380D02*
X111942380Y-162012380D01*
X111847142Y-162060000D01*
X111799523Y-162107619D01*
X111704285Y-162250476D01*
X111656666Y-162440952D01*
X111656666Y-162821904D01*
X111704285Y-162917142D01*
X111751904Y-162964761D01*
X111847142Y-163012380D01*
X112037619Y-163012380D01*
X112132857Y-162964761D01*
X112180476Y-162917142D01*
X112228095Y-162821904D01*
X112228095Y-162583809D01*
X112180476Y-162488571D01*
X112132857Y-162440952D01*
X112037619Y-162393333D01*
X111847142Y-162393333D01*
X111751904Y-162440952D01*
X111704285Y-162488571D01*
X111656666Y-162583809D01*
X66190952Y-160472380D02*
X65857619Y-159996190D01*
X65619523Y-160472380D02*
X65619523Y-159472380D01*
X66000476Y-159472380D01*
X66095714Y-159520000D01*
X66143333Y-159567619D01*
X66190952Y-159662857D01*
X66190952Y-159805714D01*
X66143333Y-159900952D01*
X66095714Y-159948571D01*
X66000476Y-159996190D01*
X65619523Y-159996190D01*
X67143333Y-160472380D02*
X66571904Y-160472380D01*
X66857619Y-160472380D02*
X66857619Y-159472380D01*
X66762380Y-159615238D01*
X66667142Y-159710476D01*
X66571904Y-159758095D01*
X68095714Y-160472380D02*
X67524285Y-160472380D01*
X67810000Y-160472380D02*
X67810000Y-159472380D01*
X67714761Y-159615238D01*
X67619523Y-159710476D01*
X67524285Y-159758095D01*
X69000476Y-159472380D02*
X68524285Y-159472380D01*
X68476666Y-159948571D01*
X68524285Y-159900952D01*
X68619523Y-159853333D01*
X68857619Y-159853333D01*
X68952857Y-159900952D01*
X69000476Y-159948571D01*
X69048095Y-160043809D01*
X69048095Y-160281904D01*
X69000476Y-160377142D01*
X68952857Y-160424761D01*
X68857619Y-160472380D01*
X68619523Y-160472380D01*
X68524285Y-160424761D01*
X68476666Y-160377142D01*
X89050952Y-160472380D02*
X88717619Y-159996190D01*
X88479523Y-160472380D02*
X88479523Y-159472380D01*
X88860476Y-159472380D01*
X88955714Y-159520000D01*
X89003333Y-159567619D01*
X89050952Y-159662857D01*
X89050952Y-159805714D01*
X89003333Y-159900952D01*
X88955714Y-159948571D01*
X88860476Y-159996190D01*
X88479523Y-159996190D01*
X90003333Y-160472380D02*
X89431904Y-160472380D01*
X89717619Y-160472380D02*
X89717619Y-159472380D01*
X89622380Y-159615238D01*
X89527142Y-159710476D01*
X89431904Y-159758095D01*
X90955714Y-160472380D02*
X90384285Y-160472380D01*
X90670000Y-160472380D02*
X90670000Y-159472380D01*
X90574761Y-159615238D01*
X90479523Y-159710476D01*
X90384285Y-159758095D01*
X91812857Y-159805714D02*
X91812857Y-160472380D01*
X91574761Y-159424761D02*
X91336666Y-160139047D01*
X91955714Y-160139047D01*
X66190952Y-155392380D02*
X65857619Y-154916190D01*
X65619523Y-155392380D02*
X65619523Y-154392380D01*
X66000476Y-154392380D01*
X66095714Y-154440000D01*
X66143333Y-154487619D01*
X66190952Y-154582857D01*
X66190952Y-154725714D01*
X66143333Y-154820952D01*
X66095714Y-154868571D01*
X66000476Y-154916190D01*
X65619523Y-154916190D01*
X67143333Y-155392380D02*
X66571904Y-155392380D01*
X66857619Y-155392380D02*
X66857619Y-154392380D01*
X66762380Y-154535238D01*
X66667142Y-154630476D01*
X66571904Y-154678095D01*
X68095714Y-155392380D02*
X67524285Y-155392380D01*
X67810000Y-155392380D02*
X67810000Y-154392380D01*
X67714761Y-154535238D01*
X67619523Y-154630476D01*
X67524285Y-154678095D01*
X68429047Y-154392380D02*
X69048095Y-154392380D01*
X68714761Y-154773333D01*
X68857619Y-154773333D01*
X68952857Y-154820952D01*
X69000476Y-154868571D01*
X69048095Y-154963809D01*
X69048095Y-155201904D01*
X69000476Y-155297142D01*
X68952857Y-155344761D01*
X68857619Y-155392380D01*
X68571904Y-155392380D01*
X68476666Y-155344761D01*
X68429047Y-155297142D01*
X89050952Y-155392380D02*
X88717619Y-154916190D01*
X88479523Y-155392380D02*
X88479523Y-154392380D01*
X88860476Y-154392380D01*
X88955714Y-154440000D01*
X89003333Y-154487619D01*
X89050952Y-154582857D01*
X89050952Y-154725714D01*
X89003333Y-154820952D01*
X88955714Y-154868571D01*
X88860476Y-154916190D01*
X88479523Y-154916190D01*
X90003333Y-155392380D02*
X89431904Y-155392380D01*
X89717619Y-155392380D02*
X89717619Y-154392380D01*
X89622380Y-154535238D01*
X89527142Y-154630476D01*
X89431904Y-154678095D01*
X90955714Y-155392380D02*
X90384285Y-155392380D01*
X90670000Y-155392380D02*
X90670000Y-154392380D01*
X90574761Y-154535238D01*
X90479523Y-154630476D01*
X90384285Y-154678095D01*
X91336666Y-154487619D02*
X91384285Y-154440000D01*
X91479523Y-154392380D01*
X91717619Y-154392380D01*
X91812857Y-154440000D01*
X91860476Y-154487619D01*
X91908095Y-154582857D01*
X91908095Y-154678095D01*
X91860476Y-154820952D01*
X91289047Y-155392380D01*
X91908095Y-155392380D01*
X86812380Y-67159047D02*
X86336190Y-67492380D01*
X86812380Y-67730476D02*
X85812380Y-67730476D01*
X85812380Y-67349523D01*
X85860000Y-67254285D01*
X85907619Y-67206666D01*
X86002857Y-67159047D01*
X86145714Y-67159047D01*
X86240952Y-67206666D01*
X86288571Y-67254285D01*
X86336190Y-67349523D01*
X86336190Y-67730476D01*
X86812380Y-66206666D02*
X86812380Y-66778095D01*
X86812380Y-66492380D02*
X85812380Y-66492380D01*
X85955238Y-66587619D01*
X86050476Y-66682857D01*
X86098095Y-66778095D01*
X86812380Y-65254285D02*
X86812380Y-65825714D01*
X86812380Y-65540000D02*
X85812380Y-65540000D01*
X85955238Y-65635238D01*
X86050476Y-65730476D01*
X86098095Y-65825714D01*
X86812380Y-64301904D02*
X86812380Y-64873333D01*
X86812380Y-64587619D02*
X85812380Y-64587619D01*
X85955238Y-64682857D01*
X86050476Y-64778095D01*
X86098095Y-64873333D01*
X89352380Y-67159047D02*
X88876190Y-67492380D01*
X89352380Y-67730476D02*
X88352380Y-67730476D01*
X88352380Y-67349523D01*
X88400000Y-67254285D01*
X88447619Y-67206666D01*
X88542857Y-67159047D01*
X88685714Y-67159047D01*
X88780952Y-67206666D01*
X88828571Y-67254285D01*
X88876190Y-67349523D01*
X88876190Y-67730476D01*
X89352380Y-66206666D02*
X89352380Y-66778095D01*
X89352380Y-66492380D02*
X88352380Y-66492380D01*
X88495238Y-66587619D01*
X88590476Y-66682857D01*
X88638095Y-66778095D01*
X89352380Y-65254285D02*
X89352380Y-65825714D01*
X89352380Y-65540000D02*
X88352380Y-65540000D01*
X88495238Y-65635238D01*
X88590476Y-65730476D01*
X88638095Y-65825714D01*
X88352380Y-64635238D02*
X88352380Y-64540000D01*
X88400000Y-64444761D01*
X88447619Y-64397142D01*
X88542857Y-64349523D01*
X88733333Y-64301904D01*
X88971428Y-64301904D01*
X89161904Y-64349523D01*
X89257142Y-64397142D01*
X89304761Y-64444761D01*
X89352380Y-64540000D01*
X89352380Y-64635238D01*
X89304761Y-64730476D01*
X89257142Y-64778095D01*
X89161904Y-64825714D01*
X88971428Y-64873333D01*
X88733333Y-64873333D01*
X88542857Y-64825714D01*
X88447619Y-64778095D01*
X88400000Y-64730476D01*
X88352380Y-64635238D01*
X83002380Y-87479047D02*
X82526190Y-87812380D01*
X83002380Y-88050476D02*
X82002380Y-88050476D01*
X82002380Y-87669523D01*
X82050000Y-87574285D01*
X82097619Y-87526666D01*
X82192857Y-87479047D01*
X82335714Y-87479047D01*
X82430952Y-87526666D01*
X82478571Y-87574285D01*
X82526190Y-87669523D01*
X82526190Y-88050476D01*
X83002380Y-86526666D02*
X83002380Y-87098095D01*
X83002380Y-86812380D02*
X82002380Y-86812380D01*
X82145238Y-86907619D01*
X82240476Y-87002857D01*
X82288095Y-87098095D01*
X82002380Y-85907619D02*
X82002380Y-85812380D01*
X82050000Y-85717142D01*
X82097619Y-85669523D01*
X82192857Y-85621904D01*
X82383333Y-85574285D01*
X82621428Y-85574285D01*
X82811904Y-85621904D01*
X82907142Y-85669523D01*
X82954761Y-85717142D01*
X83002380Y-85812380D01*
X83002380Y-85907619D01*
X82954761Y-86002857D01*
X82907142Y-86050476D01*
X82811904Y-86098095D01*
X82621428Y-86145714D01*
X82383333Y-86145714D01*
X82192857Y-86098095D01*
X82097619Y-86050476D01*
X82050000Y-86002857D01*
X82002380Y-85907619D01*
X82430952Y-85002857D02*
X82383333Y-85098095D01*
X82335714Y-85145714D01*
X82240476Y-85193333D01*
X82192857Y-85193333D01*
X82097619Y-85145714D01*
X82050000Y-85098095D01*
X82002380Y-85002857D01*
X82002380Y-84812380D01*
X82050000Y-84717142D01*
X82097619Y-84669523D01*
X82192857Y-84621904D01*
X82240476Y-84621904D01*
X82335714Y-84669523D01*
X82383333Y-84717142D01*
X82430952Y-84812380D01*
X82430952Y-85002857D01*
X82478571Y-85098095D01*
X82526190Y-85145714D01*
X82621428Y-85193333D01*
X82811904Y-85193333D01*
X82907142Y-85145714D01*
X82954761Y-85098095D01*
X83002380Y-85002857D01*
X83002380Y-84812380D01*
X82954761Y-84717142D01*
X82907142Y-84669523D01*
X82811904Y-84621904D01*
X82621428Y-84621904D01*
X82526190Y-84669523D01*
X82478571Y-84717142D01*
X82430952Y-84812380D01*
X80462380Y-84939047D02*
X79986190Y-85272380D01*
X80462380Y-85510476D02*
X79462380Y-85510476D01*
X79462380Y-85129523D01*
X79510000Y-85034285D01*
X79557619Y-84986666D01*
X79652857Y-84939047D01*
X79795714Y-84939047D01*
X79890952Y-84986666D01*
X79938571Y-85034285D01*
X79986190Y-85129523D01*
X79986190Y-85510476D01*
X80462380Y-83986666D02*
X80462380Y-84558095D01*
X80462380Y-84272380D02*
X79462380Y-84272380D01*
X79605238Y-84367619D01*
X79700476Y-84462857D01*
X79748095Y-84558095D01*
X79462380Y-83367619D02*
X79462380Y-83272380D01*
X79510000Y-83177142D01*
X79557619Y-83129523D01*
X79652857Y-83081904D01*
X79843333Y-83034285D01*
X80081428Y-83034285D01*
X80271904Y-83081904D01*
X80367142Y-83129523D01*
X80414761Y-83177142D01*
X80462380Y-83272380D01*
X80462380Y-83367619D01*
X80414761Y-83462857D01*
X80367142Y-83510476D01*
X80271904Y-83558095D01*
X80081428Y-83605714D01*
X79843333Y-83605714D01*
X79652857Y-83558095D01*
X79557619Y-83510476D01*
X79510000Y-83462857D01*
X79462380Y-83367619D01*
X79462380Y-82700952D02*
X79462380Y-82034285D01*
X80462380Y-82462857D01*
X108402380Y-138279047D02*
X107926190Y-138612380D01*
X108402380Y-138850476D02*
X107402380Y-138850476D01*
X107402380Y-138469523D01*
X107450000Y-138374285D01*
X107497619Y-138326666D01*
X107592857Y-138279047D01*
X107735714Y-138279047D01*
X107830952Y-138326666D01*
X107878571Y-138374285D01*
X107926190Y-138469523D01*
X107926190Y-138850476D01*
X108402380Y-137326666D02*
X108402380Y-137898095D01*
X108402380Y-137612380D02*
X107402380Y-137612380D01*
X107545238Y-137707619D01*
X107640476Y-137802857D01*
X107688095Y-137898095D01*
X107402380Y-136707619D02*
X107402380Y-136612380D01*
X107450000Y-136517142D01*
X107497619Y-136469523D01*
X107592857Y-136421904D01*
X107783333Y-136374285D01*
X108021428Y-136374285D01*
X108211904Y-136421904D01*
X108307142Y-136469523D01*
X108354761Y-136517142D01*
X108402380Y-136612380D01*
X108402380Y-136707619D01*
X108354761Y-136802857D01*
X108307142Y-136850476D01*
X108211904Y-136898095D01*
X108021428Y-136945714D01*
X107783333Y-136945714D01*
X107592857Y-136898095D01*
X107497619Y-136850476D01*
X107450000Y-136802857D01*
X107402380Y-136707619D01*
X107402380Y-135517142D02*
X107402380Y-135707619D01*
X107450000Y-135802857D01*
X107497619Y-135850476D01*
X107640476Y-135945714D01*
X107830952Y-135993333D01*
X108211904Y-135993333D01*
X108307142Y-135945714D01*
X108354761Y-135898095D01*
X108402380Y-135802857D01*
X108402380Y-135612380D01*
X108354761Y-135517142D01*
X108307142Y-135469523D01*
X108211904Y-135421904D01*
X107973809Y-135421904D01*
X107878571Y-135469523D01*
X107830952Y-135517142D01*
X107783333Y-135612380D01*
X107783333Y-135802857D01*
X107830952Y-135898095D01*
X107878571Y-135945714D01*
X107973809Y-135993333D01*
X89352380Y-138279047D02*
X88876190Y-138612380D01*
X89352380Y-138850476D02*
X88352380Y-138850476D01*
X88352380Y-138469523D01*
X88400000Y-138374285D01*
X88447619Y-138326666D01*
X88542857Y-138279047D01*
X88685714Y-138279047D01*
X88780952Y-138326666D01*
X88828571Y-138374285D01*
X88876190Y-138469523D01*
X88876190Y-138850476D01*
X89352380Y-137326666D02*
X89352380Y-137898095D01*
X89352380Y-137612380D02*
X88352380Y-137612380D01*
X88495238Y-137707619D01*
X88590476Y-137802857D01*
X88638095Y-137898095D01*
X88352380Y-136707619D02*
X88352380Y-136612380D01*
X88400000Y-136517142D01*
X88447619Y-136469523D01*
X88542857Y-136421904D01*
X88733333Y-136374285D01*
X88971428Y-136374285D01*
X89161904Y-136421904D01*
X89257142Y-136469523D01*
X89304761Y-136517142D01*
X89352380Y-136612380D01*
X89352380Y-136707619D01*
X89304761Y-136802857D01*
X89257142Y-136850476D01*
X89161904Y-136898095D01*
X88971428Y-136945714D01*
X88733333Y-136945714D01*
X88542857Y-136898095D01*
X88447619Y-136850476D01*
X88400000Y-136802857D01*
X88352380Y-136707619D01*
X88352380Y-135469523D02*
X88352380Y-135945714D01*
X88828571Y-135993333D01*
X88780952Y-135945714D01*
X88733333Y-135850476D01*
X88733333Y-135612380D01*
X88780952Y-135517142D01*
X88828571Y-135469523D01*
X88923809Y-135421904D01*
X89161904Y-135421904D01*
X89257142Y-135469523D01*
X89304761Y-135517142D01*
X89352380Y-135612380D01*
X89352380Y-135850476D01*
X89304761Y-135945714D01*
X89257142Y-135993333D01*
X75382380Y-79859047D02*
X74906190Y-80192380D01*
X75382380Y-80430476D02*
X74382380Y-80430476D01*
X74382380Y-80049523D01*
X74430000Y-79954285D01*
X74477619Y-79906666D01*
X74572857Y-79859047D01*
X74715714Y-79859047D01*
X74810952Y-79906666D01*
X74858571Y-79954285D01*
X74906190Y-80049523D01*
X74906190Y-80430476D01*
X75382380Y-78906666D02*
X75382380Y-79478095D01*
X75382380Y-79192380D02*
X74382380Y-79192380D01*
X74525238Y-79287619D01*
X74620476Y-79382857D01*
X74668095Y-79478095D01*
X74382380Y-78287619D02*
X74382380Y-78192380D01*
X74430000Y-78097142D01*
X74477619Y-78049523D01*
X74572857Y-78001904D01*
X74763333Y-77954285D01*
X75001428Y-77954285D01*
X75191904Y-78001904D01*
X75287142Y-78049523D01*
X75334761Y-78097142D01*
X75382380Y-78192380D01*
X75382380Y-78287619D01*
X75334761Y-78382857D01*
X75287142Y-78430476D01*
X75191904Y-78478095D01*
X75001428Y-78525714D01*
X74763333Y-78525714D01*
X74572857Y-78478095D01*
X74477619Y-78430476D01*
X74430000Y-78382857D01*
X74382380Y-78287619D01*
X74715714Y-77097142D02*
X75382380Y-77097142D01*
X74334761Y-77335238D02*
X75049047Y-77573333D01*
X75049047Y-76954285D01*
X75382380Y-64619047D02*
X74906190Y-64952380D01*
X75382380Y-65190476D02*
X74382380Y-65190476D01*
X74382380Y-64809523D01*
X74430000Y-64714285D01*
X74477619Y-64666666D01*
X74572857Y-64619047D01*
X74715714Y-64619047D01*
X74810952Y-64666666D01*
X74858571Y-64714285D01*
X74906190Y-64809523D01*
X74906190Y-65190476D01*
X75382380Y-63666666D02*
X75382380Y-64238095D01*
X75382380Y-63952380D02*
X74382380Y-63952380D01*
X74525238Y-64047619D01*
X74620476Y-64142857D01*
X74668095Y-64238095D01*
X74382380Y-63047619D02*
X74382380Y-62952380D01*
X74430000Y-62857142D01*
X74477619Y-62809523D01*
X74572857Y-62761904D01*
X74763333Y-62714285D01*
X75001428Y-62714285D01*
X75191904Y-62761904D01*
X75287142Y-62809523D01*
X75334761Y-62857142D01*
X75382380Y-62952380D01*
X75382380Y-63047619D01*
X75334761Y-63142857D01*
X75287142Y-63190476D01*
X75191904Y-63238095D01*
X75001428Y-63285714D01*
X74763333Y-63285714D01*
X74572857Y-63238095D01*
X74477619Y-63190476D01*
X74430000Y-63142857D01*
X74382380Y-63047619D01*
X75382380Y-61761904D02*
X75382380Y-62333333D01*
X75382380Y-62047619D02*
X74382380Y-62047619D01*
X74525238Y-62142857D01*
X74620476Y-62238095D01*
X74668095Y-62333333D01*
X98409285Y-62952380D02*
X98409285Y-63666666D01*
X98361666Y-63809523D01*
X98266428Y-63904761D01*
X98123571Y-63952380D01*
X98028333Y-63952380D01*
X99409285Y-63952380D02*
X98837857Y-63952380D01*
X99123571Y-63952380D02*
X99123571Y-62952380D01*
X99028333Y-63095238D01*
X98933095Y-63190476D01*
X98837857Y-63238095D01*
X100028333Y-62952380D02*
X100123571Y-62952380D01*
X100218809Y-63000000D01*
X100266428Y-63047619D01*
X100314047Y-63142857D01*
X100361666Y-63333333D01*
X100361666Y-63571428D01*
X100314047Y-63761904D01*
X100266428Y-63857142D01*
X100218809Y-63904761D01*
X100123571Y-63952380D01*
X100028333Y-63952380D01*
X99933095Y-63904761D01*
X99885476Y-63857142D01*
X99837857Y-63761904D01*
X99790238Y-63571428D01*
X99790238Y-63333333D01*
X99837857Y-63142857D01*
X99885476Y-63047619D01*
X99933095Y-63000000D01*
X100028333Y-62952380D01*
X101314047Y-63952380D02*
X100742619Y-63952380D01*
X101028333Y-63952380D02*
X101028333Y-62952380D01*
X100933095Y-63095238D01*
X100837857Y-63190476D01*
X100742619Y-63238095D01*
X93162380Y-138850476D02*
X92162380Y-138850476D01*
X92162380Y-138612380D01*
X92210000Y-138469523D01*
X92305238Y-138374285D01*
X92400476Y-138326666D01*
X92590952Y-138279047D01*
X92733809Y-138279047D01*
X92924285Y-138326666D01*
X93019523Y-138374285D01*
X93114761Y-138469523D01*
X93162380Y-138612380D01*
X93162380Y-138850476D01*
X93162380Y-137326666D02*
X93162380Y-137898095D01*
X93162380Y-137612380D02*
X92162380Y-137612380D01*
X92305238Y-137707619D01*
X92400476Y-137802857D01*
X92448095Y-137898095D01*
X92162380Y-136707619D02*
X92162380Y-136612380D01*
X92210000Y-136517142D01*
X92257619Y-136469523D01*
X92352857Y-136421904D01*
X92543333Y-136374285D01*
X92781428Y-136374285D01*
X92971904Y-136421904D01*
X93067142Y-136469523D01*
X93114761Y-136517142D01*
X93162380Y-136612380D01*
X93162380Y-136707619D01*
X93114761Y-136802857D01*
X93067142Y-136850476D01*
X92971904Y-136898095D01*
X92781428Y-136945714D01*
X92543333Y-136945714D01*
X92352857Y-136898095D01*
X92257619Y-136850476D01*
X92210000Y-136802857D01*
X92162380Y-136707619D01*
X93162380Y-135421904D02*
X93162380Y-135993333D01*
X93162380Y-135707619D02*
X92162380Y-135707619D01*
X92305238Y-135802857D01*
X92400476Y-135898095D01*
X92448095Y-135993333D01*
X94962380Y-133611904D02*
X93962380Y-133611904D01*
X94962380Y-133040476D02*
X94390952Y-133469047D01*
X93962380Y-133040476D02*
X94533809Y-133611904D01*
M02*
