G04 #@! TF.GenerationSoftware,KiCad,Pcbnew,(5.1.5)-3*
G04 #@! TF.CreationDate,2021-04-21T14:44:00+02:00*
G04 #@! TF.ProjectId,AnalogDrum_FM,416e616c-6f67-4447-9275-6d5f464d2e6b,rev?*
G04 #@! TF.SameCoordinates,Original*
G04 #@! TF.FileFunction,Legend,Bot*
G04 #@! TF.FilePolarity,Positive*
%FSLAX46Y46*%
G04 Gerber Fmt 4.6, Leading zero omitted, Abs format (unit mm)*
G04 Created by KiCad (PCBNEW (5.1.5)-3) date 2021-04-21 14:44:00*
%MOMM*%
%LPD*%
G04 APERTURE LIST*
%ADD10C,0.120000*%
%ADD11C,0.150000*%
G04 APERTURE END LIST*
D10*
X146120000Y-78490000D02*
X146120000Y-80990000D01*
X143620000Y-78490000D02*
X146120000Y-78490000D01*
X144320000Y-93010000D02*
X145820000Y-93010000D01*
X144320000Y-94010000D02*
X144320000Y-93010000D01*
X144320000Y-79790000D02*
X145820000Y-79790000D01*
X144320000Y-78790000D02*
X144320000Y-79790000D01*
X143510000Y-93510000D02*
X143510000Y-94010000D01*
X142300000Y-93510000D02*
X143510000Y-93510000D01*
X142300000Y-79290000D02*
X142300000Y-93510000D01*
X143510000Y-79290000D02*
X142300000Y-79290000D01*
X143510000Y-78790000D02*
X143510000Y-79290000D01*
X141800000Y-94010000D02*
X141800000Y-78790000D01*
X145820000Y-94010000D02*
X141800000Y-94010000D01*
X145820000Y-78790000D02*
X145820000Y-94010000D01*
X141800000Y-78790000D02*
X145820000Y-78790000D01*
D11*
X140162380Y-85114285D02*
X140876666Y-85114285D01*
X141019523Y-85066666D01*
X141114761Y-84971428D01*
X141162380Y-84828571D01*
X141162380Y-84733333D01*
X141162380Y-86114285D02*
X141162380Y-85542857D01*
X141162380Y-85828571D02*
X140162380Y-85828571D01*
X140305238Y-85733333D01*
X140400476Y-85638095D01*
X140448095Y-85542857D01*
X140162380Y-86733333D02*
X140162380Y-86828571D01*
X140210000Y-86923809D01*
X140257619Y-86971428D01*
X140352857Y-87019047D01*
X140543333Y-87066666D01*
X140781428Y-87066666D01*
X140971904Y-87019047D01*
X141067142Y-86971428D01*
X141114761Y-86923809D01*
X141162380Y-86828571D01*
X141162380Y-86733333D01*
X141114761Y-86638095D01*
X141067142Y-86590476D01*
X140971904Y-86542857D01*
X140781428Y-86495238D01*
X140543333Y-86495238D01*
X140352857Y-86542857D01*
X140257619Y-86590476D01*
X140210000Y-86638095D01*
X140162380Y-86733333D01*
X141162380Y-88019047D02*
X141162380Y-87447619D01*
X141162380Y-87733333D02*
X140162380Y-87733333D01*
X140305238Y-87638095D01*
X140400476Y-87542857D01*
X140448095Y-87447619D01*
M02*
