M48
; DRILL file {KiCad (5.1.5)-3} date 20/04/2021 14:43:31
; FORMAT={-:-/ absolute / inch / decimal}
; #@! TF.CreationDate,2021-04-20T14:43:31+02:00
; #@! TF.GenerationSoftware,Kicad,Pcbnew,(5.1.5)-3
FMAT,2
INCH
T1C0.0197
T2C0.0295
T3C0.0315
T4C0.0354
T5C0.0394
T6C0.0787
T7C0.1260
%
G90
G05
T1
X2.4Y-0.85
X2.4Y-1.25
X2.4Y-1.65
X2.4Y-2.05
X2.4Y-2.45
X2.4Y-2.85
X2.4Y-3.25
X2.4Y-3.65
X2.4Y-4.05
X2.4Y-4.45
X2.4Y-4.85
X2.4Y-5.25
X2.4Y-5.65
X2.4Y-6.05
X2.4Y-6.45
X2.4Y-6.95
X2.8Y-0.85
X2.8Y-6.95
X3.125Y-3.075
X3.2Y-0.85
X3.2Y-6.95
X3.6Y-0.85
X3.6Y-6.95
X4.0Y-0.85
X4.0Y-6.95
X4.4Y-0.85
X4.4Y-6.95
X4.8Y-0.85
X4.8Y-6.95
X5.2Y-0.85
X5.2Y-6.95
X5.6Y-0.85
X5.6Y-6.95
X6.15Y-0.85
X6.15Y-1.25
X6.15Y-1.65
X6.15Y-2.05
X6.15Y-2.45
X6.15Y-2.85
X6.15Y-3.25
X6.15Y-3.65
X6.15Y-4.05
X6.15Y-4.45
X6.15Y-4.85
X6.15Y-5.25
X6.15Y-5.65
X6.15Y-6.05
X6.15Y-6.45
X6.15Y-6.95
T2
X3.45Y-5.9
X3.5Y-5.9
X3.55Y-5.9
X3.45Y-4.8
X3.5Y-4.8
X3.55Y-4.8
X5.15Y-5.95
X5.15Y-6.0
X5.15Y-6.05
X5.15Y-4.65
X5.15Y-4.7
X5.15Y-4.75
X3.45Y-4.6
X3.5Y-4.6
X3.55Y-4.6
X3.45Y-6.1
X3.5Y-6.1
X3.55Y-6.1
T3
X4.15Y-2.35
X4.15Y-2.65
X4.3Y-5.45
X4.3Y-5.75
X4.05Y-3.15
X4.05Y-3.45
X3.75Y-3.15
X3.75Y-3.45
X3.9016Y-5.75
X4.0Y-5.75
X4.0016Y-6.25
X4.1Y-6.25
X4.05Y-1.85
X4.05Y-2.15
X3.9016Y-4.45
X4.0Y-4.45
X3.85Y-1.85
X3.85Y-2.15
X4.55Y-2.45
X4.65Y-2.45
X4.75Y-2.45
X3.55Y-2.75
X3.55Y-3.05
X3.65Y-2.75
X3.65Y-3.05
X3.75Y-2.75
X3.75Y-3.05
X3.85Y-2.75
X3.85Y-3.05
X3.7Y-4.55
X3.7Y-4.85
X3.8Y-4.55
X3.8Y-4.85
X3.9Y-4.55
X3.9Y-4.85
X4.0Y-4.55
X4.0Y-4.85
X4.1Y-4.55
X4.1Y-4.85
X4.2Y-4.55
X4.2Y-4.85
X4.3Y-4.55
X4.3Y-4.85
X3.9Y-4.95
X3.9Y-5.25
X4.3Y-4.15
X4.3Y-4.45
X4.7Y-4.15
X4.7Y-4.45
X4.95Y-1.75
X4.95Y-2.05
X4.35Y-1.1516
X4.35Y-1.3484
X4.7Y-5.45
X4.7Y-5.75
X3.35Y-3.15
X3.35Y-3.45
X4.8Y-6.25
X4.8Y-6.55
X3.95Y-2.35
X3.95Y-2.65
X4.0016Y-4.95
X4.1Y-4.95
X4.55Y-1.85
X4.55Y-2.15
X4.95Y-2.65
X5.0484Y-2.65
X5.0Y-5.45
X5.0Y-5.75
X3.75Y-1.85
X3.75Y-2.15
X4.1Y-5.45
X4.1Y-5.75
X3.7Y-5.85
X3.7Y-6.15
X3.8Y-5.85
X3.8Y-6.15
X3.9Y-5.85
X3.9Y-6.15
X4.0Y-5.85
X4.0Y-6.15
X4.1Y-5.85
X4.1Y-6.15
X4.2Y-5.85
X4.2Y-6.15
X4.3Y-5.85
X4.3Y-6.15
X4.05Y-2.75
X4.05Y-3.05
X4.15Y-2.75
X4.15Y-3.05
X4.25Y-2.75
X4.25Y-3.05
X4.35Y-2.75
X4.35Y-3.05
X4.45Y-2.75
X4.45Y-3.05
X4.55Y-2.75
X4.55Y-3.05
X4.65Y-2.75
X4.65Y-3.05
X4.75Y-2.75
X4.75Y-3.05
X4.7Y-4.55
X4.7Y-4.85
X4.8Y-4.55
X4.8Y-4.85
X4.9Y-4.55
X4.9Y-4.85
X5.0Y-4.55
X5.0Y-4.85
X4.5516Y-2.65
X4.65Y-2.65
X3.5Y-4.35
X3.8Y-4.35
X3.6Y-5.0
X3.6Y-5.1
X3.6Y-5.2
X4.65Y-1.65
X4.95Y-1.65
X3.6016Y-4.45
X3.7984Y-4.45
X3.75Y-2.35
X3.75Y-2.65
X3.65Y-3.15
X3.65Y-3.45
X3.85Y-2.35
X3.85Y-2.65
X3.8Y-6.25
X3.8Y-6.55
X4.15Y-1.85
X4.15Y-2.15
X3.5Y-5.55
X3.8Y-5.55
X3.65Y-1.25
X3.65Y-1.55
X3.55Y-1.75
X3.55Y-2.05
X4.6Y-5.45
X4.6Y-5.75
X3.6Y-6.3
X3.6Y-6.4
X3.6Y-6.5
X4.9Y-4.95
X4.9Y-5.25
X4.4Y-6.3
X4.4Y-6.4
X4.4Y-6.5
X5.0Y-6.25
X5.0Y-6.3484
X4.2Y-4.95
X4.2Y-5.25
X3.8Y-4.95
X3.8Y-5.25
X4.05Y-2.35
X4.05Y-2.65
X4.35Y-2.35
X4.35Y-2.65
X4.75Y-1.85
X4.75Y-2.15
X5.25Y-2.35
X5.25Y-2.65
X4.25Y-3.15
X4.25Y-3.45
X4.5Y-5.9516
X4.5Y-6.05
X4.7Y-6.25
X4.7Y-6.55
X4.55Y-3.15
X4.6484Y-3.15
X4.6Y-6.25
X4.6Y-6.55
X4.1Y-4.15
X4.1Y-4.45
X3.9Y-6.25
X3.9Y-6.55
X5.0Y-4.15
X5.0Y-4.45
X4.6Y-4.95
X4.6Y-5.25
X4.4Y-5.0
X4.4Y-5.1
X4.4Y-5.2
X5.25Y-3.1516
X5.25Y-3.25
X3.95Y-1.45
X3.95Y-1.75
X4.05Y-1.45
X4.05Y-1.75
X4.15Y-1.45
X4.15Y-1.75
X4.25Y-1.45
X4.25Y-1.75
X4.35Y-1.45
X4.35Y-1.75
X4.45Y-1.45
X4.45Y-1.75
X4.55Y-1.45
X4.55Y-1.75
X4.65Y-1.85
X4.65Y-2.15
X4.85Y-1.25
X4.85Y-1.55
X5.05Y-3.15
X5.05Y-3.45
X4.35Y-3.15
X4.35Y-3.45
X4.95Y-1.25
X4.95Y-1.55
X4.9Y-5.45
X4.9Y-5.75
X5.1Y-6.15
X5.1984Y-6.15
X3.65Y-1.75
X3.65Y-2.05
X4.8Y-4.15
X4.8Y-4.45
X4.8Y-5.45
X4.8Y-5.75
X5.0Y-4.95
X5.0Y-5.0484
X4.6Y-3.35
X4.7Y-3.35
X4.8Y-3.35
X3.5Y-4.25
X3.8Y-4.25
X3.35Y-2.35
X3.35Y-2.45
X3.35Y-2.55
X4.75Y-1.25
X4.75Y-1.55
X4.15Y-3.75
X4.15Y-3.8484
X4.15Y-1.1516
X4.15Y-1.3484
X5.15Y-3.15
X5.15Y-3.45
X3.45Y-3.15
X3.45Y-3.45
X4.2Y-6.25
X4.2Y-6.55
X5.1Y-4.85
X5.1984Y-4.85
X4.35Y-1.85
X4.35Y-2.15
X3.95Y-1.85
X3.95Y-2.15
X4.25Y-1.8516
X4.25Y-1.95
X4.9Y-6.25
X4.9Y-6.55
X3.55Y-2.5516
X3.55Y-2.65
X4.9Y-4.15
X4.9Y-4.45
X3.35Y-2.8
X3.35Y-2.9
X3.35Y-3.0
X4.7Y-4.95
X4.7Y-5.25
X4.4Y-3.7516
X4.4Y-3.85
X3.4516Y-2.15
X3.6484Y-2.15
X4.575Y-3.65
X4.575Y-3.95
X3.6016Y-5.75
X3.7984Y-5.75
X3.65Y-2.35
X3.65Y-2.65
X3.5Y-5.65
X3.8Y-5.65
X3.55Y-3.15
X3.55Y-3.45
X4.25Y-2.35
X4.25Y-2.65
X4.5Y-4.6516
X4.5Y-4.75
X3.55Y-1.25
X3.55Y-1.55
X3.75Y-1.25
X3.75Y-1.55
X4.25Y-1.2516
X4.25Y-1.35
X3.55Y-1.65
X3.85Y-1.65
X3.85Y-3.1516
X3.85Y-3.25
X4.6Y-4.15
X4.6Y-4.45
X4.95Y-2.75
X4.95Y-3.05
X5.05Y-2.75
X5.05Y-3.05
X5.15Y-2.75
X5.15Y-3.05
X5.25Y-2.75
X5.25Y-3.05
X4.7Y-5.85
X4.7Y-6.15
X4.8Y-5.85
X4.8Y-6.15
X4.9Y-5.85
X4.9Y-6.15
X5.0Y-5.85
X5.0Y-6.15
X4.8Y-4.95
X4.8Y-5.25
X4.85Y-1.75
X4.85Y-2.05
X4.85Y-2.15
X5.0469Y-2.15
X4.45Y-1.85
X4.45Y-2.15
X3.975Y-3.65
X3.975Y-3.95
X4.15Y-3.15
X4.15Y-3.45
X5.15Y-2.35
X5.15Y-2.65
T4
X4.7531Y-3.75
X4.7531Y-3.8799
X4.8516Y-3.75
X4.8516Y-3.8799
X4.95Y-3.75
X4.95Y-3.8799
X3.6016Y-3.75
X3.6016Y-3.8799
X3.7Y-3.75
X3.7Y-3.8799
X3.7984Y-3.75
X3.7984Y-3.8799
X2.75Y-2.8016
X2.75Y-2.9
X2.75Y-2.9984
X2.8799Y-2.8016
X2.8799Y-2.9
X2.8799Y-2.9984
X5.6701Y-2.8
X5.6701Y-2.8984
X5.6701Y-2.9969
X5.8Y-2.8
X5.8Y-2.8984
X5.8Y-2.9969
T5
X3.075Y-5.15
X3.075Y-5.2484
X3.075Y-5.3469
X5.475Y-6.1281
X5.475Y-6.2266
X5.475Y-6.325
X3.0756Y-1.4248
X3.0756Y-1.5232
X3.0756Y-1.6217
X5.475Y-4.1781
X5.475Y-4.2766
X5.475Y-4.375
X5.4744Y-2.1748
X5.4744Y-2.2732
X5.4744Y-2.3717
X5.65Y-3.2
X5.65Y-3.3
X5.65Y-3.4
X5.65Y-3.5
X5.65Y-3.6
X3.075Y-2.1748
X3.075Y-2.2732
X3.075Y-2.3717
X3.0756Y-4.1748
X3.0756Y-4.2732
X3.0756Y-4.3717
X5.475Y-1.4248
X5.475Y-1.5232
X5.475Y-1.6217
X3.075Y-6.125
X3.075Y-6.2234
X3.075Y-6.3219
T6
X2.7994Y-5.0752
X2.7994Y-5.4217
X5.7506Y-6.0533
X5.7506Y-6.3998
X2.8Y-1.35
X2.8Y-1.6965
X5.7506Y-4.1033
X5.7506Y-4.4498
X5.75Y-2.1
X5.75Y-2.4465
X2.7994Y-2.1
X2.7994Y-2.4465
X2.8Y-4.1
X2.8Y-4.4465
X5.7506Y-1.35
X5.7506Y-1.6965
X2.7994Y-6.0502
X2.7994Y-6.3967
T7
X6.0Y-6.8
X2.55Y-1.0
X2.55Y-6.8
X6.0Y-1.0
T0
M30
