M48
; DRILL file {KiCad (5.1.5)-3} date 21/04/2021 15:04:59
; FORMAT={-:-/ absolute / inch / decimal}
; #@! TF.CreationDate,2021-04-21T15:04:59+02:00
; #@! TF.GenerationSoftware,Kicad,Pcbnew,(5.1.5)-3
FMAT,2
INCH
T1C0.0197
T2C0.0295
T3C0.0315
T4C0.0354
T5C0.0374
T6C0.0394
T7C0.0787
T8C0.1260
%
G90
G05
T1
X2.05Y-1.0
X2.05Y-1.4
X2.05Y-1.8
X2.05Y-2.2
X2.05Y-2.6
X2.05Y-3.0
X2.05Y-3.4
X2.05Y-3.8
X2.05Y-4.2
X2.05Y-4.6
X2.05Y-5.0
X2.05Y-5.4
X2.05Y-5.8
X2.05Y-6.2
X2.05Y-6.6
X2.05Y-7.1
X2.45Y-1.0
X2.45Y-7.1
X2.85Y-1.0
X2.85Y-7.1
X3.2Y-3.2
X3.225Y-3.45
X3.25Y-1.0
X3.25Y-7.1
X3.65Y-1.0
X3.65Y-7.1
X4.05Y-1.0
X4.05Y-7.1
X4.45Y-1.0
X4.45Y-7.1
X4.85Y-1.0
X4.85Y-7.1
X5.175Y-4.3
X5.25Y-1.0
X5.25Y-7.1
X5.8Y-1.0
X5.8Y-1.4
X5.8Y-1.8
X5.8Y-2.2
X5.8Y-2.6
X5.8Y-3.0
X5.8Y-3.4
X5.8Y-3.8
X5.8Y-4.2
X5.8Y-4.6
X5.8Y-5.0
X5.8Y-5.4
X5.8Y-5.8
X5.8Y-6.2
X5.8Y-6.6
X5.8Y-7.1
T2
X4.1Y-5.8
X4.1Y-5.85
X4.1Y-5.9
X3.9Y-5.8
X3.9Y-5.85
X3.9Y-5.9
T3
X4.3Y-2.2
X4.3Y-2.5
X3.75Y-5.75
X3.75Y-6.05
X4.1Y-3.4
X4.1Y-3.7
X2.95Y-4.45
X3.05Y-4.45
X3.15Y-4.45
X3.85Y-5.35
X3.85Y-5.45
X3.85Y-5.55
X3.85Y-5.65
X4.15Y-5.35
X4.15Y-5.45
X4.15Y-5.55
X4.15Y-5.65
X3.1031Y-3.2
X3.3Y-3.2
X4.65Y-4.0016
X4.65Y-4.1
X3.7Y-4.55
X3.7Y-4.6484
X3.3Y-2.2
X3.3Y-2.5
X4.4Y-2.2
X4.4Y-2.5
X3.2Y-2.7
X3.5Y-2.7
X3.2Y-2.8
X3.2Y-3.1
X4.25Y-5.65
X4.55Y-5.65
X2.9Y-4.65
X3.2Y-4.65
X4.7Y-5.0
X5.0Y-5.0
X2.8Y-4.65
X2.8Y-4.95
X3.3Y-4.65
X3.3Y-4.75
X3.3Y-4.85
X3.3Y-4.95
X3.6Y-4.65
X3.6Y-4.75
X3.6Y-4.85
X3.6Y-4.95
X4.25Y-4.65
X4.25Y-4.75
X4.25Y-4.85
X4.25Y-4.95
X4.55Y-4.65
X4.55Y-4.75
X4.55Y-4.85
X4.55Y-4.95
X3.2016Y-3.7
X3.3Y-3.7
X3.9Y-2.3016
X3.9Y-2.4
X3.8Y-2.9
X3.8Y-3.2
X4.0Y-4.9
X4.1378Y-4.9
X3.5Y-2.9
X3.5Y-3.2
X2.9Y-4.75
X3.2Y-4.75
X4.3Y-2.7
X4.6Y-2.7
X4.75Y-3.8
X4.75Y-4.1
X2.9Y-4.95
X3.2Y-4.95
X4.0Y-3.4
X4.0Y-3.7
X4.625Y-3.45
X4.625Y-3.55
X4.625Y-3.65
X4.2Y-3.8
X4.2Y-4.1
X4.3Y-3.8
X4.3Y-4.1
X4.4Y-3.8
X4.4Y-4.1
X4.5Y-3.8
X4.5Y-4.1
X3.2Y-3.8
X3.2Y-4.1
X3.3Y-3.8
X3.3Y-4.1
X3.4Y-3.8
X3.4Y-4.1
X3.5Y-3.8
X3.5Y-4.1
X3.6Y-3.8
X3.6Y-4.1
X3.7Y-3.8
X3.7Y-4.1
X3.8Y-3.8
X3.8Y-4.1
X3.9Y-3.8
X3.9Y-4.1
X4.25Y-5.35
X4.3484Y-5.35
X3.4Y-2.2
X3.4Y-2.5
X4.6Y-2.8
X4.6Y-3.1
X4.25Y-4.45
X4.55Y-4.45
X4.4Y-3.4
X4.4Y-3.7
X4.3Y-3.4
X4.3Y-3.7
X4.5Y-2.8
X4.5Y-3.1
X3.75Y-3.45
X3.75Y-3.55
X3.75Y-3.65
X4.0Y-2.2016
X4.0Y-2.3984
X3.9Y-2.9016
X3.9Y-3.0
X3.8Y-2.2016
X3.8Y-2.3984
X3.4Y-2.9
X3.4Y-3.2
X3.6Y-2.9
X3.6Y-3.2
X4.1Y-2.9
X4.1Y-3.2
X3.7Y-4.35
X4.0Y-4.35
X3.5Y-3.4
X3.5Y-3.7
X3.4Y-3.4
X3.4Y-3.7
X3.85Y-5.0016
X3.85Y-5.1984
X3.2Y-5.0732
X3.2984Y-5.0732
X3.9031Y-6.025
X4.1Y-6.025
X4.0Y-2.9
X4.0Y-3.2
X3.3Y-2.8
X3.3Y-3.1
X4.25Y-5.55
X4.55Y-5.55
X4.2Y-2.9
X4.2Y-3.2
X3.45Y-5.45
X3.75Y-5.45
X3.9Y-3.4
X3.9Y-3.7
X3.6Y-3.4
X3.6Y-3.7
X3.6Y-2.5
X3.6Y-2.8
X3.7Y-2.5
X3.7Y-2.8
X3.8Y-2.5
X3.8Y-2.8
X3.9Y-2.5
X3.9Y-2.8
X4.0Y-2.5
X4.0Y-2.8
X4.1Y-2.5
X4.1Y-2.8
X4.2Y-2.5
X4.2Y-2.8
X4.05Y-5.0016
X4.05Y-5.1984
X3.65Y-5.65
X3.7484Y-5.65
X4.4Y-5.85
X4.4984Y-5.85
X4.4Y-2.9
X4.4Y-3.2
X3.7Y-2.9
X3.7Y-3.2
X3.5Y-2.2
X3.5Y-2.5
X4.25Y-5.4378
X4.55Y-5.4378
X4.3Y-2.9
X4.3Y-3.2
X2.9Y-4.85
X3.2Y-4.85
X4.25Y-5.75
X4.25Y-6.05
X4.2Y-3.4
X4.2Y-3.7
X4.7Y-4.6
X5.0Y-4.6
X3.35Y-4.45
X3.45Y-4.45
X3.55Y-4.45
X4.1Y-4.35
X4.4Y-4.35
X5.0Y-5.1031
X5.0Y-5.3
X4.05Y-3.8
X4.05Y-3.8984
X3.3Y-4.2
X3.3984Y-4.2
X4.4516Y-4.55
X4.55Y-4.55
X4.25Y-5.05
X4.3484Y-5.05
X4.5Y-3.2
X4.6969Y-3.2
X4.5Y-2.2
X4.5Y-2.5
X3.75Y-4.9
X3.8878Y-4.9
T4
X3.8Y-4.45
X3.9Y-4.45
X5.0Y-4.75
X5.0Y-4.85
X4.05Y-4.45
X4.15Y-4.45
X4.75Y-4.75
X4.75Y-4.85
X2.45Y-3.2
X2.45Y-3.2984
X2.45Y-3.3969
X2.5799Y-3.2
X2.5799Y-3.2984
X2.5799Y-3.3969
X5.3201Y-3.2
X5.3201Y-3.2984
X5.3201Y-3.3969
X5.45Y-3.2
X5.45Y-3.2984
X5.45Y-3.3969
T5
X5.25Y-3.7031
X5.25Y-3.8016
X5.25Y-3.9
X5.25Y-3.9984
X5.25Y-4.0969
T6
X5.125Y-1.9281
X5.125Y-2.0266
X5.125Y-2.125
X2.725Y-2.6248
X2.725Y-2.7232
X2.725Y-2.8217
X2.725Y-5.1
X2.725Y-5.1984
X2.725Y-5.2969
X2.725Y-5.9783
X2.725Y-6.0768
X2.725Y-6.1752
X5.1244Y-5.9748
X5.1244Y-6.0732
X5.1244Y-6.1717
X5.1244Y-5.0998
X5.1244Y-5.1982
X5.1244Y-5.2967
X2.7256Y-1.9283
X2.7256Y-2.0268
X2.7256Y-2.1252
X5.1244Y-2.6248
X5.1244Y-2.7232
X5.1244Y-2.8217
T7
X5.4Y-5.9
X5.4Y-6.2465
X5.4Y-5.025
X5.4Y-5.3715
X2.45Y-1.8535
X2.45Y-2.2
X5.4Y-2.55
X5.4Y-2.8965
X5.4006Y-1.8533
X5.4006Y-2.1998
X2.4494Y-2.55
X2.4494Y-2.8965
X2.4494Y-5.0252
X2.4494Y-5.3717
X2.4494Y-5.9035
X2.4494Y-6.25
T8
X2.2Y-1.15
X2.2Y-6.95
X5.65Y-6.95
X5.65Y-1.15
T0
M30
