M48
; DRILL file {KiCad (5.1.5)-3} date 20/04/2021 16:09:02
; FORMAT={-:-/ absolute / inch / decimal}
; #@! TF.CreationDate,2021-04-20T16:09:02+02:00
; #@! TF.GenerationSoftware,Kicad,Pcbnew,(5.1.5)-3
FMAT,2
INCH
T1C0.0197
T2C0.0295
T3C0.0315
T4C0.0354
T5C0.0394
T6C0.0787
T7C0.1260
%
G90
G05
T1
X2.25Y-1.1
X2.25Y-1.5
X2.25Y-1.9
X2.25Y-2.3
X2.25Y-2.7
X2.25Y-3.1
X2.25Y-3.5
X2.25Y-3.9
X2.25Y-4.3
X2.25Y-4.7
X2.25Y-5.1
X2.25Y-5.5
X2.25Y-5.9
X2.25Y-6.3
X2.25Y-6.7
X2.25Y-7.2
X2.5Y-2.875
X2.65Y-1.1
X2.65Y-7.2
X3.0Y-4.575
X3.05Y-7.2
X3.95Y-3.475
X5.2Y-7.2
X5.3Y-2.8
X5.45Y-2.8
X5.6Y-1.1
X5.6Y-7.2
X6.0Y-1.1
X6.0Y-1.5
X6.0Y-1.9
X6.0Y-2.3
X6.0Y-2.7
X6.0Y-3.1
X6.0Y-3.5
X6.0Y-3.9
X6.0Y-4.3
X6.0Y-4.7
X6.0Y-5.1
X6.0Y-5.5
X6.0Y-5.9
X6.0Y-6.3
X6.0Y-6.7
X6.0Y-7.2
T2
X3.35Y-5.4
X3.4Y-5.4
X3.45Y-5.4
X3.35Y-6.65
X3.4Y-6.65
X3.45Y-6.65
X3.95Y-3.75
X4.0Y-3.75
X4.05Y-3.75
X3.95Y-3.95
X4.0Y-3.95
X4.05Y-3.95
X5.1Y-6.5
X5.1Y-6.55
X5.1Y-6.6
X3.35Y-5.2
X3.4Y-5.2
X3.45Y-5.2
X5.35Y-4.45
X5.4Y-4.45
X5.45Y-4.45
X3.95Y-4.3
X4.0Y-4.3
X4.05Y-4.3
X3.35Y-6.45
X3.4Y-6.45
X3.45Y-6.45
X5.1Y-5.25
X5.1Y-5.3
X5.1Y-5.35
X5.35Y-4.25
X5.4Y-4.25
X5.45Y-4.25
X3.95Y-4.5
X4.0Y-4.5
X4.05Y-4.5
T3
X3.3531Y-2.05
X3.55Y-2.05
X3.85Y-1.75
X3.85Y-2.05
X4.0Y-4.75
X4.0Y-5.05
X3.65Y-3.5
X3.65Y-3.8
X3.95Y-3.05
X3.95Y-3.35
X3.45Y-2.4516
X3.45Y-2.55
X4.15Y-2.25
X4.15Y-2.55
X4.95Y-3.7
X4.95Y-3.7984
X3.45Y-4.3
X3.45Y-4.6
X4.15Y-4.5
X4.45Y-4.5
X3.65Y-1.75
X3.65Y-2.05
X5.05Y-2.25
X5.05Y-2.55
X4.85Y-1.65
X4.85Y-1.95
X3.25Y-3.05
X3.25Y-3.35
X4.1Y-6.8
X4.1Y-7.1
X4.85Y-6.8
X4.85Y-7.1
X3.55Y-5.6
X3.55Y-5.7
X3.55Y-5.8
X4.75Y-1.65
X4.75Y-1.95
X4.65Y-6.4
X4.65Y-6.7
X4.75Y-6.4
X4.75Y-6.7
X4.85Y-6.4
X4.85Y-6.7
X4.95Y-6.4
X4.95Y-6.7
X3.45Y-1.65
X3.45Y-1.95
X4.25Y-1.2484
X4.4469Y-1.2484
X4.35Y-6.85
X4.35Y-6.95
X4.35Y-7.05
X4.55Y-5.55
X4.55Y-5.85
X3.55Y-4.3
X3.55Y-4.6
X5.15Y-3.05
X5.15Y-3.1484
X4.15Y-4.1
X4.45Y-4.1
X4.7516Y-2.55
X4.85Y-2.55
X5.05Y-3.05
X5.05Y-3.35
X4.05Y-3.05
X4.05Y-3.35
X3.45Y-1.15
X3.45Y-1.45
X4.15Y-3.7
X4.45Y-3.7
X4.65Y-1.75
X4.65Y-2.05
X4.95Y-3.9
X5.25Y-3.9
X4.55Y-1.75
X4.55Y-2.05
X3.95Y-2.25
X3.95Y-2.55
X3.725Y-4.35
X3.725Y-4.45
X3.725Y-4.55
X4.55Y-6.8
X4.55Y-7.1
X4.95Y-6.0
X4.95Y-6.3
X4.65Y-5.15
X4.65Y-5.45
X4.75Y-5.15
X4.75Y-5.45
X4.85Y-5.15
X4.85Y-5.45
X4.95Y-5.15
X4.95Y-5.45
X3.5016Y-5.05
X3.6984Y-5.05
X4.45Y-1.75
X4.45Y-2.05
X3.75Y-1.75
X3.75Y-2.05
X4.65Y-4.75
X4.65Y-5.05
X3.6Y-5.15
X3.6Y-5.45
X3.7Y-5.15
X3.7Y-5.45
X3.8Y-5.15
X3.8Y-5.45
X3.9Y-5.15
X3.9Y-5.45
X4.0Y-5.15
X4.0Y-5.45
X4.1Y-5.15
X4.1Y-5.45
X4.2Y-5.15
X4.2Y-5.45
X4.85Y-5.55
X4.85Y-5.85
X3.35Y-3.9
X3.35Y-4.2
X3.75Y-2.25
X3.75Y-2.55
X4.35Y-4.0
X4.4484Y-4.0
X4.25Y-2.25
X4.25Y-2.55
X4.95Y-4.2016
X4.95Y-4.3
X3.35Y-3.05
X3.35Y-3.35
X4.05Y-1.75
X4.05Y-2.05
X4.65Y-5.55
X4.65Y-5.85
X4.15Y-4.3
X4.45Y-4.3
X3.7Y-6.8
X3.7Y-7.1
X4.15Y-4.2
X4.45Y-4.2
X4.0Y-6.0
X4.0Y-6.3
X4.65Y-6.8
X4.65Y-7.1
X4.5Y-3.25
X4.6Y-3.25
X4.7Y-3.25
X3.45Y-2.65
X3.45Y-2.95
X3.55Y-2.65
X3.55Y-2.95
X3.65Y-2.65
X3.65Y-2.95
X3.75Y-2.65
X3.75Y-2.95
X3.8531Y-1.2484
X4.05Y-1.2484
X3.65Y-1.15
X3.65Y-1.45
X3.6Y-6.4
X3.6Y-6.7
X3.7Y-6.4
X3.7Y-6.7
X3.8Y-6.4
X3.8Y-6.7
X3.9Y-6.4
X3.9Y-6.7
X4.0Y-6.4
X4.0Y-6.7
X4.1Y-6.4
X4.1Y-6.7
X4.2Y-6.4
X4.2Y-6.7
X3.7Y-5.55
X3.7Y-5.85
X3.45Y-3.9
X3.45Y-4.2
X3.55Y-3.9
X3.55Y-4.2
X3.65Y-3.9
X3.65Y-4.2
X3.75Y-3.9
X3.75Y-4.2
X3.4Y-4.85
X3.7Y-4.85
X3.55Y-3.5
X3.55Y-3.8
X4.4516Y-2.55
X4.55Y-2.55
X4.15Y-3.9
X4.45Y-3.9
X4.4Y-5.2599
X4.4Y-5.3583
X4.15Y-3.8
X4.45Y-3.8
X4.15Y-1.1516
X4.15Y-1.25
X3.65Y-3.05
X3.65Y-3.35
X4.25Y-1.75
X4.25Y-2.05
X4.55Y-4.75
X4.55Y-5.05
X4.95Y-5.5516
X4.95Y-5.65
X4.15Y-3.6
X4.45Y-3.6
X3.75Y-3.0516
X3.75Y-3.15
X3.4Y-6.2
X3.7Y-6.2
X4.15Y-4.4
X4.45Y-4.4
X4.75Y-6.8
X4.75Y-7.1
X4.55Y-6.0
X4.55Y-6.3
X4.35Y-5.6
X4.35Y-5.7
X4.35Y-5.8
X4.85Y-2.65
X4.85Y-2.95
X4.95Y-2.65
X4.95Y-2.95
X5.05Y-2.65
X5.05Y-2.95
X5.15Y-2.65
X5.15Y-2.95
X3.95Y-1.75
X3.95Y-2.05
X4.75Y-5.55
X4.75Y-5.85
X3.5016Y-6.3
X3.6984Y-6.3
X3.4Y-4.95
X3.7Y-4.95
X3.95Y-2.65
X3.95Y-2.95
X4.05Y-2.65
X4.05Y-2.95
X4.15Y-2.65
X4.15Y-2.95
X4.25Y-2.65
X4.25Y-2.95
X4.35Y-2.65
X4.35Y-2.95
X4.45Y-2.65
X4.45Y-2.95
X4.55Y-2.65
X4.55Y-2.95
X4.65Y-2.65
X4.65Y-2.95
X4.85Y-4.75
X4.85Y-5.05
X3.65Y-2.25
X3.65Y-2.55
X3.9016Y-6.8
X4.0Y-6.8
X3.85Y-2.25
X3.85Y-2.55
X4.4Y-6.5
X4.4Y-6.5984
X4.95Y-4.5
X5.25Y-4.5
X3.9016Y-5.55
X4.0Y-5.55
X3.8016Y-6.3
X3.9Y-6.3
X4.25Y-3.05
X4.25Y-3.35
X4.5516Y-3.6
X4.65Y-3.6
X3.55Y-1.15
X3.55Y-1.45
X4.05Y-2.25
X4.05Y-2.55
X3.8016Y-5.05
X3.9Y-5.05
X4.2Y-6.0
X4.2Y-6.3
X3.4Y-6.1
X3.7Y-6.1
X3.25Y-2.7
X3.25Y-2.8
X3.25Y-2.9
X4.55Y-3.7
X4.55Y-3.8
X4.55Y-3.9
X4.55Y-4.0
X4.85Y-3.7
X4.85Y-3.8
X4.85Y-3.9
X4.85Y-4.0
X3.45Y-1.55
X3.75Y-1.55
X4.2Y-4.75
X4.2Y-5.05
X4.1Y-5.55
X4.1Y-5.85
X4.95Y-4.75
X4.95Y-5.05
X3.45Y-3.05
X3.45Y-3.35
X4.45Y-3.05
X4.5484Y-3.05
X4.95Y-4.6
X5.25Y-4.6
X4.85Y-1.15
X4.85Y-1.45
X4.95Y-4.4
X5.25Y-4.4
X4.15Y-1.7516
X4.15Y-1.85
X3.55Y-2.25
X3.55Y-2.55
X4.75Y-1.15
X4.75Y-1.45
X4.95Y-6.8
X4.95Y-6.8984
X4.65Y-6.0
X4.65Y-6.3
X5.15Y-2.25
X5.15Y-2.55
X4.65Y-1.15
X4.65Y-1.45
X4.75Y-6.0
X4.75Y-6.3
X4.85Y-6.0
X4.85Y-6.3
X4.5Y-2.35
X4.6Y-2.35
X4.7Y-2.35
X4.55Y-4.2
X4.55Y-4.3
X4.55Y-4.4
X4.55Y-4.5
X4.85Y-4.2
X4.85Y-4.3
X4.85Y-4.4
X4.85Y-4.5
X4.7516Y-2.05
X4.9484Y-2.05
X3.55Y-1.65
X3.55Y-1.95
X3.8Y-5.55
X3.8Y-5.85
X4.75Y-4.75
X4.75Y-5.05
X3.35Y-4.3
X3.35Y-4.6
X4.3516Y-4.6
X4.45Y-4.6
X4.95Y-4.0
X5.25Y-4.0
X4.95Y-4.1
X5.25Y-4.1
X5.05Y-6.7
X5.1484Y-6.7
X4.15Y-3.05
X4.15Y-3.35
X3.55Y-3.05
X3.55Y-3.35
X3.45Y-3.7
X3.45Y-3.7984
X4.55Y-1.55
X4.85Y-1.55
X4.95Y-3.05
X4.95Y-3.35
X5.05Y-5.45
X5.1484Y-5.45
X4.35Y-1.75
X4.35Y-2.05
X3.8Y-6.8
X3.8Y-7.1
X3.25Y-2.3
X3.25Y-2.4
X3.25Y-2.5
X3.5Y-6.85
X3.5Y-6.95
X3.5Y-7.05
X3.85Y-1.35
X3.85Y-1.65
X3.95Y-1.35
X3.95Y-1.65
X4.05Y-1.35
X4.05Y-1.65
X4.15Y-1.35
X4.15Y-1.65
X4.25Y-1.35
X4.25Y-1.65
X4.35Y-1.35
X4.35Y-1.65
X4.45Y-1.35
X4.45Y-1.65
T4
X2.6Y-2.5531
X2.6Y-2.6516
X2.6Y-2.75
X2.7299Y-2.5531
X2.7299Y-2.6516
X2.7299Y-2.75
X5.5201Y-2.5516
X5.5201Y-2.65
X5.5201Y-2.7484
X5.65Y-2.5516
X5.65Y-2.65
X5.65Y-2.7484
T5
X5.325Y-5.5248
X5.325Y-5.6232
X5.325Y-5.7217
X5.025Y-1.3498
X5.025Y-1.4482
X5.025Y-1.5467
X2.925Y-3.3498
X2.925Y-3.4482
X2.925Y-3.5467
X5.325Y-1.9498
X5.325Y-2.0482
X5.325Y-2.1467
X2.925Y-6.425
X2.925Y-6.5234
X2.925Y-6.6219
X5.3244Y-4.7998
X5.3244Y-4.8982
X5.3244Y-4.9967
X5.325Y-6.4281
X5.325Y-6.5266
X5.325Y-6.625
X2.925Y-1.95
X2.925Y-2.0484
X2.925Y-2.1469
X3.2256Y-1.3498
X3.2256Y-1.4482
X3.2256Y-1.5467
X5.5Y-3.25
X5.5Y-3.35
X5.5Y-3.45
X5.5Y-3.55
X5.5Y-3.65
X2.9256Y-5.5248
X2.9256Y-5.6232
X2.9256Y-5.7217
X2.9203Y-4.1386
X2.9203Y-4.237
X2.9203Y-4.3354
X3.0187Y-4.1386
X3.0187Y-4.237
X3.0187Y-4.3354
T6
X2.6494Y-1.8752
X2.6494Y-2.2217
X2.95Y-1.275
X2.95Y-1.6215
X2.65Y-5.45
X2.65Y-5.7965
X2.625Y-4.05
X2.625Y-4.424
X5.6006Y-5.45
X5.6006Y-5.7965
X5.3006Y-1.275
X5.3006Y-1.6215
X2.6494Y-3.275
X2.6494Y-3.6215
X5.6006Y-1.875
X5.6006Y-2.2215
X2.6494Y-6.3502
X2.6494Y-6.6967
X5.6Y-4.725
X5.6Y-5.0715
X5.6006Y-6.3533
X5.6006Y-6.6998
T7
X5.85Y-7.05
X5.85Y-1.25
X2.4Y-7.05
X2.4Y-1.25
T0
M30
