G04 #@! TF.GenerationSoftware,KiCad,Pcbnew,(5.1.5)-3*
G04 #@! TF.CreationDate,2021-04-21T15:28:46+02:00*
G04 #@! TF.ProjectId,AnalogDrum_Metal,416e616c-6f67-4447-9275-6d5f4d657461,rev?*
G04 #@! TF.SameCoordinates,Original*
G04 #@! TF.FileFunction,Legend,Bot*
G04 #@! TF.FilePolarity,Positive*
%FSLAX46Y46*%
G04 Gerber Fmt 4.6, Leading zero omitted, Abs format (unit mm)*
G04 Created by KiCad (PCBNEW (5.1.5)-3) date 2021-04-21 15:28:46*
%MOMM*%
%LPD*%
G04 APERTURE LIST*
%ADD10C,0.120000*%
%ADD11C,0.150000*%
G04 APERTURE END LIST*
D10*
X142310000Y-79640000D02*
X142310000Y-82140000D01*
X139810000Y-79640000D02*
X142310000Y-79640000D01*
X140510000Y-94160000D02*
X142010000Y-94160000D01*
X140510000Y-95160000D02*
X140510000Y-94160000D01*
X140510000Y-80940000D02*
X142010000Y-80940000D01*
X140510000Y-79940000D02*
X140510000Y-80940000D01*
X139700000Y-94660000D02*
X139700000Y-95160000D01*
X138490000Y-94660000D02*
X139700000Y-94660000D01*
X138490000Y-80440000D02*
X138490000Y-94660000D01*
X139700000Y-80440000D02*
X138490000Y-80440000D01*
X139700000Y-79940000D02*
X139700000Y-80440000D01*
X137990000Y-95160000D02*
X137990000Y-79940000D01*
X142010000Y-95160000D02*
X137990000Y-95160000D01*
X142010000Y-79940000D02*
X142010000Y-95160000D01*
X137990000Y-79940000D02*
X142010000Y-79940000D01*
D11*
X136352380Y-86264285D02*
X137066666Y-86264285D01*
X137209523Y-86216666D01*
X137304761Y-86121428D01*
X137352380Y-85978571D01*
X137352380Y-85883333D01*
X137352380Y-87264285D02*
X137352380Y-86692857D01*
X137352380Y-86978571D02*
X136352380Y-86978571D01*
X136495238Y-86883333D01*
X136590476Y-86788095D01*
X136638095Y-86692857D01*
X136352380Y-87883333D02*
X136352380Y-87978571D01*
X136400000Y-88073809D01*
X136447619Y-88121428D01*
X136542857Y-88169047D01*
X136733333Y-88216666D01*
X136971428Y-88216666D01*
X137161904Y-88169047D01*
X137257142Y-88121428D01*
X137304761Y-88073809D01*
X137352380Y-87978571D01*
X137352380Y-87883333D01*
X137304761Y-87788095D01*
X137257142Y-87740476D01*
X137161904Y-87692857D01*
X136971428Y-87645238D01*
X136733333Y-87645238D01*
X136542857Y-87692857D01*
X136447619Y-87740476D01*
X136400000Y-87788095D01*
X136352380Y-87883333D01*
X137352380Y-89169047D02*
X137352380Y-88597619D01*
X137352380Y-88883333D02*
X136352380Y-88883333D01*
X136495238Y-88788095D01*
X136590476Y-88692857D01*
X136638095Y-88597619D01*
M02*
