G04 #@! TF.GenerationSoftware,KiCad,Pcbnew,(5.1.5)-3*
G04 #@! TF.CreationDate,2021-04-20T11:51:35+02:00*
G04 #@! TF.ProjectId,AnalogDrum_Drums,416e616c-6f67-4447-9275-6d5f4472756d,rev?*
G04 #@! TF.SameCoordinates,Original*
G04 #@! TF.FileFunction,Legend,Top*
G04 #@! TF.FilePolarity,Positive*
%FSLAX46Y46*%
G04 Gerber Fmt 4.6, Leading zero omitted, Abs format (unit mm)*
G04 Created by KiCad (PCBNEW (5.1.5)-3) date 2021-04-20 11:51:35*
%MOMM*%
%LPD*%
G04 APERTURE LIST*
%ADD10C,0.150000*%
%ADD11C,0.100000*%
%ADD12C,0.120000*%
G04 APERTURE END LIST*
D10*
X81944285Y-30940000D02*
X82658571Y-30940000D01*
X81801428Y-31368571D02*
X82301428Y-29868571D01*
X82801428Y-31368571D01*
X83301428Y-30368571D02*
X83301428Y-31368571D01*
X83301428Y-30511428D02*
X83372857Y-30440000D01*
X83515714Y-30368571D01*
X83730000Y-30368571D01*
X83872857Y-30440000D01*
X83944285Y-30582857D01*
X83944285Y-31368571D01*
X85301428Y-31368571D02*
X85301428Y-30582857D01*
X85230000Y-30440000D01*
X85087142Y-30368571D01*
X84801428Y-30368571D01*
X84658571Y-30440000D01*
X85301428Y-31297142D02*
X85158571Y-31368571D01*
X84801428Y-31368571D01*
X84658571Y-31297142D01*
X84587142Y-31154285D01*
X84587142Y-31011428D01*
X84658571Y-30868571D01*
X84801428Y-30797142D01*
X85158571Y-30797142D01*
X85301428Y-30725714D01*
X86230000Y-31368571D02*
X86087142Y-31297142D01*
X86015714Y-31154285D01*
X86015714Y-29868571D01*
X87015714Y-31368571D02*
X86872857Y-31297142D01*
X86801428Y-31225714D01*
X86730000Y-31082857D01*
X86730000Y-30654285D01*
X86801428Y-30511428D01*
X86872857Y-30440000D01*
X87015714Y-30368571D01*
X87230000Y-30368571D01*
X87372857Y-30440000D01*
X87444285Y-30511428D01*
X87515714Y-30654285D01*
X87515714Y-31082857D01*
X87444285Y-31225714D01*
X87372857Y-31297142D01*
X87230000Y-31368571D01*
X87015714Y-31368571D01*
X88801428Y-30368571D02*
X88801428Y-31582857D01*
X88730000Y-31725714D01*
X88658571Y-31797142D01*
X88515714Y-31868571D01*
X88301428Y-31868571D01*
X88158571Y-31797142D01*
X88801428Y-31297142D02*
X88658571Y-31368571D01*
X88372857Y-31368571D01*
X88230000Y-31297142D01*
X88158571Y-31225714D01*
X88087142Y-31082857D01*
X88087142Y-30654285D01*
X88158571Y-30511428D01*
X88230000Y-30440000D01*
X88372857Y-30368571D01*
X88658571Y-30368571D01*
X88801428Y-30440000D01*
X90658571Y-31368571D02*
X90658571Y-29868571D01*
X91015714Y-29868571D01*
X91230000Y-29940000D01*
X91372857Y-30082857D01*
X91444285Y-30225714D01*
X91515714Y-30511428D01*
X91515714Y-30725714D01*
X91444285Y-31011428D01*
X91372857Y-31154285D01*
X91230000Y-31297142D01*
X91015714Y-31368571D01*
X90658571Y-31368571D01*
X92158571Y-31368571D02*
X92158571Y-30368571D01*
X92158571Y-30654285D02*
X92230000Y-30511428D01*
X92301428Y-30440000D01*
X92444285Y-30368571D01*
X92587142Y-30368571D01*
X93730000Y-30368571D02*
X93730000Y-31368571D01*
X93087142Y-30368571D02*
X93087142Y-31154285D01*
X93158571Y-31297142D01*
X93301428Y-31368571D01*
X93515714Y-31368571D01*
X93658571Y-31297142D01*
X93730000Y-31225714D01*
X94444285Y-31368571D02*
X94444285Y-30368571D01*
X94444285Y-30511428D02*
X94515714Y-30440000D01*
X94658571Y-30368571D01*
X94872857Y-30368571D01*
X95015714Y-30440000D01*
X95087142Y-30582857D01*
X95087142Y-31368571D01*
X95087142Y-30582857D02*
X95158571Y-30440000D01*
X95301428Y-30368571D01*
X95515714Y-30368571D01*
X95658571Y-30440000D01*
X95730000Y-30582857D01*
X95730000Y-31368571D01*
X97587142Y-31368571D02*
X97587142Y-29868571D01*
X98087142Y-30940000D01*
X98587142Y-29868571D01*
X98587142Y-31368571D01*
X99944285Y-31368571D02*
X99944285Y-30582857D01*
X99872857Y-30440000D01*
X99730000Y-30368571D01*
X99444285Y-30368571D01*
X99301428Y-30440000D01*
X99944285Y-31297142D02*
X99801428Y-31368571D01*
X99444285Y-31368571D01*
X99301428Y-31297142D01*
X99230000Y-31154285D01*
X99230000Y-31011428D01*
X99301428Y-30868571D01*
X99444285Y-30797142D01*
X99801428Y-30797142D01*
X99944285Y-30725714D01*
X101301428Y-31297142D02*
X101158571Y-31368571D01*
X100872857Y-31368571D01*
X100730000Y-31297142D01*
X100658571Y-31225714D01*
X100587142Y-31082857D01*
X100587142Y-30654285D01*
X100658571Y-30511428D01*
X100730000Y-30440000D01*
X100872857Y-30368571D01*
X101158571Y-30368571D01*
X101301428Y-30440000D01*
X101944285Y-31368571D02*
X101944285Y-29868571D01*
X102587142Y-31368571D02*
X102587142Y-30582857D01*
X102515714Y-30440000D01*
X102372857Y-30368571D01*
X102158571Y-30368571D01*
X102015714Y-30440000D01*
X101944285Y-30511428D01*
X103301428Y-31368571D02*
X103301428Y-30368571D01*
X103301428Y-29868571D02*
X103230000Y-29940000D01*
X103301428Y-30011428D01*
X103372857Y-29940000D01*
X103301428Y-29868571D01*
X103301428Y-30011428D01*
X104015714Y-30368571D02*
X104015714Y-31368571D01*
X104015714Y-30511428D02*
X104087142Y-30440000D01*
X104230000Y-30368571D01*
X104444285Y-30368571D01*
X104587142Y-30440000D01*
X104658571Y-30582857D01*
X104658571Y-31368571D01*
X105944285Y-31297142D02*
X105801428Y-31368571D01*
X105515714Y-31368571D01*
X105372857Y-31297142D01*
X105301428Y-31154285D01*
X105301428Y-30582857D01*
X105372857Y-30440000D01*
X105515714Y-30368571D01*
X105801428Y-30368571D01*
X105944285Y-30440000D01*
X106015714Y-30582857D01*
X106015714Y-30725714D01*
X105301428Y-30868571D01*
X78729999Y-33768571D02*
X78729999Y-32268571D01*
X79229999Y-33340000D01*
X79729999Y-32268571D01*
X79729999Y-33768571D01*
X80658571Y-33768571D02*
X80515714Y-33697142D01*
X80444285Y-33625714D01*
X80372857Y-33482857D01*
X80372857Y-33054285D01*
X80444285Y-32911428D01*
X80515714Y-32840000D01*
X80658571Y-32768571D01*
X80872857Y-32768571D01*
X81015714Y-32840000D01*
X81087142Y-32911428D01*
X81158571Y-33054285D01*
X81158571Y-33482857D01*
X81087142Y-33625714D01*
X81015714Y-33697142D01*
X80872857Y-33768571D01*
X80658571Y-33768571D01*
X82444285Y-33768571D02*
X82444285Y-32268571D01*
X82444285Y-33697142D02*
X82301428Y-33768571D01*
X82015714Y-33768571D01*
X81872857Y-33697142D01*
X81801428Y-33625714D01*
X81729999Y-33482857D01*
X81729999Y-33054285D01*
X81801428Y-32911428D01*
X81872857Y-32840000D01*
X82015714Y-32768571D01*
X82301428Y-32768571D01*
X82444285Y-32840000D01*
X83801428Y-32768571D02*
X83801428Y-33768571D01*
X83158571Y-32768571D02*
X83158571Y-33554285D01*
X83229999Y-33697142D01*
X83372857Y-33768571D01*
X83587142Y-33768571D01*
X83729999Y-33697142D01*
X83801428Y-33625714D01*
X84729999Y-33768571D02*
X84587142Y-33697142D01*
X84515714Y-33554285D01*
X84515714Y-32268571D01*
X85872857Y-33697142D02*
X85729999Y-33768571D01*
X85444285Y-33768571D01*
X85301428Y-33697142D01*
X85229999Y-33554285D01*
X85229999Y-32982857D01*
X85301428Y-32840000D01*
X85444285Y-32768571D01*
X85729999Y-32768571D01*
X85872857Y-32840000D01*
X85944285Y-32982857D01*
X85944285Y-33125714D01*
X85229999Y-33268571D01*
X88515714Y-33768571D02*
X87658571Y-33768571D01*
X88087142Y-33768571D02*
X88087142Y-32268571D01*
X87944285Y-32482857D01*
X87801428Y-32625714D01*
X87658571Y-32697142D01*
X90301428Y-33625714D02*
X90372857Y-33697142D01*
X90301428Y-33768571D01*
X90229999Y-33697142D01*
X90301428Y-33625714D01*
X90301428Y-33768571D01*
X90301428Y-32840000D02*
X90372857Y-32911428D01*
X90301428Y-32982857D01*
X90229999Y-32911428D01*
X90301428Y-32840000D01*
X90301428Y-32982857D01*
X92158571Y-33768571D02*
X92158571Y-32268571D01*
X92515714Y-32268571D01*
X92730000Y-32340000D01*
X92872857Y-32482857D01*
X92944285Y-32625714D01*
X93015714Y-32911428D01*
X93015714Y-33125714D01*
X92944285Y-33411428D01*
X92872857Y-33554285D01*
X92730000Y-33697142D01*
X92515714Y-33768571D01*
X92158571Y-33768571D01*
X93658571Y-33768571D02*
X93658571Y-32768571D01*
X93658571Y-33054285D02*
X93730000Y-32911428D01*
X93801428Y-32840000D01*
X93944285Y-32768571D01*
X94087142Y-32768571D01*
X95230000Y-32768571D02*
X95230000Y-33768571D01*
X94587142Y-32768571D02*
X94587142Y-33554285D01*
X94658571Y-33697142D01*
X94801428Y-33768571D01*
X95015714Y-33768571D01*
X95158571Y-33697142D01*
X95230000Y-33625714D01*
X95944285Y-33768571D02*
X95944285Y-32768571D01*
X95944285Y-32911428D02*
X96015714Y-32840000D01*
X96158571Y-32768571D01*
X96372857Y-32768571D01*
X96515714Y-32840000D01*
X96587142Y-32982857D01*
X96587142Y-33768571D01*
X96587142Y-32982857D02*
X96658571Y-32840000D01*
X96801428Y-32768571D01*
X97015714Y-32768571D01*
X97158571Y-32840000D01*
X97230000Y-32982857D01*
X97230000Y-33768571D01*
X99872857Y-32340000D02*
X99730000Y-32268571D01*
X99515714Y-32268571D01*
X99301428Y-32340000D01*
X99158571Y-32482857D01*
X99087142Y-32625714D01*
X99015714Y-32911428D01*
X99015714Y-33125714D01*
X99087142Y-33411428D01*
X99158571Y-33554285D01*
X99301428Y-33697142D01*
X99515714Y-33768571D01*
X99658571Y-33768571D01*
X99872857Y-33697142D01*
X99944285Y-33625714D01*
X99944285Y-33125714D01*
X99658571Y-33125714D01*
X101158571Y-33697142D02*
X101015714Y-33768571D01*
X100730000Y-33768571D01*
X100587142Y-33697142D01*
X100515714Y-33554285D01*
X100515714Y-32982857D01*
X100587142Y-32840000D01*
X100730000Y-32768571D01*
X101015714Y-32768571D01*
X101158571Y-32840000D01*
X101230000Y-32982857D01*
X101230000Y-33125714D01*
X100515714Y-33268571D01*
X101872857Y-32768571D02*
X101872857Y-33768571D01*
X101872857Y-32911428D02*
X101944285Y-32840000D01*
X102087142Y-32768571D01*
X102301428Y-32768571D01*
X102444285Y-32840000D01*
X102515714Y-32982857D01*
X102515714Y-33768571D01*
X103801428Y-33697142D02*
X103658571Y-33768571D01*
X103372857Y-33768571D01*
X103230000Y-33697142D01*
X103158571Y-33554285D01*
X103158571Y-32982857D01*
X103230000Y-32840000D01*
X103372857Y-32768571D01*
X103658571Y-32768571D01*
X103801428Y-32840000D01*
X103872857Y-32982857D01*
X103872857Y-33125714D01*
X103158571Y-33268571D01*
X104515714Y-33768571D02*
X104515714Y-32768571D01*
X104515714Y-33054285D02*
X104587142Y-32911428D01*
X104658571Y-32840000D01*
X104801428Y-32768571D01*
X104944285Y-32768571D01*
X106087142Y-33768571D02*
X106087142Y-32982857D01*
X106015714Y-32840000D01*
X105872857Y-32768571D01*
X105587142Y-32768571D01*
X105444285Y-32840000D01*
X106087142Y-33697142D02*
X105944285Y-33768571D01*
X105587142Y-33768571D01*
X105444285Y-33697142D01*
X105372857Y-33554285D01*
X105372857Y-33411428D01*
X105444285Y-33268571D01*
X105587142Y-33197142D01*
X105944285Y-33197142D01*
X106087142Y-33125714D01*
X106587142Y-32768571D02*
X107158571Y-32768571D01*
X106801428Y-32268571D02*
X106801428Y-33554285D01*
X106872857Y-33697142D01*
X107015714Y-33768571D01*
X107158571Y-33768571D01*
X107872857Y-33768571D02*
X107730000Y-33697142D01*
X107658571Y-33625714D01*
X107587142Y-33482857D01*
X107587142Y-33054285D01*
X107658571Y-32911428D01*
X107730000Y-32840000D01*
X107872857Y-32768571D01*
X108087142Y-32768571D01*
X108230000Y-32840000D01*
X108301428Y-32911428D01*
X108372857Y-33054285D01*
X108372857Y-33482857D01*
X108301428Y-33625714D01*
X108230000Y-33697142D01*
X108087142Y-33768571D01*
X107872857Y-33768571D01*
X109015714Y-33768571D02*
X109015714Y-32768571D01*
X109015714Y-33054285D02*
X109087142Y-32911428D01*
X109158571Y-32840000D01*
X109301428Y-32768571D01*
X109444285Y-32768571D01*
X83230000Y-35168571D02*
X83801428Y-35168571D01*
X83444285Y-34668571D02*
X83444285Y-35954285D01*
X83515714Y-36097142D01*
X83658571Y-36168571D01*
X83801428Y-36168571D01*
X84158571Y-35168571D02*
X84444285Y-36168571D01*
X84730000Y-35454285D01*
X85015714Y-36168571D01*
X85301428Y-35168571D01*
X85872857Y-36168571D02*
X85872857Y-35168571D01*
X85872857Y-34668571D02*
X85801428Y-34740000D01*
X85872857Y-34811428D01*
X85944285Y-34740000D01*
X85872857Y-34668571D01*
X85872857Y-34811428D01*
X86372857Y-35168571D02*
X86944285Y-35168571D01*
X86587142Y-34668571D02*
X86587142Y-35954285D01*
X86658571Y-36097142D01*
X86801428Y-36168571D01*
X86944285Y-36168571D01*
X88087142Y-36097142D02*
X87944285Y-36168571D01*
X87658571Y-36168571D01*
X87515714Y-36097142D01*
X87444285Y-36025714D01*
X87372857Y-35882857D01*
X87372857Y-35454285D01*
X87444285Y-35311428D01*
X87515714Y-35240000D01*
X87658571Y-35168571D01*
X87944285Y-35168571D01*
X88087142Y-35240000D01*
X88730000Y-36168571D02*
X88730000Y-34668571D01*
X89372857Y-36168571D02*
X89372857Y-35382857D01*
X89301428Y-35240000D01*
X89158571Y-35168571D01*
X88944285Y-35168571D01*
X88801428Y-35240000D01*
X88730000Y-35311428D01*
X90087142Y-36025714D02*
X90158571Y-36097142D01*
X90087142Y-36168571D01*
X90015714Y-36097142D01*
X90087142Y-36025714D01*
X90087142Y-36168571D01*
X90587142Y-35168571D02*
X91158571Y-35168571D01*
X90801428Y-34668571D02*
X90801428Y-35954285D01*
X90872857Y-36097142D01*
X91015714Y-36168571D01*
X91158571Y-36168571D01*
X91515714Y-35168571D02*
X91872857Y-36168571D01*
X92230000Y-35168571D01*
X93872857Y-34597142D02*
X92587142Y-36525714D01*
X94587142Y-36168571D02*
X94444285Y-36097142D01*
X94372857Y-35954285D01*
X94372857Y-34668571D01*
X95801428Y-36168571D02*
X95801428Y-35382857D01*
X95730000Y-35240000D01*
X95587142Y-35168571D01*
X95301428Y-35168571D01*
X95158571Y-35240000D01*
X95801428Y-36097142D02*
X95658571Y-36168571D01*
X95301428Y-36168571D01*
X95158571Y-36097142D01*
X95087142Y-35954285D01*
X95087142Y-35811428D01*
X95158571Y-35668571D01*
X95301428Y-35597142D01*
X95658571Y-35597142D01*
X95801428Y-35525714D01*
X96372857Y-35168571D02*
X97158571Y-35168571D01*
X96372857Y-36168571D01*
X97158571Y-36168571D01*
X98372857Y-36168571D02*
X98372857Y-35382857D01*
X98301428Y-35240000D01*
X98158571Y-35168571D01*
X97872857Y-35168571D01*
X97729999Y-35240000D01*
X98372857Y-36097142D02*
X98229999Y-36168571D01*
X97872857Y-36168571D01*
X97729999Y-36097142D01*
X97658571Y-35954285D01*
X97658571Y-35811428D01*
X97729999Y-35668571D01*
X97872857Y-35597142D01*
X98229999Y-35597142D01*
X98372857Y-35525714D01*
X99087142Y-36168571D02*
X99087142Y-35168571D01*
X99087142Y-35454285D02*
X99158571Y-35311428D01*
X99229999Y-35240000D01*
X99372857Y-35168571D01*
X99515714Y-35168571D01*
X100587142Y-36097142D02*
X100444285Y-36168571D01*
X100158571Y-36168571D01*
X100015714Y-36097142D01*
X99944285Y-35954285D01*
X99944285Y-35382857D01*
X100015714Y-35240000D01*
X100158571Y-35168571D01*
X100444285Y-35168571D01*
X100587142Y-35240000D01*
X100658571Y-35382857D01*
X100658571Y-35525714D01*
X99944285Y-35668571D01*
X101515714Y-36168571D02*
X101372857Y-36097142D01*
X101301428Y-35954285D01*
X101301428Y-34668571D01*
X102087142Y-36168571D02*
X102087142Y-35168571D01*
X102087142Y-34668571D02*
X102015714Y-34740000D01*
X102087142Y-34811428D01*
X102158571Y-34740000D01*
X102087142Y-34668571D01*
X102087142Y-34811428D01*
X102658571Y-35168571D02*
X103015714Y-36168571D01*
X103372857Y-35168571D01*
X104515714Y-36097142D02*
X104372857Y-36168571D01*
X104087142Y-36168571D01*
X103944285Y-36097142D01*
X103872857Y-35954285D01*
X103872857Y-35382857D01*
X103944285Y-35240000D01*
X104087142Y-35168571D01*
X104372857Y-35168571D01*
X104515714Y-35240000D01*
X104587142Y-35382857D01*
X104587142Y-35525714D01*
X103872857Y-35668571D01*
X88694285Y-38140000D02*
X89408571Y-38140000D01*
X88551428Y-38568571D02*
X89051428Y-37068571D01*
X89551428Y-38568571D01*
X90051428Y-37568571D02*
X90051428Y-39068571D01*
X90051428Y-37640000D02*
X90194285Y-37568571D01*
X90480000Y-37568571D01*
X90622857Y-37640000D01*
X90694285Y-37711428D01*
X90765714Y-37854285D01*
X90765714Y-38282857D01*
X90694285Y-38425714D01*
X90622857Y-38497142D01*
X90480000Y-38568571D01*
X90194285Y-38568571D01*
X90051428Y-38497142D01*
X91408571Y-38568571D02*
X91408571Y-37568571D01*
X91408571Y-37854285D02*
X91480000Y-37711428D01*
X91551428Y-37640000D01*
X91694285Y-37568571D01*
X91837142Y-37568571D01*
X92337142Y-38425714D02*
X92408571Y-38497142D01*
X92337142Y-38568571D01*
X92265714Y-38497142D01*
X92337142Y-38425714D01*
X92337142Y-38568571D01*
X94122857Y-37211428D02*
X94194285Y-37140000D01*
X94337142Y-37068571D01*
X94694285Y-37068571D01*
X94837142Y-37140000D01*
X94908571Y-37211428D01*
X94980000Y-37354285D01*
X94980000Y-37497142D01*
X94908571Y-37711428D01*
X94051428Y-38568571D01*
X94980000Y-38568571D01*
X95908571Y-37068571D02*
X96051428Y-37068571D01*
X96194285Y-37140000D01*
X96265714Y-37211428D01*
X96337142Y-37354285D01*
X96408571Y-37640000D01*
X96408571Y-37997142D01*
X96337142Y-38282857D01*
X96265714Y-38425714D01*
X96194285Y-38497142D01*
X96051428Y-38568571D01*
X95908571Y-38568571D01*
X95765714Y-38497142D01*
X95694285Y-38425714D01*
X95622857Y-38282857D01*
X95551428Y-37997142D01*
X95551428Y-37640000D01*
X95622857Y-37354285D01*
X95694285Y-37211428D01*
X95765714Y-37140000D01*
X95908571Y-37068571D01*
X96980000Y-37211428D02*
X97051428Y-37140000D01*
X97194285Y-37068571D01*
X97551428Y-37068571D01*
X97694285Y-37140000D01*
X97765714Y-37211428D01*
X97837142Y-37354285D01*
X97837142Y-37497142D01*
X97765714Y-37711428D01*
X96908571Y-38568571D01*
X97837142Y-38568571D01*
X99265714Y-38568571D02*
X98408571Y-38568571D01*
X98837142Y-38568571D02*
X98837142Y-37068571D01*
X98694285Y-37282857D01*
X98551428Y-37425714D01*
X98408571Y-37497142D01*
D11*
G36*
X99060000Y-53340000D02*
G01*
X99060000Y-54610000D01*
X97790000Y-54610000D01*
X94615000Y-51435000D01*
X95885000Y-50165000D01*
X99060000Y-53340000D01*
G37*
X99060000Y-53340000D02*
X99060000Y-54610000D01*
X97790000Y-54610000D01*
X94615000Y-51435000D01*
X95885000Y-50165000D01*
X99060000Y-53340000D01*
G36*
X99060000Y-45720000D02*
G01*
X90170000Y-54610000D01*
X88900000Y-54610000D01*
X88900000Y-53340000D01*
X97790000Y-44450000D01*
X99060000Y-44450000D01*
X99060000Y-45720000D01*
G37*
X99060000Y-45720000D02*
X90170000Y-54610000D01*
X88900000Y-54610000D01*
X88900000Y-53340000D01*
X97790000Y-44450000D01*
X99060000Y-44450000D01*
X99060000Y-45720000D01*
G36*
X100965000Y-55880000D02*
G01*
X99695000Y-54610000D01*
X99695000Y-44450000D01*
X100965000Y-43180000D01*
X100965000Y-55880000D01*
G37*
X100965000Y-55880000D02*
X99695000Y-54610000D01*
X99695000Y-44450000D01*
X100965000Y-43180000D01*
X100965000Y-55880000D01*
G36*
X99060000Y-43815000D02*
G01*
X88900000Y-43815000D01*
X87630000Y-42545000D01*
X100330000Y-42545000D01*
X99060000Y-43815000D01*
G37*
X99060000Y-43815000D02*
X88900000Y-43815000D01*
X87630000Y-42545000D01*
X100330000Y-42545000D01*
X99060000Y-43815000D01*
G36*
X100330000Y-56515000D02*
G01*
X87630000Y-56515000D01*
X88900000Y-55245000D01*
X99060000Y-55245000D01*
X100330000Y-56515000D01*
G37*
X100330000Y-56515000D02*
X87630000Y-56515000D01*
X88900000Y-55245000D01*
X99060000Y-55245000D01*
X100330000Y-56515000D01*
G36*
X88265000Y-44450000D02*
G01*
X88265000Y-54610000D01*
X86995000Y-55880000D01*
X86995000Y-43180000D01*
X88265000Y-44450000D01*
G37*
X88265000Y-44450000D02*
X88265000Y-54610000D01*
X86995000Y-55880000D01*
X86995000Y-43180000D01*
X88265000Y-44450000D01*
D12*
X48475000Y-157415000D02*
X48475000Y-147475000D01*
X60715000Y-149075000D02*
X60715000Y-147475000D01*
X60715000Y-151574000D02*
X60715000Y-150815000D01*
X60715000Y-154074000D02*
X60715000Y-153315000D01*
X60715000Y-157415000D02*
X60715000Y-155816000D01*
X52340000Y-147475000D02*
X48475000Y-147475000D01*
X60715000Y-147475000D02*
X56850000Y-147475000D01*
X52340000Y-157415000D02*
X48475000Y-157415000D01*
X60715000Y-157415000D02*
X56850000Y-157415000D01*
X48490000Y-130020000D02*
X48490000Y-120080000D01*
X60730000Y-121680000D02*
X60730000Y-120080000D01*
X60730000Y-124179000D02*
X60730000Y-123420000D01*
X60730000Y-126679000D02*
X60730000Y-125920000D01*
X60730000Y-130020000D02*
X60730000Y-128421000D01*
X52355000Y-120080000D02*
X48490000Y-120080000D01*
X60730000Y-120080000D02*
X56865000Y-120080000D01*
X52355000Y-130020000D02*
X48490000Y-130020000D01*
X60730000Y-130020000D02*
X56865000Y-130020000D01*
X135675000Y-64835000D02*
X135675000Y-74775000D01*
X123435000Y-73175000D02*
X123435000Y-74775000D01*
X123435000Y-70676000D02*
X123435000Y-71435000D01*
X123435000Y-68176000D02*
X123435000Y-68935000D01*
X123435000Y-64835000D02*
X123435000Y-66434000D01*
X131810000Y-74775000D02*
X135675000Y-74775000D01*
X123435000Y-74775000D02*
X127300000Y-74775000D01*
X131810000Y-64835000D02*
X135675000Y-64835000D01*
X123435000Y-64835000D02*
X127300000Y-64835000D01*
X135660000Y-47055000D02*
X135660000Y-56995000D01*
X123420000Y-55395000D02*
X123420000Y-56995000D01*
X123420000Y-52896000D02*
X123420000Y-53655000D01*
X123420000Y-50396000D02*
X123420000Y-51155000D01*
X123420000Y-47055000D02*
X123420000Y-48654000D01*
X131795000Y-56995000D02*
X135660000Y-56995000D01*
X123420000Y-56995000D02*
X127285000Y-56995000D01*
X131795000Y-47055000D02*
X135660000Y-47055000D01*
X123420000Y-47055000D02*
X127285000Y-47055000D01*
X48475000Y-74775000D02*
X48475000Y-64835000D01*
X60715000Y-66435000D02*
X60715000Y-64835000D01*
X60715000Y-68934000D02*
X60715000Y-68175000D01*
X60715000Y-71434000D02*
X60715000Y-70675000D01*
X60715000Y-74775000D02*
X60715000Y-73176000D01*
X52340000Y-64835000D02*
X48475000Y-64835000D01*
X60715000Y-64835000D02*
X56850000Y-64835000D01*
X52340000Y-74775000D02*
X48475000Y-74775000D01*
X60715000Y-74775000D02*
X56850000Y-74775000D01*
X48475000Y-56995000D02*
X48475000Y-47055000D01*
X60715000Y-48655000D02*
X60715000Y-47055000D01*
X60715000Y-51154000D02*
X60715000Y-50395000D01*
X60715000Y-53654000D02*
X60715000Y-52895000D01*
X60715000Y-56995000D02*
X60715000Y-55396000D01*
X52340000Y-47055000D02*
X48475000Y-47055000D01*
X60715000Y-47055000D02*
X56850000Y-47055000D01*
X52340000Y-56995000D02*
X48475000Y-56995000D01*
X60715000Y-56995000D02*
X56850000Y-56995000D01*
X135675000Y-120080000D02*
X135675000Y-130020000D01*
X123435000Y-128420000D02*
X123435000Y-130020000D01*
X123435000Y-125921000D02*
X123435000Y-126680000D01*
X123435000Y-123421000D02*
X123435000Y-124180000D01*
X123435000Y-120080000D02*
X123435000Y-121679000D01*
X131810000Y-130020000D02*
X135675000Y-130020000D01*
X123435000Y-130020000D02*
X127300000Y-130020000D01*
X131810000Y-120080000D02*
X135675000Y-120080000D01*
X123435000Y-120080000D02*
X127300000Y-120080000D01*
X98960000Y-118935000D02*
X101700000Y-118935000D01*
X98960000Y-126175000D02*
X101700000Y-126175000D01*
X101700000Y-126175000D02*
X101700000Y-118935000D01*
X98960000Y-126175000D02*
X98960000Y-118935000D01*
X93880000Y-60555000D02*
X96620000Y-60555000D01*
X93880000Y-67795000D02*
X96620000Y-67795000D01*
X96620000Y-67795000D02*
X96620000Y-60555000D01*
X93880000Y-67795000D02*
X93880000Y-60555000D01*
X114070000Y-85625000D02*
X114070000Y-88365000D01*
X106830000Y-85625000D02*
X106830000Y-88365000D01*
X106830000Y-88365000D02*
X114070000Y-88365000D01*
X106830000Y-85625000D02*
X114070000Y-85625000D01*
X88800000Y-60555000D02*
X91540000Y-60555000D01*
X88800000Y-67795000D02*
X91540000Y-67795000D01*
X91540000Y-67795000D02*
X91540000Y-60555000D01*
X88800000Y-67795000D02*
X88800000Y-60555000D01*
X71350000Y-88365000D02*
X71350000Y-85625000D01*
X78590000Y-88365000D02*
X78590000Y-85625000D01*
X78590000Y-85625000D02*
X71350000Y-85625000D01*
X78590000Y-88365000D02*
X71350000Y-88365000D01*
X120750000Y-128675000D02*
X118010000Y-128675000D01*
X120750000Y-121435000D02*
X118010000Y-121435000D01*
X118010000Y-121435000D02*
X118010000Y-128675000D01*
X120750000Y-121435000D02*
X120750000Y-128675000D01*
X109820225Y-151310000D02*
X109820225Y-151810000D01*
X109570225Y-151560000D02*
X110070225Y-151560000D01*
X114976000Y-152751000D02*
X114976000Y-153319000D01*
X114936000Y-152517000D02*
X114936000Y-153553000D01*
X114896000Y-152358000D02*
X114896000Y-153712000D01*
X114856000Y-152230000D02*
X114856000Y-153840000D01*
X114816000Y-152120000D02*
X114816000Y-153950000D01*
X114776000Y-152024000D02*
X114776000Y-154046000D01*
X114736000Y-151937000D02*
X114736000Y-154133000D01*
X114696000Y-151857000D02*
X114696000Y-154213000D01*
X114656000Y-154075000D02*
X114656000Y-154286000D01*
X114656000Y-151784000D02*
X114656000Y-151995000D01*
X114616000Y-154075000D02*
X114616000Y-154354000D01*
X114616000Y-151716000D02*
X114616000Y-151995000D01*
X114576000Y-154075000D02*
X114576000Y-154418000D01*
X114576000Y-151652000D02*
X114576000Y-151995000D01*
X114536000Y-154075000D02*
X114536000Y-154478000D01*
X114536000Y-151592000D02*
X114536000Y-151995000D01*
X114496000Y-154075000D02*
X114496000Y-154535000D01*
X114496000Y-151535000D02*
X114496000Y-151995000D01*
X114456000Y-154075000D02*
X114456000Y-154589000D01*
X114456000Y-151481000D02*
X114456000Y-151995000D01*
X114416000Y-154075000D02*
X114416000Y-154640000D01*
X114416000Y-151430000D02*
X114416000Y-151995000D01*
X114376000Y-154075000D02*
X114376000Y-154688000D01*
X114376000Y-151382000D02*
X114376000Y-151995000D01*
X114336000Y-154075000D02*
X114336000Y-154734000D01*
X114336000Y-151336000D02*
X114336000Y-151995000D01*
X114296000Y-154075000D02*
X114296000Y-154778000D01*
X114296000Y-151292000D02*
X114296000Y-151995000D01*
X114256000Y-154075000D02*
X114256000Y-154820000D01*
X114256000Y-151250000D02*
X114256000Y-151995000D01*
X114216000Y-154075000D02*
X114216000Y-154861000D01*
X114216000Y-151209000D02*
X114216000Y-151995000D01*
X114176000Y-154075000D02*
X114176000Y-154899000D01*
X114176000Y-151171000D02*
X114176000Y-151995000D01*
X114136000Y-154075000D02*
X114136000Y-154936000D01*
X114136000Y-151134000D02*
X114136000Y-151995000D01*
X114096000Y-154075000D02*
X114096000Y-154972000D01*
X114096000Y-151098000D02*
X114096000Y-151995000D01*
X114056000Y-154075000D02*
X114056000Y-155006000D01*
X114056000Y-151064000D02*
X114056000Y-151995000D01*
X114016000Y-154075000D02*
X114016000Y-155039000D01*
X114016000Y-151031000D02*
X114016000Y-151995000D01*
X113976000Y-154075000D02*
X113976000Y-155070000D01*
X113976000Y-151000000D02*
X113976000Y-151995000D01*
X113936000Y-154075000D02*
X113936000Y-155100000D01*
X113936000Y-150970000D02*
X113936000Y-151995000D01*
X113896000Y-154075000D02*
X113896000Y-155130000D01*
X113896000Y-150940000D02*
X113896000Y-151995000D01*
X113856000Y-154075000D02*
X113856000Y-155157000D01*
X113856000Y-150913000D02*
X113856000Y-151995000D01*
X113816000Y-154075000D02*
X113816000Y-155184000D01*
X113816000Y-150886000D02*
X113816000Y-151995000D01*
X113776000Y-154075000D02*
X113776000Y-155210000D01*
X113776000Y-150860000D02*
X113776000Y-151995000D01*
X113736000Y-154075000D02*
X113736000Y-155235000D01*
X113736000Y-150835000D02*
X113736000Y-151995000D01*
X113696000Y-154075000D02*
X113696000Y-155259000D01*
X113696000Y-150811000D02*
X113696000Y-151995000D01*
X113656000Y-154075000D02*
X113656000Y-155282000D01*
X113656000Y-150788000D02*
X113656000Y-151995000D01*
X113616000Y-154075000D02*
X113616000Y-155303000D01*
X113616000Y-150767000D02*
X113616000Y-151995000D01*
X113576000Y-154075000D02*
X113576000Y-155325000D01*
X113576000Y-150745000D02*
X113576000Y-151995000D01*
X113536000Y-154075000D02*
X113536000Y-155345000D01*
X113536000Y-150725000D02*
X113536000Y-151995000D01*
X113496000Y-154075000D02*
X113496000Y-155364000D01*
X113496000Y-150706000D02*
X113496000Y-151995000D01*
X113456000Y-154075000D02*
X113456000Y-155383000D01*
X113456000Y-150687000D02*
X113456000Y-151995000D01*
X113416000Y-154075000D02*
X113416000Y-155400000D01*
X113416000Y-150670000D02*
X113416000Y-151995000D01*
X113376000Y-154075000D02*
X113376000Y-155417000D01*
X113376000Y-150653000D02*
X113376000Y-151995000D01*
X113336000Y-154075000D02*
X113336000Y-155433000D01*
X113336000Y-150637000D02*
X113336000Y-151995000D01*
X113296000Y-154075000D02*
X113296000Y-155449000D01*
X113296000Y-150621000D02*
X113296000Y-151995000D01*
X113256000Y-154075000D02*
X113256000Y-155463000D01*
X113256000Y-150607000D02*
X113256000Y-151995000D01*
X113216000Y-154075000D02*
X113216000Y-155477000D01*
X113216000Y-150593000D02*
X113216000Y-151995000D01*
X113176000Y-154075000D02*
X113176000Y-155490000D01*
X113176000Y-150580000D02*
X113176000Y-151995000D01*
X113136000Y-154075000D02*
X113136000Y-155503000D01*
X113136000Y-150567000D02*
X113136000Y-151995000D01*
X113096000Y-154075000D02*
X113096000Y-155515000D01*
X113096000Y-150555000D02*
X113096000Y-151995000D01*
X113055000Y-154075000D02*
X113055000Y-155526000D01*
X113055000Y-150544000D02*
X113055000Y-151995000D01*
X113015000Y-154075000D02*
X113015000Y-155536000D01*
X113015000Y-150534000D02*
X113015000Y-151995000D01*
X112975000Y-154075000D02*
X112975000Y-155546000D01*
X112975000Y-150524000D02*
X112975000Y-151995000D01*
X112935000Y-154075000D02*
X112935000Y-155555000D01*
X112935000Y-150515000D02*
X112935000Y-151995000D01*
X112895000Y-154075000D02*
X112895000Y-155563000D01*
X112895000Y-150507000D02*
X112895000Y-151995000D01*
X112855000Y-154075000D02*
X112855000Y-155571000D01*
X112855000Y-150499000D02*
X112855000Y-151995000D01*
X112815000Y-154075000D02*
X112815000Y-155578000D01*
X112815000Y-150492000D02*
X112815000Y-151995000D01*
X112775000Y-154075000D02*
X112775000Y-155585000D01*
X112775000Y-150485000D02*
X112775000Y-151995000D01*
X112735000Y-154075000D02*
X112735000Y-155591000D01*
X112735000Y-150479000D02*
X112735000Y-151995000D01*
X112695000Y-154075000D02*
X112695000Y-155596000D01*
X112695000Y-150474000D02*
X112695000Y-151995000D01*
X112655000Y-154075000D02*
X112655000Y-155600000D01*
X112655000Y-150470000D02*
X112655000Y-151995000D01*
X112615000Y-154075000D02*
X112615000Y-155604000D01*
X112615000Y-150466000D02*
X112615000Y-151995000D01*
X112575000Y-150462000D02*
X112575000Y-155608000D01*
X112535000Y-150459000D02*
X112535000Y-155611000D01*
X112495000Y-150457000D02*
X112495000Y-155613000D01*
X112455000Y-150456000D02*
X112455000Y-155614000D01*
X112415000Y-150455000D02*
X112415000Y-155615000D01*
X112375000Y-150455000D02*
X112375000Y-155615000D01*
X114995000Y-153035000D02*
G75*
G03X114995000Y-153035000I-2620000J0D01*
G01*
X127060000Y-157050000D02*
X127060000Y-156050000D01*
X128060000Y-157050000D02*
X127060000Y-157050000D01*
X131060000Y-156750000D02*
X127360000Y-156750000D01*
X131060000Y-155870000D02*
X131060000Y-156750000D01*
X131060000Y-153370000D02*
X131060000Y-153930000D01*
X131060000Y-150880000D02*
X131060000Y-151430000D01*
X131060000Y-148050000D02*
X131060000Y-148920000D01*
X127360000Y-148050000D02*
X131060000Y-148050000D01*
X127360000Y-148930000D02*
X127360000Y-148050000D01*
X127360000Y-151430000D02*
X127360000Y-150870000D01*
X127360000Y-153900000D02*
X127360000Y-153370000D01*
X127360000Y-156750000D02*
X127360000Y-155900000D01*
X100870000Y-158015000D02*
X100870000Y-158345000D01*
X107410000Y-158015000D02*
X100870000Y-158015000D01*
X107410000Y-158345000D02*
X107410000Y-158015000D01*
X100870000Y-160755000D02*
X100870000Y-160425000D01*
X107410000Y-160755000D02*
X100870000Y-160755000D01*
X107410000Y-160425000D02*
X107410000Y-160755000D01*
X131360000Y-81075000D02*
X131360000Y-82075000D01*
X130360000Y-81075000D02*
X131360000Y-81075000D01*
X127360000Y-81375000D02*
X131060000Y-81375000D01*
X127360000Y-82255000D02*
X127360000Y-81375000D01*
X127360000Y-84755000D02*
X127360000Y-84195000D01*
X127360000Y-87245000D02*
X127360000Y-86695000D01*
X127360000Y-90075000D02*
X127360000Y-89205000D01*
X131060000Y-90075000D02*
X127360000Y-90075000D01*
X131060000Y-89195000D02*
X131060000Y-90075000D01*
X131060000Y-86695000D02*
X131060000Y-87255000D01*
X131060000Y-84225000D02*
X131060000Y-84755000D01*
X131060000Y-81375000D02*
X131060000Y-82225000D01*
X57090000Y-81075000D02*
X57090000Y-82075000D01*
X56090000Y-81075000D02*
X57090000Y-81075000D01*
X53090000Y-81375000D02*
X56790000Y-81375000D01*
X53090000Y-82255000D02*
X53090000Y-81375000D01*
X53090000Y-84755000D02*
X53090000Y-84195000D01*
X53090000Y-87245000D02*
X53090000Y-86695000D01*
X53090000Y-90075000D02*
X53090000Y-89205000D01*
X56790000Y-90075000D02*
X53090000Y-90075000D01*
X56790000Y-89195000D02*
X56790000Y-90075000D01*
X56790000Y-86695000D02*
X56790000Y-87255000D01*
X56790000Y-84225000D02*
X56790000Y-84755000D01*
X56790000Y-81375000D02*
X56790000Y-82225000D01*
X91330000Y-156905000D02*
X92980000Y-156905000D01*
X91330000Y-146625000D02*
X91330000Y-156905000D01*
X96630000Y-146625000D02*
X91330000Y-146625000D01*
X96630000Y-156905000D02*
X96630000Y-146625000D01*
X94980000Y-156905000D02*
X96630000Y-156905000D01*
X92980000Y-156905000D02*
G75*
G02X94980000Y-156905000I1000000J0D01*
G01*
X96630000Y-121225000D02*
X94980000Y-121225000D01*
X96630000Y-139125000D02*
X96630000Y-121225000D01*
X91330000Y-139125000D02*
X96630000Y-139125000D01*
X91330000Y-121225000D02*
X91330000Y-139125000D01*
X92980000Y-121225000D02*
X91330000Y-121225000D01*
X94980000Y-121225000D02*
G75*
G02X92980000Y-121225000I-1000000J0D01*
G01*
X99000000Y-104665000D02*
X99000000Y-106315000D01*
X109280000Y-104665000D02*
X99000000Y-104665000D01*
X109280000Y-109965000D02*
X109280000Y-104665000D01*
X99000000Y-109965000D02*
X109280000Y-109965000D01*
X99000000Y-108315000D02*
X99000000Y-109965000D01*
X99000000Y-106315000D02*
G75*
G02X99000000Y-108315000I0J-1000000D01*
G01*
X94040000Y-109965000D02*
X94040000Y-108315000D01*
X73600000Y-109965000D02*
X94040000Y-109965000D01*
X73600000Y-104665000D02*
X73600000Y-109965000D01*
X94040000Y-104665000D02*
X73600000Y-104665000D01*
X94040000Y-106315000D02*
X94040000Y-104665000D01*
X94040000Y-108315000D02*
G75*
G02X94040000Y-106315000I0J1000000D01*
G01*
X83760000Y-70375000D02*
X83760000Y-72025000D01*
X101660000Y-70375000D02*
X83760000Y-70375000D01*
X101660000Y-75675000D02*
X101660000Y-70375000D01*
X83760000Y-75675000D02*
X101660000Y-75675000D01*
X83760000Y-74025000D02*
X83760000Y-75675000D01*
X83760000Y-72025000D02*
G75*
G02X83760000Y-74025000I0J-1000000D01*
G01*
X78935000Y-142865000D02*
X78935000Y-137795000D01*
X88705000Y-142865000D02*
X88705000Y-137795000D01*
X88705000Y-137795000D02*
X78935000Y-137795000D01*
X88705000Y-142865000D02*
X78935000Y-142865000D01*
X78935000Y-122545000D02*
X78935000Y-117475000D01*
X88705000Y-122545000D02*
X88705000Y-117475000D01*
X88705000Y-117475000D02*
X78935000Y-117475000D01*
X88705000Y-122545000D02*
X78935000Y-122545000D01*
X91430000Y-100770000D02*
X86360000Y-100770000D01*
X91430000Y-91000000D02*
X86360000Y-91000000D01*
X86360000Y-91000000D02*
X86360000Y-100770000D01*
X91430000Y-91000000D02*
X91430000Y-100770000D01*
X113020000Y-100770000D02*
X107950000Y-100770000D01*
X113020000Y-91000000D02*
X107950000Y-91000000D01*
X107950000Y-91000000D02*
X107950000Y-100770000D01*
X113020000Y-91000000D02*
X113020000Y-100770000D01*
X107410000Y-156945000D02*
X107410000Y-156615000D01*
X100870000Y-156945000D02*
X107410000Y-156945000D01*
X100870000Y-156615000D02*
X100870000Y-156945000D01*
X107410000Y-154205000D02*
X107410000Y-154535000D01*
X100870000Y-154205000D02*
X107410000Y-154205000D01*
X100870000Y-154535000D02*
X100870000Y-154205000D01*
X100870000Y-151665000D02*
X100870000Y-151995000D01*
X107410000Y-151665000D02*
X100870000Y-151665000D01*
X107410000Y-151995000D02*
X107410000Y-151665000D01*
X100870000Y-154405000D02*
X100870000Y-154075000D01*
X107410000Y-154405000D02*
X100870000Y-154405000D01*
X107410000Y-154075000D02*
X107410000Y-154405000D01*
X104040000Y-124555000D02*
X104370000Y-124555000D01*
X104040000Y-118015000D02*
X104040000Y-124555000D01*
X104370000Y-118015000D02*
X104040000Y-118015000D01*
X106780000Y-124555000D02*
X106450000Y-124555000D01*
X106780000Y-118015000D02*
X106780000Y-124555000D01*
X106450000Y-118015000D02*
X106780000Y-118015000D01*
X100870000Y-144045000D02*
X100870000Y-144375000D01*
X107410000Y-144045000D02*
X100870000Y-144045000D01*
X107410000Y-144375000D02*
X107410000Y-144045000D01*
X100870000Y-146785000D02*
X100870000Y-146455000D01*
X107410000Y-146785000D02*
X100870000Y-146785000D01*
X107410000Y-146455000D02*
X107410000Y-146785000D01*
X80550000Y-151665000D02*
X80550000Y-151995000D01*
X87090000Y-151665000D02*
X80550000Y-151665000D01*
X87090000Y-151995000D02*
X87090000Y-151665000D01*
X80550000Y-154405000D02*
X80550000Y-154075000D01*
X87090000Y-154405000D02*
X80550000Y-154405000D01*
X87090000Y-154075000D02*
X87090000Y-154405000D01*
X80550000Y-146585000D02*
X80550000Y-146915000D01*
X87090000Y-146585000D02*
X80550000Y-146585000D01*
X87090000Y-146915000D02*
X87090000Y-146585000D01*
X80550000Y-149325000D02*
X80550000Y-148995000D01*
X87090000Y-149325000D02*
X80550000Y-149325000D01*
X87090000Y-148995000D02*
X87090000Y-149325000D01*
X107410000Y-151865000D02*
X107410000Y-151535000D01*
X100870000Y-151865000D02*
X107410000Y-151865000D01*
X100870000Y-151535000D02*
X100870000Y-151865000D01*
X107410000Y-149125000D02*
X107410000Y-149455000D01*
X100870000Y-149125000D02*
X107410000Y-149125000D01*
X100870000Y-149455000D02*
X100870000Y-149125000D01*
X80550000Y-144045000D02*
X80550000Y-144375000D01*
X87090000Y-144045000D02*
X80550000Y-144045000D01*
X87090000Y-144375000D02*
X87090000Y-144045000D01*
X80550000Y-146785000D02*
X80550000Y-146455000D01*
X87090000Y-146785000D02*
X80550000Y-146785000D01*
X87090000Y-146455000D02*
X87090000Y-146785000D01*
X80550000Y-126265000D02*
X80550000Y-126595000D01*
X87090000Y-126265000D02*
X80550000Y-126265000D01*
X87090000Y-126595000D02*
X87090000Y-126265000D01*
X80550000Y-129005000D02*
X80550000Y-128675000D01*
X87090000Y-129005000D02*
X80550000Y-129005000D01*
X87090000Y-128675000D02*
X87090000Y-129005000D01*
X100870000Y-131345000D02*
X100870000Y-131675000D01*
X107410000Y-131345000D02*
X100870000Y-131345000D01*
X107410000Y-131675000D02*
X107410000Y-131345000D01*
X100870000Y-134085000D02*
X100870000Y-133755000D01*
X107410000Y-134085000D02*
X100870000Y-134085000D01*
X107410000Y-133755000D02*
X107410000Y-134085000D01*
X100870000Y-136425000D02*
X100870000Y-136755000D01*
X107410000Y-136425000D02*
X100870000Y-136425000D01*
X107410000Y-136755000D02*
X107410000Y-136425000D01*
X100870000Y-139165000D02*
X100870000Y-138835000D01*
X107410000Y-139165000D02*
X100870000Y-139165000D01*
X107410000Y-138835000D02*
X107410000Y-139165000D01*
X80550000Y-149125000D02*
X80550000Y-149455000D01*
X87090000Y-149125000D02*
X80550000Y-149125000D01*
X87090000Y-149455000D02*
X87090000Y-149125000D01*
X80550000Y-151865000D02*
X80550000Y-151535000D01*
X87090000Y-151865000D02*
X80550000Y-151865000D01*
X87090000Y-151535000D02*
X87090000Y-151865000D01*
X87090000Y-136625000D02*
X87090000Y-136295000D01*
X80550000Y-136625000D02*
X87090000Y-136625000D01*
X80550000Y-136295000D02*
X80550000Y-136625000D01*
X87090000Y-133885000D02*
X87090000Y-134215000D01*
X80550000Y-133885000D02*
X87090000Y-133885000D01*
X80550000Y-134215000D02*
X80550000Y-133885000D01*
X101500000Y-124555000D02*
X101830000Y-124555000D01*
X101500000Y-118015000D02*
X101500000Y-124555000D01*
X101830000Y-118015000D02*
X101500000Y-118015000D01*
X104240000Y-124555000D02*
X103910000Y-124555000D01*
X104240000Y-118015000D02*
X104240000Y-124555000D01*
X103910000Y-118015000D02*
X104240000Y-118015000D01*
X80550000Y-123725000D02*
X80550000Y-124055000D01*
X87090000Y-123725000D02*
X80550000Y-123725000D01*
X87090000Y-124055000D02*
X87090000Y-123725000D01*
X80550000Y-126465000D02*
X80550000Y-126135000D01*
X87090000Y-126465000D02*
X80550000Y-126465000D01*
X87090000Y-126135000D02*
X87090000Y-126465000D01*
X100870000Y-146585000D02*
X100870000Y-146915000D01*
X107410000Y-146585000D02*
X100870000Y-146585000D01*
X107410000Y-146915000D02*
X107410000Y-146585000D01*
X100870000Y-149325000D02*
X100870000Y-148995000D01*
X107410000Y-149325000D02*
X100870000Y-149325000D01*
X107410000Y-148995000D02*
X107410000Y-149325000D01*
X86460000Y-92615000D02*
X86130000Y-92615000D01*
X86460000Y-99155000D02*
X86460000Y-92615000D01*
X86130000Y-99155000D02*
X86460000Y-99155000D01*
X83720000Y-92615000D02*
X84050000Y-92615000D01*
X83720000Y-99155000D02*
X83720000Y-92615000D01*
X84050000Y-99155000D02*
X83720000Y-99155000D01*
X78640000Y-99155000D02*
X78970000Y-99155000D01*
X78640000Y-92615000D02*
X78640000Y-99155000D01*
X78970000Y-92615000D02*
X78640000Y-92615000D01*
X81380000Y-99155000D02*
X81050000Y-99155000D01*
X81380000Y-92615000D02*
X81380000Y-99155000D01*
X81050000Y-92615000D02*
X81380000Y-92615000D01*
X94080000Y-92615000D02*
X93750000Y-92615000D01*
X94080000Y-99155000D02*
X94080000Y-92615000D01*
X93750000Y-99155000D02*
X94080000Y-99155000D01*
X91340000Y-92615000D02*
X91670000Y-92615000D01*
X91340000Y-99155000D02*
X91340000Y-92615000D01*
X91670000Y-99155000D02*
X91340000Y-99155000D01*
X81180000Y-99155000D02*
X81510000Y-99155000D01*
X81180000Y-92615000D02*
X81180000Y-99155000D01*
X81510000Y-92615000D02*
X81180000Y-92615000D01*
X83920000Y-99155000D02*
X83590000Y-99155000D01*
X83920000Y-92615000D02*
X83920000Y-99155000D01*
X83590000Y-92615000D02*
X83920000Y-92615000D01*
X104240000Y-92615000D02*
X103910000Y-92615000D01*
X104240000Y-99155000D02*
X104240000Y-92615000D01*
X103910000Y-99155000D02*
X104240000Y-99155000D01*
X101500000Y-92615000D02*
X101830000Y-92615000D01*
X101500000Y-99155000D02*
X101500000Y-92615000D01*
X101830000Y-99155000D02*
X101500000Y-99155000D01*
X98960000Y-99155000D02*
X99290000Y-99155000D01*
X98960000Y-92615000D02*
X98960000Y-99155000D01*
X99290000Y-92615000D02*
X98960000Y-92615000D01*
X101700000Y-99155000D02*
X101370000Y-99155000D01*
X101700000Y-92615000D02*
X101700000Y-99155000D01*
X101370000Y-92615000D02*
X101700000Y-92615000D01*
X93880000Y-99155000D02*
X94210000Y-99155000D01*
X93880000Y-92615000D02*
X93880000Y-99155000D01*
X94210000Y-92615000D02*
X93880000Y-92615000D01*
X96620000Y-99155000D02*
X96290000Y-99155000D01*
X96620000Y-92615000D02*
X96620000Y-99155000D01*
X96290000Y-92615000D02*
X96620000Y-92615000D01*
X96420000Y-99155000D02*
X96750000Y-99155000D01*
X96420000Y-92615000D02*
X96420000Y-99155000D01*
X96750000Y-92615000D02*
X96420000Y-92615000D01*
X99160000Y-99155000D02*
X98830000Y-99155000D01*
X99160000Y-92615000D02*
X99160000Y-99155000D01*
X98830000Y-92615000D02*
X99160000Y-92615000D01*
X112930000Y-110585000D02*
X113260000Y-110585000D01*
X112930000Y-104045000D02*
X112930000Y-110585000D01*
X113260000Y-104045000D02*
X112930000Y-104045000D01*
X115670000Y-110585000D02*
X115340000Y-110585000D01*
X115670000Y-104045000D02*
X115670000Y-110585000D01*
X115340000Y-104045000D02*
X115670000Y-104045000D01*
X106780000Y-92615000D02*
X106450000Y-92615000D01*
X106780000Y-99155000D02*
X106780000Y-92615000D01*
X106450000Y-99155000D02*
X106780000Y-99155000D01*
X104040000Y-92615000D02*
X104370000Y-92615000D01*
X104040000Y-99155000D02*
X104040000Y-92615000D01*
X104370000Y-99155000D02*
X104040000Y-99155000D01*
X101500000Y-86455000D02*
X101830000Y-86455000D01*
X101500000Y-79915000D02*
X101500000Y-86455000D01*
X101830000Y-79915000D02*
X101500000Y-79915000D01*
X104240000Y-86455000D02*
X103910000Y-86455000D01*
X104240000Y-79915000D02*
X104240000Y-86455000D01*
X103910000Y-79915000D02*
X104240000Y-79915000D01*
X96420000Y-86455000D02*
X96750000Y-86455000D01*
X96420000Y-79915000D02*
X96420000Y-86455000D01*
X96750000Y-79915000D02*
X96420000Y-79915000D01*
X99160000Y-86455000D02*
X98830000Y-86455000D01*
X99160000Y-79915000D02*
X99160000Y-86455000D01*
X98830000Y-79915000D02*
X99160000Y-79915000D01*
X111860000Y-77375000D02*
X111530000Y-77375000D01*
X111860000Y-83915000D02*
X111860000Y-77375000D01*
X111530000Y-83915000D02*
X111860000Y-83915000D01*
X109120000Y-77375000D02*
X109450000Y-77375000D01*
X109120000Y-83915000D02*
X109120000Y-77375000D01*
X109450000Y-83915000D02*
X109120000Y-83915000D01*
X106780000Y-64675000D02*
X106450000Y-64675000D01*
X106780000Y-71215000D02*
X106780000Y-64675000D01*
X106450000Y-71215000D02*
X106780000Y-71215000D01*
X104040000Y-64675000D02*
X104370000Y-64675000D01*
X104040000Y-71215000D02*
X104040000Y-64675000D01*
X104370000Y-71215000D02*
X104040000Y-71215000D01*
X103410000Y-72925000D02*
X103410000Y-73255000D01*
X109950000Y-72925000D02*
X103410000Y-72925000D01*
X109950000Y-73255000D02*
X109950000Y-72925000D01*
X103410000Y-75665000D02*
X103410000Y-75335000D01*
X109950000Y-75665000D02*
X103410000Y-75665000D01*
X109950000Y-75335000D02*
X109950000Y-75665000D01*
X109320000Y-77375000D02*
X108990000Y-77375000D01*
X109320000Y-83915000D02*
X109320000Y-77375000D01*
X108990000Y-83915000D02*
X109320000Y-83915000D01*
X106580000Y-77375000D02*
X106910000Y-77375000D01*
X106580000Y-83915000D02*
X106580000Y-77375000D01*
X106910000Y-83915000D02*
X106580000Y-83915000D01*
X101700000Y-79915000D02*
X101370000Y-79915000D01*
X101700000Y-86455000D02*
X101700000Y-79915000D01*
X101370000Y-86455000D02*
X101700000Y-86455000D01*
X98960000Y-79915000D02*
X99290000Y-79915000D01*
X98960000Y-86455000D02*
X98960000Y-79915000D01*
X99290000Y-86455000D02*
X98960000Y-86455000D01*
X81180000Y-86455000D02*
X81510000Y-86455000D01*
X81180000Y-79915000D02*
X81180000Y-86455000D01*
X81510000Y-79915000D02*
X81180000Y-79915000D01*
X83920000Y-86455000D02*
X83590000Y-86455000D01*
X83920000Y-79915000D02*
X83920000Y-86455000D01*
X83590000Y-79915000D02*
X83920000Y-79915000D01*
X86260000Y-86455000D02*
X86590000Y-86455000D01*
X86260000Y-79915000D02*
X86260000Y-86455000D01*
X86590000Y-79915000D02*
X86260000Y-79915000D01*
X89000000Y-86455000D02*
X88670000Y-86455000D01*
X89000000Y-79915000D02*
X89000000Y-86455000D01*
X88670000Y-79915000D02*
X89000000Y-79915000D01*
X76300000Y-77375000D02*
X75970000Y-77375000D01*
X76300000Y-83915000D02*
X76300000Y-77375000D01*
X75970000Y-83915000D02*
X76300000Y-83915000D01*
X73560000Y-77375000D02*
X73890000Y-77375000D01*
X73560000Y-83915000D02*
X73560000Y-77375000D01*
X73890000Y-83915000D02*
X73560000Y-83915000D01*
X81380000Y-64675000D02*
X81050000Y-64675000D01*
X81380000Y-71215000D02*
X81380000Y-64675000D01*
X81050000Y-71215000D02*
X81380000Y-71215000D01*
X78640000Y-64675000D02*
X78970000Y-64675000D01*
X78640000Y-71215000D02*
X78640000Y-64675000D01*
X78970000Y-71215000D02*
X78640000Y-71215000D01*
X82010000Y-75665000D02*
X82010000Y-75335000D01*
X75470000Y-75665000D02*
X82010000Y-75665000D01*
X75470000Y-75335000D02*
X75470000Y-75665000D01*
X82010000Y-72925000D02*
X82010000Y-73255000D01*
X75470000Y-72925000D02*
X82010000Y-72925000D01*
X75470000Y-73255000D02*
X75470000Y-72925000D01*
X78840000Y-77375000D02*
X78510000Y-77375000D01*
X78840000Y-83915000D02*
X78840000Y-77375000D01*
X78510000Y-83915000D02*
X78840000Y-83915000D01*
X76100000Y-77375000D02*
X76430000Y-77375000D01*
X76100000Y-83915000D02*
X76100000Y-77375000D01*
X76430000Y-83915000D02*
X76100000Y-83915000D01*
X86460000Y-79915000D02*
X86130000Y-79915000D01*
X86460000Y-86455000D02*
X86460000Y-79915000D01*
X86130000Y-86455000D02*
X86460000Y-86455000D01*
X83720000Y-79915000D02*
X84050000Y-79915000D01*
X83720000Y-86455000D02*
X83720000Y-79915000D01*
X84050000Y-86455000D02*
X83720000Y-86455000D01*
X92141522Y-157546522D02*
G75*
G03X93980000Y-161985000I1838478J-1838478D01*
G01*
X95818478Y-157546522D02*
G75*
G02X93980000Y-161985000I-1838478J-1838478D01*
G01*
X95780000Y-157535000D02*
X92180000Y-157535000D01*
X94681522Y-120583478D02*
G75*
G03X99120000Y-118745000I1838478J1838478D01*
G01*
X94681522Y-116906522D02*
G75*
G02X99120000Y-118745000I1838478J-1838478D01*
G01*
X94670000Y-116945000D02*
X94670000Y-120545000D01*
X90236522Y-120583478D02*
G75*
G03X94675000Y-118745000I1838478J1838478D01*
G01*
X90236522Y-116906522D02*
G75*
G02X94675000Y-118745000I1838478J-1838478D01*
G01*
X90225000Y-116945000D02*
X90225000Y-120545000D01*
X125730000Y-95885000D02*
X127000000Y-95885000D01*
X125730000Y-97155000D02*
X125730000Y-95885000D01*
X128042929Y-107695000D02*
X128440000Y-107695000D01*
X128042929Y-106935000D02*
X128440000Y-106935000D01*
X137100000Y-107695000D02*
X131100000Y-107695000D01*
X137100000Y-106935000D02*
X137100000Y-107695000D01*
X131100000Y-106935000D02*
X137100000Y-106935000D01*
X128440000Y-106045000D02*
X131100000Y-106045000D01*
X128042929Y-105155000D02*
X128440000Y-105155000D01*
X128042929Y-104395000D02*
X128440000Y-104395000D01*
X137100000Y-105155000D02*
X131100000Y-105155000D01*
X137100000Y-104395000D02*
X137100000Y-105155000D01*
X131100000Y-104395000D02*
X137100000Y-104395000D01*
X128440000Y-103505000D02*
X131100000Y-103505000D01*
X128042929Y-102615000D02*
X128440000Y-102615000D01*
X128042929Y-101855000D02*
X128440000Y-101855000D01*
X137100000Y-102615000D02*
X131100000Y-102615000D01*
X137100000Y-101855000D02*
X137100000Y-102615000D01*
X131100000Y-101855000D02*
X137100000Y-101855000D01*
X128440000Y-100965000D02*
X131100000Y-100965000D01*
X128042929Y-100075000D02*
X128440000Y-100075000D01*
X128042929Y-99315000D02*
X128440000Y-99315000D01*
X137100000Y-100075000D02*
X131100000Y-100075000D01*
X137100000Y-99315000D02*
X137100000Y-100075000D01*
X131100000Y-99315000D02*
X137100000Y-99315000D01*
X128440000Y-98425000D02*
X131100000Y-98425000D01*
X128110000Y-97535000D02*
X128440000Y-97535000D01*
X128110000Y-96775000D02*
X128440000Y-96775000D01*
X131100000Y-97435000D02*
X137100000Y-97435000D01*
X131100000Y-97315000D02*
X137100000Y-97315000D01*
X131100000Y-97195000D02*
X137100000Y-97195000D01*
X131100000Y-97075000D02*
X137100000Y-97075000D01*
X131100000Y-96955000D02*
X137100000Y-96955000D01*
X131100000Y-96835000D02*
X137100000Y-96835000D01*
X137100000Y-97535000D02*
X131100000Y-97535000D01*
X137100000Y-96775000D02*
X137100000Y-97535000D01*
X131100000Y-96775000D02*
X137100000Y-96775000D01*
X131100000Y-95825000D02*
X128440000Y-95825000D01*
X131100000Y-108645000D02*
X131100000Y-95825000D01*
X128440000Y-108645000D02*
X131100000Y-108645000D01*
X128440000Y-95825000D02*
X128440000Y-108645000D01*
X106530000Y-81665000D02*
X104290000Y-81665000D01*
X106530000Y-81905000D02*
X104290000Y-81905000D01*
X106530000Y-81785000D02*
X104290000Y-81785000D01*
X105410000Y-85955000D02*
X105410000Y-85305000D01*
X105410000Y-80415000D02*
X105410000Y-81065000D01*
X106530000Y-85305000D02*
X106530000Y-81065000D01*
X104290000Y-85305000D02*
X106530000Y-85305000D01*
X104290000Y-81065000D02*
X104290000Y-85305000D01*
X106530000Y-81065000D02*
X104290000Y-81065000D01*
X106830000Y-69465000D02*
X109070000Y-69465000D01*
X106830000Y-69225000D02*
X109070000Y-69225000D01*
X106830000Y-69345000D02*
X109070000Y-69345000D01*
X107950000Y-65175000D02*
X107950000Y-65825000D01*
X107950000Y-70715000D02*
X107950000Y-70065000D01*
X106830000Y-65825000D02*
X106830000Y-70065000D01*
X109070000Y-65825000D02*
X106830000Y-65825000D01*
X109070000Y-70065000D02*
X109070000Y-65825000D01*
X106830000Y-70065000D02*
X109070000Y-70065000D01*
X96370000Y-81665000D02*
X94130000Y-81665000D01*
X96370000Y-81905000D02*
X94130000Y-81905000D01*
X96370000Y-81785000D02*
X94130000Y-81785000D01*
X95250000Y-85955000D02*
X95250000Y-85305000D01*
X95250000Y-80415000D02*
X95250000Y-81065000D01*
X96370000Y-85305000D02*
X96370000Y-81065000D01*
X94130000Y-85305000D02*
X96370000Y-85305000D01*
X94130000Y-81065000D02*
X94130000Y-85305000D01*
X96370000Y-81065000D02*
X94130000Y-81065000D01*
X111610000Y-66425000D02*
X109370000Y-66425000D01*
X111610000Y-66665000D02*
X109370000Y-66665000D01*
X111610000Y-66545000D02*
X109370000Y-66545000D01*
X110490000Y-70715000D02*
X110490000Y-70065000D01*
X110490000Y-65175000D02*
X110490000Y-65825000D01*
X111610000Y-70065000D02*
X111610000Y-65825000D01*
X109370000Y-70065000D02*
X111610000Y-70065000D01*
X109370000Y-65825000D02*
X109370000Y-70065000D01*
X111610000Y-65825000D02*
X109370000Y-65825000D01*
X81130000Y-81665000D02*
X78890000Y-81665000D01*
X81130000Y-81905000D02*
X78890000Y-81905000D01*
X81130000Y-81785000D02*
X78890000Y-81785000D01*
X80010000Y-85955000D02*
X80010000Y-85305000D01*
X80010000Y-80415000D02*
X80010000Y-81065000D01*
X81130000Y-85305000D02*
X81130000Y-81065000D01*
X78890000Y-85305000D02*
X81130000Y-85305000D01*
X78890000Y-81065000D02*
X78890000Y-85305000D01*
X81130000Y-81065000D02*
X78890000Y-81065000D01*
X76350000Y-69465000D02*
X78590000Y-69465000D01*
X76350000Y-69225000D02*
X78590000Y-69225000D01*
X76350000Y-69345000D02*
X78590000Y-69345000D01*
X77470000Y-65175000D02*
X77470000Y-65825000D01*
X77470000Y-70715000D02*
X77470000Y-70065000D01*
X76350000Y-65825000D02*
X76350000Y-70065000D01*
X78590000Y-65825000D02*
X76350000Y-65825000D01*
X78590000Y-70065000D02*
X78590000Y-65825000D01*
X76350000Y-70065000D02*
X78590000Y-70065000D01*
X91290000Y-81665000D02*
X89050000Y-81665000D01*
X91290000Y-81905000D02*
X89050000Y-81905000D01*
X91290000Y-81785000D02*
X89050000Y-81785000D01*
X90170000Y-85955000D02*
X90170000Y-85305000D01*
X90170000Y-80415000D02*
X90170000Y-81065000D01*
X91290000Y-85305000D02*
X91290000Y-81065000D01*
X89050000Y-85305000D02*
X91290000Y-85305000D01*
X89050000Y-81065000D02*
X89050000Y-85305000D01*
X91290000Y-81065000D02*
X89050000Y-81065000D01*
X76050000Y-66425000D02*
X73810000Y-66425000D01*
X76050000Y-66665000D02*
X73810000Y-66665000D01*
X76050000Y-66545000D02*
X73810000Y-66545000D01*
X74930000Y-70715000D02*
X74930000Y-70065000D01*
X74930000Y-65175000D02*
X74930000Y-65825000D01*
X76050000Y-70065000D02*
X76050000Y-65825000D01*
X73810000Y-70065000D02*
X76050000Y-70065000D01*
X73810000Y-65825000D02*
X73810000Y-70065000D01*
X76050000Y-65825000D02*
X73810000Y-65825000D01*
X95705000Y-140300225D02*
X95205000Y-140300225D01*
X95455000Y-140050225D02*
X95455000Y-140550225D01*
X94264000Y-145456000D02*
X93696000Y-145456000D01*
X94498000Y-145416000D02*
X93462000Y-145416000D01*
X94657000Y-145376000D02*
X93303000Y-145376000D01*
X94785000Y-145336000D02*
X93175000Y-145336000D01*
X94895000Y-145296000D02*
X93065000Y-145296000D01*
X94991000Y-145256000D02*
X92969000Y-145256000D01*
X95078000Y-145216000D02*
X92882000Y-145216000D01*
X95158000Y-145176000D02*
X92802000Y-145176000D01*
X92940000Y-145136000D02*
X92729000Y-145136000D01*
X95231000Y-145136000D02*
X95020000Y-145136000D01*
X92940000Y-145096000D02*
X92661000Y-145096000D01*
X95299000Y-145096000D02*
X95020000Y-145096000D01*
X92940000Y-145056000D02*
X92597000Y-145056000D01*
X95363000Y-145056000D02*
X95020000Y-145056000D01*
X92940000Y-145016000D02*
X92537000Y-145016000D01*
X95423000Y-145016000D02*
X95020000Y-145016000D01*
X92940000Y-144976000D02*
X92480000Y-144976000D01*
X95480000Y-144976000D02*
X95020000Y-144976000D01*
X92940000Y-144936000D02*
X92426000Y-144936000D01*
X95534000Y-144936000D02*
X95020000Y-144936000D01*
X92940000Y-144896000D02*
X92375000Y-144896000D01*
X95585000Y-144896000D02*
X95020000Y-144896000D01*
X92940000Y-144856000D02*
X92327000Y-144856000D01*
X95633000Y-144856000D02*
X95020000Y-144856000D01*
X92940000Y-144816000D02*
X92281000Y-144816000D01*
X95679000Y-144816000D02*
X95020000Y-144816000D01*
X92940000Y-144776000D02*
X92237000Y-144776000D01*
X95723000Y-144776000D02*
X95020000Y-144776000D01*
X92940000Y-144736000D02*
X92195000Y-144736000D01*
X95765000Y-144736000D02*
X95020000Y-144736000D01*
X92940000Y-144696000D02*
X92154000Y-144696000D01*
X95806000Y-144696000D02*
X95020000Y-144696000D01*
X92940000Y-144656000D02*
X92116000Y-144656000D01*
X95844000Y-144656000D02*
X95020000Y-144656000D01*
X92940000Y-144616000D02*
X92079000Y-144616000D01*
X95881000Y-144616000D02*
X95020000Y-144616000D01*
X92940000Y-144576000D02*
X92043000Y-144576000D01*
X95917000Y-144576000D02*
X95020000Y-144576000D01*
X92940000Y-144536000D02*
X92009000Y-144536000D01*
X95951000Y-144536000D02*
X95020000Y-144536000D01*
X92940000Y-144496000D02*
X91976000Y-144496000D01*
X95984000Y-144496000D02*
X95020000Y-144496000D01*
X92940000Y-144456000D02*
X91945000Y-144456000D01*
X96015000Y-144456000D02*
X95020000Y-144456000D01*
X92940000Y-144416000D02*
X91915000Y-144416000D01*
X96045000Y-144416000D02*
X95020000Y-144416000D01*
X92940000Y-144376000D02*
X91885000Y-144376000D01*
X96075000Y-144376000D02*
X95020000Y-144376000D01*
X92940000Y-144336000D02*
X91858000Y-144336000D01*
X96102000Y-144336000D02*
X95020000Y-144336000D01*
X92940000Y-144296000D02*
X91831000Y-144296000D01*
X96129000Y-144296000D02*
X95020000Y-144296000D01*
X92940000Y-144256000D02*
X91805000Y-144256000D01*
X96155000Y-144256000D02*
X95020000Y-144256000D01*
X92940000Y-144216000D02*
X91780000Y-144216000D01*
X96180000Y-144216000D02*
X95020000Y-144216000D01*
X92940000Y-144176000D02*
X91756000Y-144176000D01*
X96204000Y-144176000D02*
X95020000Y-144176000D01*
X92940000Y-144136000D02*
X91733000Y-144136000D01*
X96227000Y-144136000D02*
X95020000Y-144136000D01*
X92940000Y-144096000D02*
X91712000Y-144096000D01*
X96248000Y-144096000D02*
X95020000Y-144096000D01*
X92940000Y-144056000D02*
X91690000Y-144056000D01*
X96270000Y-144056000D02*
X95020000Y-144056000D01*
X92940000Y-144016000D02*
X91670000Y-144016000D01*
X96290000Y-144016000D02*
X95020000Y-144016000D01*
X92940000Y-143976000D02*
X91651000Y-143976000D01*
X96309000Y-143976000D02*
X95020000Y-143976000D01*
X92940000Y-143936000D02*
X91632000Y-143936000D01*
X96328000Y-143936000D02*
X95020000Y-143936000D01*
X92940000Y-143896000D02*
X91615000Y-143896000D01*
X96345000Y-143896000D02*
X95020000Y-143896000D01*
X92940000Y-143856000D02*
X91598000Y-143856000D01*
X96362000Y-143856000D02*
X95020000Y-143856000D01*
X92940000Y-143816000D02*
X91582000Y-143816000D01*
X96378000Y-143816000D02*
X95020000Y-143816000D01*
X92940000Y-143776000D02*
X91566000Y-143776000D01*
X96394000Y-143776000D02*
X95020000Y-143776000D01*
X92940000Y-143736000D02*
X91552000Y-143736000D01*
X96408000Y-143736000D02*
X95020000Y-143736000D01*
X92940000Y-143696000D02*
X91538000Y-143696000D01*
X96422000Y-143696000D02*
X95020000Y-143696000D01*
X92940000Y-143656000D02*
X91525000Y-143656000D01*
X96435000Y-143656000D02*
X95020000Y-143656000D01*
X92940000Y-143616000D02*
X91512000Y-143616000D01*
X96448000Y-143616000D02*
X95020000Y-143616000D01*
X92940000Y-143576000D02*
X91500000Y-143576000D01*
X96460000Y-143576000D02*
X95020000Y-143576000D01*
X92940000Y-143535000D02*
X91489000Y-143535000D01*
X96471000Y-143535000D02*
X95020000Y-143535000D01*
X92940000Y-143495000D02*
X91479000Y-143495000D01*
X96481000Y-143495000D02*
X95020000Y-143495000D01*
X92940000Y-143455000D02*
X91469000Y-143455000D01*
X96491000Y-143455000D02*
X95020000Y-143455000D01*
X92940000Y-143415000D02*
X91460000Y-143415000D01*
X96500000Y-143415000D02*
X95020000Y-143415000D01*
X92940000Y-143375000D02*
X91452000Y-143375000D01*
X96508000Y-143375000D02*
X95020000Y-143375000D01*
X92940000Y-143335000D02*
X91444000Y-143335000D01*
X96516000Y-143335000D02*
X95020000Y-143335000D01*
X92940000Y-143295000D02*
X91437000Y-143295000D01*
X96523000Y-143295000D02*
X95020000Y-143295000D01*
X92940000Y-143255000D02*
X91430000Y-143255000D01*
X96530000Y-143255000D02*
X95020000Y-143255000D01*
X92940000Y-143215000D02*
X91424000Y-143215000D01*
X96536000Y-143215000D02*
X95020000Y-143215000D01*
X92940000Y-143175000D02*
X91419000Y-143175000D01*
X96541000Y-143175000D02*
X95020000Y-143175000D01*
X92940000Y-143135000D02*
X91415000Y-143135000D01*
X96545000Y-143135000D02*
X95020000Y-143135000D01*
X92940000Y-143095000D02*
X91411000Y-143095000D01*
X96549000Y-143095000D02*
X95020000Y-143095000D01*
X96553000Y-143055000D02*
X91407000Y-143055000D01*
X96556000Y-143015000D02*
X91404000Y-143015000D01*
X96558000Y-142975000D02*
X91402000Y-142975000D01*
X96559000Y-142935000D02*
X91401000Y-142935000D01*
X96560000Y-142895000D02*
X91400000Y-142895000D01*
X96560000Y-142855000D02*
X91400000Y-142855000D01*
X96600000Y-142855000D02*
G75*
G03X96600000Y-142855000I-2620000J0D01*
G01*
X99405000Y-130745000D02*
X99160000Y-130745000D01*
X101500000Y-130745000D02*
X101255000Y-130745000D01*
X99405000Y-127105000D02*
X99160000Y-127105000D01*
X101500000Y-127105000D02*
X101255000Y-127105000D01*
X99160000Y-127105000D02*
X99160000Y-130745000D01*
X101500000Y-127105000D02*
X101500000Y-130745000D01*
X86705000Y-133285000D02*
X86460000Y-133285000D01*
X88800000Y-133285000D02*
X88555000Y-133285000D01*
X86705000Y-129645000D02*
X86460000Y-129645000D01*
X88800000Y-129645000D02*
X88555000Y-129645000D01*
X86460000Y-129645000D02*
X86460000Y-133285000D01*
X88800000Y-129645000D02*
X88800000Y-133285000D01*
X87100000Y-157190000D02*
X87100000Y-156945000D01*
X87100000Y-159285000D02*
X87100000Y-159040000D01*
X90740000Y-157190000D02*
X90740000Y-156945000D01*
X90740000Y-159285000D02*
X90740000Y-159040000D01*
X90740000Y-156945000D02*
X87100000Y-156945000D01*
X90740000Y-159285000D02*
X87100000Y-159285000D01*
X110835000Y-111695000D02*
X110590000Y-111695000D01*
X112930000Y-111695000D02*
X112685000Y-111695000D01*
X110835000Y-108055000D02*
X110590000Y-108055000D01*
X112930000Y-108055000D02*
X112685000Y-108055000D01*
X110590000Y-108055000D02*
X110590000Y-111695000D01*
X112930000Y-108055000D02*
X112930000Y-111695000D01*
X78040000Y-100620000D02*
X78040000Y-100865000D01*
X78040000Y-98525000D02*
X78040000Y-98770000D01*
X74400000Y-100620000D02*
X74400000Y-100865000D01*
X74400000Y-98525000D02*
X74400000Y-98770000D01*
X74400000Y-100865000D02*
X78040000Y-100865000D01*
X74400000Y-98525000D02*
X78040000Y-98525000D01*
X95595000Y-106615000D02*
X95350000Y-106615000D01*
X97690000Y-106615000D02*
X97445000Y-106615000D01*
X95595000Y-102975000D02*
X95350000Y-102975000D01*
X97690000Y-102975000D02*
X97445000Y-102975000D01*
X95350000Y-102975000D02*
X95350000Y-106615000D01*
X97690000Y-102975000D02*
X97690000Y-106615000D01*
X76940000Y-112740000D02*
X76940000Y-112495000D01*
X76940000Y-114835000D02*
X76940000Y-114590000D01*
X80580000Y-112740000D02*
X80580000Y-112495000D01*
X80580000Y-114835000D02*
X80580000Y-114590000D01*
X80580000Y-112495000D02*
X76940000Y-112495000D01*
X80580000Y-114835000D02*
X76940000Y-114835000D01*
X91785000Y-67245000D02*
X91540000Y-67245000D01*
X93880000Y-67245000D02*
X93635000Y-67245000D01*
X91785000Y-63605000D02*
X91540000Y-63605000D01*
X93880000Y-63605000D02*
X93635000Y-63605000D01*
X91540000Y-63605000D02*
X91540000Y-67245000D01*
X93880000Y-63605000D02*
X93880000Y-67245000D01*
X91785000Y-82445000D02*
X91540000Y-82445000D01*
X93880000Y-82445000D02*
X93635000Y-82445000D01*
X91785000Y-78805000D02*
X91540000Y-78805000D01*
X93880000Y-78805000D02*
X93635000Y-78805000D01*
X91540000Y-78805000D02*
X91540000Y-82445000D01*
X93880000Y-78805000D02*
X93880000Y-82445000D01*
X88200000Y-156500000D02*
X88200000Y-156745000D01*
X88200000Y-154405000D02*
X88200000Y-154650000D01*
X84560000Y-156500000D02*
X84560000Y-156745000D01*
X84560000Y-154405000D02*
X84560000Y-154650000D01*
X84560000Y-156745000D02*
X88200000Y-156745000D01*
X84560000Y-154405000D02*
X88200000Y-154405000D01*
D10*
X53062380Y-152852380D02*
X52729047Y-152376190D01*
X52490952Y-152852380D02*
X52490952Y-151852380D01*
X52871904Y-151852380D01*
X52967142Y-151900000D01*
X53014761Y-151947619D01*
X53062380Y-152042857D01*
X53062380Y-152185714D01*
X53014761Y-152280952D01*
X52967142Y-152328571D01*
X52871904Y-152376190D01*
X52490952Y-152376190D01*
X53348095Y-151852380D02*
X53681428Y-152852380D01*
X54014761Y-151852380D01*
X54776666Y-152185714D02*
X54776666Y-152852380D01*
X54538571Y-151804761D02*
X54300476Y-152519047D01*
X54919523Y-152519047D01*
X55490952Y-151852380D02*
X55586190Y-151852380D01*
X55681428Y-151900000D01*
X55729047Y-151947619D01*
X55776666Y-152042857D01*
X55824285Y-152233333D01*
X55824285Y-152471428D01*
X55776666Y-152661904D01*
X55729047Y-152757142D01*
X55681428Y-152804761D01*
X55586190Y-152852380D01*
X55490952Y-152852380D01*
X55395714Y-152804761D01*
X55348095Y-152757142D01*
X55300476Y-152661904D01*
X55252857Y-152471428D01*
X55252857Y-152233333D01*
X55300476Y-152042857D01*
X55348095Y-151947619D01*
X55395714Y-151900000D01*
X55490952Y-151852380D01*
X56205238Y-151947619D02*
X56252857Y-151900000D01*
X56348095Y-151852380D01*
X56586190Y-151852380D01*
X56681428Y-151900000D01*
X56729047Y-151947619D01*
X56776666Y-152042857D01*
X56776666Y-152138095D01*
X56729047Y-152280952D01*
X56157619Y-152852380D01*
X56776666Y-152852380D01*
X53062380Y-125547380D02*
X52729047Y-125071190D01*
X52490952Y-125547380D02*
X52490952Y-124547380D01*
X52871904Y-124547380D01*
X52967142Y-124595000D01*
X53014761Y-124642619D01*
X53062380Y-124737857D01*
X53062380Y-124880714D01*
X53014761Y-124975952D01*
X52967142Y-125023571D01*
X52871904Y-125071190D01*
X52490952Y-125071190D01*
X53348095Y-124547380D02*
X53681428Y-125547380D01*
X54014761Y-124547380D01*
X54776666Y-124880714D02*
X54776666Y-125547380D01*
X54538571Y-124499761D02*
X54300476Y-125214047D01*
X54919523Y-125214047D01*
X55490952Y-124547380D02*
X55586190Y-124547380D01*
X55681428Y-124595000D01*
X55729047Y-124642619D01*
X55776666Y-124737857D01*
X55824285Y-124928333D01*
X55824285Y-125166428D01*
X55776666Y-125356904D01*
X55729047Y-125452142D01*
X55681428Y-125499761D01*
X55586190Y-125547380D01*
X55490952Y-125547380D01*
X55395714Y-125499761D01*
X55348095Y-125452142D01*
X55300476Y-125356904D01*
X55252857Y-125166428D01*
X55252857Y-124928333D01*
X55300476Y-124737857D01*
X55348095Y-124642619D01*
X55395714Y-124595000D01*
X55490952Y-124547380D01*
X56776666Y-125547380D02*
X56205238Y-125547380D01*
X56490952Y-125547380D02*
X56490952Y-124547380D01*
X56395714Y-124690238D01*
X56300476Y-124785476D01*
X56205238Y-124833095D01*
X127992380Y-70302380D02*
X127659047Y-69826190D01*
X127420952Y-70302380D02*
X127420952Y-69302380D01*
X127801904Y-69302380D01*
X127897142Y-69350000D01*
X127944761Y-69397619D01*
X127992380Y-69492857D01*
X127992380Y-69635714D01*
X127944761Y-69730952D01*
X127897142Y-69778571D01*
X127801904Y-69826190D01*
X127420952Y-69826190D01*
X128278095Y-69302380D02*
X128611428Y-70302380D01*
X128944761Y-69302380D01*
X129230476Y-69397619D02*
X129278095Y-69350000D01*
X129373333Y-69302380D01*
X129611428Y-69302380D01*
X129706666Y-69350000D01*
X129754285Y-69397619D01*
X129801904Y-69492857D01*
X129801904Y-69588095D01*
X129754285Y-69730952D01*
X129182857Y-70302380D01*
X129801904Y-70302380D01*
X130420952Y-69302380D02*
X130516190Y-69302380D01*
X130611428Y-69350000D01*
X130659047Y-69397619D01*
X130706666Y-69492857D01*
X130754285Y-69683333D01*
X130754285Y-69921428D01*
X130706666Y-70111904D01*
X130659047Y-70207142D01*
X130611428Y-70254761D01*
X130516190Y-70302380D01*
X130420952Y-70302380D01*
X130325714Y-70254761D01*
X130278095Y-70207142D01*
X130230476Y-70111904D01*
X130182857Y-69921428D01*
X130182857Y-69683333D01*
X130230476Y-69492857D01*
X130278095Y-69397619D01*
X130325714Y-69350000D01*
X130420952Y-69302380D01*
X131611428Y-69635714D02*
X131611428Y-70302380D01*
X131373333Y-69254761D02*
X131135238Y-69969047D01*
X131754285Y-69969047D01*
X127992380Y-52522380D02*
X127659047Y-52046190D01*
X127420952Y-52522380D02*
X127420952Y-51522380D01*
X127801904Y-51522380D01*
X127897142Y-51570000D01*
X127944761Y-51617619D01*
X127992380Y-51712857D01*
X127992380Y-51855714D01*
X127944761Y-51950952D01*
X127897142Y-51998571D01*
X127801904Y-52046190D01*
X127420952Y-52046190D01*
X128278095Y-51522380D02*
X128611428Y-52522380D01*
X128944761Y-51522380D01*
X129230476Y-51617619D02*
X129278095Y-51570000D01*
X129373333Y-51522380D01*
X129611428Y-51522380D01*
X129706666Y-51570000D01*
X129754285Y-51617619D01*
X129801904Y-51712857D01*
X129801904Y-51808095D01*
X129754285Y-51950952D01*
X129182857Y-52522380D01*
X129801904Y-52522380D01*
X130420952Y-51522380D02*
X130516190Y-51522380D01*
X130611428Y-51570000D01*
X130659047Y-51617619D01*
X130706666Y-51712857D01*
X130754285Y-51903333D01*
X130754285Y-52141428D01*
X130706666Y-52331904D01*
X130659047Y-52427142D01*
X130611428Y-52474761D01*
X130516190Y-52522380D01*
X130420952Y-52522380D01*
X130325714Y-52474761D01*
X130278095Y-52427142D01*
X130230476Y-52331904D01*
X130182857Y-52141428D01*
X130182857Y-51903333D01*
X130230476Y-51712857D01*
X130278095Y-51617619D01*
X130325714Y-51570000D01*
X130420952Y-51522380D01*
X131087619Y-51522380D02*
X131706666Y-51522380D01*
X131373333Y-51903333D01*
X131516190Y-51903333D01*
X131611428Y-51950952D01*
X131659047Y-51998571D01*
X131706666Y-52093809D01*
X131706666Y-52331904D01*
X131659047Y-52427142D01*
X131611428Y-52474761D01*
X131516190Y-52522380D01*
X131230476Y-52522380D01*
X131135238Y-52474761D01*
X131087619Y-52427142D01*
X53062380Y-70302380D02*
X52729047Y-69826190D01*
X52490952Y-70302380D02*
X52490952Y-69302380D01*
X52871904Y-69302380D01*
X52967142Y-69350000D01*
X53014761Y-69397619D01*
X53062380Y-69492857D01*
X53062380Y-69635714D01*
X53014761Y-69730952D01*
X52967142Y-69778571D01*
X52871904Y-69826190D01*
X52490952Y-69826190D01*
X53348095Y-69302380D02*
X53681428Y-70302380D01*
X54014761Y-69302380D01*
X54300476Y-69397619D02*
X54348095Y-69350000D01*
X54443333Y-69302380D01*
X54681428Y-69302380D01*
X54776666Y-69350000D01*
X54824285Y-69397619D01*
X54871904Y-69492857D01*
X54871904Y-69588095D01*
X54824285Y-69730952D01*
X54252857Y-70302380D01*
X54871904Y-70302380D01*
X55490952Y-69302380D02*
X55586190Y-69302380D01*
X55681428Y-69350000D01*
X55729047Y-69397619D01*
X55776666Y-69492857D01*
X55824285Y-69683333D01*
X55824285Y-69921428D01*
X55776666Y-70111904D01*
X55729047Y-70207142D01*
X55681428Y-70254761D01*
X55586190Y-70302380D01*
X55490952Y-70302380D01*
X55395714Y-70254761D01*
X55348095Y-70207142D01*
X55300476Y-70111904D01*
X55252857Y-69921428D01*
X55252857Y-69683333D01*
X55300476Y-69492857D01*
X55348095Y-69397619D01*
X55395714Y-69350000D01*
X55490952Y-69302380D01*
X56205238Y-69397619D02*
X56252857Y-69350000D01*
X56348095Y-69302380D01*
X56586190Y-69302380D01*
X56681428Y-69350000D01*
X56729047Y-69397619D01*
X56776666Y-69492857D01*
X56776666Y-69588095D01*
X56729047Y-69730952D01*
X56157619Y-70302380D01*
X56776666Y-70302380D01*
X53062380Y-52522380D02*
X52729047Y-52046190D01*
X52490952Y-52522380D02*
X52490952Y-51522380D01*
X52871904Y-51522380D01*
X52967142Y-51570000D01*
X53014761Y-51617619D01*
X53062380Y-51712857D01*
X53062380Y-51855714D01*
X53014761Y-51950952D01*
X52967142Y-51998571D01*
X52871904Y-52046190D01*
X52490952Y-52046190D01*
X53348095Y-51522380D02*
X53681428Y-52522380D01*
X54014761Y-51522380D01*
X54300476Y-51617619D02*
X54348095Y-51570000D01*
X54443333Y-51522380D01*
X54681428Y-51522380D01*
X54776666Y-51570000D01*
X54824285Y-51617619D01*
X54871904Y-51712857D01*
X54871904Y-51808095D01*
X54824285Y-51950952D01*
X54252857Y-52522380D01*
X54871904Y-52522380D01*
X55490952Y-51522380D02*
X55586190Y-51522380D01*
X55681428Y-51570000D01*
X55729047Y-51617619D01*
X55776666Y-51712857D01*
X55824285Y-51903333D01*
X55824285Y-52141428D01*
X55776666Y-52331904D01*
X55729047Y-52427142D01*
X55681428Y-52474761D01*
X55586190Y-52522380D01*
X55490952Y-52522380D01*
X55395714Y-52474761D01*
X55348095Y-52427142D01*
X55300476Y-52331904D01*
X55252857Y-52141428D01*
X55252857Y-51903333D01*
X55300476Y-51712857D01*
X55348095Y-51617619D01*
X55395714Y-51570000D01*
X55490952Y-51522380D01*
X56776666Y-52522380D02*
X56205238Y-52522380D01*
X56490952Y-52522380D02*
X56490952Y-51522380D01*
X56395714Y-51665238D01*
X56300476Y-51760476D01*
X56205238Y-51808095D01*
X127992380Y-125547380D02*
X127659047Y-125071190D01*
X127420952Y-125547380D02*
X127420952Y-124547380D01*
X127801904Y-124547380D01*
X127897142Y-124595000D01*
X127944761Y-124642619D01*
X127992380Y-124737857D01*
X127992380Y-124880714D01*
X127944761Y-124975952D01*
X127897142Y-125023571D01*
X127801904Y-125071190D01*
X127420952Y-125071190D01*
X128278095Y-124547380D02*
X128611428Y-125547380D01*
X128944761Y-124547380D01*
X129801904Y-125547380D02*
X129230476Y-125547380D01*
X129516190Y-125547380D02*
X129516190Y-124547380D01*
X129420952Y-124690238D01*
X129325714Y-124785476D01*
X129230476Y-124833095D01*
X130420952Y-124547380D02*
X130516190Y-124547380D01*
X130611428Y-124595000D01*
X130659047Y-124642619D01*
X130706666Y-124737857D01*
X130754285Y-124928333D01*
X130754285Y-125166428D01*
X130706666Y-125356904D01*
X130659047Y-125452142D01*
X130611428Y-125499761D01*
X130516190Y-125547380D01*
X130420952Y-125547380D01*
X130325714Y-125499761D01*
X130278095Y-125452142D01*
X130230476Y-125356904D01*
X130182857Y-125166428D01*
X130182857Y-124928333D01*
X130230476Y-124737857D01*
X130278095Y-124642619D01*
X130325714Y-124595000D01*
X130420952Y-124547380D01*
X131706666Y-125547380D02*
X131135238Y-125547380D01*
X131420952Y-125547380D02*
X131420952Y-124547380D01*
X131325714Y-124690238D01*
X131230476Y-124785476D01*
X131135238Y-124833095D01*
X98187142Y-123674047D02*
X98234761Y-123721666D01*
X98282380Y-123864523D01*
X98282380Y-123959761D01*
X98234761Y-124102619D01*
X98139523Y-124197857D01*
X98044285Y-124245476D01*
X97853809Y-124293095D01*
X97710952Y-124293095D01*
X97520476Y-124245476D01*
X97425238Y-124197857D01*
X97330000Y-124102619D01*
X97282380Y-123959761D01*
X97282380Y-123864523D01*
X97330000Y-123721666D01*
X97377619Y-123674047D01*
X97615714Y-122816904D02*
X98282380Y-122816904D01*
X97234761Y-123055000D02*
X97949047Y-123293095D01*
X97949047Y-122674047D01*
X97282380Y-122102619D02*
X97282380Y-122007380D01*
X97330000Y-121912142D01*
X97377619Y-121864523D01*
X97472857Y-121816904D01*
X97663333Y-121769285D01*
X97901428Y-121769285D01*
X98091904Y-121816904D01*
X98187142Y-121864523D01*
X98234761Y-121912142D01*
X98282380Y-122007380D01*
X98282380Y-122102619D01*
X98234761Y-122197857D01*
X98187142Y-122245476D01*
X98091904Y-122293095D01*
X97901428Y-122340714D01*
X97663333Y-122340714D01*
X97472857Y-122293095D01*
X97377619Y-122245476D01*
X97330000Y-122197857D01*
X97282380Y-122102619D01*
X98282380Y-120816904D02*
X98282380Y-121388333D01*
X98282380Y-121102619D02*
X97282380Y-121102619D01*
X97425238Y-121197857D01*
X97520476Y-121293095D01*
X97568095Y-121388333D01*
X95607142Y-65294047D02*
X95654761Y-65341666D01*
X95702380Y-65484523D01*
X95702380Y-65579761D01*
X95654761Y-65722619D01*
X95559523Y-65817857D01*
X95464285Y-65865476D01*
X95273809Y-65913095D01*
X95130952Y-65913095D01*
X94940476Y-65865476D01*
X94845238Y-65817857D01*
X94750000Y-65722619D01*
X94702380Y-65579761D01*
X94702380Y-65484523D01*
X94750000Y-65341666D01*
X94797619Y-65294047D01*
X94797619Y-64913095D02*
X94750000Y-64865476D01*
X94702380Y-64770238D01*
X94702380Y-64532142D01*
X94750000Y-64436904D01*
X94797619Y-64389285D01*
X94892857Y-64341666D01*
X94988095Y-64341666D01*
X95130952Y-64389285D01*
X95702380Y-64960714D01*
X95702380Y-64341666D01*
X94702380Y-63722619D02*
X94702380Y-63627380D01*
X94750000Y-63532142D01*
X94797619Y-63484523D01*
X94892857Y-63436904D01*
X95083333Y-63389285D01*
X95321428Y-63389285D01*
X95511904Y-63436904D01*
X95607142Y-63484523D01*
X95654761Y-63532142D01*
X95702380Y-63627380D01*
X95702380Y-63722619D01*
X95654761Y-63817857D01*
X95607142Y-63865476D01*
X95511904Y-63913095D01*
X95321428Y-63960714D01*
X95083333Y-63960714D01*
X94892857Y-63913095D01*
X94797619Y-63865476D01*
X94750000Y-63817857D01*
X94702380Y-63722619D01*
X94702380Y-62532142D02*
X94702380Y-62722619D01*
X94750000Y-62817857D01*
X94797619Y-62865476D01*
X94940476Y-62960714D01*
X95130952Y-63008333D01*
X95511904Y-63008333D01*
X95607142Y-62960714D01*
X95654761Y-62913095D01*
X95702380Y-62817857D01*
X95702380Y-62627380D01*
X95654761Y-62532142D01*
X95607142Y-62484523D01*
X95511904Y-62436904D01*
X95273809Y-62436904D01*
X95178571Y-62484523D01*
X95130952Y-62532142D01*
X95083333Y-62627380D01*
X95083333Y-62817857D01*
X95130952Y-62913095D01*
X95178571Y-62960714D01*
X95273809Y-63008333D01*
X109330952Y-87352142D02*
X109283333Y-87399761D01*
X109140476Y-87447380D01*
X109045238Y-87447380D01*
X108902380Y-87399761D01*
X108807142Y-87304523D01*
X108759523Y-87209285D01*
X108711904Y-87018809D01*
X108711904Y-86875952D01*
X108759523Y-86685476D01*
X108807142Y-86590238D01*
X108902380Y-86495000D01*
X109045238Y-86447380D01*
X109140476Y-86447380D01*
X109283333Y-86495000D01*
X109330952Y-86542619D01*
X109711904Y-86542619D02*
X109759523Y-86495000D01*
X109854761Y-86447380D01*
X110092857Y-86447380D01*
X110188095Y-86495000D01*
X110235714Y-86542619D01*
X110283333Y-86637857D01*
X110283333Y-86733095D01*
X110235714Y-86875952D01*
X109664285Y-87447380D01*
X110283333Y-87447380D01*
X110902380Y-86447380D02*
X110997619Y-86447380D01*
X111092857Y-86495000D01*
X111140476Y-86542619D01*
X111188095Y-86637857D01*
X111235714Y-86828333D01*
X111235714Y-87066428D01*
X111188095Y-87256904D01*
X111140476Y-87352142D01*
X111092857Y-87399761D01*
X110997619Y-87447380D01*
X110902380Y-87447380D01*
X110807142Y-87399761D01*
X110759523Y-87352142D01*
X110711904Y-87256904D01*
X110664285Y-87066428D01*
X110664285Y-86828333D01*
X110711904Y-86637857D01*
X110759523Y-86542619D01*
X110807142Y-86495000D01*
X110902380Y-86447380D01*
X112140476Y-86447380D02*
X111664285Y-86447380D01*
X111616666Y-86923571D01*
X111664285Y-86875952D01*
X111759523Y-86828333D01*
X111997619Y-86828333D01*
X112092857Y-86875952D01*
X112140476Y-86923571D01*
X112188095Y-87018809D01*
X112188095Y-87256904D01*
X112140476Y-87352142D01*
X112092857Y-87399761D01*
X111997619Y-87447380D01*
X111759523Y-87447380D01*
X111664285Y-87399761D01*
X111616666Y-87352142D01*
X90527142Y-65254047D02*
X90574761Y-65301666D01*
X90622380Y-65444523D01*
X90622380Y-65539761D01*
X90574761Y-65682619D01*
X90479523Y-65777857D01*
X90384285Y-65825476D01*
X90193809Y-65873095D01*
X90050952Y-65873095D01*
X89860476Y-65825476D01*
X89765238Y-65777857D01*
X89670000Y-65682619D01*
X89622380Y-65539761D01*
X89622380Y-65444523D01*
X89670000Y-65301666D01*
X89717619Y-65254047D01*
X89717619Y-64873095D02*
X89670000Y-64825476D01*
X89622380Y-64730238D01*
X89622380Y-64492142D01*
X89670000Y-64396904D01*
X89717619Y-64349285D01*
X89812857Y-64301666D01*
X89908095Y-64301666D01*
X90050952Y-64349285D01*
X90622380Y-64920714D01*
X90622380Y-64301666D01*
X89622380Y-63682619D02*
X89622380Y-63587380D01*
X89670000Y-63492142D01*
X89717619Y-63444523D01*
X89812857Y-63396904D01*
X90003333Y-63349285D01*
X90241428Y-63349285D01*
X90431904Y-63396904D01*
X90527142Y-63444523D01*
X90574761Y-63492142D01*
X90622380Y-63587380D01*
X90622380Y-63682619D01*
X90574761Y-63777857D01*
X90527142Y-63825476D01*
X90431904Y-63873095D01*
X90241428Y-63920714D01*
X90003333Y-63920714D01*
X89812857Y-63873095D01*
X89717619Y-63825476D01*
X89670000Y-63777857D01*
X89622380Y-63682619D01*
X89717619Y-62968333D02*
X89670000Y-62920714D01*
X89622380Y-62825476D01*
X89622380Y-62587380D01*
X89670000Y-62492142D01*
X89717619Y-62444523D01*
X89812857Y-62396904D01*
X89908095Y-62396904D01*
X90050952Y-62444523D01*
X90622380Y-63015952D01*
X90622380Y-62396904D01*
X73850952Y-87352142D02*
X73803333Y-87399761D01*
X73660476Y-87447380D01*
X73565238Y-87447380D01*
X73422380Y-87399761D01*
X73327142Y-87304523D01*
X73279523Y-87209285D01*
X73231904Y-87018809D01*
X73231904Y-86875952D01*
X73279523Y-86685476D01*
X73327142Y-86590238D01*
X73422380Y-86495000D01*
X73565238Y-86447380D01*
X73660476Y-86447380D01*
X73803333Y-86495000D01*
X73850952Y-86542619D01*
X74231904Y-86542619D02*
X74279523Y-86495000D01*
X74374761Y-86447380D01*
X74612857Y-86447380D01*
X74708095Y-86495000D01*
X74755714Y-86542619D01*
X74803333Y-86637857D01*
X74803333Y-86733095D01*
X74755714Y-86875952D01*
X74184285Y-87447380D01*
X74803333Y-87447380D01*
X75422380Y-86447380D02*
X75517619Y-86447380D01*
X75612857Y-86495000D01*
X75660476Y-86542619D01*
X75708095Y-86637857D01*
X75755714Y-86828333D01*
X75755714Y-87066428D01*
X75708095Y-87256904D01*
X75660476Y-87352142D01*
X75612857Y-87399761D01*
X75517619Y-87447380D01*
X75422380Y-87447380D01*
X75327142Y-87399761D01*
X75279523Y-87352142D01*
X75231904Y-87256904D01*
X75184285Y-87066428D01*
X75184285Y-86828333D01*
X75231904Y-86637857D01*
X75279523Y-86542619D01*
X75327142Y-86495000D01*
X75422380Y-86447380D01*
X76708095Y-87447380D02*
X76136666Y-87447380D01*
X76422380Y-87447380D02*
X76422380Y-86447380D01*
X76327142Y-86590238D01*
X76231904Y-86685476D01*
X76136666Y-86733095D01*
X119737142Y-126214047D02*
X119784761Y-126261666D01*
X119832380Y-126404523D01*
X119832380Y-126499761D01*
X119784761Y-126642619D01*
X119689523Y-126737857D01*
X119594285Y-126785476D01*
X119403809Y-126833095D01*
X119260952Y-126833095D01*
X119070476Y-126785476D01*
X118975238Y-126737857D01*
X118880000Y-126642619D01*
X118832380Y-126499761D01*
X118832380Y-126404523D01*
X118880000Y-126261666D01*
X118927619Y-126214047D01*
X119832380Y-125261666D02*
X119832380Y-125833095D01*
X119832380Y-125547380D02*
X118832380Y-125547380D01*
X118975238Y-125642619D01*
X119070476Y-125737857D01*
X119118095Y-125833095D01*
X118832380Y-124642619D02*
X118832380Y-124547380D01*
X118880000Y-124452142D01*
X118927619Y-124404523D01*
X119022857Y-124356904D01*
X119213333Y-124309285D01*
X119451428Y-124309285D01*
X119641904Y-124356904D01*
X119737142Y-124404523D01*
X119784761Y-124452142D01*
X119832380Y-124547380D01*
X119832380Y-124642619D01*
X119784761Y-124737857D01*
X119737142Y-124785476D01*
X119641904Y-124833095D01*
X119451428Y-124880714D01*
X119213333Y-124880714D01*
X119022857Y-124833095D01*
X118927619Y-124785476D01*
X118880000Y-124737857D01*
X118832380Y-124642619D01*
X118927619Y-123928333D02*
X118880000Y-123880714D01*
X118832380Y-123785476D01*
X118832380Y-123547380D01*
X118880000Y-123452142D01*
X118927619Y-123404523D01*
X119022857Y-123356904D01*
X119118095Y-123356904D01*
X119260952Y-123404523D01*
X119832380Y-123975952D01*
X119832380Y-123356904D01*
X110755952Y-149642142D02*
X110708333Y-149689761D01*
X110565476Y-149737380D01*
X110470238Y-149737380D01*
X110327380Y-149689761D01*
X110232142Y-149594523D01*
X110184523Y-149499285D01*
X110136904Y-149308809D01*
X110136904Y-149165952D01*
X110184523Y-148975476D01*
X110232142Y-148880238D01*
X110327380Y-148785000D01*
X110470238Y-148737380D01*
X110565476Y-148737380D01*
X110708333Y-148785000D01*
X110755952Y-148832619D01*
X111184523Y-149737380D02*
X111184523Y-148737380D01*
X111565476Y-148737380D01*
X111660714Y-148785000D01*
X111708333Y-148832619D01*
X111755952Y-148927857D01*
X111755952Y-149070714D01*
X111708333Y-149165952D01*
X111660714Y-149213571D01*
X111565476Y-149261190D01*
X111184523Y-149261190D01*
X112708333Y-149737380D02*
X112136904Y-149737380D01*
X112422619Y-149737380D02*
X112422619Y-148737380D01*
X112327380Y-148880238D01*
X112232142Y-148975476D01*
X112136904Y-149023095D01*
X113327380Y-148737380D02*
X113422619Y-148737380D01*
X113517857Y-148785000D01*
X113565476Y-148832619D01*
X113613095Y-148927857D01*
X113660714Y-149118333D01*
X113660714Y-149356428D01*
X113613095Y-149546904D01*
X113565476Y-149642142D01*
X113517857Y-149689761D01*
X113422619Y-149737380D01*
X113327380Y-149737380D01*
X113232142Y-149689761D01*
X113184523Y-149642142D01*
X113136904Y-149546904D01*
X113089285Y-149356428D01*
X113089285Y-149118333D01*
X113136904Y-148927857D01*
X113184523Y-148832619D01*
X113232142Y-148785000D01*
X113327380Y-148737380D01*
X114613095Y-149737380D02*
X114041666Y-149737380D01*
X114327380Y-149737380D02*
X114327380Y-148737380D01*
X114232142Y-148880238D01*
X114136904Y-148975476D01*
X114041666Y-149023095D01*
X126364761Y-154685714D02*
X126412380Y-154542857D01*
X126412380Y-154304761D01*
X126364761Y-154209523D01*
X126317142Y-154161904D01*
X126221904Y-154114285D01*
X126126666Y-154114285D01*
X126031428Y-154161904D01*
X125983809Y-154209523D01*
X125936190Y-154304761D01*
X125888571Y-154495238D01*
X125840952Y-154590476D01*
X125793333Y-154638095D01*
X125698095Y-154685714D01*
X125602857Y-154685714D01*
X125507619Y-154638095D01*
X125460000Y-154590476D01*
X125412380Y-154495238D01*
X125412380Y-154257142D01*
X125460000Y-154114285D01*
X125412380Y-153780952D02*
X126412380Y-153542857D01*
X125698095Y-153352380D01*
X126412380Y-153161904D01*
X125412380Y-152923809D01*
X126412380Y-152019047D02*
X126412380Y-152590476D01*
X126412380Y-152304761D02*
X125412380Y-152304761D01*
X125555238Y-152400000D01*
X125650476Y-152495238D01*
X125698095Y-152590476D01*
X125412380Y-151400000D02*
X125412380Y-151304761D01*
X125460000Y-151209523D01*
X125507619Y-151161904D01*
X125602857Y-151114285D01*
X125793333Y-151066666D01*
X126031428Y-151066666D01*
X126221904Y-151114285D01*
X126317142Y-151161904D01*
X126364761Y-151209523D01*
X126412380Y-151304761D01*
X126412380Y-151400000D01*
X126364761Y-151495238D01*
X126317142Y-151542857D01*
X126221904Y-151590476D01*
X126031428Y-151638095D01*
X125793333Y-151638095D01*
X125602857Y-151590476D01*
X125507619Y-151542857D01*
X125460000Y-151495238D01*
X125412380Y-151400000D01*
X126412380Y-150114285D02*
X126412380Y-150685714D01*
X126412380Y-150400000D02*
X125412380Y-150400000D01*
X125555238Y-150495238D01*
X125650476Y-150590476D01*
X125698095Y-150685714D01*
X103020952Y-159837380D02*
X102687619Y-159361190D01*
X102449523Y-159837380D02*
X102449523Y-158837380D01*
X102830476Y-158837380D01*
X102925714Y-158885000D01*
X102973333Y-158932619D01*
X103020952Y-159027857D01*
X103020952Y-159170714D01*
X102973333Y-159265952D01*
X102925714Y-159313571D01*
X102830476Y-159361190D01*
X102449523Y-159361190D01*
X103973333Y-159837380D02*
X103401904Y-159837380D01*
X103687619Y-159837380D02*
X103687619Y-158837380D01*
X103592380Y-158980238D01*
X103497142Y-159075476D01*
X103401904Y-159123095D01*
X104592380Y-158837380D02*
X104687619Y-158837380D01*
X104782857Y-158885000D01*
X104830476Y-158932619D01*
X104878095Y-159027857D01*
X104925714Y-159218333D01*
X104925714Y-159456428D01*
X104878095Y-159646904D01*
X104830476Y-159742142D01*
X104782857Y-159789761D01*
X104687619Y-159837380D01*
X104592380Y-159837380D01*
X104497142Y-159789761D01*
X104449523Y-159742142D01*
X104401904Y-159646904D01*
X104354285Y-159456428D01*
X104354285Y-159218333D01*
X104401904Y-159027857D01*
X104449523Y-158932619D01*
X104497142Y-158885000D01*
X104592380Y-158837380D01*
X105878095Y-159837380D02*
X105306666Y-159837380D01*
X105592380Y-159837380D02*
X105592380Y-158837380D01*
X105497142Y-158980238D01*
X105401904Y-159075476D01*
X105306666Y-159123095D01*
X134175714Y-182062380D02*
X134175714Y-181062380D01*
X134175714Y-181538571D02*
X134747142Y-181538571D01*
X134747142Y-182062380D02*
X134747142Y-181062380D01*
X135747142Y-182062380D02*
X135175714Y-182062380D01*
X135461428Y-182062380D02*
X135461428Y-181062380D01*
X135366190Y-181205238D01*
X135270952Y-181300476D01*
X135175714Y-181348095D01*
X136366190Y-181062380D02*
X136461428Y-181062380D01*
X136556666Y-181110000D01*
X136604285Y-181157619D01*
X136651904Y-181252857D01*
X136699523Y-181443333D01*
X136699523Y-181681428D01*
X136651904Y-181871904D01*
X136604285Y-181967142D01*
X136556666Y-182014761D01*
X136461428Y-182062380D01*
X136366190Y-182062380D01*
X136270952Y-182014761D01*
X136223333Y-181967142D01*
X136175714Y-181871904D01*
X136128095Y-181681428D01*
X136128095Y-181443333D01*
X136175714Y-181252857D01*
X136223333Y-181157619D01*
X136270952Y-181110000D01*
X136366190Y-181062380D01*
X137556666Y-181395714D02*
X137556666Y-182062380D01*
X137318571Y-181014761D02*
X137080476Y-181729047D01*
X137699523Y-181729047D01*
X134175714Y-34742380D02*
X134175714Y-33742380D01*
X134175714Y-34218571D02*
X134747142Y-34218571D01*
X134747142Y-34742380D02*
X134747142Y-33742380D01*
X135747142Y-34742380D02*
X135175714Y-34742380D01*
X135461428Y-34742380D02*
X135461428Y-33742380D01*
X135366190Y-33885238D01*
X135270952Y-33980476D01*
X135175714Y-34028095D01*
X136366190Y-33742380D02*
X136461428Y-33742380D01*
X136556666Y-33790000D01*
X136604285Y-33837619D01*
X136651904Y-33932857D01*
X136699523Y-34123333D01*
X136699523Y-34361428D01*
X136651904Y-34551904D01*
X136604285Y-34647142D01*
X136556666Y-34694761D01*
X136461428Y-34742380D01*
X136366190Y-34742380D01*
X136270952Y-34694761D01*
X136223333Y-34647142D01*
X136175714Y-34551904D01*
X136128095Y-34361428D01*
X136128095Y-34123333D01*
X136175714Y-33932857D01*
X136223333Y-33837619D01*
X136270952Y-33790000D01*
X136366190Y-33742380D01*
X137032857Y-33742380D02*
X137651904Y-33742380D01*
X137318571Y-34123333D01*
X137461428Y-34123333D01*
X137556666Y-34170952D01*
X137604285Y-34218571D01*
X137651904Y-34313809D01*
X137651904Y-34551904D01*
X137604285Y-34647142D01*
X137556666Y-34694761D01*
X137461428Y-34742380D01*
X137175714Y-34742380D01*
X137080476Y-34694761D01*
X137032857Y-34647142D01*
X46545714Y-182062380D02*
X46545714Y-181062380D01*
X46545714Y-181538571D02*
X47117142Y-181538571D01*
X47117142Y-182062380D02*
X47117142Y-181062380D01*
X48117142Y-182062380D02*
X47545714Y-182062380D01*
X47831428Y-182062380D02*
X47831428Y-181062380D01*
X47736190Y-181205238D01*
X47640952Y-181300476D01*
X47545714Y-181348095D01*
X48736190Y-181062380D02*
X48831428Y-181062380D01*
X48926666Y-181110000D01*
X48974285Y-181157619D01*
X49021904Y-181252857D01*
X49069523Y-181443333D01*
X49069523Y-181681428D01*
X49021904Y-181871904D01*
X48974285Y-181967142D01*
X48926666Y-182014761D01*
X48831428Y-182062380D01*
X48736190Y-182062380D01*
X48640952Y-182014761D01*
X48593333Y-181967142D01*
X48545714Y-181871904D01*
X48498095Y-181681428D01*
X48498095Y-181443333D01*
X48545714Y-181252857D01*
X48593333Y-181157619D01*
X48640952Y-181110000D01*
X48736190Y-181062380D01*
X49450476Y-181157619D02*
X49498095Y-181110000D01*
X49593333Y-181062380D01*
X49831428Y-181062380D01*
X49926666Y-181110000D01*
X49974285Y-181157619D01*
X50021904Y-181252857D01*
X50021904Y-181348095D01*
X49974285Y-181490952D01*
X49402857Y-182062380D01*
X50021904Y-182062380D01*
X46545714Y-34742380D02*
X46545714Y-33742380D01*
X46545714Y-34218571D02*
X47117142Y-34218571D01*
X47117142Y-34742380D02*
X47117142Y-33742380D01*
X48117142Y-34742380D02*
X47545714Y-34742380D01*
X47831428Y-34742380D02*
X47831428Y-33742380D01*
X47736190Y-33885238D01*
X47640952Y-33980476D01*
X47545714Y-34028095D01*
X48736190Y-33742380D02*
X48831428Y-33742380D01*
X48926666Y-33790000D01*
X48974285Y-33837619D01*
X49021904Y-33932857D01*
X49069523Y-34123333D01*
X49069523Y-34361428D01*
X49021904Y-34551904D01*
X48974285Y-34647142D01*
X48926666Y-34694761D01*
X48831428Y-34742380D01*
X48736190Y-34742380D01*
X48640952Y-34694761D01*
X48593333Y-34647142D01*
X48545714Y-34551904D01*
X48498095Y-34361428D01*
X48498095Y-34123333D01*
X48545714Y-33932857D01*
X48593333Y-33837619D01*
X48640952Y-33790000D01*
X48736190Y-33742380D01*
X50021904Y-34742380D02*
X49450476Y-34742380D01*
X49736190Y-34742380D02*
X49736190Y-33742380D01*
X49640952Y-33885238D01*
X49545714Y-33980476D01*
X49450476Y-34028095D01*
X132864761Y-88010714D02*
X132912380Y-87867857D01*
X132912380Y-87629761D01*
X132864761Y-87534523D01*
X132817142Y-87486904D01*
X132721904Y-87439285D01*
X132626666Y-87439285D01*
X132531428Y-87486904D01*
X132483809Y-87534523D01*
X132436190Y-87629761D01*
X132388571Y-87820238D01*
X132340952Y-87915476D01*
X132293333Y-87963095D01*
X132198095Y-88010714D01*
X132102857Y-88010714D01*
X132007619Y-87963095D01*
X131960000Y-87915476D01*
X131912380Y-87820238D01*
X131912380Y-87582142D01*
X131960000Y-87439285D01*
X131912380Y-87105952D02*
X132912380Y-86867857D01*
X132198095Y-86677380D01*
X132912380Y-86486904D01*
X131912380Y-86248809D01*
X132007619Y-85915476D02*
X131960000Y-85867857D01*
X131912380Y-85772619D01*
X131912380Y-85534523D01*
X131960000Y-85439285D01*
X132007619Y-85391666D01*
X132102857Y-85344047D01*
X132198095Y-85344047D01*
X132340952Y-85391666D01*
X132912380Y-85963095D01*
X132912380Y-85344047D01*
X131912380Y-84725000D02*
X131912380Y-84629761D01*
X131960000Y-84534523D01*
X132007619Y-84486904D01*
X132102857Y-84439285D01*
X132293333Y-84391666D01*
X132531428Y-84391666D01*
X132721904Y-84439285D01*
X132817142Y-84486904D01*
X132864761Y-84534523D01*
X132912380Y-84629761D01*
X132912380Y-84725000D01*
X132864761Y-84820238D01*
X132817142Y-84867857D01*
X132721904Y-84915476D01*
X132531428Y-84963095D01*
X132293333Y-84963095D01*
X132102857Y-84915476D01*
X132007619Y-84867857D01*
X131960000Y-84820238D01*
X131912380Y-84725000D01*
X132007619Y-84010714D02*
X131960000Y-83963095D01*
X131912380Y-83867857D01*
X131912380Y-83629761D01*
X131960000Y-83534523D01*
X132007619Y-83486904D01*
X132102857Y-83439285D01*
X132198095Y-83439285D01*
X132340952Y-83486904D01*
X132912380Y-84058333D01*
X132912380Y-83439285D01*
X58594761Y-88010714D02*
X58642380Y-87867857D01*
X58642380Y-87629761D01*
X58594761Y-87534523D01*
X58547142Y-87486904D01*
X58451904Y-87439285D01*
X58356666Y-87439285D01*
X58261428Y-87486904D01*
X58213809Y-87534523D01*
X58166190Y-87629761D01*
X58118571Y-87820238D01*
X58070952Y-87915476D01*
X58023333Y-87963095D01*
X57928095Y-88010714D01*
X57832857Y-88010714D01*
X57737619Y-87963095D01*
X57690000Y-87915476D01*
X57642380Y-87820238D01*
X57642380Y-87582142D01*
X57690000Y-87439285D01*
X57642380Y-87105952D02*
X58642380Y-86867857D01*
X57928095Y-86677380D01*
X58642380Y-86486904D01*
X57642380Y-86248809D01*
X57737619Y-85915476D02*
X57690000Y-85867857D01*
X57642380Y-85772619D01*
X57642380Y-85534523D01*
X57690000Y-85439285D01*
X57737619Y-85391666D01*
X57832857Y-85344047D01*
X57928095Y-85344047D01*
X58070952Y-85391666D01*
X58642380Y-85963095D01*
X58642380Y-85344047D01*
X57642380Y-84725000D02*
X57642380Y-84629761D01*
X57690000Y-84534523D01*
X57737619Y-84486904D01*
X57832857Y-84439285D01*
X58023333Y-84391666D01*
X58261428Y-84391666D01*
X58451904Y-84439285D01*
X58547142Y-84486904D01*
X58594761Y-84534523D01*
X58642380Y-84629761D01*
X58642380Y-84725000D01*
X58594761Y-84820238D01*
X58547142Y-84867857D01*
X58451904Y-84915476D01*
X58261428Y-84963095D01*
X58023333Y-84963095D01*
X57832857Y-84915476D01*
X57737619Y-84867857D01*
X57690000Y-84820238D01*
X57642380Y-84725000D01*
X58642380Y-83439285D02*
X58642380Y-84010714D01*
X58642380Y-83725000D02*
X57642380Y-83725000D01*
X57785238Y-83820238D01*
X57880476Y-83915476D01*
X57928095Y-84010714D01*
X92265714Y-151217380D02*
X92265714Y-152026904D01*
X92313333Y-152122142D01*
X92360952Y-152169761D01*
X92456190Y-152217380D01*
X92646666Y-152217380D01*
X92741904Y-152169761D01*
X92789523Y-152122142D01*
X92837142Y-152026904D01*
X92837142Y-151217380D01*
X93741904Y-151550714D02*
X93741904Y-152217380D01*
X93503809Y-151169761D02*
X93265714Y-151884047D01*
X93884761Y-151884047D01*
X94456190Y-151217380D02*
X94551428Y-151217380D01*
X94646666Y-151265000D01*
X94694285Y-151312619D01*
X94741904Y-151407857D01*
X94789523Y-151598333D01*
X94789523Y-151836428D01*
X94741904Y-152026904D01*
X94694285Y-152122142D01*
X94646666Y-152169761D01*
X94551428Y-152217380D01*
X94456190Y-152217380D01*
X94360952Y-152169761D01*
X94313333Y-152122142D01*
X94265714Y-152026904D01*
X94218095Y-151836428D01*
X94218095Y-151598333D01*
X94265714Y-151407857D01*
X94313333Y-151312619D01*
X94360952Y-151265000D01*
X94456190Y-151217380D01*
X95170476Y-151312619D02*
X95218095Y-151265000D01*
X95313333Y-151217380D01*
X95551428Y-151217380D01*
X95646666Y-151265000D01*
X95694285Y-151312619D01*
X95741904Y-151407857D01*
X95741904Y-151503095D01*
X95694285Y-151645952D01*
X95122857Y-152217380D01*
X95741904Y-152217380D01*
X92265714Y-129627380D02*
X92265714Y-130436904D01*
X92313333Y-130532142D01*
X92360952Y-130579761D01*
X92456190Y-130627380D01*
X92646666Y-130627380D01*
X92741904Y-130579761D01*
X92789523Y-130532142D01*
X92837142Y-130436904D01*
X92837142Y-129627380D01*
X93741904Y-129960714D02*
X93741904Y-130627380D01*
X93503809Y-129579761D02*
X93265714Y-130294047D01*
X93884761Y-130294047D01*
X94456190Y-129627380D02*
X94551428Y-129627380D01*
X94646666Y-129675000D01*
X94694285Y-129722619D01*
X94741904Y-129817857D01*
X94789523Y-130008333D01*
X94789523Y-130246428D01*
X94741904Y-130436904D01*
X94694285Y-130532142D01*
X94646666Y-130579761D01*
X94551428Y-130627380D01*
X94456190Y-130627380D01*
X94360952Y-130579761D01*
X94313333Y-130532142D01*
X94265714Y-130436904D01*
X94218095Y-130246428D01*
X94218095Y-130008333D01*
X94265714Y-129817857D01*
X94313333Y-129722619D01*
X94360952Y-129675000D01*
X94456190Y-129627380D01*
X95741904Y-130627380D02*
X95170476Y-130627380D01*
X95456190Y-130627380D02*
X95456190Y-129627380D01*
X95360952Y-129770238D01*
X95265714Y-129865476D01*
X95170476Y-129913095D01*
X103592380Y-109029285D02*
X104401904Y-109029285D01*
X104497142Y-108981666D01*
X104544761Y-108934047D01*
X104592380Y-108838809D01*
X104592380Y-108648333D01*
X104544761Y-108553095D01*
X104497142Y-108505476D01*
X104401904Y-108457857D01*
X103592380Y-108457857D01*
X103592380Y-108076904D02*
X103592380Y-107457857D01*
X103973333Y-107791190D01*
X103973333Y-107648333D01*
X104020952Y-107553095D01*
X104068571Y-107505476D01*
X104163809Y-107457857D01*
X104401904Y-107457857D01*
X104497142Y-107505476D01*
X104544761Y-107553095D01*
X104592380Y-107648333D01*
X104592380Y-107934047D01*
X104544761Y-108029285D01*
X104497142Y-108076904D01*
X103592380Y-106838809D02*
X103592380Y-106743571D01*
X103640000Y-106648333D01*
X103687619Y-106600714D01*
X103782857Y-106553095D01*
X103973333Y-106505476D01*
X104211428Y-106505476D01*
X104401904Y-106553095D01*
X104497142Y-106600714D01*
X104544761Y-106648333D01*
X104592380Y-106743571D01*
X104592380Y-106838809D01*
X104544761Y-106934047D01*
X104497142Y-106981666D01*
X104401904Y-107029285D01*
X104211428Y-107076904D01*
X103973333Y-107076904D01*
X103782857Y-107029285D01*
X103687619Y-106981666D01*
X103640000Y-106934047D01*
X103592380Y-106838809D01*
X103687619Y-106124523D02*
X103640000Y-106076904D01*
X103592380Y-105981666D01*
X103592380Y-105743571D01*
X103640000Y-105648333D01*
X103687619Y-105600714D01*
X103782857Y-105553095D01*
X103878095Y-105553095D01*
X104020952Y-105600714D01*
X104592380Y-106172142D01*
X104592380Y-105553095D01*
X83272380Y-109029285D02*
X84081904Y-109029285D01*
X84177142Y-108981666D01*
X84224761Y-108934047D01*
X84272380Y-108838809D01*
X84272380Y-108648333D01*
X84224761Y-108553095D01*
X84177142Y-108505476D01*
X84081904Y-108457857D01*
X83272380Y-108457857D01*
X83272380Y-108076904D02*
X83272380Y-107457857D01*
X83653333Y-107791190D01*
X83653333Y-107648333D01*
X83700952Y-107553095D01*
X83748571Y-107505476D01*
X83843809Y-107457857D01*
X84081904Y-107457857D01*
X84177142Y-107505476D01*
X84224761Y-107553095D01*
X84272380Y-107648333D01*
X84272380Y-107934047D01*
X84224761Y-108029285D01*
X84177142Y-108076904D01*
X83272380Y-106838809D02*
X83272380Y-106743571D01*
X83320000Y-106648333D01*
X83367619Y-106600714D01*
X83462857Y-106553095D01*
X83653333Y-106505476D01*
X83891428Y-106505476D01*
X84081904Y-106553095D01*
X84177142Y-106600714D01*
X84224761Y-106648333D01*
X84272380Y-106743571D01*
X84272380Y-106838809D01*
X84224761Y-106934047D01*
X84177142Y-106981666D01*
X84081904Y-107029285D01*
X83891428Y-107076904D01*
X83653333Y-107076904D01*
X83462857Y-107029285D01*
X83367619Y-106981666D01*
X83320000Y-106934047D01*
X83272380Y-106838809D01*
X84272380Y-105553095D02*
X84272380Y-106124523D01*
X84272380Y-105838809D02*
X83272380Y-105838809D01*
X83415238Y-105934047D01*
X83510476Y-106029285D01*
X83558095Y-106124523D01*
X92162380Y-74739285D02*
X92971904Y-74739285D01*
X93067142Y-74691666D01*
X93114761Y-74644047D01*
X93162380Y-74548809D01*
X93162380Y-74358333D01*
X93114761Y-74263095D01*
X93067142Y-74215476D01*
X92971904Y-74167857D01*
X92162380Y-74167857D01*
X92257619Y-73739285D02*
X92210000Y-73691666D01*
X92162380Y-73596428D01*
X92162380Y-73358333D01*
X92210000Y-73263095D01*
X92257619Y-73215476D01*
X92352857Y-73167857D01*
X92448095Y-73167857D01*
X92590952Y-73215476D01*
X93162380Y-73786904D01*
X93162380Y-73167857D01*
X92162380Y-72548809D02*
X92162380Y-72453571D01*
X92210000Y-72358333D01*
X92257619Y-72310714D01*
X92352857Y-72263095D01*
X92543333Y-72215476D01*
X92781428Y-72215476D01*
X92971904Y-72263095D01*
X93067142Y-72310714D01*
X93114761Y-72358333D01*
X93162380Y-72453571D01*
X93162380Y-72548809D01*
X93114761Y-72644047D01*
X93067142Y-72691666D01*
X92971904Y-72739285D01*
X92781428Y-72786904D01*
X92543333Y-72786904D01*
X92352857Y-72739285D01*
X92257619Y-72691666D01*
X92210000Y-72644047D01*
X92162380Y-72548809D01*
X93162380Y-71263095D02*
X93162380Y-71834523D01*
X93162380Y-71548809D02*
X92162380Y-71548809D01*
X92305238Y-71644047D01*
X92400476Y-71739285D01*
X92448095Y-71834523D01*
X78557380Y-141835000D02*
X78081190Y-142168333D01*
X78557380Y-142406428D02*
X77557380Y-142406428D01*
X77557380Y-142025476D01*
X77605000Y-141930238D01*
X77652619Y-141882619D01*
X77747857Y-141835000D01*
X77890714Y-141835000D01*
X77985952Y-141882619D01*
X78033571Y-141930238D01*
X78081190Y-142025476D01*
X78081190Y-142406428D01*
X77557380Y-141549285D02*
X77557380Y-140977857D01*
X78557380Y-141263571D02*
X77557380Y-141263571D01*
X77890714Y-140215952D02*
X78557380Y-140215952D01*
X77509761Y-140454047D02*
X78224047Y-140692142D01*
X78224047Y-140073095D01*
X77557380Y-139501666D02*
X77557380Y-139406428D01*
X77605000Y-139311190D01*
X77652619Y-139263571D01*
X77747857Y-139215952D01*
X77938333Y-139168333D01*
X78176428Y-139168333D01*
X78366904Y-139215952D01*
X78462142Y-139263571D01*
X78509761Y-139311190D01*
X78557380Y-139406428D01*
X78557380Y-139501666D01*
X78509761Y-139596904D01*
X78462142Y-139644523D01*
X78366904Y-139692142D01*
X78176428Y-139739761D01*
X77938333Y-139739761D01*
X77747857Y-139692142D01*
X77652619Y-139644523D01*
X77605000Y-139596904D01*
X77557380Y-139501666D01*
X77652619Y-138787380D02*
X77605000Y-138739761D01*
X77557380Y-138644523D01*
X77557380Y-138406428D01*
X77605000Y-138311190D01*
X77652619Y-138263571D01*
X77747857Y-138215952D01*
X77843095Y-138215952D01*
X77985952Y-138263571D01*
X78557380Y-138835000D01*
X78557380Y-138215952D01*
X82320000Y-117292380D02*
X81986666Y-116816190D01*
X81748571Y-117292380D02*
X81748571Y-116292380D01*
X82129523Y-116292380D01*
X82224761Y-116340000D01*
X82272380Y-116387619D01*
X82320000Y-116482857D01*
X82320000Y-116625714D01*
X82272380Y-116720952D01*
X82224761Y-116768571D01*
X82129523Y-116816190D01*
X81748571Y-116816190D01*
X82605714Y-116292380D02*
X83177142Y-116292380D01*
X82891428Y-117292380D02*
X82891428Y-116292380D01*
X83939047Y-116625714D02*
X83939047Y-117292380D01*
X83700952Y-116244761D02*
X83462857Y-116959047D01*
X84081904Y-116959047D01*
X84653333Y-116292380D02*
X84748571Y-116292380D01*
X84843809Y-116340000D01*
X84891428Y-116387619D01*
X84939047Y-116482857D01*
X84986666Y-116673333D01*
X84986666Y-116911428D01*
X84939047Y-117101904D01*
X84891428Y-117197142D01*
X84843809Y-117244761D01*
X84748571Y-117292380D01*
X84653333Y-117292380D01*
X84558095Y-117244761D01*
X84510476Y-117197142D01*
X84462857Y-117101904D01*
X84415238Y-116911428D01*
X84415238Y-116673333D01*
X84462857Y-116482857D01*
X84510476Y-116387619D01*
X84558095Y-116340000D01*
X84653333Y-116292380D01*
X85939047Y-117292380D02*
X85367619Y-117292380D01*
X85653333Y-117292380D02*
X85653333Y-116292380D01*
X85558095Y-116435238D01*
X85462857Y-116530476D01*
X85367619Y-116578095D01*
X87400000Y-90622380D02*
X87066666Y-90146190D01*
X86828571Y-90622380D02*
X86828571Y-89622380D01*
X87209523Y-89622380D01*
X87304761Y-89670000D01*
X87352380Y-89717619D01*
X87400000Y-89812857D01*
X87400000Y-89955714D01*
X87352380Y-90050952D01*
X87304761Y-90098571D01*
X87209523Y-90146190D01*
X86828571Y-90146190D01*
X87685714Y-89622380D02*
X88257142Y-89622380D01*
X87971428Y-90622380D02*
X87971428Y-89622380D01*
X88495238Y-89622380D02*
X89114285Y-89622380D01*
X88780952Y-90003333D01*
X88923809Y-90003333D01*
X89019047Y-90050952D01*
X89066666Y-90098571D01*
X89114285Y-90193809D01*
X89114285Y-90431904D01*
X89066666Y-90527142D01*
X89019047Y-90574761D01*
X88923809Y-90622380D01*
X88638095Y-90622380D01*
X88542857Y-90574761D01*
X88495238Y-90527142D01*
X89733333Y-89622380D02*
X89828571Y-89622380D01*
X89923809Y-89670000D01*
X89971428Y-89717619D01*
X90019047Y-89812857D01*
X90066666Y-90003333D01*
X90066666Y-90241428D01*
X90019047Y-90431904D01*
X89971428Y-90527142D01*
X89923809Y-90574761D01*
X89828571Y-90622380D01*
X89733333Y-90622380D01*
X89638095Y-90574761D01*
X89590476Y-90527142D01*
X89542857Y-90431904D01*
X89495238Y-90241428D01*
X89495238Y-90003333D01*
X89542857Y-89812857D01*
X89590476Y-89717619D01*
X89638095Y-89670000D01*
X89733333Y-89622380D01*
X90447619Y-89717619D02*
X90495238Y-89670000D01*
X90590476Y-89622380D01*
X90828571Y-89622380D01*
X90923809Y-89670000D01*
X90971428Y-89717619D01*
X91019047Y-89812857D01*
X91019047Y-89908095D01*
X90971428Y-90050952D01*
X90400000Y-90622380D01*
X91019047Y-90622380D01*
X108990000Y-90622380D02*
X108656666Y-90146190D01*
X108418571Y-90622380D02*
X108418571Y-89622380D01*
X108799523Y-89622380D01*
X108894761Y-89670000D01*
X108942380Y-89717619D01*
X108990000Y-89812857D01*
X108990000Y-89955714D01*
X108942380Y-90050952D01*
X108894761Y-90098571D01*
X108799523Y-90146190D01*
X108418571Y-90146190D01*
X109275714Y-89622380D02*
X109847142Y-89622380D01*
X109561428Y-90622380D02*
X109561428Y-89622380D01*
X110085238Y-89622380D02*
X110704285Y-89622380D01*
X110370952Y-90003333D01*
X110513809Y-90003333D01*
X110609047Y-90050952D01*
X110656666Y-90098571D01*
X110704285Y-90193809D01*
X110704285Y-90431904D01*
X110656666Y-90527142D01*
X110609047Y-90574761D01*
X110513809Y-90622380D01*
X110228095Y-90622380D01*
X110132857Y-90574761D01*
X110085238Y-90527142D01*
X111323333Y-89622380D02*
X111418571Y-89622380D01*
X111513809Y-89670000D01*
X111561428Y-89717619D01*
X111609047Y-89812857D01*
X111656666Y-90003333D01*
X111656666Y-90241428D01*
X111609047Y-90431904D01*
X111561428Y-90527142D01*
X111513809Y-90574761D01*
X111418571Y-90622380D01*
X111323333Y-90622380D01*
X111228095Y-90574761D01*
X111180476Y-90527142D01*
X111132857Y-90431904D01*
X111085238Y-90241428D01*
X111085238Y-90003333D01*
X111132857Y-89812857D01*
X111180476Y-89717619D01*
X111228095Y-89670000D01*
X111323333Y-89622380D01*
X112609047Y-90622380D02*
X112037619Y-90622380D01*
X112323333Y-90622380D02*
X112323333Y-89622380D01*
X112228095Y-89765238D01*
X112132857Y-89860476D01*
X112037619Y-89908095D01*
X103020952Y-156027380D02*
X102687619Y-155551190D01*
X102449523Y-156027380D02*
X102449523Y-155027380D01*
X102830476Y-155027380D01*
X102925714Y-155075000D01*
X102973333Y-155122619D01*
X103020952Y-155217857D01*
X103020952Y-155360714D01*
X102973333Y-155455952D01*
X102925714Y-155503571D01*
X102830476Y-155551190D01*
X102449523Y-155551190D01*
X103878095Y-155360714D02*
X103878095Y-156027380D01*
X103640000Y-154979761D02*
X103401904Y-155694047D01*
X104020952Y-155694047D01*
X104925714Y-156027380D02*
X104354285Y-156027380D01*
X104640000Y-156027380D02*
X104640000Y-155027380D01*
X104544761Y-155170238D01*
X104449523Y-155265476D01*
X104354285Y-155313095D01*
X105782857Y-155027380D02*
X105592380Y-155027380D01*
X105497142Y-155075000D01*
X105449523Y-155122619D01*
X105354285Y-155265476D01*
X105306666Y-155455952D01*
X105306666Y-155836904D01*
X105354285Y-155932142D01*
X105401904Y-155979761D01*
X105497142Y-156027380D01*
X105687619Y-156027380D01*
X105782857Y-155979761D01*
X105830476Y-155932142D01*
X105878095Y-155836904D01*
X105878095Y-155598809D01*
X105830476Y-155503571D01*
X105782857Y-155455952D01*
X105687619Y-155408333D01*
X105497142Y-155408333D01*
X105401904Y-155455952D01*
X105354285Y-155503571D01*
X105306666Y-155598809D01*
X103020952Y-153487380D02*
X102687619Y-153011190D01*
X102449523Y-153487380D02*
X102449523Y-152487380D01*
X102830476Y-152487380D01*
X102925714Y-152535000D01*
X102973333Y-152582619D01*
X103020952Y-152677857D01*
X103020952Y-152820714D01*
X102973333Y-152915952D01*
X102925714Y-152963571D01*
X102830476Y-153011190D01*
X102449523Y-153011190D01*
X103878095Y-152820714D02*
X103878095Y-153487380D01*
X103640000Y-152439761D02*
X103401904Y-153154047D01*
X104020952Y-153154047D01*
X104925714Y-153487380D02*
X104354285Y-153487380D01*
X104640000Y-153487380D02*
X104640000Y-152487380D01*
X104544761Y-152630238D01*
X104449523Y-152725476D01*
X104354285Y-152773095D01*
X105830476Y-152487380D02*
X105354285Y-152487380D01*
X105306666Y-152963571D01*
X105354285Y-152915952D01*
X105449523Y-152868333D01*
X105687619Y-152868333D01*
X105782857Y-152915952D01*
X105830476Y-152963571D01*
X105878095Y-153058809D01*
X105878095Y-153296904D01*
X105830476Y-153392142D01*
X105782857Y-153439761D01*
X105687619Y-153487380D01*
X105449523Y-153487380D01*
X105354285Y-153439761D01*
X105306666Y-153392142D01*
X105862380Y-122404047D02*
X105386190Y-122737380D01*
X105862380Y-122975476D02*
X104862380Y-122975476D01*
X104862380Y-122594523D01*
X104910000Y-122499285D01*
X104957619Y-122451666D01*
X105052857Y-122404047D01*
X105195714Y-122404047D01*
X105290952Y-122451666D01*
X105338571Y-122499285D01*
X105386190Y-122594523D01*
X105386190Y-122975476D01*
X105195714Y-121546904D02*
X105862380Y-121546904D01*
X104814761Y-121785000D02*
X105529047Y-122023095D01*
X105529047Y-121404047D01*
X105862380Y-120499285D02*
X105862380Y-121070714D01*
X105862380Y-120785000D02*
X104862380Y-120785000D01*
X105005238Y-120880238D01*
X105100476Y-120975476D01*
X105148095Y-121070714D01*
X105195714Y-119642142D02*
X105862380Y-119642142D01*
X104814761Y-119880238D02*
X105529047Y-120118333D01*
X105529047Y-119499285D01*
X103020952Y-145867380D02*
X102687619Y-145391190D01*
X102449523Y-145867380D02*
X102449523Y-144867380D01*
X102830476Y-144867380D01*
X102925714Y-144915000D01*
X102973333Y-144962619D01*
X103020952Y-145057857D01*
X103020952Y-145200714D01*
X102973333Y-145295952D01*
X102925714Y-145343571D01*
X102830476Y-145391190D01*
X102449523Y-145391190D01*
X103878095Y-145200714D02*
X103878095Y-145867380D01*
X103640000Y-144819761D02*
X103401904Y-145534047D01*
X104020952Y-145534047D01*
X104925714Y-145867380D02*
X104354285Y-145867380D01*
X104640000Y-145867380D02*
X104640000Y-144867380D01*
X104544761Y-145010238D01*
X104449523Y-145105476D01*
X104354285Y-145153095D01*
X105259047Y-144867380D02*
X105878095Y-144867380D01*
X105544761Y-145248333D01*
X105687619Y-145248333D01*
X105782857Y-145295952D01*
X105830476Y-145343571D01*
X105878095Y-145438809D01*
X105878095Y-145676904D01*
X105830476Y-145772142D01*
X105782857Y-145819761D01*
X105687619Y-145867380D01*
X105401904Y-145867380D01*
X105306666Y-145819761D01*
X105259047Y-145772142D01*
X82700952Y-153487380D02*
X82367619Y-153011190D01*
X82129523Y-153487380D02*
X82129523Y-152487380D01*
X82510476Y-152487380D01*
X82605714Y-152535000D01*
X82653333Y-152582619D01*
X82700952Y-152677857D01*
X82700952Y-152820714D01*
X82653333Y-152915952D01*
X82605714Y-152963571D01*
X82510476Y-153011190D01*
X82129523Y-153011190D01*
X83558095Y-152820714D02*
X83558095Y-153487380D01*
X83320000Y-152439761D02*
X83081904Y-153154047D01*
X83700952Y-153154047D01*
X84605714Y-153487380D02*
X84034285Y-153487380D01*
X84320000Y-153487380D02*
X84320000Y-152487380D01*
X84224761Y-152630238D01*
X84129523Y-152725476D01*
X84034285Y-152773095D01*
X84986666Y-152582619D02*
X85034285Y-152535000D01*
X85129523Y-152487380D01*
X85367619Y-152487380D01*
X85462857Y-152535000D01*
X85510476Y-152582619D01*
X85558095Y-152677857D01*
X85558095Y-152773095D01*
X85510476Y-152915952D01*
X84939047Y-153487380D01*
X85558095Y-153487380D01*
X82700952Y-148407380D02*
X82367619Y-147931190D01*
X82129523Y-148407380D02*
X82129523Y-147407380D01*
X82510476Y-147407380D01*
X82605714Y-147455000D01*
X82653333Y-147502619D01*
X82700952Y-147597857D01*
X82700952Y-147740714D01*
X82653333Y-147835952D01*
X82605714Y-147883571D01*
X82510476Y-147931190D01*
X82129523Y-147931190D01*
X83558095Y-147740714D02*
X83558095Y-148407380D01*
X83320000Y-147359761D02*
X83081904Y-148074047D01*
X83700952Y-148074047D01*
X84605714Y-148407380D02*
X84034285Y-148407380D01*
X84320000Y-148407380D02*
X84320000Y-147407380D01*
X84224761Y-147550238D01*
X84129523Y-147645476D01*
X84034285Y-147693095D01*
X85558095Y-148407380D02*
X84986666Y-148407380D01*
X85272380Y-148407380D02*
X85272380Y-147407380D01*
X85177142Y-147550238D01*
X85081904Y-147645476D01*
X84986666Y-147693095D01*
X103020952Y-150947380D02*
X102687619Y-150471190D01*
X102449523Y-150947380D02*
X102449523Y-149947380D01*
X102830476Y-149947380D01*
X102925714Y-149995000D01*
X102973333Y-150042619D01*
X103020952Y-150137857D01*
X103020952Y-150280714D01*
X102973333Y-150375952D01*
X102925714Y-150423571D01*
X102830476Y-150471190D01*
X102449523Y-150471190D01*
X103878095Y-150280714D02*
X103878095Y-150947380D01*
X103640000Y-149899761D02*
X103401904Y-150614047D01*
X104020952Y-150614047D01*
X104925714Y-150947380D02*
X104354285Y-150947380D01*
X104640000Y-150947380D02*
X104640000Y-149947380D01*
X104544761Y-150090238D01*
X104449523Y-150185476D01*
X104354285Y-150233095D01*
X105544761Y-149947380D02*
X105640000Y-149947380D01*
X105735238Y-149995000D01*
X105782857Y-150042619D01*
X105830476Y-150137857D01*
X105878095Y-150328333D01*
X105878095Y-150566428D01*
X105830476Y-150756904D01*
X105782857Y-150852142D01*
X105735238Y-150899761D01*
X105640000Y-150947380D01*
X105544761Y-150947380D01*
X105449523Y-150899761D01*
X105401904Y-150852142D01*
X105354285Y-150756904D01*
X105306666Y-150566428D01*
X105306666Y-150328333D01*
X105354285Y-150137857D01*
X105401904Y-150042619D01*
X105449523Y-149995000D01*
X105544761Y-149947380D01*
X82700952Y-145867380D02*
X82367619Y-145391190D01*
X82129523Y-145867380D02*
X82129523Y-144867380D01*
X82510476Y-144867380D01*
X82605714Y-144915000D01*
X82653333Y-144962619D01*
X82700952Y-145057857D01*
X82700952Y-145200714D01*
X82653333Y-145295952D01*
X82605714Y-145343571D01*
X82510476Y-145391190D01*
X82129523Y-145391190D01*
X83558095Y-145200714D02*
X83558095Y-145867380D01*
X83320000Y-144819761D02*
X83081904Y-145534047D01*
X83700952Y-145534047D01*
X84272380Y-144867380D02*
X84367619Y-144867380D01*
X84462857Y-144915000D01*
X84510476Y-144962619D01*
X84558095Y-145057857D01*
X84605714Y-145248333D01*
X84605714Y-145486428D01*
X84558095Y-145676904D01*
X84510476Y-145772142D01*
X84462857Y-145819761D01*
X84367619Y-145867380D01*
X84272380Y-145867380D01*
X84177142Y-145819761D01*
X84129523Y-145772142D01*
X84081904Y-145676904D01*
X84034285Y-145486428D01*
X84034285Y-145248333D01*
X84081904Y-145057857D01*
X84129523Y-144962619D01*
X84177142Y-144915000D01*
X84272380Y-144867380D01*
X85081904Y-145867380D02*
X85272380Y-145867380D01*
X85367619Y-145819761D01*
X85415238Y-145772142D01*
X85510476Y-145629285D01*
X85558095Y-145438809D01*
X85558095Y-145057857D01*
X85510476Y-144962619D01*
X85462857Y-144915000D01*
X85367619Y-144867380D01*
X85177142Y-144867380D01*
X85081904Y-144915000D01*
X85034285Y-144962619D01*
X84986666Y-145057857D01*
X84986666Y-145295952D01*
X85034285Y-145391190D01*
X85081904Y-145438809D01*
X85177142Y-145486428D01*
X85367619Y-145486428D01*
X85462857Y-145438809D01*
X85510476Y-145391190D01*
X85558095Y-145295952D01*
X82700952Y-128087380D02*
X82367619Y-127611190D01*
X82129523Y-128087380D02*
X82129523Y-127087380D01*
X82510476Y-127087380D01*
X82605714Y-127135000D01*
X82653333Y-127182619D01*
X82700952Y-127277857D01*
X82700952Y-127420714D01*
X82653333Y-127515952D01*
X82605714Y-127563571D01*
X82510476Y-127611190D01*
X82129523Y-127611190D01*
X83558095Y-127420714D02*
X83558095Y-128087380D01*
X83320000Y-127039761D02*
X83081904Y-127754047D01*
X83700952Y-127754047D01*
X84272380Y-127087380D02*
X84367619Y-127087380D01*
X84462857Y-127135000D01*
X84510476Y-127182619D01*
X84558095Y-127277857D01*
X84605714Y-127468333D01*
X84605714Y-127706428D01*
X84558095Y-127896904D01*
X84510476Y-127992142D01*
X84462857Y-128039761D01*
X84367619Y-128087380D01*
X84272380Y-128087380D01*
X84177142Y-128039761D01*
X84129523Y-127992142D01*
X84081904Y-127896904D01*
X84034285Y-127706428D01*
X84034285Y-127468333D01*
X84081904Y-127277857D01*
X84129523Y-127182619D01*
X84177142Y-127135000D01*
X84272380Y-127087380D01*
X85177142Y-127515952D02*
X85081904Y-127468333D01*
X85034285Y-127420714D01*
X84986666Y-127325476D01*
X84986666Y-127277857D01*
X85034285Y-127182619D01*
X85081904Y-127135000D01*
X85177142Y-127087380D01*
X85367619Y-127087380D01*
X85462857Y-127135000D01*
X85510476Y-127182619D01*
X85558095Y-127277857D01*
X85558095Y-127325476D01*
X85510476Y-127420714D01*
X85462857Y-127468333D01*
X85367619Y-127515952D01*
X85177142Y-127515952D01*
X85081904Y-127563571D01*
X85034285Y-127611190D01*
X84986666Y-127706428D01*
X84986666Y-127896904D01*
X85034285Y-127992142D01*
X85081904Y-128039761D01*
X85177142Y-128087380D01*
X85367619Y-128087380D01*
X85462857Y-128039761D01*
X85510476Y-127992142D01*
X85558095Y-127896904D01*
X85558095Y-127706428D01*
X85510476Y-127611190D01*
X85462857Y-127563571D01*
X85367619Y-127515952D01*
X103020952Y-133167380D02*
X102687619Y-132691190D01*
X102449523Y-133167380D02*
X102449523Y-132167380D01*
X102830476Y-132167380D01*
X102925714Y-132215000D01*
X102973333Y-132262619D01*
X103020952Y-132357857D01*
X103020952Y-132500714D01*
X102973333Y-132595952D01*
X102925714Y-132643571D01*
X102830476Y-132691190D01*
X102449523Y-132691190D01*
X103878095Y-132500714D02*
X103878095Y-133167380D01*
X103640000Y-132119761D02*
X103401904Y-132834047D01*
X104020952Y-132834047D01*
X104592380Y-132167380D02*
X104687619Y-132167380D01*
X104782857Y-132215000D01*
X104830476Y-132262619D01*
X104878095Y-132357857D01*
X104925714Y-132548333D01*
X104925714Y-132786428D01*
X104878095Y-132976904D01*
X104830476Y-133072142D01*
X104782857Y-133119761D01*
X104687619Y-133167380D01*
X104592380Y-133167380D01*
X104497142Y-133119761D01*
X104449523Y-133072142D01*
X104401904Y-132976904D01*
X104354285Y-132786428D01*
X104354285Y-132548333D01*
X104401904Y-132357857D01*
X104449523Y-132262619D01*
X104497142Y-132215000D01*
X104592380Y-132167380D01*
X105259047Y-132167380D02*
X105925714Y-132167380D01*
X105497142Y-133167380D01*
X103020952Y-138247380D02*
X102687619Y-137771190D01*
X102449523Y-138247380D02*
X102449523Y-137247380D01*
X102830476Y-137247380D01*
X102925714Y-137295000D01*
X102973333Y-137342619D01*
X103020952Y-137437857D01*
X103020952Y-137580714D01*
X102973333Y-137675952D01*
X102925714Y-137723571D01*
X102830476Y-137771190D01*
X102449523Y-137771190D01*
X103878095Y-137580714D02*
X103878095Y-138247380D01*
X103640000Y-137199761D02*
X103401904Y-137914047D01*
X104020952Y-137914047D01*
X104592380Y-137247380D02*
X104687619Y-137247380D01*
X104782857Y-137295000D01*
X104830476Y-137342619D01*
X104878095Y-137437857D01*
X104925714Y-137628333D01*
X104925714Y-137866428D01*
X104878095Y-138056904D01*
X104830476Y-138152142D01*
X104782857Y-138199761D01*
X104687619Y-138247380D01*
X104592380Y-138247380D01*
X104497142Y-138199761D01*
X104449523Y-138152142D01*
X104401904Y-138056904D01*
X104354285Y-137866428D01*
X104354285Y-137628333D01*
X104401904Y-137437857D01*
X104449523Y-137342619D01*
X104497142Y-137295000D01*
X104592380Y-137247380D01*
X105782857Y-137247380D02*
X105592380Y-137247380D01*
X105497142Y-137295000D01*
X105449523Y-137342619D01*
X105354285Y-137485476D01*
X105306666Y-137675952D01*
X105306666Y-138056904D01*
X105354285Y-138152142D01*
X105401904Y-138199761D01*
X105497142Y-138247380D01*
X105687619Y-138247380D01*
X105782857Y-138199761D01*
X105830476Y-138152142D01*
X105878095Y-138056904D01*
X105878095Y-137818809D01*
X105830476Y-137723571D01*
X105782857Y-137675952D01*
X105687619Y-137628333D01*
X105497142Y-137628333D01*
X105401904Y-137675952D01*
X105354285Y-137723571D01*
X105306666Y-137818809D01*
X82700952Y-150947380D02*
X82367619Y-150471190D01*
X82129523Y-150947380D02*
X82129523Y-149947380D01*
X82510476Y-149947380D01*
X82605714Y-149995000D01*
X82653333Y-150042619D01*
X82700952Y-150137857D01*
X82700952Y-150280714D01*
X82653333Y-150375952D01*
X82605714Y-150423571D01*
X82510476Y-150471190D01*
X82129523Y-150471190D01*
X83558095Y-150280714D02*
X83558095Y-150947380D01*
X83320000Y-149899761D02*
X83081904Y-150614047D01*
X83700952Y-150614047D01*
X84272380Y-149947380D02*
X84367619Y-149947380D01*
X84462857Y-149995000D01*
X84510476Y-150042619D01*
X84558095Y-150137857D01*
X84605714Y-150328333D01*
X84605714Y-150566428D01*
X84558095Y-150756904D01*
X84510476Y-150852142D01*
X84462857Y-150899761D01*
X84367619Y-150947380D01*
X84272380Y-150947380D01*
X84177142Y-150899761D01*
X84129523Y-150852142D01*
X84081904Y-150756904D01*
X84034285Y-150566428D01*
X84034285Y-150328333D01*
X84081904Y-150137857D01*
X84129523Y-150042619D01*
X84177142Y-149995000D01*
X84272380Y-149947380D01*
X85510476Y-149947380D02*
X85034285Y-149947380D01*
X84986666Y-150423571D01*
X85034285Y-150375952D01*
X85129523Y-150328333D01*
X85367619Y-150328333D01*
X85462857Y-150375952D01*
X85510476Y-150423571D01*
X85558095Y-150518809D01*
X85558095Y-150756904D01*
X85510476Y-150852142D01*
X85462857Y-150899761D01*
X85367619Y-150947380D01*
X85129523Y-150947380D01*
X85034285Y-150899761D01*
X84986666Y-150852142D01*
X82700952Y-135707380D02*
X82367619Y-135231190D01*
X82129523Y-135707380D02*
X82129523Y-134707380D01*
X82510476Y-134707380D01*
X82605714Y-134755000D01*
X82653333Y-134802619D01*
X82700952Y-134897857D01*
X82700952Y-135040714D01*
X82653333Y-135135952D01*
X82605714Y-135183571D01*
X82510476Y-135231190D01*
X82129523Y-135231190D01*
X83558095Y-135040714D02*
X83558095Y-135707380D01*
X83320000Y-134659761D02*
X83081904Y-135374047D01*
X83700952Y-135374047D01*
X84272380Y-134707380D02*
X84367619Y-134707380D01*
X84462857Y-134755000D01*
X84510476Y-134802619D01*
X84558095Y-134897857D01*
X84605714Y-135088333D01*
X84605714Y-135326428D01*
X84558095Y-135516904D01*
X84510476Y-135612142D01*
X84462857Y-135659761D01*
X84367619Y-135707380D01*
X84272380Y-135707380D01*
X84177142Y-135659761D01*
X84129523Y-135612142D01*
X84081904Y-135516904D01*
X84034285Y-135326428D01*
X84034285Y-135088333D01*
X84081904Y-134897857D01*
X84129523Y-134802619D01*
X84177142Y-134755000D01*
X84272380Y-134707380D01*
X85462857Y-135040714D02*
X85462857Y-135707380D01*
X85224761Y-134659761D02*
X84986666Y-135374047D01*
X85605714Y-135374047D01*
X103322380Y-122404047D02*
X102846190Y-122737380D01*
X103322380Y-122975476D02*
X102322380Y-122975476D01*
X102322380Y-122594523D01*
X102370000Y-122499285D01*
X102417619Y-122451666D01*
X102512857Y-122404047D01*
X102655714Y-122404047D01*
X102750952Y-122451666D01*
X102798571Y-122499285D01*
X102846190Y-122594523D01*
X102846190Y-122975476D01*
X102655714Y-121546904D02*
X103322380Y-121546904D01*
X102274761Y-121785000D02*
X102989047Y-122023095D01*
X102989047Y-121404047D01*
X102322380Y-120832619D02*
X102322380Y-120737380D01*
X102370000Y-120642142D01*
X102417619Y-120594523D01*
X102512857Y-120546904D01*
X102703333Y-120499285D01*
X102941428Y-120499285D01*
X103131904Y-120546904D01*
X103227142Y-120594523D01*
X103274761Y-120642142D01*
X103322380Y-120737380D01*
X103322380Y-120832619D01*
X103274761Y-120927857D01*
X103227142Y-120975476D01*
X103131904Y-121023095D01*
X102941428Y-121070714D01*
X102703333Y-121070714D01*
X102512857Y-121023095D01*
X102417619Y-120975476D01*
X102370000Y-120927857D01*
X102322380Y-120832619D01*
X102322380Y-120165952D02*
X102322380Y-119546904D01*
X102703333Y-119880238D01*
X102703333Y-119737380D01*
X102750952Y-119642142D01*
X102798571Y-119594523D01*
X102893809Y-119546904D01*
X103131904Y-119546904D01*
X103227142Y-119594523D01*
X103274761Y-119642142D01*
X103322380Y-119737380D01*
X103322380Y-120023095D01*
X103274761Y-120118333D01*
X103227142Y-120165952D01*
X82700952Y-125547380D02*
X82367619Y-125071190D01*
X82129523Y-125547380D02*
X82129523Y-124547380D01*
X82510476Y-124547380D01*
X82605714Y-124595000D01*
X82653333Y-124642619D01*
X82700952Y-124737857D01*
X82700952Y-124880714D01*
X82653333Y-124975952D01*
X82605714Y-125023571D01*
X82510476Y-125071190D01*
X82129523Y-125071190D01*
X83558095Y-124880714D02*
X83558095Y-125547380D01*
X83320000Y-124499761D02*
X83081904Y-125214047D01*
X83700952Y-125214047D01*
X84272380Y-124547380D02*
X84367619Y-124547380D01*
X84462857Y-124595000D01*
X84510476Y-124642619D01*
X84558095Y-124737857D01*
X84605714Y-124928333D01*
X84605714Y-125166428D01*
X84558095Y-125356904D01*
X84510476Y-125452142D01*
X84462857Y-125499761D01*
X84367619Y-125547380D01*
X84272380Y-125547380D01*
X84177142Y-125499761D01*
X84129523Y-125452142D01*
X84081904Y-125356904D01*
X84034285Y-125166428D01*
X84034285Y-124928333D01*
X84081904Y-124737857D01*
X84129523Y-124642619D01*
X84177142Y-124595000D01*
X84272380Y-124547380D01*
X84986666Y-124642619D02*
X85034285Y-124595000D01*
X85129523Y-124547380D01*
X85367619Y-124547380D01*
X85462857Y-124595000D01*
X85510476Y-124642619D01*
X85558095Y-124737857D01*
X85558095Y-124833095D01*
X85510476Y-124975952D01*
X84939047Y-125547380D01*
X85558095Y-125547380D01*
X103020952Y-148407380D02*
X102687619Y-147931190D01*
X102449523Y-148407380D02*
X102449523Y-147407380D01*
X102830476Y-147407380D01*
X102925714Y-147455000D01*
X102973333Y-147502619D01*
X103020952Y-147597857D01*
X103020952Y-147740714D01*
X102973333Y-147835952D01*
X102925714Y-147883571D01*
X102830476Y-147931190D01*
X102449523Y-147931190D01*
X103878095Y-147740714D02*
X103878095Y-148407380D01*
X103640000Y-147359761D02*
X103401904Y-148074047D01*
X104020952Y-148074047D01*
X104592380Y-147407380D02*
X104687619Y-147407380D01*
X104782857Y-147455000D01*
X104830476Y-147502619D01*
X104878095Y-147597857D01*
X104925714Y-147788333D01*
X104925714Y-148026428D01*
X104878095Y-148216904D01*
X104830476Y-148312142D01*
X104782857Y-148359761D01*
X104687619Y-148407380D01*
X104592380Y-148407380D01*
X104497142Y-148359761D01*
X104449523Y-148312142D01*
X104401904Y-148216904D01*
X104354285Y-148026428D01*
X104354285Y-147788333D01*
X104401904Y-147597857D01*
X104449523Y-147502619D01*
X104497142Y-147455000D01*
X104592380Y-147407380D01*
X105878095Y-148407380D02*
X105306666Y-148407380D01*
X105592380Y-148407380D02*
X105592380Y-147407380D01*
X105497142Y-147550238D01*
X105401904Y-147645476D01*
X105306666Y-147693095D01*
X85542380Y-97004047D02*
X85066190Y-97337380D01*
X85542380Y-97575476D02*
X84542380Y-97575476D01*
X84542380Y-97194523D01*
X84590000Y-97099285D01*
X84637619Y-97051666D01*
X84732857Y-97004047D01*
X84875714Y-97004047D01*
X84970952Y-97051666D01*
X85018571Y-97099285D01*
X85066190Y-97194523D01*
X85066190Y-97575476D01*
X84542380Y-96670714D02*
X84542380Y-96051666D01*
X84923333Y-96385000D01*
X84923333Y-96242142D01*
X84970952Y-96146904D01*
X85018571Y-96099285D01*
X85113809Y-96051666D01*
X85351904Y-96051666D01*
X85447142Y-96099285D01*
X85494761Y-96146904D01*
X85542380Y-96242142D01*
X85542380Y-96527857D01*
X85494761Y-96623095D01*
X85447142Y-96670714D01*
X85542380Y-95099285D02*
X85542380Y-95670714D01*
X85542380Y-95385000D02*
X84542380Y-95385000D01*
X84685238Y-95480238D01*
X84780476Y-95575476D01*
X84828095Y-95670714D01*
X84542380Y-94480238D02*
X84542380Y-94385000D01*
X84590000Y-94289761D01*
X84637619Y-94242142D01*
X84732857Y-94194523D01*
X84923333Y-94146904D01*
X85161428Y-94146904D01*
X85351904Y-94194523D01*
X85447142Y-94242142D01*
X85494761Y-94289761D01*
X85542380Y-94385000D01*
X85542380Y-94480238D01*
X85494761Y-94575476D01*
X85447142Y-94623095D01*
X85351904Y-94670714D01*
X85161428Y-94718333D01*
X84923333Y-94718333D01*
X84732857Y-94670714D01*
X84637619Y-94623095D01*
X84590000Y-94575476D01*
X84542380Y-94480238D01*
X80462380Y-97004047D02*
X79986190Y-97337380D01*
X80462380Y-97575476D02*
X79462380Y-97575476D01*
X79462380Y-97194523D01*
X79510000Y-97099285D01*
X79557619Y-97051666D01*
X79652857Y-97004047D01*
X79795714Y-97004047D01*
X79890952Y-97051666D01*
X79938571Y-97099285D01*
X79986190Y-97194523D01*
X79986190Y-97575476D01*
X79462380Y-96670714D02*
X79462380Y-96051666D01*
X79843333Y-96385000D01*
X79843333Y-96242142D01*
X79890952Y-96146904D01*
X79938571Y-96099285D01*
X80033809Y-96051666D01*
X80271904Y-96051666D01*
X80367142Y-96099285D01*
X80414761Y-96146904D01*
X80462380Y-96242142D01*
X80462380Y-96527857D01*
X80414761Y-96623095D01*
X80367142Y-96670714D01*
X79462380Y-95432619D02*
X79462380Y-95337380D01*
X79510000Y-95242142D01*
X79557619Y-95194523D01*
X79652857Y-95146904D01*
X79843333Y-95099285D01*
X80081428Y-95099285D01*
X80271904Y-95146904D01*
X80367142Y-95194523D01*
X80414761Y-95242142D01*
X80462380Y-95337380D01*
X80462380Y-95432619D01*
X80414761Y-95527857D01*
X80367142Y-95575476D01*
X80271904Y-95623095D01*
X80081428Y-95670714D01*
X79843333Y-95670714D01*
X79652857Y-95623095D01*
X79557619Y-95575476D01*
X79510000Y-95527857D01*
X79462380Y-95432619D01*
X80462380Y-94623095D02*
X80462380Y-94432619D01*
X80414761Y-94337380D01*
X80367142Y-94289761D01*
X80224285Y-94194523D01*
X80033809Y-94146904D01*
X79652857Y-94146904D01*
X79557619Y-94194523D01*
X79510000Y-94242142D01*
X79462380Y-94337380D01*
X79462380Y-94527857D01*
X79510000Y-94623095D01*
X79557619Y-94670714D01*
X79652857Y-94718333D01*
X79890952Y-94718333D01*
X79986190Y-94670714D01*
X80033809Y-94623095D01*
X80081428Y-94527857D01*
X80081428Y-94337380D01*
X80033809Y-94242142D01*
X79986190Y-94194523D01*
X79890952Y-94146904D01*
X93162380Y-97004047D02*
X92686190Y-97337380D01*
X93162380Y-97575476D02*
X92162380Y-97575476D01*
X92162380Y-97194523D01*
X92210000Y-97099285D01*
X92257619Y-97051666D01*
X92352857Y-97004047D01*
X92495714Y-97004047D01*
X92590952Y-97051666D01*
X92638571Y-97099285D01*
X92686190Y-97194523D01*
X92686190Y-97575476D01*
X92162380Y-96670714D02*
X92162380Y-96051666D01*
X92543333Y-96385000D01*
X92543333Y-96242142D01*
X92590952Y-96146904D01*
X92638571Y-96099285D01*
X92733809Y-96051666D01*
X92971904Y-96051666D01*
X93067142Y-96099285D01*
X93114761Y-96146904D01*
X93162380Y-96242142D01*
X93162380Y-96527857D01*
X93114761Y-96623095D01*
X93067142Y-96670714D01*
X92162380Y-95432619D02*
X92162380Y-95337380D01*
X92210000Y-95242142D01*
X92257619Y-95194523D01*
X92352857Y-95146904D01*
X92543333Y-95099285D01*
X92781428Y-95099285D01*
X92971904Y-95146904D01*
X93067142Y-95194523D01*
X93114761Y-95242142D01*
X93162380Y-95337380D01*
X93162380Y-95432619D01*
X93114761Y-95527857D01*
X93067142Y-95575476D01*
X92971904Y-95623095D01*
X92781428Y-95670714D01*
X92543333Y-95670714D01*
X92352857Y-95623095D01*
X92257619Y-95575476D01*
X92210000Y-95527857D01*
X92162380Y-95432619D01*
X92590952Y-94527857D02*
X92543333Y-94623095D01*
X92495714Y-94670714D01*
X92400476Y-94718333D01*
X92352857Y-94718333D01*
X92257619Y-94670714D01*
X92210000Y-94623095D01*
X92162380Y-94527857D01*
X92162380Y-94337380D01*
X92210000Y-94242142D01*
X92257619Y-94194523D01*
X92352857Y-94146904D01*
X92400476Y-94146904D01*
X92495714Y-94194523D01*
X92543333Y-94242142D01*
X92590952Y-94337380D01*
X92590952Y-94527857D01*
X92638571Y-94623095D01*
X92686190Y-94670714D01*
X92781428Y-94718333D01*
X92971904Y-94718333D01*
X93067142Y-94670714D01*
X93114761Y-94623095D01*
X93162380Y-94527857D01*
X93162380Y-94337380D01*
X93114761Y-94242142D01*
X93067142Y-94194523D01*
X92971904Y-94146904D01*
X92781428Y-94146904D01*
X92686190Y-94194523D01*
X92638571Y-94242142D01*
X92590952Y-94337380D01*
X83002380Y-97004047D02*
X82526190Y-97337380D01*
X83002380Y-97575476D02*
X82002380Y-97575476D01*
X82002380Y-97194523D01*
X82050000Y-97099285D01*
X82097619Y-97051666D01*
X82192857Y-97004047D01*
X82335714Y-97004047D01*
X82430952Y-97051666D01*
X82478571Y-97099285D01*
X82526190Y-97194523D01*
X82526190Y-97575476D01*
X82002380Y-96670714D02*
X82002380Y-96051666D01*
X82383333Y-96385000D01*
X82383333Y-96242142D01*
X82430952Y-96146904D01*
X82478571Y-96099285D01*
X82573809Y-96051666D01*
X82811904Y-96051666D01*
X82907142Y-96099285D01*
X82954761Y-96146904D01*
X83002380Y-96242142D01*
X83002380Y-96527857D01*
X82954761Y-96623095D01*
X82907142Y-96670714D01*
X82002380Y-95432619D02*
X82002380Y-95337380D01*
X82050000Y-95242142D01*
X82097619Y-95194523D01*
X82192857Y-95146904D01*
X82383333Y-95099285D01*
X82621428Y-95099285D01*
X82811904Y-95146904D01*
X82907142Y-95194523D01*
X82954761Y-95242142D01*
X83002380Y-95337380D01*
X83002380Y-95432619D01*
X82954761Y-95527857D01*
X82907142Y-95575476D01*
X82811904Y-95623095D01*
X82621428Y-95670714D01*
X82383333Y-95670714D01*
X82192857Y-95623095D01*
X82097619Y-95575476D01*
X82050000Y-95527857D01*
X82002380Y-95432619D01*
X82002380Y-94765952D02*
X82002380Y-94099285D01*
X83002380Y-94527857D01*
X103322380Y-97004047D02*
X102846190Y-97337380D01*
X103322380Y-97575476D02*
X102322380Y-97575476D01*
X102322380Y-97194523D01*
X102370000Y-97099285D01*
X102417619Y-97051666D01*
X102512857Y-97004047D01*
X102655714Y-97004047D01*
X102750952Y-97051666D01*
X102798571Y-97099285D01*
X102846190Y-97194523D01*
X102846190Y-97575476D01*
X102322380Y-96670714D02*
X102322380Y-96051666D01*
X102703333Y-96385000D01*
X102703333Y-96242142D01*
X102750952Y-96146904D01*
X102798571Y-96099285D01*
X102893809Y-96051666D01*
X103131904Y-96051666D01*
X103227142Y-96099285D01*
X103274761Y-96146904D01*
X103322380Y-96242142D01*
X103322380Y-96527857D01*
X103274761Y-96623095D01*
X103227142Y-96670714D01*
X102322380Y-95432619D02*
X102322380Y-95337380D01*
X102370000Y-95242142D01*
X102417619Y-95194523D01*
X102512857Y-95146904D01*
X102703333Y-95099285D01*
X102941428Y-95099285D01*
X103131904Y-95146904D01*
X103227142Y-95194523D01*
X103274761Y-95242142D01*
X103322380Y-95337380D01*
X103322380Y-95432619D01*
X103274761Y-95527857D01*
X103227142Y-95575476D01*
X103131904Y-95623095D01*
X102941428Y-95670714D01*
X102703333Y-95670714D01*
X102512857Y-95623095D01*
X102417619Y-95575476D01*
X102370000Y-95527857D01*
X102322380Y-95432619D01*
X102322380Y-94242142D02*
X102322380Y-94432619D01*
X102370000Y-94527857D01*
X102417619Y-94575476D01*
X102560476Y-94670714D01*
X102750952Y-94718333D01*
X103131904Y-94718333D01*
X103227142Y-94670714D01*
X103274761Y-94623095D01*
X103322380Y-94527857D01*
X103322380Y-94337380D01*
X103274761Y-94242142D01*
X103227142Y-94194523D01*
X103131904Y-94146904D01*
X102893809Y-94146904D01*
X102798571Y-94194523D01*
X102750952Y-94242142D01*
X102703333Y-94337380D01*
X102703333Y-94527857D01*
X102750952Y-94623095D01*
X102798571Y-94670714D01*
X102893809Y-94718333D01*
X100782380Y-97004047D02*
X100306190Y-97337380D01*
X100782380Y-97575476D02*
X99782380Y-97575476D01*
X99782380Y-97194523D01*
X99830000Y-97099285D01*
X99877619Y-97051666D01*
X99972857Y-97004047D01*
X100115714Y-97004047D01*
X100210952Y-97051666D01*
X100258571Y-97099285D01*
X100306190Y-97194523D01*
X100306190Y-97575476D01*
X99782380Y-96670714D02*
X99782380Y-96051666D01*
X100163333Y-96385000D01*
X100163333Y-96242142D01*
X100210952Y-96146904D01*
X100258571Y-96099285D01*
X100353809Y-96051666D01*
X100591904Y-96051666D01*
X100687142Y-96099285D01*
X100734761Y-96146904D01*
X100782380Y-96242142D01*
X100782380Y-96527857D01*
X100734761Y-96623095D01*
X100687142Y-96670714D01*
X99782380Y-95432619D02*
X99782380Y-95337380D01*
X99830000Y-95242142D01*
X99877619Y-95194523D01*
X99972857Y-95146904D01*
X100163333Y-95099285D01*
X100401428Y-95099285D01*
X100591904Y-95146904D01*
X100687142Y-95194523D01*
X100734761Y-95242142D01*
X100782380Y-95337380D01*
X100782380Y-95432619D01*
X100734761Y-95527857D01*
X100687142Y-95575476D01*
X100591904Y-95623095D01*
X100401428Y-95670714D01*
X100163333Y-95670714D01*
X99972857Y-95623095D01*
X99877619Y-95575476D01*
X99830000Y-95527857D01*
X99782380Y-95432619D01*
X99782380Y-94194523D02*
X99782380Y-94670714D01*
X100258571Y-94718333D01*
X100210952Y-94670714D01*
X100163333Y-94575476D01*
X100163333Y-94337380D01*
X100210952Y-94242142D01*
X100258571Y-94194523D01*
X100353809Y-94146904D01*
X100591904Y-94146904D01*
X100687142Y-94194523D01*
X100734761Y-94242142D01*
X100782380Y-94337380D01*
X100782380Y-94575476D01*
X100734761Y-94670714D01*
X100687142Y-94718333D01*
X95702380Y-97004047D02*
X95226190Y-97337380D01*
X95702380Y-97575476D02*
X94702380Y-97575476D01*
X94702380Y-97194523D01*
X94750000Y-97099285D01*
X94797619Y-97051666D01*
X94892857Y-97004047D01*
X95035714Y-97004047D01*
X95130952Y-97051666D01*
X95178571Y-97099285D01*
X95226190Y-97194523D01*
X95226190Y-97575476D01*
X94702380Y-96670714D02*
X94702380Y-96051666D01*
X95083333Y-96385000D01*
X95083333Y-96242142D01*
X95130952Y-96146904D01*
X95178571Y-96099285D01*
X95273809Y-96051666D01*
X95511904Y-96051666D01*
X95607142Y-96099285D01*
X95654761Y-96146904D01*
X95702380Y-96242142D01*
X95702380Y-96527857D01*
X95654761Y-96623095D01*
X95607142Y-96670714D01*
X94702380Y-95432619D02*
X94702380Y-95337380D01*
X94750000Y-95242142D01*
X94797619Y-95194523D01*
X94892857Y-95146904D01*
X95083333Y-95099285D01*
X95321428Y-95099285D01*
X95511904Y-95146904D01*
X95607142Y-95194523D01*
X95654761Y-95242142D01*
X95702380Y-95337380D01*
X95702380Y-95432619D01*
X95654761Y-95527857D01*
X95607142Y-95575476D01*
X95511904Y-95623095D01*
X95321428Y-95670714D01*
X95083333Y-95670714D01*
X94892857Y-95623095D01*
X94797619Y-95575476D01*
X94750000Y-95527857D01*
X94702380Y-95432619D01*
X95035714Y-94242142D02*
X95702380Y-94242142D01*
X94654761Y-94480238D02*
X95369047Y-94718333D01*
X95369047Y-94099285D01*
X98242380Y-97004047D02*
X97766190Y-97337380D01*
X98242380Y-97575476D02*
X97242380Y-97575476D01*
X97242380Y-97194523D01*
X97290000Y-97099285D01*
X97337619Y-97051666D01*
X97432857Y-97004047D01*
X97575714Y-97004047D01*
X97670952Y-97051666D01*
X97718571Y-97099285D01*
X97766190Y-97194523D01*
X97766190Y-97575476D01*
X97242380Y-96670714D02*
X97242380Y-96051666D01*
X97623333Y-96385000D01*
X97623333Y-96242142D01*
X97670952Y-96146904D01*
X97718571Y-96099285D01*
X97813809Y-96051666D01*
X98051904Y-96051666D01*
X98147142Y-96099285D01*
X98194761Y-96146904D01*
X98242380Y-96242142D01*
X98242380Y-96527857D01*
X98194761Y-96623095D01*
X98147142Y-96670714D01*
X97242380Y-95432619D02*
X97242380Y-95337380D01*
X97290000Y-95242142D01*
X97337619Y-95194523D01*
X97432857Y-95146904D01*
X97623333Y-95099285D01*
X97861428Y-95099285D01*
X98051904Y-95146904D01*
X98147142Y-95194523D01*
X98194761Y-95242142D01*
X98242380Y-95337380D01*
X98242380Y-95432619D01*
X98194761Y-95527857D01*
X98147142Y-95575476D01*
X98051904Y-95623095D01*
X97861428Y-95670714D01*
X97623333Y-95670714D01*
X97432857Y-95623095D01*
X97337619Y-95575476D01*
X97290000Y-95527857D01*
X97242380Y-95432619D01*
X97242380Y-94765952D02*
X97242380Y-94146904D01*
X97623333Y-94480238D01*
X97623333Y-94337380D01*
X97670952Y-94242142D01*
X97718571Y-94194523D01*
X97813809Y-94146904D01*
X98051904Y-94146904D01*
X98147142Y-94194523D01*
X98194761Y-94242142D01*
X98242380Y-94337380D01*
X98242380Y-94623095D01*
X98194761Y-94718333D01*
X98147142Y-94765952D01*
X114752380Y-108434047D02*
X114276190Y-108767380D01*
X114752380Y-109005476D02*
X113752380Y-109005476D01*
X113752380Y-108624523D01*
X113800000Y-108529285D01*
X113847619Y-108481666D01*
X113942857Y-108434047D01*
X114085714Y-108434047D01*
X114180952Y-108481666D01*
X114228571Y-108529285D01*
X114276190Y-108624523D01*
X114276190Y-109005476D01*
X113752380Y-108100714D02*
X113752380Y-107481666D01*
X114133333Y-107815000D01*
X114133333Y-107672142D01*
X114180952Y-107576904D01*
X114228571Y-107529285D01*
X114323809Y-107481666D01*
X114561904Y-107481666D01*
X114657142Y-107529285D01*
X114704761Y-107576904D01*
X114752380Y-107672142D01*
X114752380Y-107957857D01*
X114704761Y-108053095D01*
X114657142Y-108100714D01*
X113752380Y-106862619D02*
X113752380Y-106767380D01*
X113800000Y-106672142D01*
X113847619Y-106624523D01*
X113942857Y-106576904D01*
X114133333Y-106529285D01*
X114371428Y-106529285D01*
X114561904Y-106576904D01*
X114657142Y-106624523D01*
X114704761Y-106672142D01*
X114752380Y-106767380D01*
X114752380Y-106862619D01*
X114704761Y-106957857D01*
X114657142Y-107005476D01*
X114561904Y-107053095D01*
X114371428Y-107100714D01*
X114133333Y-107100714D01*
X113942857Y-107053095D01*
X113847619Y-107005476D01*
X113800000Y-106957857D01*
X113752380Y-106862619D01*
X113847619Y-106148333D02*
X113800000Y-106100714D01*
X113752380Y-106005476D01*
X113752380Y-105767380D01*
X113800000Y-105672142D01*
X113847619Y-105624523D01*
X113942857Y-105576904D01*
X114038095Y-105576904D01*
X114180952Y-105624523D01*
X114752380Y-106195952D01*
X114752380Y-105576904D01*
X105862380Y-97004047D02*
X105386190Y-97337380D01*
X105862380Y-97575476D02*
X104862380Y-97575476D01*
X104862380Y-97194523D01*
X104910000Y-97099285D01*
X104957619Y-97051666D01*
X105052857Y-97004047D01*
X105195714Y-97004047D01*
X105290952Y-97051666D01*
X105338571Y-97099285D01*
X105386190Y-97194523D01*
X105386190Y-97575476D01*
X104862380Y-96670714D02*
X104862380Y-96051666D01*
X105243333Y-96385000D01*
X105243333Y-96242142D01*
X105290952Y-96146904D01*
X105338571Y-96099285D01*
X105433809Y-96051666D01*
X105671904Y-96051666D01*
X105767142Y-96099285D01*
X105814761Y-96146904D01*
X105862380Y-96242142D01*
X105862380Y-96527857D01*
X105814761Y-96623095D01*
X105767142Y-96670714D01*
X104862380Y-95432619D02*
X104862380Y-95337380D01*
X104910000Y-95242142D01*
X104957619Y-95194523D01*
X105052857Y-95146904D01*
X105243333Y-95099285D01*
X105481428Y-95099285D01*
X105671904Y-95146904D01*
X105767142Y-95194523D01*
X105814761Y-95242142D01*
X105862380Y-95337380D01*
X105862380Y-95432619D01*
X105814761Y-95527857D01*
X105767142Y-95575476D01*
X105671904Y-95623095D01*
X105481428Y-95670714D01*
X105243333Y-95670714D01*
X105052857Y-95623095D01*
X104957619Y-95575476D01*
X104910000Y-95527857D01*
X104862380Y-95432619D01*
X105862380Y-94146904D02*
X105862380Y-94718333D01*
X105862380Y-94432619D02*
X104862380Y-94432619D01*
X105005238Y-94527857D01*
X105100476Y-94623095D01*
X105148095Y-94718333D01*
X103322380Y-84304047D02*
X102846190Y-84637380D01*
X103322380Y-84875476D02*
X102322380Y-84875476D01*
X102322380Y-84494523D01*
X102370000Y-84399285D01*
X102417619Y-84351666D01*
X102512857Y-84304047D01*
X102655714Y-84304047D01*
X102750952Y-84351666D01*
X102798571Y-84399285D01*
X102846190Y-84494523D01*
X102846190Y-84875476D01*
X102417619Y-83923095D02*
X102370000Y-83875476D01*
X102322380Y-83780238D01*
X102322380Y-83542142D01*
X102370000Y-83446904D01*
X102417619Y-83399285D01*
X102512857Y-83351666D01*
X102608095Y-83351666D01*
X102750952Y-83399285D01*
X103322380Y-83970714D01*
X103322380Y-83351666D01*
X103322380Y-82399285D02*
X103322380Y-82970714D01*
X103322380Y-82685000D02*
X102322380Y-82685000D01*
X102465238Y-82780238D01*
X102560476Y-82875476D01*
X102608095Y-82970714D01*
X102655714Y-81542142D02*
X103322380Y-81542142D01*
X102274761Y-81780238D02*
X102989047Y-82018333D01*
X102989047Y-81399285D01*
X98242380Y-84304047D02*
X97766190Y-84637380D01*
X98242380Y-84875476D02*
X97242380Y-84875476D01*
X97242380Y-84494523D01*
X97290000Y-84399285D01*
X97337619Y-84351666D01*
X97432857Y-84304047D01*
X97575714Y-84304047D01*
X97670952Y-84351666D01*
X97718571Y-84399285D01*
X97766190Y-84494523D01*
X97766190Y-84875476D01*
X97337619Y-83923095D02*
X97290000Y-83875476D01*
X97242380Y-83780238D01*
X97242380Y-83542142D01*
X97290000Y-83446904D01*
X97337619Y-83399285D01*
X97432857Y-83351666D01*
X97528095Y-83351666D01*
X97670952Y-83399285D01*
X98242380Y-83970714D01*
X98242380Y-83351666D01*
X98242380Y-82399285D02*
X98242380Y-82970714D01*
X98242380Y-82685000D02*
X97242380Y-82685000D01*
X97385238Y-82780238D01*
X97480476Y-82875476D01*
X97528095Y-82970714D01*
X97242380Y-82065952D02*
X97242380Y-81446904D01*
X97623333Y-81780238D01*
X97623333Y-81637380D01*
X97670952Y-81542142D01*
X97718571Y-81494523D01*
X97813809Y-81446904D01*
X98051904Y-81446904D01*
X98147142Y-81494523D01*
X98194761Y-81542142D01*
X98242380Y-81637380D01*
X98242380Y-81923095D01*
X98194761Y-82018333D01*
X98147142Y-82065952D01*
X110942380Y-81764047D02*
X110466190Y-82097380D01*
X110942380Y-82335476D02*
X109942380Y-82335476D01*
X109942380Y-81954523D01*
X109990000Y-81859285D01*
X110037619Y-81811666D01*
X110132857Y-81764047D01*
X110275714Y-81764047D01*
X110370952Y-81811666D01*
X110418571Y-81859285D01*
X110466190Y-81954523D01*
X110466190Y-82335476D01*
X110037619Y-81383095D02*
X109990000Y-81335476D01*
X109942380Y-81240238D01*
X109942380Y-81002142D01*
X109990000Y-80906904D01*
X110037619Y-80859285D01*
X110132857Y-80811666D01*
X110228095Y-80811666D01*
X110370952Y-80859285D01*
X110942380Y-81430714D01*
X110942380Y-80811666D01*
X110942380Y-79859285D02*
X110942380Y-80430714D01*
X110942380Y-80145000D02*
X109942380Y-80145000D01*
X110085238Y-80240238D01*
X110180476Y-80335476D01*
X110228095Y-80430714D01*
X110037619Y-79478333D02*
X109990000Y-79430714D01*
X109942380Y-79335476D01*
X109942380Y-79097380D01*
X109990000Y-79002142D01*
X110037619Y-78954523D01*
X110132857Y-78906904D01*
X110228095Y-78906904D01*
X110370952Y-78954523D01*
X110942380Y-79525952D01*
X110942380Y-78906904D01*
X105862380Y-69064047D02*
X105386190Y-69397380D01*
X105862380Y-69635476D02*
X104862380Y-69635476D01*
X104862380Y-69254523D01*
X104910000Y-69159285D01*
X104957619Y-69111666D01*
X105052857Y-69064047D01*
X105195714Y-69064047D01*
X105290952Y-69111666D01*
X105338571Y-69159285D01*
X105386190Y-69254523D01*
X105386190Y-69635476D01*
X104957619Y-68683095D02*
X104910000Y-68635476D01*
X104862380Y-68540238D01*
X104862380Y-68302142D01*
X104910000Y-68206904D01*
X104957619Y-68159285D01*
X105052857Y-68111666D01*
X105148095Y-68111666D01*
X105290952Y-68159285D01*
X105862380Y-68730714D01*
X105862380Y-68111666D01*
X105862380Y-67159285D02*
X105862380Y-67730714D01*
X105862380Y-67445000D02*
X104862380Y-67445000D01*
X105005238Y-67540238D01*
X105100476Y-67635476D01*
X105148095Y-67730714D01*
X105862380Y-66206904D02*
X105862380Y-66778333D01*
X105862380Y-66492619D02*
X104862380Y-66492619D01*
X105005238Y-66587857D01*
X105100476Y-66683095D01*
X105148095Y-66778333D01*
X105560952Y-74747380D02*
X105227619Y-74271190D01*
X104989523Y-74747380D02*
X104989523Y-73747380D01*
X105370476Y-73747380D01*
X105465714Y-73795000D01*
X105513333Y-73842619D01*
X105560952Y-73937857D01*
X105560952Y-74080714D01*
X105513333Y-74175952D01*
X105465714Y-74223571D01*
X105370476Y-74271190D01*
X104989523Y-74271190D01*
X105941904Y-73842619D02*
X105989523Y-73795000D01*
X106084761Y-73747380D01*
X106322857Y-73747380D01*
X106418095Y-73795000D01*
X106465714Y-73842619D01*
X106513333Y-73937857D01*
X106513333Y-74033095D01*
X106465714Y-74175952D01*
X105894285Y-74747380D01*
X106513333Y-74747380D01*
X107465714Y-74747380D02*
X106894285Y-74747380D01*
X107180000Y-74747380D02*
X107180000Y-73747380D01*
X107084761Y-73890238D01*
X106989523Y-73985476D01*
X106894285Y-74033095D01*
X108084761Y-73747380D02*
X108180000Y-73747380D01*
X108275238Y-73795000D01*
X108322857Y-73842619D01*
X108370476Y-73937857D01*
X108418095Y-74128333D01*
X108418095Y-74366428D01*
X108370476Y-74556904D01*
X108322857Y-74652142D01*
X108275238Y-74699761D01*
X108180000Y-74747380D01*
X108084761Y-74747380D01*
X107989523Y-74699761D01*
X107941904Y-74652142D01*
X107894285Y-74556904D01*
X107846666Y-74366428D01*
X107846666Y-74128333D01*
X107894285Y-73937857D01*
X107941904Y-73842619D01*
X107989523Y-73795000D01*
X108084761Y-73747380D01*
X108402380Y-81764047D02*
X107926190Y-82097380D01*
X108402380Y-82335476D02*
X107402380Y-82335476D01*
X107402380Y-81954523D01*
X107450000Y-81859285D01*
X107497619Y-81811666D01*
X107592857Y-81764047D01*
X107735714Y-81764047D01*
X107830952Y-81811666D01*
X107878571Y-81859285D01*
X107926190Y-81954523D01*
X107926190Y-82335476D01*
X107497619Y-81383095D02*
X107450000Y-81335476D01*
X107402380Y-81240238D01*
X107402380Y-81002142D01*
X107450000Y-80906904D01*
X107497619Y-80859285D01*
X107592857Y-80811666D01*
X107688095Y-80811666D01*
X107830952Y-80859285D01*
X108402380Y-81430714D01*
X108402380Y-80811666D01*
X107402380Y-80192619D02*
X107402380Y-80097380D01*
X107450000Y-80002142D01*
X107497619Y-79954523D01*
X107592857Y-79906904D01*
X107783333Y-79859285D01*
X108021428Y-79859285D01*
X108211904Y-79906904D01*
X108307142Y-79954523D01*
X108354761Y-80002142D01*
X108402380Y-80097380D01*
X108402380Y-80192619D01*
X108354761Y-80287857D01*
X108307142Y-80335476D01*
X108211904Y-80383095D01*
X108021428Y-80430714D01*
X107783333Y-80430714D01*
X107592857Y-80383095D01*
X107497619Y-80335476D01*
X107450000Y-80287857D01*
X107402380Y-80192619D01*
X108402380Y-79383095D02*
X108402380Y-79192619D01*
X108354761Y-79097380D01*
X108307142Y-79049761D01*
X108164285Y-78954523D01*
X107973809Y-78906904D01*
X107592857Y-78906904D01*
X107497619Y-78954523D01*
X107450000Y-79002142D01*
X107402380Y-79097380D01*
X107402380Y-79287857D01*
X107450000Y-79383095D01*
X107497619Y-79430714D01*
X107592857Y-79478333D01*
X107830952Y-79478333D01*
X107926190Y-79430714D01*
X107973809Y-79383095D01*
X108021428Y-79287857D01*
X108021428Y-79097380D01*
X107973809Y-79002142D01*
X107926190Y-78954523D01*
X107830952Y-78906904D01*
X100782380Y-84304047D02*
X100306190Y-84637380D01*
X100782380Y-84875476D02*
X99782380Y-84875476D01*
X99782380Y-84494523D01*
X99830000Y-84399285D01*
X99877619Y-84351666D01*
X99972857Y-84304047D01*
X100115714Y-84304047D01*
X100210952Y-84351666D01*
X100258571Y-84399285D01*
X100306190Y-84494523D01*
X100306190Y-84875476D01*
X99877619Y-83923095D02*
X99830000Y-83875476D01*
X99782380Y-83780238D01*
X99782380Y-83542142D01*
X99830000Y-83446904D01*
X99877619Y-83399285D01*
X99972857Y-83351666D01*
X100068095Y-83351666D01*
X100210952Y-83399285D01*
X100782380Y-83970714D01*
X100782380Y-83351666D01*
X99782380Y-82732619D02*
X99782380Y-82637380D01*
X99830000Y-82542142D01*
X99877619Y-82494523D01*
X99972857Y-82446904D01*
X100163333Y-82399285D01*
X100401428Y-82399285D01*
X100591904Y-82446904D01*
X100687142Y-82494523D01*
X100734761Y-82542142D01*
X100782380Y-82637380D01*
X100782380Y-82732619D01*
X100734761Y-82827857D01*
X100687142Y-82875476D01*
X100591904Y-82923095D01*
X100401428Y-82970714D01*
X100163333Y-82970714D01*
X99972857Y-82923095D01*
X99877619Y-82875476D01*
X99830000Y-82827857D01*
X99782380Y-82732619D01*
X100210952Y-81827857D02*
X100163333Y-81923095D01*
X100115714Y-81970714D01*
X100020476Y-82018333D01*
X99972857Y-82018333D01*
X99877619Y-81970714D01*
X99830000Y-81923095D01*
X99782380Y-81827857D01*
X99782380Y-81637380D01*
X99830000Y-81542142D01*
X99877619Y-81494523D01*
X99972857Y-81446904D01*
X100020476Y-81446904D01*
X100115714Y-81494523D01*
X100163333Y-81542142D01*
X100210952Y-81637380D01*
X100210952Y-81827857D01*
X100258571Y-81923095D01*
X100306190Y-81970714D01*
X100401428Y-82018333D01*
X100591904Y-82018333D01*
X100687142Y-81970714D01*
X100734761Y-81923095D01*
X100782380Y-81827857D01*
X100782380Y-81637380D01*
X100734761Y-81542142D01*
X100687142Y-81494523D01*
X100591904Y-81446904D01*
X100401428Y-81446904D01*
X100306190Y-81494523D01*
X100258571Y-81542142D01*
X100210952Y-81637380D01*
X83002380Y-84304047D02*
X82526190Y-84637380D01*
X83002380Y-84875476D02*
X82002380Y-84875476D01*
X82002380Y-84494523D01*
X82050000Y-84399285D01*
X82097619Y-84351666D01*
X82192857Y-84304047D01*
X82335714Y-84304047D01*
X82430952Y-84351666D01*
X82478571Y-84399285D01*
X82526190Y-84494523D01*
X82526190Y-84875476D01*
X82097619Y-83923095D02*
X82050000Y-83875476D01*
X82002380Y-83780238D01*
X82002380Y-83542142D01*
X82050000Y-83446904D01*
X82097619Y-83399285D01*
X82192857Y-83351666D01*
X82288095Y-83351666D01*
X82430952Y-83399285D01*
X83002380Y-83970714D01*
X83002380Y-83351666D01*
X82002380Y-82732619D02*
X82002380Y-82637380D01*
X82050000Y-82542142D01*
X82097619Y-82494523D01*
X82192857Y-82446904D01*
X82383333Y-82399285D01*
X82621428Y-82399285D01*
X82811904Y-82446904D01*
X82907142Y-82494523D01*
X82954761Y-82542142D01*
X83002380Y-82637380D01*
X83002380Y-82732619D01*
X82954761Y-82827857D01*
X82907142Y-82875476D01*
X82811904Y-82923095D01*
X82621428Y-82970714D01*
X82383333Y-82970714D01*
X82192857Y-82923095D01*
X82097619Y-82875476D01*
X82050000Y-82827857D01*
X82002380Y-82732619D01*
X82002380Y-82065952D02*
X82002380Y-81399285D01*
X83002380Y-81827857D01*
X88082380Y-84304047D02*
X87606190Y-84637380D01*
X88082380Y-84875476D02*
X87082380Y-84875476D01*
X87082380Y-84494523D01*
X87130000Y-84399285D01*
X87177619Y-84351666D01*
X87272857Y-84304047D01*
X87415714Y-84304047D01*
X87510952Y-84351666D01*
X87558571Y-84399285D01*
X87606190Y-84494523D01*
X87606190Y-84875476D01*
X87177619Y-83923095D02*
X87130000Y-83875476D01*
X87082380Y-83780238D01*
X87082380Y-83542142D01*
X87130000Y-83446904D01*
X87177619Y-83399285D01*
X87272857Y-83351666D01*
X87368095Y-83351666D01*
X87510952Y-83399285D01*
X88082380Y-83970714D01*
X88082380Y-83351666D01*
X87082380Y-82732619D02*
X87082380Y-82637380D01*
X87130000Y-82542142D01*
X87177619Y-82494523D01*
X87272857Y-82446904D01*
X87463333Y-82399285D01*
X87701428Y-82399285D01*
X87891904Y-82446904D01*
X87987142Y-82494523D01*
X88034761Y-82542142D01*
X88082380Y-82637380D01*
X88082380Y-82732619D01*
X88034761Y-82827857D01*
X87987142Y-82875476D01*
X87891904Y-82923095D01*
X87701428Y-82970714D01*
X87463333Y-82970714D01*
X87272857Y-82923095D01*
X87177619Y-82875476D01*
X87130000Y-82827857D01*
X87082380Y-82732619D01*
X87082380Y-81542142D02*
X87082380Y-81732619D01*
X87130000Y-81827857D01*
X87177619Y-81875476D01*
X87320476Y-81970714D01*
X87510952Y-82018333D01*
X87891904Y-82018333D01*
X87987142Y-81970714D01*
X88034761Y-81923095D01*
X88082380Y-81827857D01*
X88082380Y-81637380D01*
X88034761Y-81542142D01*
X87987142Y-81494523D01*
X87891904Y-81446904D01*
X87653809Y-81446904D01*
X87558571Y-81494523D01*
X87510952Y-81542142D01*
X87463333Y-81637380D01*
X87463333Y-81827857D01*
X87510952Y-81923095D01*
X87558571Y-81970714D01*
X87653809Y-82018333D01*
X75382380Y-81764047D02*
X74906190Y-82097380D01*
X75382380Y-82335476D02*
X74382380Y-82335476D01*
X74382380Y-81954523D01*
X74430000Y-81859285D01*
X74477619Y-81811666D01*
X74572857Y-81764047D01*
X74715714Y-81764047D01*
X74810952Y-81811666D01*
X74858571Y-81859285D01*
X74906190Y-81954523D01*
X74906190Y-82335476D01*
X74477619Y-81383095D02*
X74430000Y-81335476D01*
X74382380Y-81240238D01*
X74382380Y-81002142D01*
X74430000Y-80906904D01*
X74477619Y-80859285D01*
X74572857Y-80811666D01*
X74668095Y-80811666D01*
X74810952Y-80859285D01*
X75382380Y-81430714D01*
X75382380Y-80811666D01*
X74382380Y-80192619D02*
X74382380Y-80097380D01*
X74430000Y-80002142D01*
X74477619Y-79954523D01*
X74572857Y-79906904D01*
X74763333Y-79859285D01*
X75001428Y-79859285D01*
X75191904Y-79906904D01*
X75287142Y-79954523D01*
X75334761Y-80002142D01*
X75382380Y-80097380D01*
X75382380Y-80192619D01*
X75334761Y-80287857D01*
X75287142Y-80335476D01*
X75191904Y-80383095D01*
X75001428Y-80430714D01*
X74763333Y-80430714D01*
X74572857Y-80383095D01*
X74477619Y-80335476D01*
X74430000Y-80287857D01*
X74382380Y-80192619D01*
X74382380Y-78954523D02*
X74382380Y-79430714D01*
X74858571Y-79478333D01*
X74810952Y-79430714D01*
X74763333Y-79335476D01*
X74763333Y-79097380D01*
X74810952Y-79002142D01*
X74858571Y-78954523D01*
X74953809Y-78906904D01*
X75191904Y-78906904D01*
X75287142Y-78954523D01*
X75334761Y-79002142D01*
X75382380Y-79097380D01*
X75382380Y-79335476D01*
X75334761Y-79430714D01*
X75287142Y-79478333D01*
X80462380Y-69064047D02*
X79986190Y-69397380D01*
X80462380Y-69635476D02*
X79462380Y-69635476D01*
X79462380Y-69254523D01*
X79510000Y-69159285D01*
X79557619Y-69111666D01*
X79652857Y-69064047D01*
X79795714Y-69064047D01*
X79890952Y-69111666D01*
X79938571Y-69159285D01*
X79986190Y-69254523D01*
X79986190Y-69635476D01*
X79557619Y-68683095D02*
X79510000Y-68635476D01*
X79462380Y-68540238D01*
X79462380Y-68302142D01*
X79510000Y-68206904D01*
X79557619Y-68159285D01*
X79652857Y-68111666D01*
X79748095Y-68111666D01*
X79890952Y-68159285D01*
X80462380Y-68730714D01*
X80462380Y-68111666D01*
X79462380Y-67492619D02*
X79462380Y-67397380D01*
X79510000Y-67302142D01*
X79557619Y-67254523D01*
X79652857Y-67206904D01*
X79843333Y-67159285D01*
X80081428Y-67159285D01*
X80271904Y-67206904D01*
X80367142Y-67254523D01*
X80414761Y-67302142D01*
X80462380Y-67397380D01*
X80462380Y-67492619D01*
X80414761Y-67587857D01*
X80367142Y-67635476D01*
X80271904Y-67683095D01*
X80081428Y-67730714D01*
X79843333Y-67730714D01*
X79652857Y-67683095D01*
X79557619Y-67635476D01*
X79510000Y-67587857D01*
X79462380Y-67492619D01*
X79795714Y-66302142D02*
X80462380Y-66302142D01*
X79414761Y-66540238D02*
X80129047Y-66778333D01*
X80129047Y-66159285D01*
X77620952Y-74747380D02*
X77287619Y-74271190D01*
X77049523Y-74747380D02*
X77049523Y-73747380D01*
X77430476Y-73747380D01*
X77525714Y-73795000D01*
X77573333Y-73842619D01*
X77620952Y-73937857D01*
X77620952Y-74080714D01*
X77573333Y-74175952D01*
X77525714Y-74223571D01*
X77430476Y-74271190D01*
X77049523Y-74271190D01*
X78001904Y-73842619D02*
X78049523Y-73795000D01*
X78144761Y-73747380D01*
X78382857Y-73747380D01*
X78478095Y-73795000D01*
X78525714Y-73842619D01*
X78573333Y-73937857D01*
X78573333Y-74033095D01*
X78525714Y-74175952D01*
X77954285Y-74747380D01*
X78573333Y-74747380D01*
X79192380Y-73747380D02*
X79287619Y-73747380D01*
X79382857Y-73795000D01*
X79430476Y-73842619D01*
X79478095Y-73937857D01*
X79525714Y-74128333D01*
X79525714Y-74366428D01*
X79478095Y-74556904D01*
X79430476Y-74652142D01*
X79382857Y-74699761D01*
X79287619Y-74747380D01*
X79192380Y-74747380D01*
X79097142Y-74699761D01*
X79049523Y-74652142D01*
X79001904Y-74556904D01*
X78954285Y-74366428D01*
X78954285Y-74128333D01*
X79001904Y-73937857D01*
X79049523Y-73842619D01*
X79097142Y-73795000D01*
X79192380Y-73747380D01*
X79859047Y-73747380D02*
X80478095Y-73747380D01*
X80144761Y-74128333D01*
X80287619Y-74128333D01*
X80382857Y-74175952D01*
X80430476Y-74223571D01*
X80478095Y-74318809D01*
X80478095Y-74556904D01*
X80430476Y-74652142D01*
X80382857Y-74699761D01*
X80287619Y-74747380D01*
X80001904Y-74747380D01*
X79906666Y-74699761D01*
X79859047Y-74652142D01*
X77922380Y-81764047D02*
X77446190Y-82097380D01*
X77922380Y-82335476D02*
X76922380Y-82335476D01*
X76922380Y-81954523D01*
X76970000Y-81859285D01*
X77017619Y-81811666D01*
X77112857Y-81764047D01*
X77255714Y-81764047D01*
X77350952Y-81811666D01*
X77398571Y-81859285D01*
X77446190Y-81954523D01*
X77446190Y-82335476D01*
X77017619Y-81383095D02*
X76970000Y-81335476D01*
X76922380Y-81240238D01*
X76922380Y-81002142D01*
X76970000Y-80906904D01*
X77017619Y-80859285D01*
X77112857Y-80811666D01*
X77208095Y-80811666D01*
X77350952Y-80859285D01*
X77922380Y-81430714D01*
X77922380Y-80811666D01*
X76922380Y-80192619D02*
X76922380Y-80097380D01*
X76970000Y-80002142D01*
X77017619Y-79954523D01*
X77112857Y-79906904D01*
X77303333Y-79859285D01*
X77541428Y-79859285D01*
X77731904Y-79906904D01*
X77827142Y-79954523D01*
X77874761Y-80002142D01*
X77922380Y-80097380D01*
X77922380Y-80192619D01*
X77874761Y-80287857D01*
X77827142Y-80335476D01*
X77731904Y-80383095D01*
X77541428Y-80430714D01*
X77303333Y-80430714D01*
X77112857Y-80383095D01*
X77017619Y-80335476D01*
X76970000Y-80287857D01*
X76922380Y-80192619D01*
X77017619Y-79478333D02*
X76970000Y-79430714D01*
X76922380Y-79335476D01*
X76922380Y-79097380D01*
X76970000Y-79002142D01*
X77017619Y-78954523D01*
X77112857Y-78906904D01*
X77208095Y-78906904D01*
X77350952Y-78954523D01*
X77922380Y-79525952D01*
X77922380Y-78906904D01*
X85542380Y-84304047D02*
X85066190Y-84637380D01*
X85542380Y-84875476D02*
X84542380Y-84875476D01*
X84542380Y-84494523D01*
X84590000Y-84399285D01*
X84637619Y-84351666D01*
X84732857Y-84304047D01*
X84875714Y-84304047D01*
X84970952Y-84351666D01*
X85018571Y-84399285D01*
X85066190Y-84494523D01*
X85066190Y-84875476D01*
X84637619Y-83923095D02*
X84590000Y-83875476D01*
X84542380Y-83780238D01*
X84542380Y-83542142D01*
X84590000Y-83446904D01*
X84637619Y-83399285D01*
X84732857Y-83351666D01*
X84828095Y-83351666D01*
X84970952Y-83399285D01*
X85542380Y-83970714D01*
X85542380Y-83351666D01*
X84542380Y-82732619D02*
X84542380Y-82637380D01*
X84590000Y-82542142D01*
X84637619Y-82494523D01*
X84732857Y-82446904D01*
X84923333Y-82399285D01*
X85161428Y-82399285D01*
X85351904Y-82446904D01*
X85447142Y-82494523D01*
X85494761Y-82542142D01*
X85542380Y-82637380D01*
X85542380Y-82732619D01*
X85494761Y-82827857D01*
X85447142Y-82875476D01*
X85351904Y-82923095D01*
X85161428Y-82970714D01*
X84923333Y-82970714D01*
X84732857Y-82923095D01*
X84637619Y-82875476D01*
X84590000Y-82827857D01*
X84542380Y-82732619D01*
X85542380Y-81446904D02*
X85542380Y-82018333D01*
X85542380Y-81732619D02*
X84542380Y-81732619D01*
X84685238Y-81827857D01*
X84780476Y-81923095D01*
X84828095Y-82018333D01*
X92932380Y-163492619D02*
X92837142Y-163445000D01*
X92741904Y-163349761D01*
X92599047Y-163206904D01*
X92503809Y-163159285D01*
X92408571Y-163159285D01*
X92456190Y-163397380D02*
X92360952Y-163349761D01*
X92265714Y-163254523D01*
X92218095Y-163064047D01*
X92218095Y-162730714D01*
X92265714Y-162540238D01*
X92360952Y-162445000D01*
X92456190Y-162397380D01*
X92646666Y-162397380D01*
X92741904Y-162445000D01*
X92837142Y-162540238D01*
X92884761Y-162730714D01*
X92884761Y-163064047D01*
X92837142Y-163254523D01*
X92741904Y-163349761D01*
X92646666Y-163397380D01*
X92456190Y-163397380D01*
X93741904Y-162730714D02*
X93741904Y-163397380D01*
X93503809Y-162349761D02*
X93265714Y-163064047D01*
X93884761Y-163064047D01*
X94456190Y-162397380D02*
X94551428Y-162397380D01*
X94646666Y-162445000D01*
X94694285Y-162492619D01*
X94741904Y-162587857D01*
X94789523Y-162778333D01*
X94789523Y-163016428D01*
X94741904Y-163206904D01*
X94694285Y-163302142D01*
X94646666Y-163349761D01*
X94551428Y-163397380D01*
X94456190Y-163397380D01*
X94360952Y-163349761D01*
X94313333Y-163302142D01*
X94265714Y-163206904D01*
X94218095Y-163016428D01*
X94218095Y-162778333D01*
X94265714Y-162587857D01*
X94313333Y-162492619D01*
X94360952Y-162445000D01*
X94456190Y-162397380D01*
X95122857Y-162397380D02*
X95741904Y-162397380D01*
X95408571Y-162778333D01*
X95551428Y-162778333D01*
X95646666Y-162825952D01*
X95694285Y-162873571D01*
X95741904Y-162968809D01*
X95741904Y-163206904D01*
X95694285Y-163302142D01*
X95646666Y-163349761D01*
X95551428Y-163397380D01*
X95265714Y-163397380D01*
X95170476Y-163349761D01*
X95122857Y-163302142D01*
X96107380Y-115482619D02*
X96012142Y-115435000D01*
X95916904Y-115339761D01*
X95774047Y-115196904D01*
X95678809Y-115149285D01*
X95583571Y-115149285D01*
X95631190Y-115387380D02*
X95535952Y-115339761D01*
X95440714Y-115244523D01*
X95393095Y-115054047D01*
X95393095Y-114720714D01*
X95440714Y-114530238D01*
X95535952Y-114435000D01*
X95631190Y-114387380D01*
X95821666Y-114387380D01*
X95916904Y-114435000D01*
X96012142Y-114530238D01*
X96059761Y-114720714D01*
X96059761Y-115054047D01*
X96012142Y-115244523D01*
X95916904Y-115339761D01*
X95821666Y-115387380D01*
X95631190Y-115387380D01*
X96916904Y-114720714D02*
X96916904Y-115387380D01*
X96678809Y-114339761D02*
X96440714Y-115054047D01*
X97059761Y-115054047D01*
X97631190Y-114387380D02*
X97726428Y-114387380D01*
X97821666Y-114435000D01*
X97869285Y-114482619D01*
X97916904Y-114577857D01*
X97964523Y-114768333D01*
X97964523Y-115006428D01*
X97916904Y-115196904D01*
X97869285Y-115292142D01*
X97821666Y-115339761D01*
X97726428Y-115387380D01*
X97631190Y-115387380D01*
X97535952Y-115339761D01*
X97488333Y-115292142D01*
X97440714Y-115196904D01*
X97393095Y-115006428D01*
X97393095Y-114768333D01*
X97440714Y-114577857D01*
X97488333Y-114482619D01*
X97535952Y-114435000D01*
X97631190Y-114387380D01*
X98345476Y-114482619D02*
X98393095Y-114435000D01*
X98488333Y-114387380D01*
X98726428Y-114387380D01*
X98821666Y-114435000D01*
X98869285Y-114482619D01*
X98916904Y-114577857D01*
X98916904Y-114673095D01*
X98869285Y-114815952D01*
X98297857Y-115387380D01*
X98916904Y-115387380D01*
X91027380Y-115482619D02*
X90932142Y-115435000D01*
X90836904Y-115339761D01*
X90694047Y-115196904D01*
X90598809Y-115149285D01*
X90503571Y-115149285D01*
X90551190Y-115387380D02*
X90455952Y-115339761D01*
X90360714Y-115244523D01*
X90313095Y-115054047D01*
X90313095Y-114720714D01*
X90360714Y-114530238D01*
X90455952Y-114435000D01*
X90551190Y-114387380D01*
X90741666Y-114387380D01*
X90836904Y-114435000D01*
X90932142Y-114530238D01*
X90979761Y-114720714D01*
X90979761Y-115054047D01*
X90932142Y-115244523D01*
X90836904Y-115339761D01*
X90741666Y-115387380D01*
X90551190Y-115387380D01*
X91836904Y-114720714D02*
X91836904Y-115387380D01*
X91598809Y-114339761D02*
X91360714Y-115054047D01*
X91979761Y-115054047D01*
X92551190Y-114387380D02*
X92646428Y-114387380D01*
X92741666Y-114435000D01*
X92789285Y-114482619D01*
X92836904Y-114577857D01*
X92884523Y-114768333D01*
X92884523Y-115006428D01*
X92836904Y-115196904D01*
X92789285Y-115292142D01*
X92741666Y-115339761D01*
X92646428Y-115387380D01*
X92551190Y-115387380D01*
X92455952Y-115339761D01*
X92408333Y-115292142D01*
X92360714Y-115196904D01*
X92313095Y-115006428D01*
X92313095Y-114768333D01*
X92360714Y-114577857D01*
X92408333Y-114482619D01*
X92455952Y-114435000D01*
X92551190Y-114387380D01*
X93836904Y-115387380D02*
X93265476Y-115387380D01*
X93551190Y-115387380D02*
X93551190Y-114387380D01*
X93455952Y-114530238D01*
X93360714Y-114625476D01*
X93265476Y-114673095D01*
X130099285Y-94067380D02*
X130099285Y-94781666D01*
X130051666Y-94924523D01*
X129956428Y-95019761D01*
X129813571Y-95067380D01*
X129718333Y-95067380D01*
X131099285Y-95067380D02*
X130527857Y-95067380D01*
X130813571Y-95067380D02*
X130813571Y-94067380D01*
X130718333Y-94210238D01*
X130623095Y-94305476D01*
X130527857Y-94353095D01*
X131718333Y-94067380D02*
X131813571Y-94067380D01*
X131908809Y-94115000D01*
X131956428Y-94162619D01*
X132004047Y-94257857D01*
X132051666Y-94448333D01*
X132051666Y-94686428D01*
X132004047Y-94876904D01*
X131956428Y-94972142D01*
X131908809Y-95019761D01*
X131813571Y-95067380D01*
X131718333Y-95067380D01*
X131623095Y-95019761D01*
X131575476Y-94972142D01*
X131527857Y-94876904D01*
X131480238Y-94686428D01*
X131480238Y-94448333D01*
X131527857Y-94257857D01*
X131575476Y-94162619D01*
X131623095Y-94115000D01*
X131718333Y-94067380D01*
X133004047Y-95067380D02*
X132432619Y-95067380D01*
X132718333Y-95067380D02*
X132718333Y-94067380D01*
X132623095Y-94210238D01*
X132527857Y-94305476D01*
X132432619Y-94353095D01*
X105862380Y-84875476D02*
X104862380Y-84875476D01*
X104862380Y-84637380D01*
X104910000Y-84494523D01*
X105005238Y-84399285D01*
X105100476Y-84351666D01*
X105290952Y-84304047D01*
X105433809Y-84304047D01*
X105624285Y-84351666D01*
X105719523Y-84399285D01*
X105814761Y-84494523D01*
X105862380Y-84637380D01*
X105862380Y-84875476D01*
X104957619Y-83923095D02*
X104910000Y-83875476D01*
X104862380Y-83780238D01*
X104862380Y-83542142D01*
X104910000Y-83446904D01*
X104957619Y-83399285D01*
X105052857Y-83351666D01*
X105148095Y-83351666D01*
X105290952Y-83399285D01*
X105862380Y-83970714D01*
X105862380Y-83351666D01*
X104862380Y-82732619D02*
X104862380Y-82637380D01*
X104910000Y-82542142D01*
X104957619Y-82494523D01*
X105052857Y-82446904D01*
X105243333Y-82399285D01*
X105481428Y-82399285D01*
X105671904Y-82446904D01*
X105767142Y-82494523D01*
X105814761Y-82542142D01*
X105862380Y-82637380D01*
X105862380Y-82732619D01*
X105814761Y-82827857D01*
X105767142Y-82875476D01*
X105671904Y-82923095D01*
X105481428Y-82970714D01*
X105243333Y-82970714D01*
X105052857Y-82923095D01*
X104957619Y-82875476D01*
X104910000Y-82827857D01*
X104862380Y-82732619D01*
X105290952Y-81827857D02*
X105243333Y-81923095D01*
X105195714Y-81970714D01*
X105100476Y-82018333D01*
X105052857Y-82018333D01*
X104957619Y-81970714D01*
X104910000Y-81923095D01*
X104862380Y-81827857D01*
X104862380Y-81637380D01*
X104910000Y-81542142D01*
X104957619Y-81494523D01*
X105052857Y-81446904D01*
X105100476Y-81446904D01*
X105195714Y-81494523D01*
X105243333Y-81542142D01*
X105290952Y-81637380D01*
X105290952Y-81827857D01*
X105338571Y-81923095D01*
X105386190Y-81970714D01*
X105481428Y-82018333D01*
X105671904Y-82018333D01*
X105767142Y-81970714D01*
X105814761Y-81923095D01*
X105862380Y-81827857D01*
X105862380Y-81637380D01*
X105814761Y-81542142D01*
X105767142Y-81494523D01*
X105671904Y-81446904D01*
X105481428Y-81446904D01*
X105386190Y-81494523D01*
X105338571Y-81542142D01*
X105290952Y-81637380D01*
X108402380Y-69635476D02*
X107402380Y-69635476D01*
X107402380Y-69397380D01*
X107450000Y-69254523D01*
X107545238Y-69159285D01*
X107640476Y-69111666D01*
X107830952Y-69064047D01*
X107973809Y-69064047D01*
X108164285Y-69111666D01*
X108259523Y-69159285D01*
X108354761Y-69254523D01*
X108402380Y-69397380D01*
X108402380Y-69635476D01*
X107497619Y-68683095D02*
X107450000Y-68635476D01*
X107402380Y-68540238D01*
X107402380Y-68302142D01*
X107450000Y-68206904D01*
X107497619Y-68159285D01*
X107592857Y-68111666D01*
X107688095Y-68111666D01*
X107830952Y-68159285D01*
X108402380Y-68730714D01*
X108402380Y-68111666D01*
X107402380Y-67492619D02*
X107402380Y-67397380D01*
X107450000Y-67302142D01*
X107497619Y-67254523D01*
X107592857Y-67206904D01*
X107783333Y-67159285D01*
X108021428Y-67159285D01*
X108211904Y-67206904D01*
X108307142Y-67254523D01*
X108354761Y-67302142D01*
X108402380Y-67397380D01*
X108402380Y-67492619D01*
X108354761Y-67587857D01*
X108307142Y-67635476D01*
X108211904Y-67683095D01*
X108021428Y-67730714D01*
X107783333Y-67730714D01*
X107592857Y-67683095D01*
X107497619Y-67635476D01*
X107450000Y-67587857D01*
X107402380Y-67492619D01*
X107402380Y-66825952D02*
X107402380Y-66159285D01*
X108402380Y-66587857D01*
X95702380Y-84875476D02*
X94702380Y-84875476D01*
X94702380Y-84637380D01*
X94750000Y-84494523D01*
X94845238Y-84399285D01*
X94940476Y-84351666D01*
X95130952Y-84304047D01*
X95273809Y-84304047D01*
X95464285Y-84351666D01*
X95559523Y-84399285D01*
X95654761Y-84494523D01*
X95702380Y-84637380D01*
X95702380Y-84875476D01*
X94797619Y-83923095D02*
X94750000Y-83875476D01*
X94702380Y-83780238D01*
X94702380Y-83542142D01*
X94750000Y-83446904D01*
X94797619Y-83399285D01*
X94892857Y-83351666D01*
X94988095Y-83351666D01*
X95130952Y-83399285D01*
X95702380Y-83970714D01*
X95702380Y-83351666D01*
X94702380Y-82732619D02*
X94702380Y-82637380D01*
X94750000Y-82542142D01*
X94797619Y-82494523D01*
X94892857Y-82446904D01*
X95083333Y-82399285D01*
X95321428Y-82399285D01*
X95511904Y-82446904D01*
X95607142Y-82494523D01*
X95654761Y-82542142D01*
X95702380Y-82637380D01*
X95702380Y-82732619D01*
X95654761Y-82827857D01*
X95607142Y-82875476D01*
X95511904Y-82923095D01*
X95321428Y-82970714D01*
X95083333Y-82970714D01*
X94892857Y-82923095D01*
X94797619Y-82875476D01*
X94750000Y-82827857D01*
X94702380Y-82732619D01*
X94702380Y-81542142D02*
X94702380Y-81732619D01*
X94750000Y-81827857D01*
X94797619Y-81875476D01*
X94940476Y-81970714D01*
X95130952Y-82018333D01*
X95511904Y-82018333D01*
X95607142Y-81970714D01*
X95654761Y-81923095D01*
X95702380Y-81827857D01*
X95702380Y-81637380D01*
X95654761Y-81542142D01*
X95607142Y-81494523D01*
X95511904Y-81446904D01*
X95273809Y-81446904D01*
X95178571Y-81494523D01*
X95130952Y-81542142D01*
X95083333Y-81637380D01*
X95083333Y-81827857D01*
X95130952Y-81923095D01*
X95178571Y-81970714D01*
X95273809Y-82018333D01*
X110942380Y-69635476D02*
X109942380Y-69635476D01*
X109942380Y-69397380D01*
X109990000Y-69254523D01*
X110085238Y-69159285D01*
X110180476Y-69111666D01*
X110370952Y-69064047D01*
X110513809Y-69064047D01*
X110704285Y-69111666D01*
X110799523Y-69159285D01*
X110894761Y-69254523D01*
X110942380Y-69397380D01*
X110942380Y-69635476D01*
X110037619Y-68683095D02*
X109990000Y-68635476D01*
X109942380Y-68540238D01*
X109942380Y-68302142D01*
X109990000Y-68206904D01*
X110037619Y-68159285D01*
X110132857Y-68111666D01*
X110228095Y-68111666D01*
X110370952Y-68159285D01*
X110942380Y-68730714D01*
X110942380Y-68111666D01*
X109942380Y-67492619D02*
X109942380Y-67397380D01*
X109990000Y-67302142D01*
X110037619Y-67254523D01*
X110132857Y-67206904D01*
X110323333Y-67159285D01*
X110561428Y-67159285D01*
X110751904Y-67206904D01*
X110847142Y-67254523D01*
X110894761Y-67302142D01*
X110942380Y-67397380D01*
X110942380Y-67492619D01*
X110894761Y-67587857D01*
X110847142Y-67635476D01*
X110751904Y-67683095D01*
X110561428Y-67730714D01*
X110323333Y-67730714D01*
X110132857Y-67683095D01*
X110037619Y-67635476D01*
X109990000Y-67587857D01*
X109942380Y-67492619D01*
X109942380Y-66254523D02*
X109942380Y-66730714D01*
X110418571Y-66778333D01*
X110370952Y-66730714D01*
X110323333Y-66635476D01*
X110323333Y-66397380D01*
X110370952Y-66302142D01*
X110418571Y-66254523D01*
X110513809Y-66206904D01*
X110751904Y-66206904D01*
X110847142Y-66254523D01*
X110894761Y-66302142D01*
X110942380Y-66397380D01*
X110942380Y-66635476D01*
X110894761Y-66730714D01*
X110847142Y-66778333D01*
X80462380Y-84875476D02*
X79462380Y-84875476D01*
X79462380Y-84637380D01*
X79510000Y-84494523D01*
X79605238Y-84399285D01*
X79700476Y-84351666D01*
X79890952Y-84304047D01*
X80033809Y-84304047D01*
X80224285Y-84351666D01*
X80319523Y-84399285D01*
X80414761Y-84494523D01*
X80462380Y-84637380D01*
X80462380Y-84875476D01*
X79557619Y-83923095D02*
X79510000Y-83875476D01*
X79462380Y-83780238D01*
X79462380Y-83542142D01*
X79510000Y-83446904D01*
X79557619Y-83399285D01*
X79652857Y-83351666D01*
X79748095Y-83351666D01*
X79890952Y-83399285D01*
X80462380Y-83970714D01*
X80462380Y-83351666D01*
X79462380Y-82732619D02*
X79462380Y-82637380D01*
X79510000Y-82542142D01*
X79557619Y-82494523D01*
X79652857Y-82446904D01*
X79843333Y-82399285D01*
X80081428Y-82399285D01*
X80271904Y-82446904D01*
X80367142Y-82494523D01*
X80414761Y-82542142D01*
X80462380Y-82637380D01*
X80462380Y-82732619D01*
X80414761Y-82827857D01*
X80367142Y-82875476D01*
X80271904Y-82923095D01*
X80081428Y-82970714D01*
X79843333Y-82970714D01*
X79652857Y-82923095D01*
X79557619Y-82875476D01*
X79510000Y-82827857D01*
X79462380Y-82732619D01*
X79795714Y-81542142D02*
X80462380Y-81542142D01*
X79414761Y-81780238D02*
X80129047Y-82018333D01*
X80129047Y-81399285D01*
X77922380Y-69635476D02*
X76922380Y-69635476D01*
X76922380Y-69397380D01*
X76970000Y-69254523D01*
X77065238Y-69159285D01*
X77160476Y-69111666D01*
X77350952Y-69064047D01*
X77493809Y-69064047D01*
X77684285Y-69111666D01*
X77779523Y-69159285D01*
X77874761Y-69254523D01*
X77922380Y-69397380D01*
X77922380Y-69635476D01*
X77017619Y-68683095D02*
X76970000Y-68635476D01*
X76922380Y-68540238D01*
X76922380Y-68302142D01*
X76970000Y-68206904D01*
X77017619Y-68159285D01*
X77112857Y-68111666D01*
X77208095Y-68111666D01*
X77350952Y-68159285D01*
X77922380Y-68730714D01*
X77922380Y-68111666D01*
X76922380Y-67492619D02*
X76922380Y-67397380D01*
X76970000Y-67302142D01*
X77017619Y-67254523D01*
X77112857Y-67206904D01*
X77303333Y-67159285D01*
X77541428Y-67159285D01*
X77731904Y-67206904D01*
X77827142Y-67254523D01*
X77874761Y-67302142D01*
X77922380Y-67397380D01*
X77922380Y-67492619D01*
X77874761Y-67587857D01*
X77827142Y-67635476D01*
X77731904Y-67683095D01*
X77541428Y-67730714D01*
X77303333Y-67730714D01*
X77112857Y-67683095D01*
X77017619Y-67635476D01*
X76970000Y-67587857D01*
X76922380Y-67492619D01*
X76922380Y-66825952D02*
X76922380Y-66206904D01*
X77303333Y-66540238D01*
X77303333Y-66397380D01*
X77350952Y-66302142D01*
X77398571Y-66254523D01*
X77493809Y-66206904D01*
X77731904Y-66206904D01*
X77827142Y-66254523D01*
X77874761Y-66302142D01*
X77922380Y-66397380D01*
X77922380Y-66683095D01*
X77874761Y-66778333D01*
X77827142Y-66825952D01*
X90622380Y-84875476D02*
X89622380Y-84875476D01*
X89622380Y-84637380D01*
X89670000Y-84494523D01*
X89765238Y-84399285D01*
X89860476Y-84351666D01*
X90050952Y-84304047D01*
X90193809Y-84304047D01*
X90384285Y-84351666D01*
X90479523Y-84399285D01*
X90574761Y-84494523D01*
X90622380Y-84637380D01*
X90622380Y-84875476D01*
X89717619Y-83923095D02*
X89670000Y-83875476D01*
X89622380Y-83780238D01*
X89622380Y-83542142D01*
X89670000Y-83446904D01*
X89717619Y-83399285D01*
X89812857Y-83351666D01*
X89908095Y-83351666D01*
X90050952Y-83399285D01*
X90622380Y-83970714D01*
X90622380Y-83351666D01*
X89622380Y-82732619D02*
X89622380Y-82637380D01*
X89670000Y-82542142D01*
X89717619Y-82494523D01*
X89812857Y-82446904D01*
X90003333Y-82399285D01*
X90241428Y-82399285D01*
X90431904Y-82446904D01*
X90527142Y-82494523D01*
X90574761Y-82542142D01*
X90622380Y-82637380D01*
X90622380Y-82732619D01*
X90574761Y-82827857D01*
X90527142Y-82875476D01*
X90431904Y-82923095D01*
X90241428Y-82970714D01*
X90003333Y-82970714D01*
X89812857Y-82923095D01*
X89717619Y-82875476D01*
X89670000Y-82827857D01*
X89622380Y-82732619D01*
X89717619Y-82018333D02*
X89670000Y-81970714D01*
X89622380Y-81875476D01*
X89622380Y-81637380D01*
X89670000Y-81542142D01*
X89717619Y-81494523D01*
X89812857Y-81446904D01*
X89908095Y-81446904D01*
X90050952Y-81494523D01*
X90622380Y-82065952D01*
X90622380Y-81446904D01*
X75382380Y-69635476D02*
X74382380Y-69635476D01*
X74382380Y-69397380D01*
X74430000Y-69254523D01*
X74525238Y-69159285D01*
X74620476Y-69111666D01*
X74810952Y-69064047D01*
X74953809Y-69064047D01*
X75144285Y-69111666D01*
X75239523Y-69159285D01*
X75334761Y-69254523D01*
X75382380Y-69397380D01*
X75382380Y-69635476D01*
X74477619Y-68683095D02*
X74430000Y-68635476D01*
X74382380Y-68540238D01*
X74382380Y-68302142D01*
X74430000Y-68206904D01*
X74477619Y-68159285D01*
X74572857Y-68111666D01*
X74668095Y-68111666D01*
X74810952Y-68159285D01*
X75382380Y-68730714D01*
X75382380Y-68111666D01*
X74382380Y-67492619D02*
X74382380Y-67397380D01*
X74430000Y-67302142D01*
X74477619Y-67254523D01*
X74572857Y-67206904D01*
X74763333Y-67159285D01*
X75001428Y-67159285D01*
X75191904Y-67206904D01*
X75287142Y-67254523D01*
X75334761Y-67302142D01*
X75382380Y-67397380D01*
X75382380Y-67492619D01*
X75334761Y-67587857D01*
X75287142Y-67635476D01*
X75191904Y-67683095D01*
X75001428Y-67730714D01*
X74763333Y-67730714D01*
X74572857Y-67683095D01*
X74477619Y-67635476D01*
X74430000Y-67587857D01*
X74382380Y-67492619D01*
X75382380Y-66206904D02*
X75382380Y-66778333D01*
X75382380Y-66492619D02*
X74382380Y-66492619D01*
X74525238Y-66587857D01*
X74620476Y-66683095D01*
X74668095Y-66778333D01*
X98087142Y-144474047D02*
X98134761Y-144521666D01*
X98182380Y-144664523D01*
X98182380Y-144759761D01*
X98134761Y-144902619D01*
X98039523Y-144997857D01*
X97944285Y-145045476D01*
X97753809Y-145093095D01*
X97610952Y-145093095D01*
X97420476Y-145045476D01*
X97325238Y-144997857D01*
X97230000Y-144902619D01*
X97182380Y-144759761D01*
X97182380Y-144664523D01*
X97230000Y-144521666D01*
X97277619Y-144474047D01*
X98182380Y-144045476D02*
X97182380Y-144045476D01*
X97182380Y-143664523D01*
X97230000Y-143569285D01*
X97277619Y-143521666D01*
X97372857Y-143474047D01*
X97515714Y-143474047D01*
X97610952Y-143521666D01*
X97658571Y-143569285D01*
X97706190Y-143664523D01*
X97706190Y-144045476D01*
X97515714Y-142616904D02*
X98182380Y-142616904D01*
X97134761Y-142855000D02*
X97849047Y-143093095D01*
X97849047Y-142474047D01*
X97182380Y-141902619D02*
X97182380Y-141807380D01*
X97230000Y-141712142D01*
X97277619Y-141664523D01*
X97372857Y-141616904D01*
X97563333Y-141569285D01*
X97801428Y-141569285D01*
X97991904Y-141616904D01*
X98087142Y-141664523D01*
X98134761Y-141712142D01*
X98182380Y-141807380D01*
X98182380Y-141902619D01*
X98134761Y-141997857D01*
X98087142Y-142045476D01*
X97991904Y-142093095D01*
X97801428Y-142140714D01*
X97563333Y-142140714D01*
X97372857Y-142093095D01*
X97277619Y-142045476D01*
X97230000Y-141997857D01*
X97182380Y-141902619D01*
X98182380Y-140616904D02*
X98182380Y-141188333D01*
X98182380Y-140902619D02*
X97182380Y-140902619D01*
X97325238Y-140997857D01*
X97420476Y-141093095D01*
X97468095Y-141188333D01*
X100687142Y-130024047D02*
X100734761Y-130071666D01*
X100782380Y-130214523D01*
X100782380Y-130309761D01*
X100734761Y-130452619D01*
X100639523Y-130547857D01*
X100544285Y-130595476D01*
X100353809Y-130643095D01*
X100210952Y-130643095D01*
X100020476Y-130595476D01*
X99925238Y-130547857D01*
X99830000Y-130452619D01*
X99782380Y-130309761D01*
X99782380Y-130214523D01*
X99830000Y-130071666D01*
X99877619Y-130024047D01*
X100115714Y-129166904D02*
X100782380Y-129166904D01*
X99734761Y-129405000D02*
X100449047Y-129643095D01*
X100449047Y-129024047D01*
X99782380Y-128452619D02*
X99782380Y-128357380D01*
X99830000Y-128262142D01*
X99877619Y-128214523D01*
X99972857Y-128166904D01*
X100163333Y-128119285D01*
X100401428Y-128119285D01*
X100591904Y-128166904D01*
X100687142Y-128214523D01*
X100734761Y-128262142D01*
X100782380Y-128357380D01*
X100782380Y-128452619D01*
X100734761Y-128547857D01*
X100687142Y-128595476D01*
X100591904Y-128643095D01*
X100401428Y-128690714D01*
X100163333Y-128690714D01*
X99972857Y-128643095D01*
X99877619Y-128595476D01*
X99830000Y-128547857D01*
X99782380Y-128452619D01*
X100115714Y-127262142D02*
X100782380Y-127262142D01*
X99734761Y-127500238D02*
X100449047Y-127738333D01*
X100449047Y-127119285D01*
X87987142Y-132564047D02*
X88034761Y-132611666D01*
X88082380Y-132754523D01*
X88082380Y-132849761D01*
X88034761Y-132992619D01*
X87939523Y-133087857D01*
X87844285Y-133135476D01*
X87653809Y-133183095D01*
X87510952Y-133183095D01*
X87320476Y-133135476D01*
X87225238Y-133087857D01*
X87130000Y-132992619D01*
X87082380Y-132849761D01*
X87082380Y-132754523D01*
X87130000Y-132611666D01*
X87177619Y-132564047D01*
X87415714Y-131706904D02*
X88082380Y-131706904D01*
X87034761Y-131945000D02*
X87749047Y-132183095D01*
X87749047Y-131564047D01*
X87082380Y-130992619D02*
X87082380Y-130897380D01*
X87130000Y-130802142D01*
X87177619Y-130754523D01*
X87272857Y-130706904D01*
X87463333Y-130659285D01*
X87701428Y-130659285D01*
X87891904Y-130706904D01*
X87987142Y-130754523D01*
X88034761Y-130802142D01*
X88082380Y-130897380D01*
X88082380Y-130992619D01*
X88034761Y-131087857D01*
X87987142Y-131135476D01*
X87891904Y-131183095D01*
X87701428Y-131230714D01*
X87463333Y-131230714D01*
X87272857Y-131183095D01*
X87177619Y-131135476D01*
X87130000Y-131087857D01*
X87082380Y-130992619D01*
X87082380Y-130325952D02*
X87082380Y-129706904D01*
X87463333Y-130040238D01*
X87463333Y-129897380D01*
X87510952Y-129802142D01*
X87558571Y-129754523D01*
X87653809Y-129706904D01*
X87891904Y-129706904D01*
X87987142Y-129754523D01*
X88034761Y-129802142D01*
X88082380Y-129897380D01*
X88082380Y-130183095D01*
X88034761Y-130278333D01*
X87987142Y-130325952D01*
X87800952Y-158472142D02*
X87753333Y-158519761D01*
X87610476Y-158567380D01*
X87515238Y-158567380D01*
X87372380Y-158519761D01*
X87277142Y-158424523D01*
X87229523Y-158329285D01*
X87181904Y-158138809D01*
X87181904Y-157995952D01*
X87229523Y-157805476D01*
X87277142Y-157710238D01*
X87372380Y-157615000D01*
X87515238Y-157567380D01*
X87610476Y-157567380D01*
X87753333Y-157615000D01*
X87800952Y-157662619D01*
X88658095Y-157900714D02*
X88658095Y-158567380D01*
X88420000Y-157519761D02*
X88181904Y-158234047D01*
X88800952Y-158234047D01*
X89372380Y-157567380D02*
X89467619Y-157567380D01*
X89562857Y-157615000D01*
X89610476Y-157662619D01*
X89658095Y-157757857D01*
X89705714Y-157948333D01*
X89705714Y-158186428D01*
X89658095Y-158376904D01*
X89610476Y-158472142D01*
X89562857Y-158519761D01*
X89467619Y-158567380D01*
X89372380Y-158567380D01*
X89277142Y-158519761D01*
X89229523Y-158472142D01*
X89181904Y-158376904D01*
X89134285Y-158186428D01*
X89134285Y-157948333D01*
X89181904Y-157757857D01*
X89229523Y-157662619D01*
X89277142Y-157615000D01*
X89372380Y-157567380D01*
X90086666Y-157662619D02*
X90134285Y-157615000D01*
X90229523Y-157567380D01*
X90467619Y-157567380D01*
X90562857Y-157615000D01*
X90610476Y-157662619D01*
X90658095Y-157757857D01*
X90658095Y-157853095D01*
X90610476Y-157995952D01*
X90039047Y-158567380D01*
X90658095Y-158567380D01*
X112117142Y-110994047D02*
X112164761Y-111041666D01*
X112212380Y-111184523D01*
X112212380Y-111279761D01*
X112164761Y-111422619D01*
X112069523Y-111517857D01*
X111974285Y-111565476D01*
X111783809Y-111613095D01*
X111640952Y-111613095D01*
X111450476Y-111565476D01*
X111355238Y-111517857D01*
X111260000Y-111422619D01*
X111212380Y-111279761D01*
X111212380Y-111184523D01*
X111260000Y-111041666D01*
X111307619Y-110994047D01*
X111212380Y-110660714D02*
X111212380Y-110041666D01*
X111593333Y-110375000D01*
X111593333Y-110232142D01*
X111640952Y-110136904D01*
X111688571Y-110089285D01*
X111783809Y-110041666D01*
X112021904Y-110041666D01*
X112117142Y-110089285D01*
X112164761Y-110136904D01*
X112212380Y-110232142D01*
X112212380Y-110517857D01*
X112164761Y-110613095D01*
X112117142Y-110660714D01*
X111212380Y-109422619D02*
X111212380Y-109327380D01*
X111260000Y-109232142D01*
X111307619Y-109184523D01*
X111402857Y-109136904D01*
X111593333Y-109089285D01*
X111831428Y-109089285D01*
X112021904Y-109136904D01*
X112117142Y-109184523D01*
X112164761Y-109232142D01*
X112212380Y-109327380D01*
X112212380Y-109422619D01*
X112164761Y-109517857D01*
X112117142Y-109565476D01*
X112021904Y-109613095D01*
X111831428Y-109660714D01*
X111593333Y-109660714D01*
X111402857Y-109613095D01*
X111307619Y-109565476D01*
X111260000Y-109517857D01*
X111212380Y-109422619D01*
X111545714Y-108232142D02*
X112212380Y-108232142D01*
X111164761Y-108470238D02*
X111879047Y-108708333D01*
X111879047Y-108089285D01*
X75100952Y-100052142D02*
X75053333Y-100099761D01*
X74910476Y-100147380D01*
X74815238Y-100147380D01*
X74672380Y-100099761D01*
X74577142Y-100004523D01*
X74529523Y-99909285D01*
X74481904Y-99718809D01*
X74481904Y-99575952D01*
X74529523Y-99385476D01*
X74577142Y-99290238D01*
X74672380Y-99195000D01*
X74815238Y-99147380D01*
X74910476Y-99147380D01*
X75053333Y-99195000D01*
X75100952Y-99242619D01*
X75434285Y-99147380D02*
X76053333Y-99147380D01*
X75720000Y-99528333D01*
X75862857Y-99528333D01*
X75958095Y-99575952D01*
X76005714Y-99623571D01*
X76053333Y-99718809D01*
X76053333Y-99956904D01*
X76005714Y-100052142D01*
X75958095Y-100099761D01*
X75862857Y-100147380D01*
X75577142Y-100147380D01*
X75481904Y-100099761D01*
X75434285Y-100052142D01*
X76672380Y-99147380D02*
X76767619Y-99147380D01*
X76862857Y-99195000D01*
X76910476Y-99242619D01*
X76958095Y-99337857D01*
X77005714Y-99528333D01*
X77005714Y-99766428D01*
X76958095Y-99956904D01*
X76910476Y-100052142D01*
X76862857Y-100099761D01*
X76767619Y-100147380D01*
X76672380Y-100147380D01*
X76577142Y-100099761D01*
X76529523Y-100052142D01*
X76481904Y-99956904D01*
X76434285Y-99766428D01*
X76434285Y-99528333D01*
X76481904Y-99337857D01*
X76529523Y-99242619D01*
X76577142Y-99195000D01*
X76672380Y-99147380D01*
X77339047Y-99147380D02*
X77958095Y-99147380D01*
X77624761Y-99528333D01*
X77767619Y-99528333D01*
X77862857Y-99575952D01*
X77910476Y-99623571D01*
X77958095Y-99718809D01*
X77958095Y-99956904D01*
X77910476Y-100052142D01*
X77862857Y-100099761D01*
X77767619Y-100147380D01*
X77481904Y-100147380D01*
X77386666Y-100099761D01*
X77339047Y-100052142D01*
X96877142Y-105894047D02*
X96924761Y-105941666D01*
X96972380Y-106084523D01*
X96972380Y-106179761D01*
X96924761Y-106322619D01*
X96829523Y-106417857D01*
X96734285Y-106465476D01*
X96543809Y-106513095D01*
X96400952Y-106513095D01*
X96210476Y-106465476D01*
X96115238Y-106417857D01*
X96020000Y-106322619D01*
X95972380Y-106179761D01*
X95972380Y-106084523D01*
X96020000Y-105941666D01*
X96067619Y-105894047D01*
X95972380Y-105560714D02*
X95972380Y-104941666D01*
X96353333Y-105275000D01*
X96353333Y-105132142D01*
X96400952Y-105036904D01*
X96448571Y-104989285D01*
X96543809Y-104941666D01*
X96781904Y-104941666D01*
X96877142Y-104989285D01*
X96924761Y-105036904D01*
X96972380Y-105132142D01*
X96972380Y-105417857D01*
X96924761Y-105513095D01*
X96877142Y-105560714D01*
X95972380Y-104322619D02*
X95972380Y-104227380D01*
X96020000Y-104132142D01*
X96067619Y-104084523D01*
X96162857Y-104036904D01*
X96353333Y-103989285D01*
X96591428Y-103989285D01*
X96781904Y-104036904D01*
X96877142Y-104084523D01*
X96924761Y-104132142D01*
X96972380Y-104227380D01*
X96972380Y-104322619D01*
X96924761Y-104417857D01*
X96877142Y-104465476D01*
X96781904Y-104513095D01*
X96591428Y-104560714D01*
X96353333Y-104560714D01*
X96162857Y-104513095D01*
X96067619Y-104465476D01*
X96020000Y-104417857D01*
X95972380Y-104322619D01*
X96067619Y-103608333D02*
X96020000Y-103560714D01*
X95972380Y-103465476D01*
X95972380Y-103227380D01*
X96020000Y-103132142D01*
X96067619Y-103084523D01*
X96162857Y-103036904D01*
X96258095Y-103036904D01*
X96400952Y-103084523D01*
X96972380Y-103655952D01*
X96972380Y-103036904D01*
X77620952Y-114022142D02*
X77573333Y-114069761D01*
X77430476Y-114117380D01*
X77335238Y-114117380D01*
X77192380Y-114069761D01*
X77097142Y-113974523D01*
X77049523Y-113879285D01*
X77001904Y-113688809D01*
X77001904Y-113545952D01*
X77049523Y-113355476D01*
X77097142Y-113260238D01*
X77192380Y-113165000D01*
X77335238Y-113117380D01*
X77430476Y-113117380D01*
X77573333Y-113165000D01*
X77620952Y-113212619D01*
X77954285Y-113117380D02*
X78573333Y-113117380D01*
X78240000Y-113498333D01*
X78382857Y-113498333D01*
X78478095Y-113545952D01*
X78525714Y-113593571D01*
X78573333Y-113688809D01*
X78573333Y-113926904D01*
X78525714Y-114022142D01*
X78478095Y-114069761D01*
X78382857Y-114117380D01*
X78097142Y-114117380D01*
X78001904Y-114069761D01*
X77954285Y-114022142D01*
X79192380Y-113117380D02*
X79287619Y-113117380D01*
X79382857Y-113165000D01*
X79430476Y-113212619D01*
X79478095Y-113307857D01*
X79525714Y-113498333D01*
X79525714Y-113736428D01*
X79478095Y-113926904D01*
X79430476Y-114022142D01*
X79382857Y-114069761D01*
X79287619Y-114117380D01*
X79192380Y-114117380D01*
X79097142Y-114069761D01*
X79049523Y-114022142D01*
X79001904Y-113926904D01*
X78954285Y-113736428D01*
X78954285Y-113498333D01*
X79001904Y-113307857D01*
X79049523Y-113212619D01*
X79097142Y-113165000D01*
X79192380Y-113117380D01*
X80478095Y-114117380D02*
X79906666Y-114117380D01*
X80192380Y-114117380D02*
X80192380Y-113117380D01*
X80097142Y-113260238D01*
X80001904Y-113355476D01*
X79906666Y-113403095D01*
X93067142Y-66544047D02*
X93114761Y-66591666D01*
X93162380Y-66734523D01*
X93162380Y-66829761D01*
X93114761Y-66972619D01*
X93019523Y-67067857D01*
X92924285Y-67115476D01*
X92733809Y-67163095D01*
X92590952Y-67163095D01*
X92400476Y-67115476D01*
X92305238Y-67067857D01*
X92210000Y-66972619D01*
X92162380Y-66829761D01*
X92162380Y-66734523D01*
X92210000Y-66591666D01*
X92257619Y-66544047D01*
X92257619Y-66163095D02*
X92210000Y-66115476D01*
X92162380Y-66020238D01*
X92162380Y-65782142D01*
X92210000Y-65686904D01*
X92257619Y-65639285D01*
X92352857Y-65591666D01*
X92448095Y-65591666D01*
X92590952Y-65639285D01*
X93162380Y-66210714D01*
X93162380Y-65591666D01*
X92162380Y-64972619D02*
X92162380Y-64877380D01*
X92210000Y-64782142D01*
X92257619Y-64734523D01*
X92352857Y-64686904D01*
X92543333Y-64639285D01*
X92781428Y-64639285D01*
X92971904Y-64686904D01*
X93067142Y-64734523D01*
X93114761Y-64782142D01*
X93162380Y-64877380D01*
X93162380Y-64972619D01*
X93114761Y-65067857D01*
X93067142Y-65115476D01*
X92971904Y-65163095D01*
X92781428Y-65210714D01*
X92543333Y-65210714D01*
X92352857Y-65163095D01*
X92257619Y-65115476D01*
X92210000Y-65067857D01*
X92162380Y-64972619D01*
X92495714Y-63782142D02*
X93162380Y-63782142D01*
X92114761Y-64020238D02*
X92829047Y-64258333D01*
X92829047Y-63639285D01*
X93067142Y-81744047D02*
X93114761Y-81791666D01*
X93162380Y-81934523D01*
X93162380Y-82029761D01*
X93114761Y-82172619D01*
X93019523Y-82267857D01*
X92924285Y-82315476D01*
X92733809Y-82363095D01*
X92590952Y-82363095D01*
X92400476Y-82315476D01*
X92305238Y-82267857D01*
X92210000Y-82172619D01*
X92162380Y-82029761D01*
X92162380Y-81934523D01*
X92210000Y-81791666D01*
X92257619Y-81744047D01*
X92257619Y-81363095D02*
X92210000Y-81315476D01*
X92162380Y-81220238D01*
X92162380Y-80982142D01*
X92210000Y-80886904D01*
X92257619Y-80839285D01*
X92352857Y-80791666D01*
X92448095Y-80791666D01*
X92590952Y-80839285D01*
X93162380Y-81410714D01*
X93162380Y-80791666D01*
X92162380Y-80172619D02*
X92162380Y-80077380D01*
X92210000Y-79982142D01*
X92257619Y-79934523D01*
X92352857Y-79886904D01*
X92543333Y-79839285D01*
X92781428Y-79839285D01*
X92971904Y-79886904D01*
X93067142Y-79934523D01*
X93114761Y-79982142D01*
X93162380Y-80077380D01*
X93162380Y-80172619D01*
X93114761Y-80267857D01*
X93067142Y-80315476D01*
X92971904Y-80363095D01*
X92781428Y-80410714D01*
X92543333Y-80410714D01*
X92352857Y-80363095D01*
X92257619Y-80315476D01*
X92210000Y-80267857D01*
X92162380Y-80172619D01*
X92162380Y-79505952D02*
X92162380Y-78886904D01*
X92543333Y-79220238D01*
X92543333Y-79077380D01*
X92590952Y-78982142D01*
X92638571Y-78934523D01*
X92733809Y-78886904D01*
X92971904Y-78886904D01*
X93067142Y-78934523D01*
X93114761Y-78982142D01*
X93162380Y-79077380D01*
X93162380Y-79363095D01*
X93114761Y-79458333D01*
X93067142Y-79505952D01*
X85260952Y-155932142D02*
X85213333Y-155979761D01*
X85070476Y-156027380D01*
X84975238Y-156027380D01*
X84832380Y-155979761D01*
X84737142Y-155884523D01*
X84689523Y-155789285D01*
X84641904Y-155598809D01*
X84641904Y-155455952D01*
X84689523Y-155265476D01*
X84737142Y-155170238D01*
X84832380Y-155075000D01*
X84975238Y-155027380D01*
X85070476Y-155027380D01*
X85213333Y-155075000D01*
X85260952Y-155122619D01*
X86213333Y-156027380D02*
X85641904Y-156027380D01*
X85927619Y-156027380D02*
X85927619Y-155027380D01*
X85832380Y-155170238D01*
X85737142Y-155265476D01*
X85641904Y-155313095D01*
X86832380Y-155027380D02*
X86927619Y-155027380D01*
X87022857Y-155075000D01*
X87070476Y-155122619D01*
X87118095Y-155217857D01*
X87165714Y-155408333D01*
X87165714Y-155646428D01*
X87118095Y-155836904D01*
X87070476Y-155932142D01*
X87022857Y-155979761D01*
X86927619Y-156027380D01*
X86832380Y-156027380D01*
X86737142Y-155979761D01*
X86689523Y-155932142D01*
X86641904Y-155836904D01*
X86594285Y-155646428D01*
X86594285Y-155408333D01*
X86641904Y-155217857D01*
X86689523Y-155122619D01*
X86737142Y-155075000D01*
X86832380Y-155027380D01*
X88118095Y-156027380D02*
X87546666Y-156027380D01*
X87832380Y-156027380D02*
X87832380Y-155027380D01*
X87737142Y-155170238D01*
X87641904Y-155265476D01*
X87546666Y-155313095D01*
M02*
