M48
; DRILL file {KiCad (5.1.5)-3} date 20/04/2021 11:51:33
; FORMAT={-:-/ absolute / inch / decimal}
; #@! TF.CreationDate,2021-04-20T11:51:33+02:00
; #@! TF.GenerationSoftware,Kicad,Pcbnew,(5.1.5)-3
FMAT,2
INCH
T1C0.0197
T2C0.0295
T3C0.0315
T4C0.0394
T5C0.0787
T6C0.1260
%
G90
G05
T1
X1.75Y-1.2
X1.75Y-1.6
X1.75Y-2.0
X1.75Y-2.4
X1.75Y-2.8
X1.75Y-3.2
X1.75Y-3.6
X1.75Y-4.0
X1.75Y-4.4
X1.75Y-4.8
X1.75Y-5.2
X1.75Y-5.6
X1.75Y-6.0
X1.75Y-6.4
X1.75Y-6.8
X1.75Y-7.3
X2.15Y-1.2
X2.15Y-7.3
X2.55Y-1.2
X2.55Y-7.3
X2.95Y-1.2
X2.95Y-7.3
X3.35Y-1.2
X3.35Y-7.3
X3.75Y-1.2
X3.75Y-7.3
X4.15Y-1.2
X4.15Y-7.3
X4.55Y-1.2
X4.55Y-7.3
X4.85Y-4.375
X4.95Y-1.2
X4.95Y-7.3
X5.5Y-1.2
X5.5Y-1.6
X5.5Y-2.0
X5.5Y-2.4
X5.5Y-2.8
X5.5Y-3.2
X5.5Y-3.6
X5.5Y-4.0
X5.5Y-4.4
X5.5Y-4.8
X5.5Y-5.2
X5.5Y-5.6
X5.5Y-6.0
X5.5Y-6.4
X5.5Y-6.8
X5.5Y-7.3
T2
X3.625Y-4.625
X3.625Y-4.675
X3.625Y-4.725
X3.8Y-4.625
X3.8Y-4.675
X3.8Y-4.725
X3.65Y-6.275
X3.7Y-6.275
X3.75Y-6.275
T3
X3.35Y-2.725
X3.35Y-3.025
X3.45Y-2.725
X3.45Y-3.025
X3.55Y-2.725
X3.55Y-3.025
X3.65Y-2.725
X3.65Y-3.025
X3.75Y-2.725
X3.75Y-3.025
X3.85Y-2.725
X3.85Y-3.025
X3.95Y-2.725
X3.95Y-3.025
X3.95Y-4.075
X3.95Y-4.375
X4.05Y-4.075
X4.05Y-4.375
X4.15Y-4.075
X4.15Y-4.375
X4.25Y-4.075
X4.25Y-4.375
X3.7Y-5.575
X3.7Y-5.6734
X3.0516Y-4.475
X3.15Y-4.475
X2.9516Y-3.925
X3.05Y-3.925
X3.95Y-3.625
X3.95Y-3.925
X3.15Y-5.825
X3.45Y-5.825
X2.8531Y-3.425
X3.05Y-3.425
X3.35Y-3.125
X3.35Y-3.425
X4.35Y-3.025
X4.35Y-3.325
X4.15Y-3.625
X4.15Y-3.925
X5.024Y-3.2766
X5.024Y-3.375
X5.024Y-3.4734
X5.15Y-3.2766
X5.15Y-3.375
X5.15Y-3.4734
X3.55Y-3.125
X3.55Y-3.425
X4.4Y-4.2766
X4.4Y-4.375
X3.65Y-3.625
X3.65Y-3.925
X3.15Y-4.925
X3.45Y-4.925
X3.25Y-3.125
X3.25Y-3.425
X3.85Y-3.625
X3.85Y-3.925
X4.5Y-4.075
X4.5Y-4.375
X3.95Y-6.125
X4.25Y-6.125
X4.25Y-2.525
X4.25Y-2.825
X3.05Y-2.525
X3.05Y-2.825
X3.95Y-5.425
X4.25Y-5.425
X3.4516Y-6.225
X3.55Y-6.225
X3.15Y-5.725
X3.45Y-5.725
X3.65Y-3.125
X3.65Y-3.2234
X4.05Y-4.625
X4.05Y-4.925
X4.25Y-3.425
X4.4469Y-3.425
X3.05Y-3.025
X3.05Y-3.325
X3.85Y-3.125
X3.85Y-3.425
X4.35Y-3.675
X4.35Y-3.775
X4.35Y-3.875
X4.15Y-3.125
X4.15Y-3.425
X4.35Y-2.525
X4.35Y-2.825
X3.15Y-5.925
X3.45Y-5.925
X3.15Y-3.625
X3.15Y-3.925
X3.3516Y-6.125
X3.45Y-6.125
X3.95Y-5.225
X4.25Y-5.225
X3.95Y-6.275
X4.25Y-6.275
X3.15Y-2.525
X3.15Y-2.825
X3.75Y-3.625
X3.75Y-3.925
X2.1Y-3.2766
X2.1Y-3.375
X2.1Y-3.4734
X2.226Y-3.2766
X2.226Y-3.375
X2.226Y-3.4734
X3.95Y-5.725
X4.25Y-5.725
X3.5Y-3.675
X3.5Y-3.775
X3.5Y-3.875
X3.45Y-5.1266
X3.45Y-5.225
X3.15Y-5.025
X3.45Y-5.025
X3.75Y-3.125
X3.75Y-3.425
X3.95Y-5.925
X4.25Y-5.925
X3.8Y-4.0766
X3.8Y-4.175
X3.15Y-6.025
X3.45Y-6.025
X4.7Y-4.825
X4.7Y-5.0219
X3.75Y-2.4281
X3.75Y-2.625
X4.15Y-2.525
X4.15Y-2.825
X3.95Y-3.125
X3.95Y-3.425
X3.2Y-5.525
X3.3Y-5.525
X3.4Y-5.525
X4.15Y-4.625
X4.15Y-4.925
X3.2Y-4.725
X3.3Y-4.725
X3.4Y-4.725
X3.95Y-5.0266
X3.95Y-5.125
X2.95Y-2.525
X2.95Y-2.825
X4.05Y-3.625
X4.05Y-3.925
X3.35Y-3.625
X3.35Y-3.925
X3.15Y-5.325
X3.45Y-5.325
X5.024Y-5.9016
X5.024Y-6.0
X5.024Y-6.0984
X5.15Y-5.9016
X5.15Y-6.0
X5.15Y-6.0984
X2.95Y-2.925
X3.25Y-2.925
X2.95Y-3.025
X2.95Y-3.325
X3.55Y-2.4281
X3.55Y-2.625
X4.05Y-2.925
X4.35Y-2.925
X2.95Y-4.075
X2.95Y-4.375
X3.05Y-4.075
X3.05Y-4.375
X3.15Y-4.075
X3.15Y-4.375
X3.25Y-4.075
X3.25Y-4.375
X3.35Y-4.075
X3.35Y-4.375
X3.45Y-4.075
X3.45Y-4.375
X3.55Y-4.075
X3.55Y-4.375
X3.65Y-4.075
X3.65Y-4.375
X3.95Y-6.025
X4.25Y-6.025
X3.55Y-5.825
X3.55Y-5.925
X3.55Y-6.025
X3.55Y-6.125
X3.85Y-5.825
X3.85Y-5.925
X3.85Y-6.025
X3.85Y-6.125
X3.15Y-3.125
X3.15Y-3.425
X3.25Y-3.625
X3.25Y-3.925
X3.95Y-5.825
X4.25Y-5.825
X3.65Y-2.5266
X3.65Y-2.625
X4.375Y-6.025
X4.4734Y-6.025
X4.25Y-3.025
X4.25Y-3.325
X3.95Y-4.7266
X3.95Y-4.9234
X3.45Y-3.125
X3.45Y-3.425
X4.05Y-3.125
X4.05Y-3.425
X3.55Y-4.825
X3.55Y-4.925
X3.55Y-5.025
X3.55Y-5.125
X3.55Y-5.225
X3.55Y-5.325
X3.55Y-5.425
X3.85Y-4.825
X3.85Y-4.925
X3.85Y-5.025
X3.85Y-5.125
X3.85Y-5.225
X3.85Y-5.325
X3.85Y-5.425
T4
X2.425Y-1.9498
X2.425Y-2.0482
X2.425Y-2.1467
X2.4256Y-4.8248
X2.4256Y-4.9232
X2.4256Y-5.0217
X5.0Y-3.825
X5.0Y-3.925
X5.0Y-4.025
X5.0Y-4.125
X5.0Y-4.225
X4.8244Y-1.9498
X4.8244Y-2.0482
X4.8244Y-2.1467
X2.425Y-5.9033
X2.425Y-6.0018
X2.425Y-6.1002
X4.825Y-4.8248
X4.825Y-4.9232
X4.825Y-5.0217
X4.825Y-2.6498
X4.825Y-2.7482
X4.825Y-2.8467
X2.425Y-2.6498
X2.425Y-2.7482
X2.425Y-2.8467
T5
X2.1494Y-1.875
X2.1494Y-2.2215
X2.15Y-4.75
X2.15Y-5.0965
X5.1Y-1.875
X5.1Y-2.2215
X2.1494Y-5.8285
X2.1494Y-6.175
X5.1006Y-4.75
X5.1006Y-5.0965
X5.1006Y-2.575
X5.1006Y-2.9215
X2.1494Y-2.575
X2.1494Y-2.9215
T6
X1.9Y-7.15
X1.9Y-1.35
X5.35Y-1.35
X5.35Y-7.15
T0
M30
